<svg version="1.1" xmlns="http://www.w3.org/2000/svg" xmlns:xlink="http://www.w3.org/1999/xlink" width="116.62465" height="284.36658" viewBox="0,0,116.62465,284.36658"><g transform="translate(-182.49257,-37.81671)"><g data-paper-data="{&quot;isPaintingLayer&quot;:true}" fill-rule="nonzero" stroke-linejoin="miter" stroke-miterlimit="10" stroke-dasharray="" stroke-dashoffset="0" style="mix-blend-mode: normal"><path d="M291.17289,179.9781c-4.61557,3.83097 -11.46283,3.19494 -15.29381,-1.42062c-3.83097,-4.61557 -3.19494,-11.46283 1.42062,-15.29381c2.66758,-2.21413 6.88174,-5.69806 11.18604,-5.71589c3.14318,-0.01302 6.60136,2.72773 8.21821,4.67572c1.86784,2.25038 3.14652,5.06483 1.94564,8.36751c-1.26213,3.47116 -5.11153,7.42397 -7.47672,9.3871z" data-paper-data="{&quot;index&quot;:null}" fill="#ffcb9d" stroke="#000000" stroke-width="0" stroke-linecap="butt"/><path d="M281.48276,174.83783l-60.69043,42.88931" data-paper-data="{&quot;index&quot;:null}" fill="none" stroke="#040017" stroke-width="22.5" stroke-linecap="round"/><path d="M207.96038,247.41487c-1.33286,2.76974 -4.23739,7.46082 -7.30028,9.52495c-2.91423,1.96395 -5.95436,1.40388 -8.58966,0.13571c-2.28118,-1.09776 -5.7769,-3.79046 -6.52442,-6.84349c-1.02365,-4.18084 1.33771,-9.11246 2.84099,-12.23632c2.60103,-5.40504 9.09123,-7.67814 14.49627,-5.07711c5.40504,2.60103 7.67814,9.09123 5.07711,14.49627z" fill="#ffcb9d" stroke="#000000" stroke-width="0" stroke-linecap="butt"/><path d="M226.2239,167.56361l-26.19786,68.87271" data-paper-data="{&quot;index&quot;:null}" fill="none" stroke="#040017" stroke-width="22.5" stroke-linecap="round"/><path d="M242.22513,307.8413c0,0 0.05597,-18.15688 0.12897,-24.88359c0.08318,-7.66429 0.18848,-17.36653 0.25831,-23.8009c0.1353,-12.46715 0.9124,-24.4982 0.9124,-24.4982" data-paper-data="{&quot;index&quot;:null}" fill="none" stroke="#282828" stroke-width="22.5" stroke-linecap="round"/><path d="M222.72513,306.3413c0,0 0.05597,-14.65688 0.12897,-21.38359c0.08318,-7.66429 0.18848,-17.36653 0.25831,-23.8009c0.1353,-12.46715 0.9124,-24.4982 0.9124,-24.4982" data-paper-data="{&quot;index&quot;:null}" fill="none" stroke="#282828" stroke-width="22.5" stroke-linecap="round"/><path d="M211.78252,227.64669l9.03986,-76.09948l27.66544,-1l7.23189,77.09948c0,0 -4.30624,8.33333 -21.85529,7c-19.04859,-1.44726 -22.08189,-7 -22.08189,-7z" fill="#040017" stroke="#000000" stroke-width="0" stroke-linecap="butt"/><path d="M183.73846,103.01923c0,-29.59843 23.99427,-53.59269 53.59269,-53.59269c29.59843,0 53.59269,23.99427 53.59269,53.59269c0,29.59843 -23.99426,53.59269 -53.59269,53.59269c-29.59843,0 -53.59269,-23.99427 -53.59269,-53.59269z" fill="#ffcb9d" stroke="#000000" stroke-width="0" stroke-linecap="butt"/><path d="M184.80614,114.71382c0,0 -14.58828,-63.50109 29.5,-72.75c6.00601,-1.25995 32.0061,-4.14711 32.0061,-4.14711l2.40004,4.57865c0,0 9.38231,-0.61708 14.9261,0.3656c5.5438,0.98268 13.66775,4.70287 13.66775,4.70287l-4.52308,4.97147c0,0 5.00023,5.15033 7.14704,10.26673c3.58784,8.55076 24.26753,15.56668 15.37604,16.76181c-8.89149,1.19513 -49.30853,0.06051 -74.56824,-8.8056c-14.78081,-5.18804 -12.81928,-3.15254 -15.43011,-2.68515c-13.18649,2.3606 -12.87046,40.69764 -12.87046,40.69764c0,0 -0.76272,-6.626 -4.83619,-2.60858c-3.11169,3.06887 -2.79499,8.65167 -2.79499,8.65167z" fill="#000000" stroke="#000000" stroke-width="0" stroke-linecap="butt"/><path d="M248.06822,139.50859c0,0 -5.33724,1.47603 -9.18373,1.653c-3.43162,0.15789 -9.69476,-0.38816 -9.69476,-0.38816" fill="none" stroke="#000000" stroke-width="4" stroke-linecap="round"/><path d="M227.125,119.5c0,0 0,-11.18766 0,-16.5c0,-5.27067 0,-15.75 0,-15.75" fill="none" stroke="#000000" stroke-width="10" stroke-linecap="round"/><path d="M187.70977,320.13049c0,-4.97056 3.30726,-14 17.66667,-14c14.3594,0 26,4.02944 26,9c0,4.97056 -43.66667,9.97056 -43.66667,5z" fill="#040017" stroke="none" stroke-width="0" stroke-linecap="butt"/><path d="M231.70978,315.13049c0,-4.97057 11.64059,-9 26,-9c14.35941,0 17.66667,9.02943 17.66667,14c0,4.97057 -43.66667,-0.02943 -43.66667,-5z" data-paper-data="{&quot;index&quot;:null}" fill="#040017" stroke="none" stroke-width="0" stroke-linecap="butt"/><path d="M246.79166,119.83334c0,0 0,-11.18766 0,-16.5c0,-5.27067 0,-15.75 0,-15.75" fill="none" stroke="#000000" stroke-width="10" stroke-linecap="round"/></g></g></svg>