<svg version="1.1" xmlns="http://www.w3.org/2000/svg" xmlns:xlink="http://www.w3.org/1999/xlink" width="939.94098" height="384.10071"><g transform="translate(60.94098,-5.89929)"><g data-paper-data="{&quot;isPaintingLayer&quot;:true}" fill="none" fill-rule="nonzero" stroke="none" stroke-width="0" stroke-linecap="butt" stroke-linejoin="miter" stroke-miterlimit="10" stroke-dasharray="" stroke-dashoffset="0" font-family="none" font-weight="none" font-size="none" text-anchor="none" style="mix-blend-mode: normal"><path d="M334.05902,390v-109h544.94098v109z" data-paper-data="{&quot;origPos&quot;:null}" fill="#2c6e3a" stroke="none"/><path d="M-60.94098,385v-109h544.94098v109z" data-paper-data="{&quot;origPos&quot;:null}" fill="#2c6e3a" stroke="none"/><path d="M11,172.89929l112,-114l115.05902,114z" data-paper-data="{&quot;origPos&quot;:null}" fill="#594024" stroke="none"/><path d="M112.05902,25.39929c0,10.76955 -14.32689,19.5 -32,19.5c-17.67311,0 -32,-8.73045 -32,-19.5c0,-10.76955 14.32689,-19.5 32,-19.5c17.67311,0 32,8.73045 32,19.5z" data-paper-data="{&quot;origPos&quot;:null}" fill="#dcdcdc" stroke="#000000"/><path d="M130.05902,39.39929c0,10.76955 -14.32689,19.5 -32,19.5c-17.67311,0 -32,-8.73044 -32,-19.5c0,-10.76956 14.32689,-19.5 32,-19.5c17.67311,0 32,8.73044 32,19.5z" data-paper-data="{&quot;origPos&quot;:null}" fill="#dcdcdc" stroke="#000000"/><path d="M96.05902,41.39929c0,10.76955 -14.32689,19.5 -32,19.5c-17.67311,0 -32,-8.73044 -32,-19.5c0,-10.76956 14.32689,-19.5 32,-19.5c17.67311,0 32,8.73044 32,19.5z" data-paper-data="{&quot;origPos&quot;:null}" fill="#dcdcdc" stroke="#000000"/><path d="M378.05902,28.39929c0,10.76956 -14.32689,19.5 -32,19.5c-17.67311,0 -32,-8.73045 -32,-19.5c0,-10.76956 14.32689,-19.5 32,-19.5c17.67311,0 32,8.73044 32,19.5z" data-paper-data="{&quot;origPos&quot;:null}" fill="#dcdcdc" stroke="#000000"/><path d="M396.05902,42.39929c0,10.76955 -14.32689,19.5 -32,19.5c-17.67311,0 -32,-8.73044 -32,-19.5c0,-10.76956 14.32689,-19.5 32,-19.5c17.67311,0 32,8.73044 32,19.5z" data-paper-data="{&quot;origPos&quot;:null}" fill="#dcdcdc" stroke="#000000"/><path d="M362.05902,44.39929c0,10.76955 -14.32689,19.5 -32,19.5c-17.67311,0 -32,-8.73044 -32,-19.5c0,-10.76956 14.32689,-19.5 32,-19.5c17.67311,0 32,8.73044 32,19.5z" data-paper-data="{&quot;origPos&quot;:null}" fill="#dcdcdc" stroke="#000000"/><path d="M14.05902,313.89929v-144h221v144z" data-paper-data="{&quot;origPos&quot;:null}" fill="#886237" stroke="none"/><path d="M126,61.89929l17,-1l134.05902,92c0,0 -37.77515,17.71373 -43.3917,14.33024c-16.84964,-10.15045 -107.66732,-105.33024 -107.66732,-105.33024z" data-paper-data="{&quot;origPos&quot;:null}" fill="#553d22" stroke="none"/><path d="M229.05902,314.89929v-150.49704l48,-11.50296l4,162z" data-paper-data="{&quot;origPos&quot;:null}" fill="#6d4f2c" stroke="none"/><path d="M348,169.89929l112,-114l115.05902,114z" data-paper-data="{&quot;origPos&quot;:null}" fill="#594024" stroke="none"/><path d="M351.05902,310.89929v-144h221v144z" data-paper-data="{&quot;origPos&quot;:null}" fill="#886237" stroke="none"/><path d="M463,58.89929l17,-1l134.05902,92c0,0 -37.77515,17.71373 -43.3917,14.33024c-16.84964,-10.15045 -107.66732,-105.33024 -107.66732,-105.33024z" data-paper-data="{&quot;origPos&quot;:null}" fill="#553d22" stroke="none"/><path d="M566.05902,311.89929v-150.49704l48,-11.50296l4,162z" data-paper-data="{&quot;origPos&quot;:null}" fill="#6d4f2c" stroke="none"/></g></g></svg>