<svg version="1.1" xmlns="http://www.w3.org/2000/svg" xmlns:xlink="http://www.w3.org/1999/xlink" width="105.89882" height="260.66547"><defs><linearGradient x1="243.80754" y1="55.25904" x2="243.80754" y2="157.15785" gradientUnits="userSpaceOnUse" id="color-1"><stop offset="0" stop-color="#daad85"/><stop offset="1" stop-color="#ffca9c"/></linearGradient></defs><g transform="translate(-190.85813,-46.50532)"><g data-paper-data="{&quot;isPaintingLayer&quot;:true}" fill="none" fill-rule="nonzero" stroke="none" stroke-width="none" stroke-linecap="butt" stroke-linejoin="miter" stroke-miterlimit="10" stroke-dasharray="" stroke-dashoffset="0" font-family="none" font-weight="none" font-size="none" text-anchor="none" style="mix-blend-mode: normal"><g data-paper-data="{&quot;origPos&quot;:null,&quot;origRot&quot;:0}" stroke="#000000" stroke-width="4"><path d="M250.92963,223.05959l-7.74328,-64.6738l21.35904,-4.78963l7.74329,64.67379z" data-paper-data="{&quot;origRot&quot;:0,&quot;origPos&quot;:null}" fill="#474747"/><path d="M272.63611,232.93547c-2.80504,6.45445 -9.69666,9.61627 -15.39296,7.06211c-5.69628,-2.55416 -8.04011,-9.85708 -5.23508,-16.31152c2.80504,-6.45445 9.69667,-9.61626 15.39297,-7.06211c5.69629,2.55417 8.04011,9.85708 5.23508,16.31152z" data-paper-data="{&quot;origPos&quot;:null}" fill="#daad85"/></g><g data-paper-data="{&quot;origPos&quot;:null,&quot;origRot&quot;:0}" fill="#222222" stroke="#000000" stroke-width="4"><path d="M250.35651,291.70655l-4.96492,-69.64659l18.94797,-1.35074l4.96492,69.64659z" data-paper-data="{&quot;origPos&quot;:null}"/><path d="M251.48438,300.63365c-4.72144,-6.03606 -0.91122,-13.79109 8.51035,-17.32134c9.42157,-3.53027 20.88672,-1.4989 25.60815,4.53715c4.72144,6.03606 0.91122,13.79109 -8.51035,17.32134c-9.42157,3.53027 -20.88672,1.4989 -25.60815,-4.53715z" data-paper-data="{&quot;origPos&quot;:null,&quot;origRot&quot;:0}"/></g><g data-paper-data="{&quot;origPos&quot;:null,&quot;origRot&quot;:0}" fill="#222222" stroke="#000000" stroke-width="4"><path d="M240.30549,290.86001l-14.46153,-68.3093l18.58418,-3.93437l14.46153,68.3093z" data-paper-data="{&quot;origPos&quot;:null}"/><path d="M236.97558,295.28517c-0.70272,-6.95447 7.23423,-13.98489 17.72769,-15.70291c10.49345,-1.71804 19.5697,2.52693 20.27241,9.48141c0.70272,6.95447 -7.23423,13.98489 -17.72769,15.70291c-10.49345,1.71804 -19.5697,-2.52693 -20.27241,-9.48141z" data-paper-data="{&quot;origPos&quot;:null}"/></g><path d="M293.80325,72.44321c0,14.3251 -21.98135,25.93789 -49.09671,25.93789c-27.11536,0 -49.09671,-11.61278 -49.09671,-25.93789c0,-14.3251 21.98135,-25.93789 49.09671,-25.93789c27.11536,0 49.09671,11.61278 49.09671,25.93789z" data-paper-data="{&quot;origPos&quot;:null}" fill="#000000" stroke="none" stroke-width="0"/><path d="M219.36054,225.4813v-73.93059h46.20662v73.93059z" data-paper-data="{&quot;origPos&quot;:null}" fill="#474747" stroke="#000000" stroke-width="4"/><path d="M192.85813,106.20845c0,-28.13858 22.81083,-50.94941 50.94941,-50.94941c28.13858,0 50.94941,22.81083 50.94941,50.94941c0,28.13858 -22.81082,50.94941 -50.94941,50.94941c-28.13858,0 -50.94941,-22.81083 -50.94941,-50.94941z" data-paper-data="{&quot;origPos&quot;:null}" fill="url(#color-1)" stroke="#000000" stroke-width="4"/><path d="M264.69102,97.21251c0,-6.13932 4.97692,-11.11623 11.11624,-11.11623c6.13932,0 11.11623,4.97692 11.11623,11.11623c0,6.13932 -4.97692,11.11624 -11.11623,11.11624c-6.13932,0 -11.11624,-4.97692 -11.11624,-11.11624z" data-paper-data="{&quot;origPos&quot;:null}" fill="#ffffff" stroke="#ffffff" stroke-width="4"/><path d="M234.17375,97.28617c0,-6.13932 4.97692,-11.11624 11.11623,-11.11624c6.13932,0 11.11623,4.97692 11.11623,11.11624c0,6.13932 -4.97692,11.11623 -11.11623,11.11623c-6.13932,0 -11.11623,-4.97692 -11.11623,-11.11623z" data-paper-data="{&quot;origPos&quot;:null}" fill="#ffffff" stroke="#ffffff" stroke-width="4"/><g data-paper-data="{&quot;origPos&quot;:null,&quot;origRot&quot;:0}" stroke="#000000" stroke-width="4"><path d="M217.89186,226.41829l1.72425,-67.31136l23.61178,0.50209l-1.72425,67.31137z" data-paper-data="{&quot;origRot&quot;:0,&quot;origPos&quot;:null}" fill="#474747"/><path d="M219.02531,241.39404c-3.7005,-5.98641 -1.91528,-13.8875 3.98741,-17.64761c5.90269,-3.76011 13.68759,-1.95535 17.38809,4.03106c3.7005,5.98641 1.91527,13.8875 -3.98741,17.64761c-5.90269,3.76011 -13.68758,1.95535 -17.38808,-4.03106z" data-paper-data="{&quot;origPos&quot;:null}" fill="#daad85"/></g><path d="M279.27115,129.9683c0.23084,2.03139 -1.53541,2.47325 -1.9526,2.54892c-1.42911,1.07472 -2.91266,2.16074 -4.59951,2.776c-4.9044,1.78882 -11.46549,0.25802 -16.45625,-0.45495c0,0 -2.2926,-0.32751 -1.96509,-2.62011c0.32752,-2.2926 2.62011,-1.96509 2.62011,-1.96509c4.5666,0.65237 10.54021,2.09805 15.03975,0.47142c0.96653,-0.34942 2.28587,-1.69196 3.1598,-2.34739l1.59122,-0.44837c0,0 2.30107,-0.26148 2.56256,2.0396z" data-paper-data="{&quot;origPos&quot;:null}" fill="#000000" stroke="none" stroke-width="0.5"/><path d="M238.99832,99.41374c0,-4.6045 3.73267,-8.33717 8.33717,-8.33717c4.6045,0 8.33717,3.73267 8.33717,8.33717c0,4.6045 -3.73267,8.33718 -8.33717,8.33718c-4.6045,0 -8.33717,-3.73268 -8.33717,-8.33718z" data-paper-data="{&quot;origPos&quot;:null}" fill="#000000" stroke="#ffffff" stroke-width="0"/><path d="M270.63025,99.37691c0,-4.6045 3.73267,-8.33717 8.33717,-8.33717c4.6045,0 8.33717,3.73267 8.33717,8.33717c0,4.6045 -3.73267,8.33717 -8.33717,8.33717c-4.6045,0 -8.33717,-3.73267 -8.33717,-8.33717z" data-paper-data="{&quot;origPos&quot;:null}" fill="#000000" stroke="#ffffff" stroke-width="0"/></g></g></svg>