<svg version="1.1" xmlns="http://www.w3.org/2000/svg" xmlns:xlink="http://www.w3.org/1999/xlink" width="112.38813" height="258.34992" viewBox="0,0,112.38813,258.34992"><defs><linearGradient x1="243.80756" y1="55.25911" x2="243.80756" y2="157.15787" gradientUnits="userSpaceOnUse" id="color-1"><stop offset="0" stop-color="#daad85"/><stop offset="1" stop-color="#ffca9c"/></linearGradient></defs><g transform="translate(-187.60253,-46.50532)"><g data-paper-data="{&quot;isPaintingLayer&quot;:true}" fill="none" fill-rule="nonzero" stroke="none" stroke-width="none" stroke-linecap="butt" stroke-linejoin="miter" stroke-miterlimit="10" stroke-dasharray="" stroke-dashoffset="0" font-family="none" font-weight="none" font-size="none" text-anchor="none" style="mix-blend-mode: normal"><g data-paper-data="{&quot;origPos&quot;:null,&quot;origRot&quot;:0}" stroke="#000000" stroke-width="4"><path d="M274.30012,225.06265l-27.23296,-59.16947l18.85554,-11.11835l27.23296,59.16945z" data-paper-data="{&quot;origRot&quot;:0,&quot;origPos&quot;:null}" fill="#474747"/><path d="M297.99066,227.79425c-0.68703,7.00402 -6.27442,12.1297 -12.47987,11.44857c-6.20543,-0.68114 -10.679,-6.91118 -9.99198,-13.91519c0.68703,-7.00401 6.27443,-12.12969 12.47988,-11.44856c6.20544,0.68115 10.67899,6.91118 9.99197,13.91518z" data-paper-data="{&quot;origPos&quot;:null}" fill="#daad85"/></g><g data-paper-data="{&quot;origPos&quot;:null,&quot;origRot&quot;:0}" fill="#222222" stroke="#000000" stroke-width="4"><path d="M222.00383,279.549l24.06819,-65.54403l17.83183,6.54797l-24.06819,65.54403z" data-paper-data="{&quot;origPos&quot;:null}"/><path d="M219.36698,288.15202c-1.82686,-7.44235 4.83144,-12.9492 14.87171,-12.29988c10.04028,0.6493 19.66046,7.20888 21.48732,14.65122c1.82686,7.44235 -4.83144,12.9492 -14.87171,12.29988c-10.04028,-0.6493 -19.66046,-7.20888 -21.48732,-14.65122z" data-paper-data="{&quot;origPos&quot;:null,&quot;origRot&quot;:0}"/></g><g data-paper-data="{&quot;origPos&quot;:null,&quot;origRot&quot;:0}" fill="#222222" stroke="#000000" stroke-width="4"><path d="M257.70743,286.44858l-34.92992,-60.45822l16.44823,-9.50298l34.92992,60.45822z" data-paper-data="{&quot;origPos&quot;:null}"/><path d="M255.91379,291.68818c-2.82451,-6.3938 2.54127,-15.53876 11.98479,-20.4259c9.44351,-4.88714 19.38868,-3.66574 22.21318,2.72806c2.82451,6.3938 -2.54127,15.53876 -11.98479,20.4259c-9.44351,4.88714 -19.38868,3.66574 -22.21318,-2.72806z" data-paper-data="{&quot;origPos&quot;:null}"/></g><path d="M293.80326,72.44321c0,14.3251 -21.98135,25.93789 -49.09671,25.93789c-27.11536,0 -49.09671,-11.61278 -49.09671,-25.93789c0,-14.3251 21.98135,-25.93789 49.09671,-25.93789c27.11536,0 49.09671,11.61278 49.09671,25.93789z" data-paper-data="{&quot;origPos&quot;:null}" fill="#000000" stroke="none" stroke-width="0"/><path d="M219.36056,225.48135v-73.93059h46.20662v73.93059z" data-paper-data="{&quot;origPos&quot;:null}" fill="#474747" stroke="#000000" stroke-width="4"/><path d="M192.85815,106.20852c0,-28.13858 22.81083,-50.94941 50.94941,-50.94941c28.13858,0 50.94941,22.81083 50.94941,50.94941c0,28.13858 -22.81082,50.94941 -50.94941,50.94941c-28.13858,0 -50.94941,-22.81083 -50.94941,-50.94941z" data-paper-data="{&quot;origPos&quot;:null}" fill="url(#color-1)" stroke="#000000" stroke-width="4"/><path d="M264.69104,97.21258c0,-6.13932 4.97692,-11.11623 11.11624,-11.11623c6.13932,0 11.11623,4.97692 11.11623,11.11623c0,6.13932 -4.97692,11.11624 -11.11623,11.11624c-6.13932,0 -11.11624,-4.97692 -11.11624,-11.11624z" data-paper-data="{&quot;origPos&quot;:null}" fill="#ffffff" stroke="#ffffff" stroke-width="4"/><path d="M234.17378,97.28624c0,-6.13932 4.97692,-11.11624 11.11623,-11.11624c6.13932,0 11.11623,4.97692 11.11623,11.11624c0,6.13932 -4.97692,11.11623 -11.11623,11.11623c-6.13932,0 -11.11623,-4.97692 -11.11623,-11.11623z" data-paper-data="{&quot;origPos&quot;:null}" fill="#ffffff" stroke="#ffffff" stroke-width="4"/><g data-paper-data="{&quot;origPos&quot;:null,&quot;origRot&quot;:0}" stroke="#000000" stroke-width="4"><path d="M194.18724,215.19661l25.98809,-62.11611l21.82658,9.02044l-25.98809,62.11612z" data-paper-data="{&quot;origRot&quot;:0,&quot;origPos&quot;:null}" fill="#474747"/><path d="M189.81934,229.566c-1.28088,-6.92027 3.24498,-13.63822 10.10881,-15.00498c6.86383,-1.36676 13.4664,3.13523 14.74728,10.05549c1.28088,6.92027 -3.24499,13.63822 -10.10881,15.00498c-6.86383,1.36676 -13.46639,-3.13522 -14.74727,-10.05549z" data-paper-data="{&quot;origPos&quot;:null}" fill="#daad85"/></g><path d="M279.27117,129.9683c0.23084,2.03139 -1.53541,2.47325 -1.9526,2.54892c-1.42911,1.07472 -2.91266,2.16074 -4.59951,2.776c-4.9044,1.78882 -11.46549,0.25802 -16.45625,-0.45495c0,0 -2.2926,-0.32751 -1.96509,-2.62011c0.32752,-2.2926 2.62011,-1.96509 2.62011,-1.96509c4.5666,0.65237 10.54021,2.09805 15.03975,0.47142c0.96653,-0.34942 2.28587,-1.69196 3.1598,-2.34739l1.59122,-0.44837c0,0 2.30107,-0.26148 2.56256,2.0396z" data-paper-data="{&quot;origPos&quot;:null}" fill="#000000" stroke="none" stroke-width="0.5"/><path d="M238.99836,99.41381c0,-4.6045 3.73267,-8.33717 8.33717,-8.33717c4.6045,0 8.33717,3.73267 8.33717,8.33717c0,4.6045 -3.73267,8.33718 -8.33717,8.33718c-4.6045,0 -8.33717,-3.73268 -8.33717,-8.33718z" data-paper-data="{&quot;origPos&quot;:null}" fill="#000000" stroke="#ffffff" stroke-width="0"/><path d="M270.63026,99.37698c0,-4.6045 3.73267,-8.33717 8.33717,-8.33717c4.6045,0 8.33717,3.73267 8.33717,8.33717c0,4.6045 -3.73267,8.33717 -8.33717,8.33717c-4.6045,0 -8.33717,-3.73267 -8.33717,-8.33717z" data-paper-data="{&quot;origPos&quot;:null}" fill="#000000" stroke="#ffffff" stroke-width="0"/></g></g></svg>