<svg version="1.1" xmlns="http://www.w3.org/2000/svg" xmlns:xlink="http://www.w3.org/1999/xlink" width="118.45743" height="263.57031" viewBox="0,0,118.45743,263.57031"><defs><linearGradient x1="243.80752" y1="55.25901" x2="243.80752" y2="157.15783" gradientUnits="userSpaceOnUse" id="color-1"><stop offset="0" stop-color="#daad85"/><stop offset="1" stop-color="#ffca9c"/></linearGradient></defs><g transform="translate(-184.75786,-46.50531)"><g data-paper-data="{&quot;isPaintingLayer&quot;:true}" fill="none" fill-rule="nonzero" stroke="none" stroke-width="none" stroke-linecap="butt" stroke-linejoin="miter" stroke-miterlimit="10" stroke-dasharray="" stroke-dashoffset="0" font-family="none" font-weight="none" font-size="none" text-anchor="none" style="mix-blend-mode: normal"><g data-paper-data="{&quot;origPos&quot;:null,&quot;origRot&quot;:0}" fill="#222222" stroke="#000000" stroke-width="4"><path d="M203.2764,286.83164l17.29391,-67.64774l18.40418,4.70498l-17.29391,67.64774z" data-paper-data="{&quot;origPos&quot;:null}"/><path d="M198.33076,289.32388c2.45063,-6.54621 12.68067,-9.33338 22.84946,-6.22533c10.16879,3.10803 16.42555,10.93434 13.97492,17.48055c-2.45063,6.54621 -12.68067,9.33338 -22.84946,6.22533c-10.16879,-3.10803 -16.42555,-10.93434 -13.97492,-17.48055z" data-paper-data="{&quot;origPos&quot;:null}"/></g><g data-paper-data="{&quot;origPos&quot;:null,&quot;origRot&quot;:0}" fill="#222222" stroke="#000000" stroke-width="4"><path d="M264.17794,294.18503l-18.70891,-67.27016l18.30144,-5.08992l18.70891,67.27016z" data-paper-data="{&quot;origPos&quot;:null}"/><path d="M267.05766,302.70983c-5.82697,-4.97719 -3.63417,-13.33482 4.89774,-18.66727c8.53191,-5.33247 20.17207,-5.62047 25.99902,-0.64328c5.82697,4.97719 3.63417,13.33482 -4.89774,18.66727c-8.53191,5.33247 -20.17207,5.62047 -25.99902,0.64328z" data-paper-data="{&quot;origPos&quot;:null,&quot;origRot&quot;:0}"/></g><g data-paper-data="{&quot;origPos&quot;:null,&quot;origRot&quot;:0}" stroke="#000000" stroke-width="4"><path d="M276.16677,225.76165l-28.27053,-58.6808l18.65686,-11.44861l28.27053,58.68079z" data-paper-data="{&quot;origRot&quot;:0,&quot;origPos&quot;:null}" fill="#474747"/><path d="M299.90175,228.07568c-0.5636,7.01502 -6.05988,12.23829 -12.27636,11.66651c-6.21646,-0.57178 -10.79902,-6.72209 -10.23542,-13.7371c0.5636,-7.01502 6.05989,-12.23829 12.27637,-11.66652c6.21647,0.57178 10.79902,6.72209 10.23542,13.7371z" data-paper-data="{&quot;origPos&quot;:null}" fill="#daad85"/></g><path d="M219.36053,225.48126v-73.93059h46.20662v73.93059z" data-paper-data="{&quot;origPos&quot;:null}" fill="#474747" stroke="#000000" stroke-width="4"/><g data-paper-data="{&quot;origPos&quot;:null,&quot;origRot&quot;:0}" stroke="#000000" stroke-width="4"><path d="M191.14039,215.27881l24.93307,-62.54706l21.97613,8.64974l-24.93307,62.54707z" data-paper-data="{&quot;origRot&quot;:0,&quot;origPos&quot;:null}" fill="#474747"/><path d="M187.01633,229.72007c-1.39782,-6.8976 3.01369,-13.69119 9.85341,-15.17393c6.83972,-1.48274 13.51753,2.90686 14.91535,9.80446c1.39782,6.8976 -3.0137,13.69119 -9.85341,15.17393c-6.83972,1.48274 -13.51752,-2.90686 -14.91534,-9.80446z" data-paper-data="{&quot;origPos&quot;:null}" fill="#daad85"/></g><path d="M293.80325,72.4432c0,14.3251 -21.98135,25.93789 -49.09671,25.93789c-27.11536,0 -49.09671,-11.61278 -49.09671,-25.93789c0,-14.3251 21.98135,-25.93789 49.09671,-25.93789c27.11536,0 49.09671,11.61278 49.09671,25.93789z" data-paper-data="{&quot;origPos&quot;:null}" fill="#000000" stroke="none" stroke-width="0"/><path d="M192.85811,106.20841c0,-28.13858 22.81083,-50.94941 50.94941,-50.94941c28.13858,0 50.94941,22.81083 50.94941,50.94941c0,28.13858 -22.81082,50.94941 -50.94941,50.94941c-28.13858,0 -50.94941,-22.81083 -50.94941,-50.94941z" data-paper-data="{&quot;origPos&quot;:null}" fill="url(#color-1)" stroke="#000000" stroke-width="4"/><path d="M279.27114,129.96828c0.23084,2.03139 -1.53541,2.47325 -1.9526,2.54892c-1.42911,1.07472 -2.91266,2.16074 -4.59951,2.776c-4.9044,1.78882 -11.46549,0.25802 -16.45625,-0.45495c0,0 -2.2926,-0.32751 -1.96509,-2.62011c0.32752,-2.2926 2.62011,-1.96509 2.62011,-1.96509c4.5666,0.65237 10.54021,2.09805 15.03975,0.47142c0.96653,-0.34942 2.28587,-1.69196 3.1598,-2.34739l1.59122,-0.44837c0,0 2.30107,-0.26148 2.56256,2.0396z" data-paper-data="{&quot;origPos&quot;:null}" fill="#000000" stroke="none" stroke-width="0.5"/><path d="M264.69101,97.21248c0,-6.13932 4.97692,-11.11623 11.11624,-11.11623c6.13932,0 11.11623,4.97692 11.11623,11.11623c0,6.13932 -4.97692,11.11624 -11.11623,11.11624c-6.13932,0 -11.11624,-4.97692 -11.11624,-11.11624z" data-paper-data="{&quot;origPos&quot;:null}" fill="#ffffff" stroke="#ffffff" stroke-width="4"/><path d="M270.63026,99.37688c0,-4.6045 3.73267,-8.33717 8.33717,-8.33717c4.6045,0 8.33717,3.73267 8.33717,8.33717c0,4.6045 -3.73267,8.33717 -8.33717,8.33717c-4.6045,0 -8.33717,-3.73267 -8.33717,-8.33717z" data-paper-data="{&quot;origPos&quot;:null}" fill="#000000" stroke="#ffffff" stroke-width="0"/><path d="M234.17372,97.28613c0,-6.13932 4.97692,-11.11624 11.11623,-11.11624c6.13932,0 11.11623,4.97692 11.11623,11.11624c0,6.13932 -4.97692,11.11623 -11.11623,11.11623c-6.13932,0 -11.11623,-4.97692 -11.11623,-11.11623z" data-paper-data="{&quot;origPos&quot;:null}" fill="#ffffff" stroke="#ffffff" stroke-width="4"/><path d="M238.99829,99.4137c0,-4.6045 3.73267,-8.33717 8.33717,-8.33717c4.6045,0 8.33717,3.73267 8.33717,8.33717c0,4.6045 -3.73267,8.33718 -8.33717,8.33718c-4.6045,0 -8.33717,-3.73268 -8.33717,-8.33718z" data-paper-data="{&quot;origPos&quot;:null}" fill="#000000" stroke="#ffffff" stroke-width="0"/></g></g></svg>