<svg version="1.1" xmlns="http://www.w3.org/2000/svg" xmlns:xlink="http://www.w3.org/1999/xlink" width="105.89882" height="258.99723"><defs><linearGradient x1="243.80756" y1="55.25908" x2="243.80756" y2="157.15787" gradientUnits="userSpaceOnUse" id="color-1"><stop offset="0" stop-color="#daad85"/><stop offset="1" stop-color="#ffca9c"/></linearGradient></defs><g transform="translate(-190.85814,-46.50532)"><g data-paper-data="{&quot;isPaintingLayer&quot;:true}" fill="none" fill-rule="nonzero" stroke="none" stroke-width="none" stroke-linecap="butt" stroke-linejoin="miter" stroke-miterlimit="10" stroke-dasharray="" stroke-dashoffset="0" font-family="none" font-weight="none" font-size="none" text-anchor="none" style="mix-blend-mode: normal"><g data-paper-data="{&quot;origPos&quot;:null,&quot;origRot&quot;:0}" stroke="#000000" stroke-width="4"><path d="M268.80362,226.09385l-21.79998,-61.37932l19.77925,-9.37713l21.79998,61.3793z" data-paper-data="{&quot;origRot&quot;:0,&quot;origPos&quot;:null}" fill="#474747"/><path d="M292.1524,230.94544c-1.31429,6.91382 -7.34011,11.51611 -13.45913,10.27953c-6.119,-1.23659 -10.01401,-7.84379 -8.69973,-14.7576c1.31429,-6.91381 7.34012,-11.5161 13.45914,-10.27952c6.11901,1.2366 10.014,7.84379 8.69972,14.75759z" data-paper-data="{&quot;origPos&quot;:null}" fill="#daad85"/></g><g data-paper-data="{&quot;origPos&quot;:null,&quot;origRot&quot;:0}" fill="#222222" stroke="#000000" stroke-width="4"><path d="M232.84301,283.73125l12.7588,-68.64773l18.67622,3.47115l-12.7588,68.64773z" data-paper-data="{&quot;origPos&quot;:null}"/><path d="M231.68322,292.65426c-3.04669,-7.03162 2.59602,-13.57517 12.60335,-14.61542c10.00733,-1.04027 20.58967,3.81669 23.63636,10.8483c3.04669,7.03162 -2.59602,13.57517 -12.60335,14.61542c-10.00733,1.04027 -20.58967,-3.81669 -23.63636,-10.8483z" data-paper-data="{&quot;origPos&quot;:null,&quot;origRot&quot;:0}"/></g><g data-paper-data="{&quot;origPos&quot;:null,&quot;origRot&quot;:0}" fill="#222222" stroke="#000000" stroke-width="4"><path d="M252.47572,290.17562l-26.07033,-64.77371l17.6223,-7.09265l26.07033,64.77371z" data-paper-data="{&quot;origPos&quot;:null}"/><path d="M249.96228,295.1105c-1.89622,-6.72777 4.7036,-15.02622 14.74111,-18.53516c10.0375,-3.50895 19.71165,-0.89957 21.60786,5.8282c1.89622,6.72777 -4.7036,15.02622 -14.74111,18.53516c-10.0375,3.50895 -19.71165,0.89957 -21.60786,-5.8282z" data-paper-data="{&quot;origPos&quot;:null}"/></g><path d="M293.80326,72.44321c0,14.3251 -21.98135,25.93789 -49.09671,25.93789c-27.11536,0 -49.09671,-11.61278 -49.09671,-25.93789c0,-14.3251 21.98135,-25.93789 49.09671,-25.93789c27.11536,0 49.09671,11.61278 49.09671,25.93789z" data-paper-data="{&quot;origPos&quot;:null}" fill="#000000" stroke="none" stroke-width="0"/><path d="M219.36056,225.48134v-73.93059h46.20662v73.93059z" data-paper-data="{&quot;origPos&quot;:null}" fill="#474747" stroke="#000000" stroke-width="4"/><path d="M192.85815,106.20849c0,-28.13858 22.81083,-50.94941 50.94941,-50.94941c28.13858,0 50.94941,22.81083 50.94941,50.94941c0,28.13858 -22.81082,50.94941 -50.94941,50.94941c-28.13858,0 -50.94941,-22.81083 -50.94941,-50.94941z" data-paper-data="{&quot;origPos&quot;:null}" fill="url(#color-1)" stroke="#000000" stroke-width="4"/><path d="M264.69104,97.21255c0,-6.13932 4.97692,-11.11623 11.11624,-11.11623c6.13932,0 11.11623,4.97692 11.11623,11.11623c0,6.13932 -4.97692,11.11624 -11.11623,11.11624c-6.13932,0 -11.11624,-4.97692 -11.11624,-11.11624z" data-paper-data="{&quot;origPos&quot;:null}" fill="#ffffff" stroke="#ffffff" stroke-width="4"/><path d="M234.17378,97.28621c0,-6.13932 4.97692,-11.11624 11.11623,-11.11624c6.13932,0 11.11623,4.97692 11.11623,11.11624c0,6.13932 -4.97692,11.11623 -11.11623,11.11623c-6.13932,0 -11.11623,-4.97692 -11.11623,-11.11623z" data-paper-data="{&quot;origPos&quot;:null}" fill="#ffffff" stroke="#ffffff" stroke-width="4"/><g data-paper-data="{&quot;origPos&quot;:null,&quot;origRot&quot;:0}" stroke="#000000" stroke-width="4"><path d="M206.49668,222.2722l11.9853,-66.25817l23.25803,4.10271l-11.9853,66.25818z" data-paper-data="{&quot;origRot&quot;:0,&quot;origPos&quot;:null}" fill="#474747"/><path d="M205.3294,237.24534c-2.7427,-6.48139 0.2284,-14.01709 6.63616,-16.83149c6.40776,-2.8144 13.82565,0.15827 16.56835,6.63965c2.7427,6.48139 -0.22841,14.01709 -6.63616,16.83149c-6.40776,2.8144 -13.82564,-0.15826 -16.56834,-6.63965z" data-paper-data="{&quot;origPos&quot;:null}" fill="#daad85"/></g><path d="M279.27117,129.9683c0.23084,2.03139 -1.53541,2.47325 -1.9526,2.54892c-1.42911,1.07472 -2.91266,2.16074 -4.59951,2.776c-4.9044,1.78882 -11.46549,0.25802 -16.45625,-0.45495c0,0 -2.2926,-0.32751 -1.96509,-2.62011c0.32752,-2.2926 2.62011,-1.96509 2.62011,-1.96509c4.5666,0.65237 10.54021,2.09805 15.03975,0.47142c0.96653,-0.34942 2.28587,-1.69196 3.1598,-2.34739l1.59122,-0.44837c0,0 2.30107,-0.26148 2.56256,2.0396z" data-paper-data="{&quot;origPos&quot;:null}" fill="#000000" stroke="none" stroke-width="0.5"/><path d="M238.99836,99.41378c0,-4.6045 3.73267,-8.33717 8.33717,-8.33717c4.6045,0 8.33717,3.73267 8.33717,8.33717c0,4.6045 -3.73267,8.33718 -8.33717,8.33718c-4.6045,0 -8.33717,-3.73268 -8.33717,-8.33718z" data-paper-data="{&quot;origPos&quot;:null}" fill="#000000" stroke="#ffffff" stroke-width="0"/><path d="M270.63026,99.37695c0,-4.6045 3.73267,-8.33717 8.33717,-8.33717c4.6045,0 8.33717,3.73267 8.33717,8.33717c0,4.6045 -3.73267,8.33717 -8.33717,8.33717c-4.6045,0 -8.33717,-3.73267 -8.33717,-8.33717z" data-paper-data="{&quot;origPos&quot;:null}" fill="#000000" stroke="#ffffff" stroke-width="0"/></g></g></svg>