<svg version="1.1" xmlns="http://www.w3.org/2000/svg" xmlns:xlink="http://www.w3.org/1999/xlink" width="105.89882" height="264.16416"><defs><linearGradient x1="243.80752" y1="55.25901" x2="243.80752" y2="157.15783" gradientUnits="userSpaceOnUse" id="color-1"><stop offset="0" stop-color="#daad85"/><stop offset="1" stop-color="#ffca9c"/></linearGradient></defs><g transform="translate(-190.85811,-46.50531)"><g data-paper-data="{&quot;isPaintingLayer&quot;:true}" fill="none" fill-rule="nonzero" stroke="none" stroke-width="none" stroke-linecap="butt" stroke-linejoin="miter" stroke-miterlimit="10" stroke-dasharray="" stroke-dashoffset="0" font-family="none" font-weight="none" font-size="none" text-anchor="none" style="mix-blend-mode: normal"><g data-paper-data="{&quot;origPos&quot;:null,&quot;origRot&quot;:0}" stroke="#000000" stroke-width="4"><path d="M264.16645,224.79645l-19.66455,-62.09641l20.09166,-8.68759l19.66456,62.0964z" data-paper-data="{&quot;origRot&quot;:0,&quot;origPos&quot;:null}" fill="#474747"/><path d="M287.33353,230.45248c-1.55257,6.86423 -7.73392,11.25541 -13.80652,9.80798c-6.07258,-1.44744 -9.73679,-8.18537 -8.18423,-15.04959c1.55257,-6.86423 7.73393,-11.25541 13.80653,-9.80798c6.07259,1.44744 9.73679,8.18537 8.18423,15.04959z" data-paper-data="{&quot;origPos&quot;:null}" fill="#daad85"/></g><g data-paper-data="{&quot;origPos&quot;:null,&quot;origRot&quot;:0}" fill="#222222" stroke="#000000" stroke-width="4"><path d="M211.27513,289.531l8.77806,-69.26934l18.84536,2.38817l-8.77806,69.26934z" data-paper-data="{&quot;origPos&quot;:null}"/><path d="M206.67644,292.61688c1.62057,-6.79943 11.42639,-10.83277 21.90195,-9.00873c10.47555,1.82401 17.65389,8.81469 16.03331,15.61412c-1.62057,6.79943 -11.42639,10.83277 -21.90195,9.00873c-10.47555,-1.82401 -17.65389,-8.81469 -16.03331,-15.61412z" data-paper-data="{&quot;origPos&quot;:null}"/></g><g data-paper-data="{&quot;origPos&quot;:null,&quot;origRot&quot;:0}" fill="#222222" stroke="#000000" stroke-width="4"><path d="M253.39388,292.74432l-9.95587,-69.1099l18.80196,-2.70857l9.95587,69.1099z" data-paper-data="{&quot;origPos&quot;:null}"/><path d="M255.16019,301.56731c-5.1429,-5.68125 -1.89969,-13.68999 7.2439,-17.888c9.14359,-4.19804 20.72506,-2.99564 25.86794,2.6856c5.1429,5.68125 1.89969,13.68999 -7.2439,17.888c-9.14359,4.19804 -20.72506,2.99564 -25.86794,-2.6856z" data-paper-data="{&quot;origPos&quot;:null,&quot;origRot&quot;:0}"/></g><path d="M219.36053,225.48126v-73.93059h46.20662v73.93059z" data-paper-data="{&quot;origPos&quot;:null}" fill="#474747" stroke="#000000" stroke-width="4"/><g data-paper-data="{&quot;origPos&quot;:null,&quot;origRot&quot;:0}" stroke="#000000" stroke-width="4"><path d="M200.5395,220.66195l17.35469,-65.05849l22.84544,5.98783l-17.35469,65.0585z" data-paper-data="{&quot;origRot&quot;:0,&quot;origPos&quot;:null}" fill="#474747"/><path d="M198.15371,235.48983c-2.2044,-6.68367 1.37201,-13.95165 7.98815,-16.23352c6.61614,-2.28187 13.76657,1.28648 15.97097,7.97015c2.2044,6.68367 -1.37202,13.95165 -7.98815,16.23352c-6.61614,2.28187 -13.76656,-1.28648 -15.97096,-7.97015z" data-paper-data="{&quot;origPos&quot;:null}" fill="#daad85"/></g><path d="M293.80325,72.4432c0,14.3251 -21.98135,25.93789 -49.09671,25.93789c-27.11536,0 -49.09671,-11.61278 -49.09671,-25.93789c0,-14.3251 21.98135,-25.93789 49.09671,-25.93789c27.11536,0 49.09671,11.61278 49.09671,25.93789z" data-paper-data="{&quot;origPos&quot;:null}" fill="#000000" stroke="none" stroke-width="0"/><path d="M192.85811,106.20841c0,-28.13858 22.81083,-50.94941 50.94941,-50.94941c28.13858,0 50.94941,22.81083 50.94941,50.94941c0,28.13858 -22.81082,50.94941 -50.94941,50.94941c-28.13858,0 -50.94941,-22.81083 -50.94941,-50.94941z" data-paper-data="{&quot;origPos&quot;:null}" fill="url(#color-1)" stroke="#000000" stroke-width="4"/><path d="M279.27114,129.96828c0.23084,2.03139 -1.53541,2.47325 -1.9526,2.54892c-1.42911,1.07472 -2.91266,2.16074 -4.59951,2.776c-4.9044,1.78882 -11.46549,0.25802 -16.45625,-0.45495c0,0 -2.2926,-0.32751 -1.96509,-2.62011c0.32752,-2.2926 2.62011,-1.96509 2.62011,-1.96509c4.5666,0.65237 10.54021,2.09805 15.03975,0.47142c0.96653,-0.34942 2.28587,-1.69196 3.1598,-2.34739l1.59122,-0.44837c0,0 2.30107,-0.26148 2.56256,2.0396z" data-paper-data="{&quot;origPos&quot;:null}" fill="#000000" stroke="none" stroke-width="0.5"/><path d="M264.69101,97.21248c0,-6.13932 4.97692,-11.11623 11.11624,-11.11623c6.13932,0 11.11623,4.97692 11.11623,11.11623c0,6.13932 -4.97692,11.11624 -11.11623,11.11624c-6.13932,0 -11.11624,-4.97692 -11.11624,-11.11624z" data-paper-data="{&quot;origPos&quot;:null}" fill="#ffffff" stroke="#ffffff" stroke-width="4"/><path d="M270.63026,99.37688c0,-4.6045 3.73267,-8.33717 8.33717,-8.33717c4.6045,0 8.33717,3.73267 8.33717,8.33717c0,4.6045 -3.73267,8.33717 -8.33717,8.33717c-4.6045,0 -8.33717,-3.73267 -8.33717,-8.33717z" data-paper-data="{&quot;origPos&quot;:null}" fill="#000000" stroke="#ffffff" stroke-width="0"/><path d="M234.17372,97.28613c0,-6.13932 4.97692,-11.11624 11.11623,-11.11624c6.13932,0 11.11623,4.97692 11.11623,11.11624c0,6.13932 -4.97692,11.11623 -11.11623,11.11623c-6.13932,0 -11.11623,-4.97692 -11.11623,-11.11623z" data-paper-data="{&quot;origPos&quot;:null}" fill="#ffffff" stroke="#ffffff" stroke-width="4"/><path d="M238.99829,99.4137c0,-4.6045 3.73267,-8.33717 8.33717,-8.33717c4.6045,0 8.33717,3.73267 8.33717,8.33717c0,4.6045 -3.73267,8.33718 -8.33717,8.33718c-4.6045,0 -8.33717,-3.73268 -8.33717,-8.33718z" data-paper-data="{&quot;origPos&quot;:null}" fill="#000000" stroke="#ffffff" stroke-width="0"/></g></g></svg>