<svg version="1.1" xmlns="http://www.w3.org/2000/svg" xmlns:xlink="http://www.w3.org/1999/xlink" width="133.46825" height="253.57855" viewBox="0,0,133.46825,253.57855"><defs><linearGradient x1="243.80756" y1="55.25918" x2="243.80756" y2="157.15787" gradientUnits="userSpaceOnUse" id="color-1"><stop offset="0" stop-color="#daad85"/><stop offset="1" stop-color="#ffca9c"/></linearGradient></defs><g transform="translate(-176.50989,-46.50532)"><g data-paper-data="{&quot;isPaintingLayer&quot;:true}" fill="none" fill-rule="nonzero" stroke="none" stroke-width="none" stroke-linecap="butt" stroke-linejoin="miter" stroke-miterlimit="10" stroke-dasharray="" stroke-dashoffset="0" font-family="none" font-weight="none" font-size="none" text-anchor="none" style="mix-blend-mode: normal"><g data-paper-data="{&quot;origPos&quot;:null,&quot;origRot&quot;:0}" stroke="#000000" stroke-width="4"><path d="M284.12524,224.56013l-35.08695,-54.87774l17.15341,-13.59815l35.08694,54.87772z" data-paper-data="{&quot;origRot&quot;:0,&quot;origPos&quot;:null}" fill="#474747"/><path d="M307.96659,224.0184c0.27958,7.03208 -4.55242,12.8753 -10.79266,13.05126c-6.24022,0.17594 -11.52559,-5.38204 -11.80518,-12.41411c-0.27958,-7.03207 4.55243,-12.87529 10.79267,-13.05125c6.24023,-0.17593 11.52558,5.38204 11.80516,12.4141z" data-paper-data="{&quot;origPos&quot;:null}" fill="#daad85"/></g><g data-paper-data="{&quot;origPos&quot;:null,&quot;origRot&quot;:0}" fill="#222222" stroke="#000000" stroke-width="4"><path d="M237.58125,280.20793l7.12823,-69.45852l18.8968,1.9393l-7.12823,69.45852z" data-paper-data="{&quot;origPos&quot;:null}"/><path d="M237.15166,289.1957c-3.60899,-6.76027 1.48232,-13.74145 11.37176,-15.59288c9.88944,-1.85146 20.83203,2.12793 24.44102,8.88818c3.60899,6.76027 -1.48232,13.74145 -11.37176,15.59288c-9.88944,1.85146 -20.83203,-2.12793 -24.44102,-8.88818z" data-paper-data="{&quot;origPos&quot;:null,&quot;origRot&quot;:0}"/></g><g data-paper-data="{&quot;origPos&quot;:null,&quot;origRot&quot;:0}" fill="#222222" stroke="#000000" stroke-width="4"><path d="M253.47264,285.75184l-31.87331,-62.12396l16.90141,-8.6714l31.87331,62.12396z" data-paper-data="{&quot;origPos&quot;:null}"/><path d="M251.42008,290.89558c-2.50233,-6.52663 3.31255,-15.3928 12.98791,-19.8032c9.67534,-4.41041 19.54729,-2.69487 22.04961,3.83176c2.50233,6.52663 -3.31255,15.3928 -12.98791,19.8032c-9.67534,4.41041 -19.54729,2.69487 -22.04961,-3.83176z" data-paper-data="{&quot;origPos&quot;:null}"/></g><path d="M293.80326,72.44321c0,14.3251 -21.98135,25.93789 -49.09671,25.93789c-27.11536,0 -49.09671,-11.61278 -49.09671,-25.93789c0,-14.3251 21.98135,-25.93789 49.09671,-25.93789c27.11536,0 49.09671,11.61278 49.09671,25.93789z" data-paper-data="{&quot;origPos&quot;:null}" fill="#000000" stroke="none" stroke-width="0"/><path d="M219.36056,225.48137v-73.93059h46.20662v73.93059z" data-paper-data="{&quot;origPos&quot;:null}" fill="#474747" stroke="#000000" stroke-width="4"/><path d="M192.85815,106.20859c0,-28.13858 22.81083,-50.94941 50.94941,-50.94941c28.13858,0 50.94941,22.81083 50.94941,50.94941c0,28.13858 -22.81082,50.94941 -50.94941,50.94941c-28.13858,0 -50.94941,-22.81083 -50.94941,-50.94941z" data-paper-data="{&quot;origPos&quot;:null}" fill="url(#color-1)" stroke="#000000" stroke-width="4"/><path d="M264.69104,97.21265c0,-6.13932 4.97692,-11.11623 11.11624,-11.11623c6.13932,0 11.11623,4.97692 11.11623,11.11623c0,6.13932 -4.97692,11.11624 -11.11623,11.11624c-6.13932,0 -11.11624,-4.97692 -11.11624,-11.11624z" data-paper-data="{&quot;origPos&quot;:null}" fill="#ffffff" stroke="#ffffff" stroke-width="4"/><path d="M234.17378,97.28631c0,-6.13932 4.97692,-11.11624 11.11623,-11.11624c6.13932,0 11.11623,4.97692 11.11623,11.11624c0,6.13932 -4.97692,11.11623 -11.11623,11.11623c-6.13932,0 -11.11623,-4.97692 -11.11623,-11.11623z" data-paper-data="{&quot;origPos&quot;:null}" fill="#ffffff" stroke="#ffffff" stroke-width="4"/><g data-paper-data="{&quot;origPos&quot;:null,&quot;origRot&quot;:0}" stroke="#000000" stroke-width="4"><path d="M184.82204,211.05288l34.26747,-57.96147l20.38199,11.93073l-34.26748,57.96148z" data-paper-data="{&quot;origRot&quot;:0,&quot;origPos&quot;:null}" fill="#474747"/><path d="M178.52331,224.68677c-0.31896,-7.03058 5.08609,-13.06379 12.07255,-13.47557c6.98646,-0.41178 12.90866,4.9538 13.22763,11.98437c0.31896,7.03058 -5.0861,13.06379 -12.07255,13.47557c-6.98646,0.41178 -12.90865,-4.95379 -13.22762,-11.98437z" data-paper-data="{&quot;origPos&quot;:null}" fill="#daad85"/></g><path d="M279.27117,129.9683c0.23084,2.03139 -1.53541,2.47325 -1.9526,2.54892c-1.42911,1.07472 -2.91266,2.16074 -4.59951,2.776c-4.9044,1.78882 -11.46549,0.25802 -16.45625,-0.45495c0,0 -2.2926,-0.32751 -1.96509,-2.62011c0.32752,-2.2926 2.62011,-1.96509 2.62011,-1.96509c4.5666,0.65237 10.54021,2.09805 15.03975,0.47142c0.96653,-0.34942 2.28587,-1.69196 3.1598,-2.34739l1.59122,-0.44837c0,0 2.30107,-0.26148 2.56256,2.0396z" data-paper-data="{&quot;origPos&quot;:null}" fill="#000000" stroke="none" stroke-width="0.5"/><path d="M238.99836,99.41388c0,-4.6045 3.73267,-8.33717 8.33717,-8.33717c4.6045,0 8.33717,3.73267 8.33717,8.33717c0,4.6045 -3.73267,8.33718 -8.33717,8.33718c-4.6045,0 -8.33717,-3.73268 -8.33717,-8.33718z" data-paper-data="{&quot;origPos&quot;:null}" fill="#000000" stroke="#ffffff" stroke-width="0"/><path d="M270.63026,99.37705c0,-4.6045 3.73267,-8.33717 8.33717,-8.33717c4.6045,0 8.33717,3.73267 8.33717,8.33717c0,4.6045 -3.73267,8.33717 -8.33717,8.33717c-4.6045,0 -8.33717,-3.73267 -8.33717,-8.33717z" data-paper-data="{&quot;origPos&quot;:null}" fill="#000000" stroke="#ffffff" stroke-width="0"/></g></g></svg>