<svg version="1.1" xmlns="http://www.w3.org/2000/svg" xmlns:xlink="http://www.w3.org/1999/xlink" width="133.46825" height="253.07719" viewBox="0,0,133.46825,253.07719"><defs><linearGradient x1="243.80756" y1="55.25916" x2="243.80756" y2="157.15787" gradientUnits="userSpaceOnUse" id="color-1"><stop offset="0" stop-color="#daad85"/><stop offset="1" stop-color="#ffca9c"/></linearGradient></defs><g transform="translate(-176.50989,-46.50532)"><g data-paper-data="{&quot;isPaintingLayer&quot;:true}" fill="none" fill-rule="nonzero" stroke="none" stroke-width="none" stroke-linecap="butt" stroke-linejoin="miter" stroke-miterlimit="10" stroke-dasharray="" stroke-dashoffset="0" font-family="none" font-weight="none" font-size="none" text-anchor="none" style="mix-blend-mode: normal"><g data-paper-data="{&quot;origPos&quot;:null,&quot;origRot&quot;:0}" stroke="#000000" stroke-width="4"><path d="M284.12524,224.56011l-35.08695,-54.87774l17.15341,-13.59815l35.08694,54.87772z" data-paper-data="{&quot;origRot&quot;:0,&quot;origPos&quot;:null}" fill="#474747"/><path d="M307.96659,224.01838c0.27958,7.03208 -4.55242,12.8753 -10.79266,13.05126c-6.24022,0.17594 -11.52559,-5.38204 -11.80518,-12.41411c-0.27958,-7.03207 4.55243,-12.87529 10.79267,-13.05125c6.24023,-0.17593 11.52558,5.38204 11.80516,12.4141z" data-paper-data="{&quot;origPos&quot;:null}" fill="#daad85"/></g><g data-paper-data="{&quot;origPos&quot;:null,&quot;origRot&quot;:0}" fill="#222222" stroke="#000000" stroke-width="4"><path d="M211.14904,270.19201l36.77778,-59.35228l16.14731,10.00572l-36.77778,59.35228z" data-paper-data="{&quot;origPos&quot;:null}"/><path d="M206.83328,278.0875c-0.29025,-7.65779 7.34084,-11.71054 17.04451,-9.05205c9.70368,2.65847 17.80532,11.02144 18.09558,18.67922c0.29025,7.65779 -7.34084,11.71054 -17.04451,9.05205c-9.70368,-2.65847 -17.80532,-11.02144 -18.09558,-18.67922z" data-paper-data="{&quot;origPos&quot;:null,&quot;origRot&quot;:0}"/></g><g data-paper-data="{&quot;origPos&quot;:null,&quot;origRot&quot;:0}" fill="#222222" stroke="#000000" stroke-width="4"><path d="M269.51589,276.38775l-48.05746,-50.65348l13.78077,-13.07445l48.05746,50.65348z" data-paper-data="{&quot;origPos&quot;:null}"/><path d="M268.99268,281.90112c-4.23676,-5.55953 -1.14988,-15.70315 6.89473,-22.65646c8.04459,-6.95331 18.00058,-8.08318 22.23733,-2.52365c4.23676,5.55953 1.14988,15.70315 -6.89473,22.65646c-8.04459,6.95331 -18.00058,8.08318 -22.23733,2.52365z" data-paper-data="{&quot;origPos&quot;:null}"/></g><path d="M293.80326,72.44321c0,14.3251 -21.98135,25.93789 -49.09671,25.93789c-27.11536,0 -49.09671,-11.61278 -49.09671,-25.93789c0,-14.3251 21.98135,-25.93789 49.09671,-25.93789c27.11536,0 49.09671,11.61278 49.09671,25.93789z" data-paper-data="{&quot;origPos&quot;:null}" fill="#000000" stroke="none" stroke-width="0"/><path d="M219.36056,225.48135v-73.93059h46.20662v73.93059z" data-paper-data="{&quot;origPos&quot;:null}" fill="#474747" stroke="#000000" stroke-width="4"/><path d="M192.85815,106.20857c0,-28.13858 22.81083,-50.94941 50.94941,-50.94941c28.13858,0 50.94941,22.81083 50.94941,50.94941c0,28.13858 -22.81082,50.94941 -50.94941,50.94941c-28.13858,0 -50.94941,-22.81083 -50.94941,-50.94941z" data-paper-data="{&quot;origPos&quot;:null}" fill="url(#color-1)" stroke="#000000" stroke-width="4"/><path d="M264.69104,97.21263c0,-6.13932 4.97692,-11.11623 11.11624,-11.11623c6.13932,0 11.11623,4.97692 11.11623,11.11623c0,6.13932 -4.97692,11.11624 -11.11623,11.11624c-6.13932,0 -11.11624,-4.97692 -11.11624,-11.11624z" data-paper-data="{&quot;origPos&quot;:null}" fill="#ffffff" stroke="#ffffff" stroke-width="4"/><path d="M234.17378,97.28629c0,-6.13932 4.97692,-11.11624 11.11623,-11.11624c6.13932,0 11.11623,4.97692 11.11623,11.11624c0,6.13932 -4.97692,11.11623 -11.11623,11.11623c-6.13932,0 -11.11623,-4.97692 -11.11623,-11.11623z" data-paper-data="{&quot;origPos&quot;:null}" fill="#ffffff" stroke="#ffffff" stroke-width="4"/><g data-paper-data="{&quot;origPos&quot;:null,&quot;origRot&quot;:0}" stroke="#000000" stroke-width="4"><path d="M184.82204,211.05286l34.26747,-57.96147l20.38199,11.93073l-34.26748,57.96148z" data-paper-data="{&quot;origRot&quot;:0,&quot;origPos&quot;:null}" fill="#474747"/><path d="M178.52331,224.68675c-0.31896,-7.03058 5.08609,-13.06379 12.07255,-13.47557c6.98646,-0.41178 12.90866,4.9538 13.22763,11.98437c0.31896,7.03058 -5.0861,13.06379 -12.07255,13.47557c-6.98646,0.41178 -12.90865,-4.95379 -13.22762,-11.98437z" data-paper-data="{&quot;origPos&quot;:null}" fill="#daad85"/></g><path d="M279.27117,129.9683c0.23084,2.03139 -1.53541,2.47325 -1.9526,2.54892c-1.42911,1.07472 -2.91266,2.16074 -4.59951,2.776c-4.9044,1.78882 -11.46549,0.25802 -16.45625,-0.45495c0,0 -2.2926,-0.32751 -1.96509,-2.62011c0.32752,-2.2926 2.62011,-1.96509 2.62011,-1.96509c4.5666,0.65237 10.54021,2.09805 15.03975,0.47142c0.96653,-0.34942 2.28587,-1.69196 3.1598,-2.34739l1.59122,-0.44837c0,0 2.30107,-0.26148 2.56256,2.0396z" data-paper-data="{&quot;origPos&quot;:null}" fill="#000000" stroke="none" stroke-width="0.5"/><path d="M238.99836,99.41386c0,-4.6045 3.73267,-8.33717 8.33717,-8.33717c4.6045,0 8.33717,3.73267 8.33717,8.33717c0,4.6045 -3.73267,8.33718 -8.33717,8.33718c-4.6045,0 -8.33717,-3.73268 -8.33717,-8.33718z" data-paper-data="{&quot;origPos&quot;:null}" fill="#000000" stroke="#ffffff" stroke-width="0"/><path d="M270.63026,99.37703c0,-4.6045 3.73267,-8.33717 8.33717,-8.33717c4.6045,0 8.33717,3.73267 8.33717,8.33717c0,4.6045 -3.73267,8.33717 -8.33717,8.33717c-4.6045,0 -8.33717,-3.73267 -8.33717,-8.33717z" data-paper-data="{&quot;origPos&quot;:null}" fill="#000000" stroke="#ffffff" stroke-width="0"/></g></g></svg>