<svg version="1.1" xmlns="http://www.w3.org/2000/svg" xmlns:xlink="http://www.w3.org/1999/xlink" width="342.427" height="272.97481" viewBox="0,0,342.427,272.97481"><defs><linearGradient x1="242.80754" y1="104.34516" x2="242.80754" y2="206.24398" gradientUnits="userSpaceOnUse" id="color-1"><stop offset="0" stop-color="#daad85"/><stop offset="1" stop-color="#ffca9c"/></linearGradient></defs><g transform="translate(-170.21978,-95.59146)"><g data-paper-data="{&quot;isPaintingLayer&quot;:true}" fill="none" fill-rule="nonzero" stroke="none" stroke-width="none" stroke-linecap="butt" stroke-linejoin="miter" stroke-miterlimit="10" stroke-dasharray="" stroke-dashoffset="0" font-family="none" font-weight="none" font-size="none" text-anchor="none" style="mix-blend-mode: normal"><g data-paper-data="{&quot;origPos&quot;:null}" stroke="#000000" stroke-width="1.5"><path d="M393.18616,223.16347l-1.40488,36.80792l-37.90666,-1.44682l17.69732,-31.23452z" data-paper-data="{&quot;origPos&quot;:null,&quot;origRot&quot;:0}" fill="#a5a5a5"/><path d="M399.38608,254.28866l19.63024,-10.28633l-1.38354,37.90902l-36.81021,-1.34344z" data-paper-data="{&quot;origPos&quot;:null,&quot;origRot&quot;:0}" fill="#a5a5a5"/><path d="M362.26006,293.89701v-36.83472h37.93426l-28.58814,32.43655z" data-paper-data="{&quot;origPos&quot;:null}" fill="#a5a5a5"/><path d="M426.03361,230.67323l3.8484,28.58814h-37.93426v-36.83472z" data-paper-data="{&quot;origPos&quot;:null,&quot;index&quot;:null}" fill="#a5a5a5"/><path d="M388.39064,205.90872l19.63024,-10.28632l-1.38354,37.90902l-36.81021,-1.34343z" data-paper-data="{&quot;origPos&quot;:null,&quot;origRot&quot;:0}" fill="#a5a5a5"/><path d="M439.77791,204.28418l3.84841,28.58814h-37.93426v-36.83472z" data-paper-data="{&quot;origPos&quot;:null,&quot;index&quot;:null}" fill="#a5a5a5"/><path d="M413.93863,207.8577c0,-2.58086 2.0922,-4.67306 4.67306,-4.67306c2.58086,0 4.67306,2.0922 4.67306,4.67306c0,2.58086 -2.0922,4.67306 -4.67306,4.67306c-2.58086,0 -4.67306,-2.0922 -4.67306,-4.67306z" data-paper-data="{&quot;origPos&quot;:null}" fill="#000000"/><path d="M426.03361,209.50701c0,-2.58086 2.0922,-4.67306 4.67306,-4.67306c2.58086,0 4.67306,2.0922 4.67306,4.67306c0,2.58086 -2.0922,4.67306 -4.67306,4.67306c-2.58086,0 -4.67306,-2.0922 -4.67306,-4.67306z" data-paper-data="{&quot;origPos&quot;:null}" fill="#000000"/></g><g data-paper-data="{&quot;origPos&quot;:null,&quot;origRot&quot;:0}" stroke="#000000" stroke-width="4"><path d="M292.30712,262.01665l-49.24369,-42.63471l12.57843,-17.91456l49.24369,42.63469z" data-paper-data="{&quot;origRot&quot;:0,&quot;origPos&quot;:null}" fill="#474747"/><path d="M315.01016,254.7176c2.26772,6.66226 -0.70323,13.63832 -6.63579,15.58149c-5.93255,1.94317 -12.58021,-1.88239 -14.84793,-8.54464c-2.26772,-6.66226 0.70322,-13.63831 6.63579,-15.58149c5.93256,-1.94318 12.58022,1.88239 14.84794,8.54466z" data-paper-data="{&quot;origPos&quot;:null}" fill="#daad85"/></g><path d="M218.36055,274.56741v-73.93059h46.20662v73.93059z" data-paper-data="{&quot;origPos&quot;:null}" fill="#474747" stroke="#000000" stroke-width="4"/><path d="M218.45298,345.43466v-69.82333h18.99606v69.82333z" data-paper-data="{&quot;origPos&quot;:null}" fill="#222222" stroke="#000000" stroke-width="4"/><path d="M245.36918,345.43466v-69.82333h18.99605v69.82333z" data-paper-data="{&quot;origPos&quot;:null}" fill="#222222" stroke="#000000" stroke-width="4"/><path d="M245.85941,354.41936c-4.28028,-6.35651 0.07173,-13.82098 9.72048,-16.67235c9.64875,-2.85139 20.94044,-0.00992 25.2207,6.34659c4.28028,6.35651 -0.07173,13.82098 -9.72048,16.67235c-9.64875,2.85139 -20.94044,0.00992 -25.2207,-6.34659z" data-paper-data="{&quot;origPos&quot;:null,&quot;origRot&quot;:0}" fill="#222222" stroke="#000000" stroke-width="4"/><path d="M214.27873,349.07418c0.7529,-6.94921 9.97386,-12.18332 20.59561,-11.69074c10.62175,0.49258 18.62199,6.52534 17.86909,13.47455c-0.7529,6.94921 -9.97386,12.18332 -20.59561,11.69074c-10.62175,-0.49258 -18.62199,-6.52534 -17.86909,-13.47455z" data-paper-data="{&quot;origPos&quot;:null}" fill="#222222" stroke="#000000" stroke-width="4"/><g data-paper-data="{&quot;origPos&quot;:null,&quot;origRot&quot;:0}" stroke="#000000" stroke-width="4"><path d="M179.37181,257.33225l37.74562,-55.75896l19.61478,13.15404l-37.74562,55.75897z" data-paper-data="{&quot;origRot&quot;:0,&quot;origPos&quot;:null}" fill="#474747"/><path d="M172.25166,270.55576c0.11129,-7.03693 5.87495,-12.72855 12.87352,-12.7126c6.99857,0.01595 12.58179,5.73342 12.4705,12.77035c-0.11129,7.03693 -5.87496,12.72855 -12.87352,12.7126c-6.99857,-0.01595 -12.58178,-5.73342 -12.47049,-12.77035z" data-paper-data="{&quot;origPos&quot;:null}" fill="#daad85"/></g><path d="M292.80325,121.52935c0,14.3251 -21.98135,25.93789 -49.09671,25.93789c-27.11536,0 -49.09671,-11.61278 -49.09671,-25.93789c0,-14.3251 21.98135,-25.93789 49.09671,-25.93789c27.11536,0 49.09671,11.61278 49.09671,25.93789z" data-paper-data="{&quot;origPos&quot;:null}" fill="#000000" stroke="none" stroke-width="0"/><path d="M191.85813,155.29456c0,-28.13858 22.81083,-50.94941 50.94941,-50.94941c28.13858,0 50.94941,22.81083 50.94941,50.94941c0,28.13858 -22.81082,50.94941 -50.94941,50.94941c-28.13858,0 -50.94941,-22.81083 -50.94941,-50.94941z" data-paper-data="{&quot;origPos&quot;:null}" fill="url(#color-1)" stroke="#000000" stroke-width="4"/><path d="M263.69103,146.29863c0,-6.13932 4.97692,-11.11623 11.11624,-11.11623c6.13932,0 11.11623,4.97692 11.11623,11.11623c0,6.13932 -4.97692,11.11624 -11.11623,11.11624c-6.13932,0 -11.11624,-4.97692 -11.11624,-11.11624z" data-paper-data="{&quot;origPos&quot;:null}" fill="#ffffff" stroke="#ffffff" stroke-width="4"/><path d="M233.17374,146.37228c0,-6.13932 4.97692,-11.11624 11.11623,-11.11624c6.13932,0 11.11623,4.97692 11.11623,11.11624c0,6.13932 -4.97692,11.11623 -11.11623,11.11623c-6.13932,0 -11.11623,-4.97692 -11.11623,-11.11623z" data-paper-data="{&quot;origPos&quot;:null}" fill="#ffffff" stroke="#ffffff" stroke-width="4"/><path d="M270.63025,149.46303c0,-4.6045 3.73267,-8.33717 8.33717,-8.33717c4.6045,0 8.33717,3.73267 8.33717,8.33717c0,4.6045 -3.73267,8.33717 -8.33717,8.33717c-4.6045,0 -8.33717,-3.73267 -8.33717,-8.33717z" data-paper-data="{&quot;origPos&quot;:null}" fill="#000000" stroke="#ffffff" stroke-width="0"/><path d="M238.99831,149.49985c0,-4.6045 3.73267,-8.33717 8.33717,-8.33717c4.6045,0 8.33717,3.73267 8.33717,8.33717c0,4.6045 -3.73267,8.33718 -8.33717,8.33718c-4.6045,0 -8.33717,-3.73268 -8.33717,-8.33718z" data-paper-data="{&quot;origPos&quot;:null}" fill="#000000" stroke="#ffffff" stroke-width="0"/><path d="M431.92732,279.04083c0,13.2887 -8.70096,24.06132 -19.43414,24.06132c-10.73318,0 -19.43414,-10.77262 -19.43414,-24.06132c0,-13.2887 8.70096,-24.06132 19.43414,-24.06132c10.73318,0 19.43414,10.77262 19.43414,24.06132z" data-paper-data="{&quot;origPos&quot;:null}" fill="#a5a5a5" stroke="#000000" stroke-width="4"/><path d="M346.47129,368.56627l-4.3237,-119.90032l170.49919,2.76772l-8.6763,102.6989z" data-paper-data="{&quot;origPos&quot;:null,&quot;origRot&quot;:0}" fill="#1e9b00" stroke="#000000" stroke-width="0"/><path d="M273.46538,181.63937c0.27608,2.48471 -8.21249,2.42396 -10.48471,2.75669c-3.16783,0.46388 -6.78499,0 -10,0c0,0 -2.5,0 -2.5,-2.5c0,-2.5 2.5,-2.5 2.5,-2.5c3.22884,0 6.81282,0.43725 10,0c1.60052,-0.21958 5.13492,0.65313 6.70943,0.12829c0,0 3.4992,-0.36969 3.77528,2.11502z" data-paper-data="{&quot;origPos&quot;:null}" fill="#000000" stroke="none" stroke-width="0.5"/></g></g></svg>