<svg version="1.1" xmlns="http://www.w3.org/2000/svg" xmlns:xlink="http://www.w3.org/1999/xlink" width="162.70752" height="268.98937" viewBox="0,0,162.70752,268.98937"><defs><linearGradient x1="237.80752" y1="99.34516" x2="237.80752" y2="201.24398" gradientUnits="userSpaceOnUse" id="color-1"><stop offset="0" stop-color="#daad85"/><stop offset="1" stop-color="#ffca9c"/></linearGradient></defs><g transform="translate(-165.21975,-90.59146)"><g data-paper-data="{&quot;isPaintingLayer&quot;:true}" fill="none" fill-rule="nonzero" stroke="none" stroke-width="none" stroke-linecap="butt" stroke-linejoin="miter" stroke-miterlimit="10" stroke-dasharray="" stroke-dashoffset="0" font-family="none" font-weight="none" font-size="none" text-anchor="none" style="mix-blend-mode: normal"><g data-paper-data="{&quot;origPos&quot;:null,&quot;origRot&quot;:0}" stroke="#000000" stroke-width="4"><path d="M287.34245,254.50965l-52.4435,-38.63079l11.1309,-18.84813l52.4435,38.63078z" data-paper-data="{&quot;origRot&quot;:0,&quot;origPos&quot;:null}" fill="#474747"/><path d="M309.40131,245.44812c2.78454,6.46333 0.37131,13.65139 -5.39011,16.05502c-5.76141,2.40362 -12.68927,-0.88741 -15.47382,-7.35073c-2.78454,-6.46333 -0.3713,-13.65139 5.39012,-16.05502c5.76142,-2.40363 12.68927,0.88741 15.47382,7.35073z" data-paper-data="{&quot;origPos&quot;:null}" fill="#daad85"/></g><path d="M213.36053,269.56741v-73.93059h46.20662v73.93059z" data-paper-data="{&quot;origPos&quot;:null}" fill="#474747" stroke="#000000" stroke-width="4"/><path d="M213.45296,340.43466v-69.82333h18.99606v69.82333z" data-paper-data="{&quot;origPos&quot;:null}" fill="#222222" stroke="#000000" stroke-width="4"/><path d="M240.36916,340.43466v-69.82333h18.99605v69.82333z" data-paper-data="{&quot;origPos&quot;:null}" fill="#222222" stroke="#000000" stroke-width="4"/><path d="M240.85939,349.41936c-4.28028,-6.35651 0.07173,-13.82098 9.72048,-16.67235c9.64875,-2.85139 20.94044,-0.00992 25.2207,6.34659c4.28028,6.35651 -0.07173,13.82098 -9.72048,16.67235c-9.64875,2.85139 -20.94044,0.00992 -25.2207,-6.34659z" data-paper-data="{&quot;origPos&quot;:null,&quot;origRot&quot;:0}" fill="#222222" stroke="#000000" stroke-width="4"/><path d="M209.27871,344.07418c0.7529,-6.94921 9.97386,-12.18332 20.59561,-11.69074c10.62175,0.49258 18.62199,6.52534 17.86909,13.47455c-0.7529,6.94921 -9.97386,12.18332 -20.59561,11.69074c-10.62175,-0.49258 -18.62199,-6.52534 -17.86909,-13.47455z" data-paper-data="{&quot;origPos&quot;:null}" fill="#222222" stroke="#000000" stroke-width="4"/><g data-paper-data="{&quot;origPos&quot;:null,&quot;origRot&quot;:0}" stroke="#000000" stroke-width="4"><path d="M174.37179,252.33225l37.74562,-55.75896l19.61478,13.15404l-37.74562,55.75897z" data-paper-data="{&quot;origRot&quot;:0,&quot;origPos&quot;:null}" fill="#474747"/><path d="M167.25164,265.55576c0.11129,-7.03693 5.87495,-12.72855 12.87352,-12.7126c6.99857,0.01595 12.58179,5.73342 12.4705,12.77035c-0.11129,7.03693 -5.87496,12.72855 -12.87352,12.7126c-6.99857,-0.01595 -12.58178,-5.73342 -12.47049,-12.77035z" data-paper-data="{&quot;origPos&quot;:null}" fill="#daad85"/></g><path d="M287.80325,116.52935c0,14.3251 -21.98135,25.93789 -49.09671,25.93789c-27.11536,0 -49.09671,-11.61278 -49.09671,-25.93789c0,-14.3251 21.98135,-25.93789 49.09671,-25.93789c27.11536,0 49.09671,11.61278 49.09671,25.93789z" data-paper-data="{&quot;origPos&quot;:null}" fill="#000000" stroke="none" stroke-width="0"/><path d="M186.85811,150.29456c0,-28.13858 22.81083,-50.94941 50.94941,-50.94941c28.13858,0 50.94941,22.81083 50.94941,50.94941c0,28.13858 -22.81082,50.94941 -50.94941,50.94941c-28.13858,0 -50.94941,-22.81083 -50.94941,-50.94941z" data-paper-data="{&quot;origPos&quot;:null}" fill="url(#color-1)" stroke="#000000" stroke-width="4"/><path d="M273.27114,174.05443c0.23084,2.03139 -1.53541,2.47325 -1.9526,2.54892c-1.42911,1.07472 -2.91266,2.16074 -4.59951,2.776c-4.9044,1.78882 -11.46549,0.25802 -16.45625,-0.45495c0,0 -2.2926,-0.32751 -1.96509,-2.62011c0.32752,-2.2926 2.62011,-1.96509 2.62011,-1.96509c4.5666,0.65237 10.54021,2.09805 15.03975,0.47142c0.96653,-0.34942 2.28587,-1.69196 3.1598,-2.34739l1.59122,-0.44837c0,0 2.30107,-0.26148 2.56256,2.0396z" data-paper-data="{&quot;origPos&quot;:null}" fill="#000000" stroke="none" stroke-width="0.5"/><path d="M258.69101,141.29863c0,-6.13932 4.97692,-11.11623 11.11624,-11.11623c6.13932,0 11.11623,4.97692 11.11623,11.11623c0,6.13932 -4.97692,11.11624 -11.11623,11.11624c-6.13932,0 -11.11624,-4.97692 -11.11624,-11.11624z" data-paper-data="{&quot;origPos&quot;:null}" fill="#ffffff" stroke="#ffffff" stroke-width="4"/><path d="M228.17372,141.37228c0,-6.13932 4.97692,-11.11624 11.11623,-11.11624c6.13932,0 11.11623,4.97692 11.11623,11.11624c0,6.13932 -4.97692,11.11623 -11.11623,11.11623c-6.13932,0 -11.11623,-4.97692 -11.11623,-11.11623z" data-paper-data="{&quot;origPos&quot;:null}" fill="#ffffff" stroke="#ffffff" stroke-width="4"/><path d="M325.92728,280.04083c0,13.2887 -8.70096,24.06132 -19.43414,24.06132c-10.73318,0 -19.43414,-10.77262 -19.43414,-24.06132c0,-13.2887 8.70096,-24.06132 19.43414,-24.06132c10.73318,0 19.43414,10.77262 19.43414,24.06132z" data-paper-data="{&quot;origPos&quot;:null}" fill="#a5a5a5" stroke="#000000" stroke-width="4"/><path d="M296.3597,262.39587v-13.79516h20.53233v13.79516z" data-paper-data="{&quot;origPos&quot;:null}" fill="#a5a5a5" stroke="#000000" stroke-width="4"/><path d="M233.99829,144.49985c0,-4.6045 3.73267,-8.33717 8.33717,-8.33717c4.6045,0 8.33717,3.73267 8.33717,8.33717c0,4.6045 -3.73267,8.33718 -8.33717,8.33718c-4.6045,0 -8.33717,-3.73268 -8.33717,-8.33718z" data-paper-data="{&quot;origPos&quot;:null}" fill="#000000" stroke="#ffffff" stroke-width="0"/><path d="M265.63025,144.46303c0,-4.6045 3.73267,-8.33717 8.33717,-8.33717c4.6045,0 8.33717,3.73267 8.33717,8.33717c0,4.6045 -3.73267,8.33717 -8.33717,8.33717c-4.6045,0 -8.33717,-3.73267 -8.33717,-8.33717z" data-paper-data="{&quot;origPos&quot;:null}" fill="#000000" stroke="#ffffff" stroke-width="0"/></g></g></svg>