<svg version="1.1" xmlns="http://www.w3.org/2000/svg" xmlns:xlink="http://www.w3.org/1999/xlink" width="347.42698" height="279.26739" viewBox="0,0,347.42698,279.26739"><defs><linearGradient x1="237.80753" y1="99.34516" x2="237.80753" y2="201.24398" gradientUnits="userSpaceOnUse" id="color-1"><stop offset="0" stop-color="#daad85"/><stop offset="1" stop-color="#ffca9c"/></linearGradient></defs><g transform="translate(-165.21977,-90.59146)"><g data-paper-data="{&quot;isPaintingLayer&quot;:true}" fill="none" fill-rule="nonzero" stroke="none" stroke-width="none" stroke-linecap="butt" stroke-linejoin="miter" stroke-miterlimit="10" stroke-dasharray="" stroke-dashoffset="0" font-family="none" font-weight="none" font-size="none" text-anchor="none" style="mix-blend-mode: normal"><g data-paper-data="{&quot;origPos&quot;:null,&quot;origRot&quot;:0}" stroke="#000000" stroke-width="4"><path d="M272.96027,266.10606l-25.42498,-59.96857l19.18424,-10.54106l25.42498,59.96857z" data-paper-data="{&quot;origRot&quot;:0,&quot;origPos&quot;:null}" fill="#474747"/><path d="M296.55701,269.55523c-0.89923,6.97994 -6.63962,11.93374 -12.82153,11.06462c-6.18191,-0.86914 -10.46434,-7.23205 -9.56511,-14.21199c0.89923,-6.97994 6.63962,-11.93373 12.82153,-11.06461c6.1819,0.86912 10.46434,7.23205 9.56511,14.21199z" data-paper-data="{&quot;origPos&quot;:null}" fill="#daad85"/></g><path d="M213.36054,269.56741v-73.93059h46.20662v73.93059z" data-paper-data="{&quot;origPos&quot;:null}" fill="#474747" stroke="#000000" stroke-width="4"/><path d="M213.45297,340.43466v-69.82333h18.99606v69.82333z" data-paper-data="{&quot;origPos&quot;:null}" fill="#222222" stroke="#000000" stroke-width="4"/><path d="M240.36917,340.43466v-69.82333h18.99605v69.82333z" data-paper-data="{&quot;origPos&quot;:null}" fill="#222222" stroke="#000000" stroke-width="4"/><path d="M240.8594,349.41936c-4.28028,-6.35651 0.07173,-13.82098 9.72048,-16.67235c9.64875,-2.85139 20.94044,-0.00992 25.2207,6.34659c4.28028,6.35651 -0.07173,13.82098 -9.72048,16.67235c-9.64875,2.85139 -20.94044,0.00992 -25.2207,-6.34659z" data-paper-data="{&quot;origPos&quot;:null,&quot;origRot&quot;:0}" fill="#222222" stroke="#000000" stroke-width="4"/><path d="M209.27872,344.07418c0.7529,-6.94921 9.97386,-12.18332 20.59561,-11.69074c10.62175,0.49258 18.62199,6.52534 17.86909,13.47455c-0.7529,6.94921 -9.97386,12.18332 -20.59561,11.69074c-10.62175,-0.49258 -18.62199,-6.52534 -17.86909,-13.47455z" data-paper-data="{&quot;origPos&quot;:null}" fill="#222222" stroke="#000000" stroke-width="4"/><g data-paper-data="{&quot;origPos&quot;:null,&quot;origRot&quot;:0}" stroke="#000000" stroke-width="4"><path d="M174.3718,252.33225l37.74562,-55.75896l19.61478,13.15404l-37.74562,55.75897z" data-paper-data="{&quot;origRot&quot;:0,&quot;origPos&quot;:null}" fill="#474747"/><path d="M167.25165,265.55576c0.11129,-7.03693 5.87495,-12.72855 12.87352,-12.7126c6.99857,0.01595 12.58179,5.73342 12.4705,12.77035c-0.11129,7.03693 -5.87496,12.72855 -12.87352,12.7126c-6.99857,-0.01595 -12.58178,-5.73342 -12.47049,-12.77035z" data-paper-data="{&quot;origPos&quot;:null}" fill="#daad85"/></g><path d="M287.80325,116.52935c0,14.3251 -21.98135,25.93789 -49.09671,25.93789c-27.11536,0 -49.09671,-11.61278 -49.09671,-25.93789c0,-14.3251 21.98135,-25.93789 49.09671,-25.93789c27.11536,0 49.09671,11.61278 49.09671,25.93789z" data-paper-data="{&quot;origPos&quot;:null}" fill="#000000" stroke="none" stroke-width="0"/><path d="M186.85812,150.29456c0,-28.13858 22.81083,-50.94941 50.94941,-50.94941c28.13858,0 50.94941,22.81083 50.94941,50.94941c0,28.13858 -22.81082,50.94941 -50.94941,50.94941c-28.13858,0 -50.94941,-22.81083 -50.94941,-50.94941z" data-paper-data="{&quot;origPos&quot;:null}" fill="url(#color-1)" stroke="#000000" stroke-width="4"/><path d="M273.27115,174.05443c0.23084,2.03139 -1.53541,2.47325 -1.9526,2.54892c-1.42911,1.07472 -2.91266,2.16074 -4.59951,2.776c-4.9044,1.78882 -11.46549,0.25802 -16.45625,-0.45495c0,0 -2.2926,-0.32751 -1.96509,-2.62011c0.32752,-2.2926 2.62011,-1.96509 2.62011,-1.96509c4.5666,0.65237 10.54021,2.09805 15.03975,0.47142c0.96653,-0.34942 2.28587,-1.69196 3.1598,-2.34739l1.59122,-0.44837c0,0 2.30107,-0.26148 2.56256,2.0396z" data-paper-data="{&quot;origPos&quot;:null}" fill="#000000" stroke="none" stroke-width="0.5"/><path d="M258.69102,141.29863c0,-6.13932 4.97692,-11.11623 11.11624,-11.11623c6.13932,0 11.11623,4.97692 11.11623,11.11623c0,6.13932 -4.97692,11.11624 -11.11623,11.11624c-6.13932,0 -11.11624,-4.97692 -11.11624,-11.11624z" data-paper-data="{&quot;origPos&quot;:null}" fill="#ffffff" stroke="#ffffff" stroke-width="4"/><path d="M228.17373,141.37228c0,-6.13932 4.97692,-11.11624 11.11623,-11.11624c6.13932,0 11.11623,4.97692 11.11623,11.11624c0,6.13932 -4.97692,11.11623 -11.11623,11.11623c-6.13932,0 -11.11623,-4.97692 -11.11623,-11.11623z" data-paper-data="{&quot;origPos&quot;:null}" fill="#ffffff" stroke="#ffffff" stroke-width="4"/><path d="M431.92729,279.04083c0,13.2887 -8.70096,24.06132 -19.43414,24.06132c-10.73318,0 -19.43414,-10.77262 -19.43414,-24.06132c0,-13.2887 8.70096,-24.06132 19.43414,-24.06132c10.73318,0 19.43414,10.77262 19.43414,24.06132z" data-paper-data="{&quot;origPos&quot;:null}" fill="#a5a5a5" stroke="#000000" stroke-width="4"/><path d="M265.63025,144.46303c0,-4.6045 3.73267,-8.33717 8.33717,-8.33717c4.6045,0 8.33717,3.73267 8.33717,8.33717c0,4.6045 -3.73267,8.33717 -8.33717,8.33717c-4.6045,0 -8.33717,-3.73267 -8.33717,-8.33717z" data-paper-data="{&quot;origPos&quot;:null}" fill="#000000" stroke="#ffffff" stroke-width="0"/><path d="M233.9983,144.49985c0,-4.6045 3.73267,-8.33717 8.33717,-8.33717c4.6045,0 8.33717,3.73267 8.33717,8.33717c0,4.6045 -3.73267,8.33718 -8.33717,8.33718c-4.6045,0 -8.33717,-3.73268 -8.33717,-8.33718z" data-paper-data="{&quot;origPos&quot;:null}" fill="#000000" stroke="#ffffff" stroke-width="0"/><path d="M346.47126,368.56627l-4.3237,-119.90032l170.49919,2.76772l-8.6763,102.6989z" data-paper-data="{&quot;origPos&quot;:null,&quot;origRot&quot;:0}" fill="#1e9b00" stroke="#000000" stroke-width="0"/><path d="M243.67095,327.8701l10.34602,30.22521l-31.12745,10.65487l4.57741,-30.79765z" data-paper-data="{&quot;origPos&quot;:null,&quot;origRot&quot;:0}" fill="#a5a5a5" stroke="#000000" stroke-width="1.5"/><path d="M268.79074,338.11991l15.98177,-10.67883l2.29817,32.82016l-31.86884,2.23155z" data-paper-data="{&quot;origPos&quot;:null,&quot;origRot&quot;:0}" fill="#a5a5a5" stroke="#000000" stroke-width="1.5"/><path d="M246.22867,366.27403l-5.21179,-31.51889l32.45976,-5.36737l-19.87294,31.80041z" data-paper-data="{&quot;origPos&quot;:null,&quot;origRot&quot;:0}" fill="#a5a5a5" stroke="#000000" stroke-width="1.5"/><path d="M316.2452,339.42567l-0.96931,24.99946l-32.41187,-5.64933l5.48558,-31.4724z" data-paper-data="{&quot;origPos&quot;:null,&quot;index&quot;:null,&quot;origRot&quot;:0}" fill="#a5a5a5" stroke="#000000" stroke-width="1.5"/><path d="M260.38749,332.98625l18.74827,-4.23754l-9.62397,31.46146l-30.54953,-9.34501z" data-paper-data="{&quot;origPos&quot;:null,&quot;origRot&quot;:0}" fill="#a5a5a5" stroke="#000000" stroke-width="1.5"/><path d="M328.38677,333.17394l11.41838,22.26058l-31.01563,10.97612l-10.65798,-30.11662z" data-paper-data="{&quot;origPos&quot;:null,&quot;index&quot;:null,&quot;origRot&quot;:0}" fill="#a5a5a5" stroke="#000000" stroke-width="1.5"/></g></g></svg>