<svg version="1.1" xmlns="http://www.w3.org/2000/svg" xmlns:xlink="http://www.w3.org/1999/xlink" width="489.47102" height="499.49299" viewBox="0,0,489.47102,499.49299"><defs><linearGradient x1="207.2456" y1="-35.2987" x2="207.2456" y2="181.3784" gradientUnits="userSpaceOnUse" id="color-1"><stop offset="0" stop-color="#ffffff" stop-opacity="0"/><stop offset="1" stop-color="#ffffff"/></linearGradient><linearGradient x1="207.2456" y1="436.63875" x2="207.2456" y2="179.9216" gradientUnits="userSpaceOnUse" id="color-2"><stop offset="0" stop-color="#ffffff" stop-opacity="0"/><stop offset="1" stop-color="#ffffff"/></linearGradient><linearGradient x1="456.587" y1="145.0377" x2="239.9099" y2="145.0365" gradientUnits="userSpaceOnUse" id="color-3"><stop offset="0" stop-color="#ffffff" stop-opacity="0"/><stop offset="1" stop-color="#ffffff"/></linearGradient><linearGradient x1="24.6896" y1="144.9536" x2="241.3667" y2="144.9548" gradientUnits="userSpaceOnUse" id="color-4"><stop offset="0" stop-color="#ffffff" stop-opacity="0"/><stop offset="1" stop-color="#ffffff"/></linearGradient><linearGradient x1="386.43424" y1="-21.38325" x2="216.98205" y2="158.35983" gradientUnits="userSpaceOnUse" id="color-5"><stop offset="0" stop-color="#ffffff" stop-opacity="0"/><stop offset="1" stop-color="#ffffff"/></linearGradient><linearGradient x1="48.56937" y1="336.95212" x2="218.02156" y2="157.20916" gradientUnits="userSpaceOnUse" id="color-6"><stop offset="0" stop-color="#ffffff" stop-opacity="0"/><stop offset="1" stop-color="#ffffff"/></linearGradient><linearGradient x1="452.23912" y1="323.1861" x2="272.49718" y2="153.73277" gradientUnits="userSpaceOnUse" id="color-7"><stop offset="0" stop-color="#ffffff" stop-opacity="0"/><stop offset="1" stop-color="#ffffff"/></linearGradient><linearGradient x1="57.13382" y1="-62.85424" x2="280.3892" y2="147.6215" gradientUnits="userSpaceOnUse" id="color-8"><stop offset="0" stop-color="#ffffff" stop-opacity="0"/><stop offset="1" stop-color="#ffffff"/></linearGradient></defs><g transform="translate(13.90172,62.85424)"><g data-paper-data="{&quot;isPaintingLayer&quot;:true}" fill-rule="nonzero" stroke="none" stroke-linecap="butt" stroke-linejoin="miter" stroke-miterlimit="10" stroke-dasharray="" stroke-dashoffset="0" style="mix-blend-mode: normal"><path d="M207.2456,-35.2987h73.1285l-37.4453,216.6771z" fill="url(#color-1)" stroke-width="8.9201"/><path d="M338.17469,179.9216l137.3946,256.71715h-268.3237z" fill="url(#color-2)" stroke-width="8.9201"/><path d="M456.587,145.0377l-0.0004,73.1285l-216.677,-37.4466z" fill="url(#color-3)" stroke-width="8.9201"/><path d="M241.3665,180.638l-216.6773,37.4441l0.0004,-73.1286z" fill="url(#color-4)" stroke-width="8.9201"/><path d="M386.43413,-21.38325l60.6633,57.1901l-200.51468,150.45897z" fill="url(#color-5)" stroke-width="8.9201"/><path d="M247.62226,185.11516l-138.3897,209.02707l-60.66319,-57.1901z" fill="url(#color-6)" stroke-width="8.9201"/><path d="M452.23923,323.18598l-57.19045,60.66296l-150.45783,-200.51559z" fill="url(#color-7)" stroke-width="8.9201"/><path d="M245.72737,184.38803l-259.62909,-171.89355l71.03555,-75.34872z" fill="url(#color-8)" stroke-width="8.9201"/></g></g></svg>