<svg version="1.1" xmlns="http://www.w3.org/2000/svg" xmlns:xlink="http://www.w3.org/1999/xlink" width="925.21226" height="311.85292" viewBox="0,0,925.21226,311.85292"><g transform="translate(189.07581,-86.2341)"><g data-paper-data="{&quot;isPaintingLayer&quot;:true}" fill-rule="nonzero" stroke="none" stroke-width="0" stroke-linecap="butt" stroke-linejoin="miter" stroke-miterlimit="10" stroke-dasharray="" stroke-dashoffset="0" style="mix-blend-mode: normal"><path d="M299.91818,366.00737v-207.28829h72.57057v207.28829z" fill="#808080"/><path d="M399.64942,363.50437v-272.27027h72.57057v272.27027z" fill="#808080"/><path d="M-184.0758,368.49987v-207.28829h72.57057v207.28829z" fill="#808080"/><path d="M-84.34457,365.99687v-272.27027h72.57057v272.27027z" fill="#808080"/><g fill="#808080"><path d="M57.51524,380.3215l6.3369,-207.19141l72.53665,2.21852l-6.3369,207.19141z"/><path d="M157.27637,380.8685l8.32343,-272.14301l72.53665,2.21852l-8.32343,272.14301z"/></g><path d="M294.91817,361.00737v-207.28829h72.57057v207.28829z" fill="#d8d8d8"/><path d="M394.64942,358.50437v-272.27027h72.57057v272.27027z" fill="#d8d8d8"/><path d="M-189.07581,363.49987v-207.28829h72.57057v207.28829z" fill="#d8d8d8"/><path d="M-89.34458,360.99687v-272.27027h72.57057v272.27027z" fill="#d8d8d8"/><g fill="#d8d8d8"><path d="M52.51523,375.3215l6.3369,-207.19141l72.53665,2.21852l-6.3369,207.19141z"/><path d="M152.27636,375.8685l8.32343,-272.14301l72.53665,2.21852l-8.32343,272.14301z"/></g><g fill="#808080"><path d="M555.51525,395.3215l6.3369,-207.19141l72.53665,2.21852l-6.3369,207.19141z"/><path d="M655.27638,395.8685l8.32343,-272.14301l72.53665,2.21852l-8.32343,272.14301z"/></g><g fill="#d8d8d8"><path d="M550.51523,390.3215l6.3369,-207.19141l72.53665,2.21852l-6.3369,207.19141z"/><path d="M650.27636,390.8685l8.32343,-272.14301l72.53665,2.21852l-8.32343,272.14301z"/></g></g></g></svg>