<svg version="1.1" xmlns="http://www.w3.org/2000/svg" xmlns:xlink="http://www.w3.org/1999/xlink" width="195.50288" height="40.53953" viewBox="0,0,195.50288,40.53953"><g transform="translate(-142.24856,-159.73024)"><g data-paper-data="{&quot;isPaintingLayer&quot;:true}" fill-rule="nonzero" stroke="none" stroke-width="1" stroke-linecap="butt" stroke-linejoin="miter" stroke-miterlimit="10" stroke-dasharray="" stroke-dashoffset="0" style="mix-blend-mode: normal"><g><path d="M207.4521,188.16755c2.24863,-0.22037 3.7818,-0.44148 5.99798,-0.25697c2.07991,0.1748 1.80572,1.25235 -0.13466,1.51006c1.70189,0.18414 2.28108,0.72683 1.77003,1.21612c-0.78362,0.7358 -3.91808,0.95728 -6.67939,0.77277c-1.0578,0.85644 -3.10039,1.40959 -6.40683,1.51081c-3.40865,0.10085 -6.81567,-0.24838 -7.63335,-1.14179c-0.64733,-0.71936 1.6013,-1.10631 1.49909,-1.84322c-0.16873,-1.19707 -2.96411,-2.16443 -6.13264,-3.02124c6.88381,0.46053 14.41657,-0.53373 17.71976,1.25347z" fill="#20a6d8"/><path d="M207.61596,187.84783c1.53316,-0.30478 3.66012,-0.50908 5.35876,-0.33466c3.38106,0.34661 4.37884,1.19072 2.35247,2.14837c1.5072,1.07344 -1.80248,2.45352 -5.8325,2.16032c-0.97992,0.73355 -3.53195,1.27251 -6.25594,1.39689c-8.04382,0.36864 -11.25615,-1.34834 -8.49484,-3.205c-0.46887,-0.2241 -5.74651,-2.6963 -5.55669,-2.98875l2.34273,-0.18974c1.31738,0.44297 6.75564,3.06083 5.43501,3.6364c-3.56115,1.54965 3.40053,2.92002 9.47964,1.61352c2.48064,-0.53373 0,-2.02586 -1.1811,-2.33662c3.03225,0.01755 4.33828,0.89715 5.03104,1.32144c2.68506,0.04594 3.22694,-0.59125 3.2675,-0.93412c0.11681,-0.98791 -3.39404,-1.00322 -5.94607,-1.11042c-0.44778,-0.20991 0.64733,-0.20617 1.11134,-0.24651c1.65808,-0.14454 3.25939,0.06051 4.83473,0.17741c1.69702,-0.9584 -3.93592,-1.18138 -6.07748,-0.47472l-2.97384,-1.11116c-0.04543,-0.20991 1.94849,0.08927 2.39627,0.05827z" fill="#272525"/></g><g><path d="M151.74079,176.53787c0,0 6.0791,-5.47364 31.63664,-7.75013c25.55754,-2.27648 37.51781,-1.40063 50.29414,-0.56025c0,0 11.15394,-5.27569 23.11908,-6.02269c11.96514,-0.747 19.86943,-0.6469 27.98626,2.05425c8.11683,2.70115 15.41272,3.54825 15.41272,3.54825c0,0 15.20992,0.51356 19.0631,0.84038c3.85318,0.32681 16.83231,1.16719 17.03511,4.66875c0.2028,3.50156 -9.53155,3.59494 -9.53155,3.59494c0,0 -3.65038,2.47444 -10.54555,2.19431c-6.89516,-0.28013 -18.04911,-2.10094 -21.09109,-1.30725c-3.04198,0.79369 -3.56115,1.26542 -2.83919,1.91419c0.72196,0.64877 6.7962,1.69606 2.63639,2.75456c-4.15981,1.0585 -20.0771,0.28013 -23.11908,-0.60694c-3.04198,-0.88706 -4.66438,-1.77413 -4.66438,-1.77413c0,0 -1.82519,1.63406 -7.50356,2.6145c-5.67837,0.98044 -28.59465,6.06938 -64.08447,4.482c-35.48982,-1.58738 -39.1402,-2.00756 -39.1402,-2.00756c0,0 -11.90187,-4.58808 -4.66438,-8.63719z" fill="#20a6d8"/><path d="M326.99641,177.34501c-1.06753,0.71264 -2.64774,1.34236 -4.77145,1.71437c-7.41595,1.30015 -14.49445,-0.19011 -21.12354,-0.85121c-3.86291,-0.38471 -7.08985,0.18675 -7.74043,0.63532c-0.73657,0.50647 0.33746,1.05626 3.37944,1.99001c3.04036,0.93338 -1.15839,4.39684 -22.96009,1.92315c-2.91706,-0.33017 -5.63781,-1.01704 -6.73617,-1.60829c-1.45042,0.58938 -3.32428,1.17428 -5.40905,1.60792c-9.49261,1.97432 -23.84105,4.69116 -45.33774,5.11135c-7.31536,0.14305 -18.93007,-0.00896 -28.39348,-0.60283l-0.00162,0.00261c0,0 -25.34338,-0.54456 -32.17203,-1.79355c-1.48124,-0.27116 -3.29994,-1.01667 -4.02515,-1.43237c-2.83107,-1.6251 -5.79843,-3.68458 -4.91909,-5.53228c0.10059,-0.2114 0.62138,-0.6667 1.28331,-1.13432c0,0 0.00487,-0.00336 0.00649,-0.00486c0.52079,-0.36752 1.12918,-0.73953 1.69378,-1.0092c2.51308,-1.39203 7.66256,-3.87208 14.43766,-5.18082v0.00037c10.46118,-2.39376 22.18458,-3.76003 35.3292,-4.45399c9.5786,-0.54979 22.87572,0.00859 30.26085,0.92105l3.86616,0.17442c0,0 6.50255,-2.31346 7.14177,-2.59246c6.90652,-3.22704 28.83801,-5.78514 39.2343,-3.05336c1.2606,0.33129 2.34111,0.72198 3.11175,1.15187l0.00324,-0.00037c0,0 12.07059,3.57477 20.15011,4.33895c0.26932,0.02054 0.53214,0.04258 0.78524,0.06611c22.1927,0.24614 29.79847,2.66941 30.44094,2.98501c1.03184,0.50833 2.00365,1.16233 2.19672,1.31808c2.27946,1.86115 1.44555,4.79014 -9.73111,5.3093zM333.70987,171.60879c-0.27581,-0.20094 -0.67816,-0.38209 -1.10647,-0.55913c-0.04056,-0.01681 -0.0795,-0.03399 -0.1233,-0.0508c-0.06652,-0.02689 -0.13304,-0.05416 -0.19955,-0.08105c-6.00609,-2.16817 -29.90392,-2.69816 -29.90392,-2.69816l0.00324,-0.00112c-1.02697,-0.00336 -2.02474,-0.02801 -2.78565,-0.08217l-0.01947,0.00149c0,0 -0.03407,-0.00448 -0.0438,-0.00598c-0.34395,-0.02577 -0.65058,-0.05565 -0.84851,-0.09674c-0.03732,-0.00822 -11.61633,-1.83463 -18.05235,-4.47976c-0.62462,-0.18824 -1.19895,-0.38022 -1.57534,-0.45903c-6.09046,-1.26803 -11.52385,-1.215 -18.69807,-0.76269c-6.69886,0.4228 -11.70556,1.37971 -16.22716,2.68397l-9.04483,3.6786l-7.6366,-0.47621h-0.00162c-1.84628,-0.10458 -3.71203,-0.28498 -5.53885,-0.35184c-11.87591,-0.63831 -23.94812,0.15948 -34.64293,1.0641c-8.36992,0.78435 -15.98705,1.95116 -23.08826,3.46123c-0.31961,0.10234 -10.22107,3.30211 -13.24683,6.11046c-0.24336,0.4355 -0.38775,0.87773 -0.20929,1.33452c0.70899,1.80774 3.09066,3.32863 6.11155,4.75428c0.12979,0.03548 3.99433,1.05626 19.51575,1.53135c-2.93166,-0.43363 -5.46584,-0.95952 -7.31861,-1.6053c-0.9199,-0.32009 -2.66883,-0.82431 -2.68993,-1.24039c0.82742,-0.04669 1.59643,0.10383 2.16589,0.248c9.90795,2.5088 29.71897,4.3214 50.76788,3.51576c-0.01947,0.0127 22.24624,-0.92441 39.46792,-4.88688c1.14216,-0.33466 3.03712,-0.63682 3.84182,-0.88295c1.64186,-0.50161 2.55202,-0.8583 3.48165,-1.48989c1.48124,0.51954 2.60394,0.87586 4.1371,1.24151c3.21071,0.77128 5.05537,0.75223 8.65708,1.15262c0,0 10.98846,1.29717 15.24724,0c4.25878,-1.29717 -4.81526,-2.19357 -3.83047,-3.06532c0.62624,-0.55353 1.96147,-1.10668 3.73961,-1.36552c6.38736,-0.92889 12.43726,0.76306 18.89437,0.76306c3.67634,0 8.25797,0.00598 10.43198,-0.97521c2.34111,-1.05775 3.12473,-2.39638 2.96573,-3.5856c-0.01947,-0.13633 1.10647,-0.18376 1.42933,-0.20953c0.76252,0.19758 0.84202,0.54792 0.91827,0.8161c0.14602,0.49265 0.00973,1.06634 -0.41209,1.6434c1.42608,-0.19235 2.68344,-0.46202 3.43136,-0.66857c3.80613,-1.04804 3.83209,-2.6074 2.0361,-3.92063z" fill="#272525"/></g><g><path d="M297.41859,164.15933c3.15068,1.05663 3.55304,2.64401 1.24762,3.83062c-3.00954,1.54928 -11.36323,0.8527 -14.29814,-0.3369c-6.09208,-2.46734 5.19003,-6.13063 13.05052,-3.49372z" fill="#272525"/><path d="M294.40418,164.46075c3.44758,1.00247 5.4415,4.21682 -2.95113,3.61772c-4.6952,-0.33466 -7.33159,-2.58686 -4.1371,-3.56394c1.49098,-0.45642 5.53236,-0.50609 7.08823,-0.05378z" fill="#ffffff"/><path d="M292.64389,166.57364c0,-0.37501 1.12515,-0.67902 2.51308,-0.67902c1.38794,0 2.51308,0.30401 2.51308,0.67902c0,0.37501 -1.12515,0.67902 -2.51308,0.67902c-1.38794,0 -2.51308,-0.30401 -2.51308,-0.67902z" fill="#272525"/></g><g><path d="M297.41859,162.38558c-2.05719,-0.09674 -2.92842,-1.39017 -7.27967,-1.11751c-1.21679,0.07619 -4.5719,0.7526 -4.98723,0.63831c-0.2823,-0.61478 1.47638,-1.46412 3.27885,-1.82642c5.46584,-1.09734 10.53581,0.58602 8.98805,2.30562zM296.30401,161.53475c-2.32813,-2.2171 -8.36018,-1.07904 -8.98967,-0.39031c3.61631,-0.46949 6.17807,-0.43139 8.98967,0.39031z" fill="#272525"/><path d="M296.30401,161.53475c-2.8116,-0.8217 -5.37336,-0.8598 -8.98967,-0.39031c0.62949,-0.68873 6.66316,-1.82679 8.98967,0.39031z" fill="#8ed1d8"/></g><g><path d="M278.06508,168.98271c0.28554,1.59223 -11.70231,1.87983 -15.61552,0.88706c-0.74468,-0.18936 -1.89495,-0.40861 -1.44555,-0.7272c2.25675,-1.58588 13.1868,-1.79093 17.06107,-0.15986z" fill="#272525"/><path d="M275.83429,169.05368c-2.94626,1.2628 -12.25068,0.91582 -12.59625,0.2129c1.87062,-0.96961 10.53581,-1.14627 12.59625,-0.2129z" fill="#ffffff"/><path d="M271.53819,169.35547c0,-0.37501 1.12515,-0.67902 2.51308,-0.67902c1.38794,0 2.51308,0.30401 2.51308,0.67902c0,0.37501 -1.12515,0.67902 -2.51308,0.67902c-1.38794,0 -2.51308,-0.30401 -2.51308,-0.67902z" fill="#272525"/></g><g><path d="M274.26057,166.92547c-4.72116,-0.031 -12.06573,-0.1184 -15.61552,0.14193c2.56662,-1.73005 14.13265,-2.14352 15.61552,-0.14193zM271.11151,166.42909c-2.37356,-0.85046 -8.03246,-0.32831 -10.10588,0.33727c3.21071,-0.31374 6.7167,-0.38993 10.10588,-0.33727z" fill="#272525"/><path d="M271.11151,166.42909c-3.38755,-0.05266 -6.89516,0.02353 -10.10588,0.33727c2.07342,-0.66558 7.7307,-1.18773 10.10588,-0.33727z" fill="#8ed1d8"/></g><g><path d="M157.47756,175.68144c-8.61815,-0.50535 -17.06756,-4.32177 -13.45936,-7.20668c3.72826,-2.96634 12.3756,-4.27284 24.02113,-4.67996c-4.33179,0.88968 -7.61226,1.30015 -9.83981,2.64812c-3.37133,2.03632 -1.70189,4.29488 4.98723,5.74929c0.44454,0.22149 1.17299,0.38471 2.06044,0.56959c0.12006,0.02465 0.24174,0.03586 0.36179,0.04071c0.83229,0.46314 0.90854,0.99426 0.33259,1.50595c-0.47536,0.42168 -1.59968,0.77315 -3.04685,1.04431c-1.48936,0.279 -3.55953,0.2678 -5.41717,0.32868z" fill="#20a6d8"/><path d="M165.3056,164.14589c-3.87427,0.26108 -7.49058,0.81759 -10.62342,1.50147c-6.94384,1.4447 -10.63478,3.79812 -7.90592,6.12391c2.02799,1.36365 6.22025,2.49087 11.29347,3.1389c0.43156,0.25323 -2.34436,1.37 -6.13751,0.55502c-6.29164,-1.3502 -10.04261,-3.25468 -9.65648,-5.38438c0.78199,-3.54265 13.143,-7.02628 33.24281,-6.84812c-0.85013,0.11915 -1.69864,0.23867 -2.65099,0.30776c-6.98764,0.87212 -13.77411,2.75979 -14.59017,4.94066c-0.68789,1.24973 1.32387,2.75344 5.46746,3.31855c0.623,0.22223 0.92314,0.5102 1.04807,0.75559c0.0649,0.1296 0.04543,0.27788 -0.19793,0.40039c-0.05029,0.01569 -0.10059,0.03025 -0.15088,0.04594c-1.21679,0.16808 -2.08802,-0.24987 -3.14744,-0.44633c-5.30198,-1.19595 -6.66803,-3.56991 -4.89638,-5.20995c1.12432,-1.31285 5.09431,-2.43858 8.90531,-3.1994z" fill="#272525"/></g><g><path d="M200.14809,192.68391c2.9706,0.94981 0.21578,2.59993 -6.4847,2.62907c1.51207,1.89887 -4.21497,1.91344 -8.42995,1.81148c-2.70128,-0.05864 -3.7818,0.67193 -6.48308,0.70106c-3.188,0.0437 -6.07586,-0.20244 -7.34781,-0.99314c-3.24316,-2.01503 -0.48834,-4.81927 -4.75523,-7.59438c-2.59745,-1.70129 -6.32084,-2.77809 -9.77816,-3.92325c-3.19936,-5.13525 19.88241,-3.35328 30.9601,6.0253c1.56561,1.3263 8.91342,0.26294 12.31882,1.34385z" fill="#20a6d8"/><path d="M200.90412,194.79418c-1.22328,0.40077 -3.93754,0.57556 -5.70757,0.72683c1.19408,1.92315 -6.50255,2.59022 -11.03713,2.38368c-2.39303,0.64802 -5.0359,0.84785 -8.3326,0.69247c-10.91545,-0.5173 -6.66803,-5.01611 -7.85887,-6.99528c-1.67431,-2.7837 -8.61003,-4.70125 -14.29814,-6.88846c0.08761,-0.39666 -0.06652,-0.93002 1.98581,-0.69882c0.04543,0.00523 0.90367,0.23717 0.94748,0.24053c3.86616,1.62995 8.24499,3.19716 11.49951,5.00714c3.39242,1.88655 2.15454,4.20561 2.88623,6.20645c1.11621,3.0571 14.8968,2.23577 12.59787,0.30216c-0.46725,-0.39292 -1.2606,-0.51842 -2.36382,-0.85158c4.38857,-0.25025 5.03428,1.1571 4.19875,2.0042c3.86129,0.4172 8.60192,-0.47285 6.95357,-1.66768c-0.73494,-0.53336 -2.00852,-0.74065 -3.6082,-1.27662c2.54716,-0.14006 4.72603,0.38732 6.10182,0.90424c6.56095,-0.00336 7.53763,-2.74186 -6.56095,-2.55362c-1.94038,-0.63308 -10.0783,-6.17881 -9.52831,-6.76035c3.00305,-0.35072 9.3758,5.27905 10.31517,6.0324c4.53134,0.04818 10.35086,0.23717 12.59787,1.48952c0.85013,0.47472 0.45427,1.29605 -0.78848,1.70279z" fill="#272525"/></g><g><path d="M304.2375,182.84928c2.5358,1.67963 3.35511,2.92563 -1.62077,4.14735c-5.83899,1.43125 -17.89011,2.19058 -28.42593,1.51865c-7.67391,-0.49676 -13.07648,-1.19781 -17.72463,-2.5708c-2.73049,-0.80788 -2.48388,-1.5926 -4.75361,-2.51254c-0.13141,0.02353 -0.24336,0.04594 -0.37153,0.0691c-0.53701,-0.3735 -0.89718,-0.78584 0.35044,-1.09734c1.34172,-0.33503 3.63578,-0.08927 5.04726,0.06723c0.53539,0.05939 1.06429,0.12662 1.59157,0.19497c5.22572,2.05612 15.54576,1.40996 24.72687,0.59274c-0.8112,-0.37686 -1.34659,-0.77464 -1.58183,-1.17092c0.52728,-1.14777 2.55364,-2.15584 6.40683,-2.78519c-0.00162,0.00224 -0.00324,0.00411 -0.00487,0.00635c3.62605,-0.3623 7.69663,-0.19459 10.30219,0.61964c2.32327,0.73019 4.70169,2.02997 6.05801,2.92077z" fill="#20a6d8"/><path d="M305.37318,186.55589c-4.50863,2.15061 -17.00591,2.41206 -25.19088,2.30599c-9.3758,-0.12288 -19.70557,-1.12274 -25.32391,-3.22854c-1.82195,-0.68276 -3.81262,-1.40511 -4.13223,-2.26939c0.22551,-0.31075 0.58893,-0.4284 1.44231,-0.24875c1.44717,0.30552 3.65687,1.57804 5.37985,2.09309c9.16976,2.74224 20.51677,3.3066 33.65814,2.76577c4.64491,-0.19161 11.09391,-0.69508 12.79256,-2.05687c1.83168,-1.4701 -1.35956,-4.16976 -5.37661,-5.23199c-6.86596,-1.81372 -16.66359,-0.48779 -16.66359,1.11677c0,0.38284 1.39526,0.73841 2.35896,0.97558c2.19834,-1.47383 7.84264,-1.59223 12.59787,-1.02899c-8.03246,-0.33167 -14.52527,1.76068 -8.20119,2.97941c2.95438,-1.55227 11.06471,-0.97969 10.69481,-0.85121c-0.4348,0.15089 -1.56723,0.06125 -2.23079,0.08889c-5.37661,0.22597 -7.73881,1.77861 -3.74124,2.30524c1.66133,0.21962 3.74286,0.02241 5.18192,0.37275c0.45102,0.77464 -6.3906,0.40189 -7.74043,0.17816c-2.85379,-0.47472 -2.9706,-1.22695 -2.53418,-1.5194c-2.53742,-0.36902 -4.35288,-1.07942 -4.53458,-1.7308c-5.10729,0.76568 -22.83354,1.08838 -27.37624,-1.05925c-0.2969,-0.14006 -0.28879,-0.27826 -0.09897,-0.41234c0.44129,0.06088 0.84364,0.16247 1.17948,0.23531c0.61002,0.13297 1.25735,0.31038 2.02799,0.41608c5.23059,0.95616 15.51169,0.73505 22.084,0.3186c-2.49199,-0.56623 -2.57149,-1.67141 -1.90307,-2.17078c1.32387,-0.98978 6.08721,-1.87348 9.90632,-1.95079c6.32571,-0.12886 12.15658,1.13432 14.99577,2.4849c2.63639,1.25459 3.52059,3.80148 0.74792,5.12255z" fill="#272525"/></g><g><path d="M260.61463,194.39193c2.86514,0.84635 -0.9637,2.51515 -5.12189,2.79191c2.48388,1.16943 -5.51289,2.24847 -10.37682,1.98702c-4.26689,-0.23493 -6.75239,0.90536 -11.02091,0.64205c-4.26851,-0.26257 -6.86272,-1.2699 -6.70048,-2.45278c0.10708,-0.87735 2.70128,-1.22732 2.80836,-2.10355c0.16224,-1.09585 -9.40014,-5.8718 -12.10304,-8.06163c-0.03894,0.00149 -0.07139,0.00224 -0.11032,0.00374c-0.47049,-1.35431 5.23708,-2.15659 10.92843,-1.91792c2.88137,0.12101 4.60597,0.65549 6.21052,1.20379c-0.05841,0.00224 -0.11032,0.00598 -0.16873,0.00859c4.52972,3.11014 4.51998,4.67025 12.29773,6.97773c3.13122,0.93487 8.99616,-0.36752 13.35715,0.92105z" fill="#20a6d8"/><path d="M262.30516,196.39911c-1.63537,0.80751 -4.05922,0.95355 -5.68162,1.01181c1.08051,2.62907 -10.45469,2.61861 -12.36749,1.9549c-7.63173,1.69457 -15.57658,0.75708 -17.93067,-0.76605c-1.75543,-1.13432 -0.95397,-2.46846 1.69215,-3.43284c-3.75421,-2.00196 -11.22533,-7.5757 -11.46382,-7.56599c-0.05192,0.00224 -0.10708,0.00411 -0.15737,0.00598c-0.07139,-0.10607 -0.13628,-0.21177 -0.18171,-0.31822c-0.09734,-0.22634 -0.11357,-0.45754 0.14926,-0.67828c0.08761,-0.07395 0.27094,-0.13222 0.50132,-0.17442c0.43967,-0.01905 0.87447,-0.0366 1.31738,-0.05789c0.31799,0.02204 0.60677,0.0691 0.79497,0.15089c0.03732,0.01681 0.08923,0.02727 0.1379,0.03884c1.14379,1.51678 12.55893,8.5666 12.6141,8.64466c0.24174,0.33839 -5.56318,1.88804 -1.37741,3.31593c3.02089,1.03086 9.31902,1.41967 12.07384,0.08889c2.53742,-1.22769 -0.39262,-1.64303 -1.57534,-2.09309c4.0868,-0.11093 5.29549,0.88333 4.59299,1.79168c-0.14115,0.18376 -0.56135,0.2917 -0.65382,0.47883c3.83696,0.12774 11.83535,0.01083 9.18598,-1.70241c-0.96208,-0.62038 -2.43034,-0.84897 -5.05375,-1.20603c3.78342,-0.63346 5.86332,0.95765 8.33585,0.6921c0.85987,-0.093 2.66234,-0.39927 3.0144,-0.63906c2.6299,-1.76031 -6.3322,-2.50357 -11.54494,-1.66693c-5.51938,-0.95205 -13.52588,-6.2931 -14.9617,-8.0493c-0.19955,-0.2439 0.46076,-0.37873 1.246,-0.47771c1.55425,0.05677 2.5796,0.37649 3.42162,0.73692c-0.07787,0.00747 -0.13304,0.01307 -0.14602,0.01569c2.333,2.36538 5.38634,5.19389 10.76457,7.13497c6.27541,-0.89491 18.38819,0.23194 13.25332,2.76614z" fill="#272525"/></g><g><path d="M324.27242,172.32404c-5.86332,0.33129 -16.22067,-0.07395 -19.62932,-1.98964c-4.93045,-2.771 22.25921,-4.77483 26.99011,-2.87408c4.76496,1.91494 -1.49909,4.53205 -7.36079,4.86372zM329.4446,167.95148c-2.99007,-0.98081 -17.98746,0.08777 -19.78993,1.25944c-2.70777,1.75582 9.8463,2.62309 14.07263,2.32803c4.22633,-0.29432 8.21904,-2.76652 5.71731,-3.58747z" fill="#272525"/><path d="M329.4446,167.9511c2.50173,0.82133 -1.49098,3.29315 -5.71731,3.58747c-4.22795,0.29507 -16.7804,-0.5722 -14.07263,-2.32803c1.80248,-1.1713 16.79987,-2.24025 19.78993,-1.25944z" fill="#205ed8"/></g><g><path d="M246.40735,175.8032c-2.8619,1.0077 -8.80472,0.83253 -12.10142,-0.05827c-3.94566,-1.06634 -5.40419,-2.10355 -5.40419,-3.6222c0,-2.71609 1.40499,-5.15505 10.3752,-6.3678c4.37884,-0.58415 8.11034,-0.14567 12.53784,0.40936c2.43034,0.30664 4.75685,0.46762 5.40256,1.16831c0.59704,0.68649 -1.29305,1.08091 -2.80836,1.63593c-6.16184,2.22008 -1.61915,4.61534 -8.00164,6.83468z" fill="#205ed8"/><path d="M256.89773,167.7707c1.01075,0.71451 -2.95275,1.66469 -3.56277,2.31122c-1.73109,1.83351 -1.22815,3.21023 -4.39506,5.01909c-1.55101,0.88445 -4.32367,1.83164 -8.40074,1.82642c-5.16245,-0.00747 -11.14421,-1.5997 -12.39994,-2.89014c-2.29406,-2.36164 0.464,-7.26869 10.32166,-8.35893c1.94687,-0.2002 3.01927,-0.25137 4.61246,-0.248c1.98905,-0.0183 7.18071,-0.00598 11.55467,1.20155c-1.58183,0.12848 -9.50722,-1.13955 -15.33647,-0.38022c-9.31253,1.2135 -12.23283,7.60969 -3.14906,9.36365c1.92578,0.37201 5.47719,0.55876 7.54412,0.17741c8.80472,-1.62398 4.16955,-8.30216 13.21114,-8.02204z" fill="#272525"/></g></g></g></svg>