<svg version="1.1" xmlns="http://www.w3.org/2000/svg" xmlns:xlink="http://www.w3.org/1999/xlink" width="1448.17702" height="938.66627"><defs><linearGradient x1="318.36118" y1="-313.36393" x2="318.36118" y2="625.3022" gradientUnits="userSpaceOnUse" id="color-1"><stop offset="0" stop-color="#aaeaff"/><stop offset="1" stop-color="#00bfff"/></linearGradient><linearGradient x1="113.8076" y1="88.34523" x2="113.8076" y2="190.24406" gradientUnits="userSpaceOnUse" id="color-2"><stop offset="0" stop-color="#daad85"/><stop offset="1" stop-color="#ffca9c"/></linearGradient></defs><g transform="translate(536.47193,313.36407)"><g data-paper-data="{&quot;isPaintingLayer&quot;:true}" fill="none" fill-rule="nonzero" stroke="none" stroke-width="none" stroke-linecap="butt" stroke-linejoin="miter" stroke-miterlimit="10" stroke-dasharray="" stroke-dashoffset="0" font-family="none" font-weight="none" font-size="none" text-anchor="none" style="mix-blend-mode: normal"><g data-paper-data="{&quot;origPos&quot;:null}" stroke-width="0"><path d="M-274.98275,625.3022v-938.66627h1186.68784v938.66627z" data-paper-data="{&quot;origPos&quot;:null}" fill="url(#color-1)" stroke="none"/><path d="M-326.49484,453.78729v-207.95655h1039.67015v207.95655z" data-paper-data="{&quot;origPos&quot;:null}" fill="#2c6e3a" stroke="none"/><path d="M-536.47193,-18.8896l264.31917,-269.03915l271.53843,269.03915z" data-paper-data="{&quot;origPos&quot;:null}" fill="#594024" stroke="none"/><path d="M-529.25264,313.86932v-339.83891h521.55835v339.83891z" data-paper-data="{&quot;origPos&quot;:null}" fill="#886237" stroke="none"/><path d="M-265.07274,-280.84876l40.11987,-2.36l316.37829,217.11931c0,0 -89.14907,41.80427 -102.40408,33.81927c-39.76503,-23.95499 -254.09408,-248.57857 -254.09408,-248.57857z" data-paper-data="{&quot;origPos&quot;:null}" fill="#553d22" stroke="none"/><path d="M-21.8542,316.22932v-355.17189l113.27964,-27.1469l9.43997,382.31879z" data-paper-data="{&quot;origPos&quot;:null}" fill="#6d4f2c" stroke="none"/><path d="M312.63768,-213.20131c0,20.54679 -27.33368,37.20324 -61.05146,37.20324c-33.71779,0 -61.05146,-16.65646 -61.05146,-37.20324c0,-20.54679 27.33368,-37.20324 61.05146,-37.20324c33.71779,0 61.05146,16.65644 61.05146,37.20324z" data-paper-data="{&quot;origPos&quot;:null}" fill="#dcdcdc" stroke="#000000"/><path d="M346.97918,-186.49129c0,20.54678 -27.33368,37.20324 -61.05146,37.20324c-33.71779,0 -61.05146,-16.65644 -61.05146,-37.20324c0,-20.54679 27.33368,-37.20324 61.05146,-37.20324c33.71779,0 61.05146,16.65644 61.05146,37.20324z" data-paper-data="{&quot;origPos&quot;:null}" fill="#dcdcdc" stroke="#000000"/><path d="M282.1119,-182.67559c0,20.54678 -27.33368,37.20324 -61.05146,37.20324c-33.71779,0 -61.05146,-16.65644 -61.05146,-37.20324c0,-20.54679 27.33368,-37.20324 61.05146,-37.20324c33.71779,0 61.05146,16.65644 61.05146,37.20324z" data-paper-data="{&quot;origPos&quot;:null}" fill="#dcdcdc" stroke="#000000"/><path d="M388.33535,327.6765c0,0 -16.30387,-169.07663 -14.76701,-178.10124c0.51228,-3.0082 85.25845,17.09401 85.25845,17.09401l0.716,0.78684l5.72357,185.02255z" data-paper-data="{&quot;origPos&quot;:null,&quot;index&quot;:null}" fill="#21a700" stroke="none"/><path d="M461.33815,169.51641c0,0 -83.46634,-16.89265 -88.86981,-21.15855c-1.80115,-1.42196 331.05521,7.80354 331.05521,7.80354l3.81572,19.07858z" data-paper-data="{&quot;origPos&quot;:null}" fill="#2c6e3a" stroke="none"/><path d="M460.49539,349.93545l-6.50727,-180.45287l256.60539,4.16548l-13.05805,154.56432z" data-paper-data="{&quot;origPos&quot;:null,&quot;origRot&quot;:0}" fill="#1e9b00" stroke="#000000"/></g><g data-paper-data="{&quot;origPos&quot;:null}" fill="#a5a5a5" stroke="#000000" stroke-width="1.5"><path d="M230.17612,278.67341l15.45746,45.1579l-46.5059,15.91888l6.83887,-46.01316z" data-paper-data="{&quot;origPos&quot;:null,&quot;origRot&quot;:0}"/><path d="M267.70628,293.98717l23.87753,-15.95468l3.43357,49.03488l-47.61357,3.33405z" data-paper-data="{&quot;origPos&quot;:null,&quot;origRot&quot;:0}"/><path d="M233.99748,336.05078l-7.78666,-47.09073l48.49643,-8.0191l-29.69112,47.51134z" data-paper-data="{&quot;origPos&quot;:null,&quot;origRot&quot;:0}"/><path d="M338.60553,295.938l-1.44818,37.35038l-48.42489,-8.44036l8.19571,-47.02126z" data-paper-data="{&quot;origPos&quot;:null,&quot;index&quot;:null,&quot;origRot&quot;:0}"/><path d="M255.15142,286.31724l28.01081,-6.33109l-14.37867,47.00492l-45.64246,-13.96189z" data-paper-data="{&quot;origPos&quot;:null,&quot;origRot&quot;:0}"/><path d="M356.74561,286.59766l17.0596,33.25836l-46.33883,16.39885l-15.92353,-44.99567z" data-paper-data="{&quot;origPos&quot;:null,&quot;index&quot;:null,&quot;origRot&quot;:0}"/></g><g data-paper-data="{&quot;origPos&quot;:null,&quot;origRot&quot;:0}" stroke="#000000" stroke-width="4"><path d="M148.96033,255.10613l-25.42498,-59.96857l19.18424,-10.54106l25.42498,59.96857z" data-paper-data="{&quot;origRot&quot;:0,&quot;origPos&quot;:null}" fill="#474747"/><path d="M172.55707,258.5553c-0.89923,6.97994 -6.63962,11.93374 -12.82153,11.06462c-6.18191,-0.86914 -10.46434,-7.23205 -9.56511,-14.21199c0.89923,-6.97994 6.63962,-11.93373 12.82153,-11.06461c6.1819,0.86912 10.46434,7.23205 9.56511,14.21199z" data-paper-data="{&quot;origPos&quot;:null}" fill="#daad85"/></g><path d="M89.3606,258.56749v-73.93059h46.20662v73.93059z" data-paper-data="{&quot;origPos&quot;:null}" fill="#474747" stroke="#000000" stroke-width="4"/><path d="M89.45304,329.43472v-69.82333h18.99606v69.82333z" data-paper-data="{&quot;origPos&quot;:null}" fill="#222222" stroke="#000000" stroke-width="4"/><path d="M116.36923,329.43472v-69.82333h18.99605v69.82333z" data-paper-data="{&quot;origPos&quot;:null}" fill="#222222" stroke="#000000" stroke-width="4"/><path d="M116.85947,338.41944c-4.28028,-6.35651 0.07173,-13.82098 9.72048,-16.67235c9.64875,-2.85139 20.94044,-0.00992 25.2207,6.34659c4.28028,6.35651 -0.07173,13.82098 -9.72048,16.67235c-9.64875,2.85139 -20.94044,0.00992 -25.2207,-6.34659z" data-paper-data="{&quot;origPos&quot;:null,&quot;origRot&quot;:0}" fill="#222222" stroke="#000000" stroke-width="4"/><path d="M85.27879,333.07424c0.7529,-6.94921 9.97386,-12.18332 20.59561,-11.69074c10.62175,0.49258 18.62199,6.52534 17.86909,13.47455c-0.7529,6.94921 -9.97386,12.18332 -20.59561,11.69074c-10.62175,-0.49258 -18.62199,-6.52534 -17.86909,-13.47455z" data-paper-data="{&quot;origPos&quot;:null}" fill="#222222" stroke="#000000" stroke-width="4"/><g data-paper-data="{&quot;origPos&quot;:null,&quot;origRot&quot;:0}" stroke="#000000" stroke-width="4"><path d="M50.37186,241.33232l37.74562,-55.75896l19.61478,13.15404l-37.74562,55.75897z" data-paper-data="{&quot;origRot&quot;:0,&quot;origPos&quot;:null}" fill="#474747"/><path d="M43.25171,254.55584c0.11129,-7.03693 5.87495,-12.72855 12.87352,-12.7126c6.99857,0.01595 12.58179,5.73342 12.4705,12.77035c-0.11129,7.03693 -5.87496,12.72855 -12.87352,12.7126c-6.99857,-0.01595 -12.58178,-5.73342 -12.47049,-12.77035z" data-paper-data="{&quot;origPos&quot;:null}" fill="#daad85"/></g><path d="M163.80328,105.52942c0,14.3251 -21.98135,25.93789 -49.09671,25.93789c-27.11536,0 -49.09671,-11.61278 -49.09671,-25.93789c0,-14.3251 21.98135,-25.93789 49.09671,-25.93789c27.11536,0 49.09671,11.61278 49.09671,25.93789z" data-paper-data="{&quot;origPos&quot;:null}" fill="#000000" stroke="none" stroke-width="0"/><path d="M62.8582,139.29461c0,-28.13858 22.81083,-50.94941 50.94941,-50.94941c28.13858,0 50.94941,22.81083 50.94941,50.94941c0,28.13858 -22.81082,50.94941 -50.94941,50.94941c-28.13858,0 -50.94941,-22.81083 -50.94941,-50.94941z" data-paper-data="{&quot;origPos&quot;:null}" fill="url(#color-2)" stroke="#000000" stroke-width="4"/><path d="M134.69108,130.29871c0,-6.13932 4.97692,-11.11623 11.11624,-11.11623c6.13932,0 11.11623,4.97692 11.11623,11.11623c0,6.13932 -4.97692,11.11624 -11.11623,11.11624c-6.13932,0 -11.11624,-4.97692 -11.11624,-11.11624z" data-paper-data="{&quot;origPos&quot;:null}" fill="#ffffff" stroke="#ffffff" stroke-width="4"/><path d="M104.17381,130.37233c0,-6.13932 4.97692,-11.11624 11.11623,-11.11624c6.13932,0 11.11623,4.97692 11.11623,11.11624c0,6.13932 -4.97692,11.11623 -11.11623,11.11623c-6.13932,0 -11.11623,-4.97692 -11.11623,-11.11623z" data-paper-data="{&quot;origPos&quot;:null}" fill="#ffffff" stroke="#ffffff" stroke-width="4"/><path d="M139.63028,135.46311c0,-4.6045 3.73267,-8.33717 8.33717,-8.33717c4.6045,0 8.33717,3.73267 8.33717,8.33717c0,4.6045 -3.73267,8.33717 -8.33717,8.33717c-4.6045,0 -8.33717,-3.73267 -8.33717,-8.33717z" data-paper-data="{&quot;origPos&quot;:null}" fill="#000000" stroke="#ffffff" stroke-width="0"/><path d="M107.99838,135.49992c0,-4.6045 3.73267,-8.33717 8.33717,-8.33717c4.6045,0 8.33717,3.73267 8.33717,8.33717c0,4.6045 -3.73267,8.33718 -8.33717,8.33718c-4.6045,0 -8.33717,-3.73268 -8.33717,-8.33718z" data-paper-data="{&quot;origPos&quot;:null}" fill="#000000" stroke="#ffffff" stroke-width="0"/><path d="M145.5438,166.62329c0.27608,2.48471 -2.20863,2.76079 -2.20863,2.76079l-1.48551,-0.113c-2.17623,0.72541 -4.51835,1.79556 -6.79057,2.12829c-3.16783,0.46388 -6.78499,0 -10,0c0,0 -2.5,0 -2.5,-2.5c0,-2.5 2.5,-2.5 2.5,-2.5c3.22884,0 6.81282,0.43725 10,0c1.60052,-0.21958 3.63492,-1.34687 5.20943,-1.87171l2.51449,-0.113c0,0 2.48471,-0.27608 2.76079,2.20863z" data-paper-data="{&quot;origPos&quot;:null}" fill="#000000" stroke="none" stroke-width="0.5"/><text transform="translate(181.56538,126.84828) scale(3.09936,3.09936)" font-size="16" xml:space="preserve" data-paper-data="{&quot;origPos&quot;:null}" fill="#188d00" fill-rule="nonzero" stroke="#188d00" stroke-width="1" stroke-linecap="butt" stroke-linejoin="miter" stroke-miterlimit="10" stroke-dasharray="" stroke-dashoffset="0" font-family="Sans Serif" font-weight="500" text-anchor="start" style="mix-blend-mode: normal"><tspan x="0" dy="0">The Trash</tspan></text><text transform="translate(156.56538,66.17768) scale(3.26112,3.26112)" font-size="16" xml:space="preserve" data-paper-data="{&quot;origPos&quot;:null}" fill="#000000" fill-rule="nonzero" stroke="#000000" stroke-width="1" stroke-linecap="butt" stroke-linejoin="miter" stroke-miterlimit="10" stroke-dasharray="" stroke-dashoffset="0" font-family="&quot;ヒラギノ角ゴ Pro W3&quot;, &quot;Hiragino Kaku Gothic Pro&quot;, Osaka, &quot;メイリオ&quot;, Meiryo, &quot;ＭＳ Ｐゴシック&quot;, &quot;MS PGothic&quot;" font-weight="500" text-anchor="start" style="mix-blend-mode: normal"><tspan x="0" dy="0">Taking Out</tspan></text></g></g></svg>