<svg version="1.1" xmlns="http://www.w3.org/2000/svg" xmlns:xlink="http://www.w3.org/1999/xlink" width="922.01311" height="513.1028" viewBox="0,0,922.01311,513.1028"><g transform="translate(9.67647,11.0297)"><g data-paper-data="{&quot;isPaintingLayer&quot;:true}" fill-rule="nonzero" stroke-linejoin="miter" stroke-miterlimit="10" stroke-dasharray="" stroke-dashoffset="0" style="mix-blend-mode: normal"><path d="M-9.67647,381.81625v-392.84595h499.25978v392.84596z" fill="#4d3913" stroke="none" stroke-width="0" stroke-linecap="butt"/><path d="M136.61872,318.23652v-276.47302h206.76256v276.47302z" fill="#ffffff" stroke="#000000" stroke-width="12.5" stroke-linecap="butt"/><path d="M189.55427,268.42733v-176.06539h97.91835v176.06539z" fill="#6e6e6e" stroke="none" stroke-width="0" stroke-linecap="butt"/><g><path d="M323.98412,392.43006c-7.01184,-0.59754 -19.41455,-2.99429 -26.32477,-7.86829c-6.57484,-4.63744 -7.85104,-11.59883 -7.28247,-18.27039c0.49217,-5.77504 3.40865,-15.44736 9.33329,-19.53217c8.1132,-5.59377 20.58847,-4.55512 28.49684,-3.88115c13.68339,1.16612 23.83066,13.20404 22.66453,26.88744c-1.16612,13.6834 -13.20405,23.83066 -26.88744,22.66454z" fill="#ffcb9d" stroke="#000000" stroke-width="0" stroke-linecap="butt"/><path d="M346.84574,371.76596c0,0 126.11986,24.5727 202.12603,39.38145c98.34004,19.16019 338.36487,65.9257 338.36487,65.9257" data-paper-data="{&quot;index&quot;:null}" fill="none" stroke="#040017" stroke-width="50" stroke-linecap="round"/></g></g></g></svg>