<svg version="1.1" xmlns="http://www.w3.org/2000/svg" xmlns:xlink="http://www.w3.org/1999/xlink" width="694.10758" height="813.64426" viewBox="0,0,694.10758,813.64426"><defs><linearGradient x1="339.91804" y1="-74.89442" x2="339.91804" y2="446.75927" gradientUnits="userSpaceOnUse" id="color-1"><stop offset="0" stop-color="#a2a2a2"/><stop offset="1" stop-color="#4d4d4d"/></linearGradient></defs><g transform="translate(53.34789,268.24058)"><g data-paper-data="{&quot;isPaintingLayer&quot;:true}" fill-rule="nonzero" stroke-linejoin="miter" stroke-miterlimit="10" stroke-dasharray="" stroke-dashoffset="0" style="mix-blend-mode: normal"><path d="M-9.67647,381.81618v-392.84595h499.25978v392.84596z" fill="#7b5b1f" stroke="none" stroke-width="0" stroke-linecap="butt"/><path d="M554.52102,446.75927h-429.20594v-521.65369h429.20594z" data-paper-data="{&quot;origRot&quot;:0}" fill="url(#color-1)" stroke="#ffffff" stroke-width="0" stroke-linecap="butt"/><path d="M158.44349,541.87164c0,-8.55232 5.69046,-24.08835 30.3972,-24.08835c24.70674,0 44.73552,6.93302 44.73552,15.48537c0,8.55232 -75.13272,17.15534 -75.13272,8.60298z" fill="#040017" stroke="none" stroke-width="0" stroke-linecap="butt"/><path d="M234.14976,533.26863c0,-8.55232 20.02878,-15.48537 44.73552,-15.48537c24.70676,0 30.3972,15.53603 30.3972,24.08835c0,8.55232 -75.13275,-0.05066 -75.13275,-8.60298z" data-paper-data="{&quot;index&quot;:null}" fill="#040017" stroke="none" stroke-width="0" stroke-linecap="butt"/><path d="M73.17614,359.82858c-11.45146,13.09498 -34.37635,34.297 -54.19891,40.93144c-18.86051,6.31241 -34.59698,-1.33226 -47.05641,-12.22799c-10.78514,-9.43163 -25.78695,-29.39632 -25.25494,-47.17735c0.7285,-24.34943 21.05385,-47.68347 33.96954,-62.45271c22.34726,-25.55438 61.17926,-28.15425 86.73364,-5.80698c25.55439,22.34727 28.15426,61.17928 5.80698,86.73365z" fill="#ffcb9d" stroke="#000000" stroke-width="0" stroke-linecap="butt"/><path d="M32.51474,305.32151l350.57406,-424.63848" data-paper-data="{&quot;index&quot;:null}" fill="none" stroke="#040017" stroke-width="50" stroke-linecap="round"/><path d="M397.48906,394.67013c0,0 0.04513,-142.44876 0.10399,-147.87264c0.06707,-6.17987 0.15197,-14.00298 0.20827,-19.19114c0.1091,-10.05251 0.73569,-19.75338 0.73569,-19.75338" data-paper-data="{&quot;index&quot;:null}" fill="none" stroke="#282828" stroke-width="50" stroke-linecap="round"/><path d="M443.0296,392.16263c0,0 0.04513,-142.44876 0.10399,-147.87264c0.06707,-6.17987 0.15197,-14.00298 0.20827,-19.19114c0.1091,-10.05251 0.73569,-19.75338 0.73569,-19.75338" data-paper-data="{&quot;index&quot;:null}" fill="none" stroke="#282828" stroke-width="50" stroke-linecap="round"/><path d="M489.57615,390.66112c0,0 0.04513,-142.44876 0.10399,-147.87264c0.06707,-6.17987 0.15197,-14.00298 0.20827,-19.19114c0.1091,-10.05251 0.73569,-19.75338 0.73569,-19.75338" data-paper-data="{&quot;index&quot;:null}" fill="none" stroke="#282828" stroke-width="50" stroke-linecap="round"/><path d="M351.9335,395.66112c0,0 0.04513,-142.44876 0.10399,-147.87264c0.06707,-6.17987 0.15197,-14.00298 0.20827,-19.19114c0.1091,-10.05251 0.73569,-19.75338 0.73569,-19.75338" data-paper-data="{&quot;index&quot;:null}" fill="none" stroke="#282828" stroke-width="50" stroke-linecap="round"/><path d="M294.79886,168.10346l51.16104,-430.68447l156.57235,-5.65957l40.92879,436.34398c0,0 -24.37108,47.16243 -123.68983,39.61647c-107.8054,-8.19081 -124.97227,-39.61647 -124.97227,-39.61647z" fill="#040017" stroke="#000000" stroke-width="0" stroke-linecap="butt"/><path d="M615.75969,216.48895l-148.26664,-389.78469" data-paper-data="{&quot;index&quot;:null}" fill="none" stroke="#040017" stroke-width="50" stroke-linecap="round"/></g></g></svg>