<svg version="1.1" xmlns="http://www.w3.org/2000/svg" xmlns:xlink="http://www.w3.org/1999/xlink" width="827.93412" height="648.32647" viewBox="0,0,827.93412,648.32647"><g transform="translate(9.67647,11.02971)"><g data-paper-data="{&quot;isPaintingLayer&quot;:true}" fill-rule="nonzero" stroke-linejoin="miter" stroke-miterlimit="10" stroke-dasharray="" stroke-dashoffset="0" style="mix-blend-mode: normal"><path d="M-9.67647,381.81625v-392.84595h499.25978v392.84596z" fill="#4d3913" stroke="none" stroke-width="0" stroke-linecap="butt"/><path d="M136.61872,318.23652v-276.47302h206.76256v276.47302z" fill="#ffffff" stroke="#000000" stroke-width="12.5" stroke-linecap="butt"/><path d="M189.55427,268.42733v-176.06539h97.91835v176.06539z" fill="#6e6e6e" stroke="none" stroke-width="0" stroke-linecap="butt"/><g><path d="M310.95687,309.11947c-6.18564,-3.35572 -16.59036,-10.51907 -20.97018,-17.75261c-4.16726,-6.88247 -2.54866,-13.7723 0.64424,-19.65773c2.76384,-5.09456 9.30991,-12.78927 16.37459,-14.1594c9.67439,-1.87628 20.68951,4.07169 27.66602,7.8565c12.07106,6.54862 16.54789,21.64288 9.99926,33.71394c-6.54862,12.07107 -21.64289,16.54789 -33.71395,9.99927z" fill="#ffcb9d" stroke="#000000" stroke-width="0" stroke-linecap="butt"/><path d="M340.1808,299.34089c0,0 105.72239,73.02611 169.43602,117.03533c82.43542,56.941 283.64083,195.92055 283.64083,195.92055" data-paper-data="{&quot;index&quot;:null}" fill="none" stroke="#040017" stroke-width="50" stroke-linecap="round"/></g></g></g></svg>