<svg version="1.1" xmlns="http://www.w3.org/2000/svg" xmlns:xlink="http://www.w3.org/1999/xlink" width="650.43616" height="813.64426" viewBox="0,0,650.43616,813.64426"><defs><linearGradient x1="339.91804" y1="-74.89442" x2="339.91804" y2="446.75927" gradientUnits="userSpaceOnUse" id="color-1"><stop offset="0" stop-color="#a2a2a2"/><stop offset="1" stop-color="#4d4d4d"/></linearGradient></defs><g transform="translate(9.67647,268.24058)"><g data-paper-data="{&quot;isPaintingLayer&quot;:true}" fill-rule="nonzero" stroke-linejoin="miter" stroke-miterlimit="10" stroke-dasharray="" stroke-dashoffset="0" style="mix-blend-mode: normal"><path d="M-9.67647,381.81618v-392.84595h499.25978v392.84596z" fill="#7b5b1f" stroke="none" stroke-width="0" stroke-linecap="butt"/><path d="M554.52102,446.75927h-429.20594v-521.65369h429.20594z" data-paper-data="{&quot;origRot&quot;:0}" fill="url(#color-1)" stroke="#ffffff" stroke-width="0" stroke-linecap="butt"/><path d="M158.44349,541.87164c0,-8.55232 5.69046,-24.08835 30.3972,-24.08835c24.70674,0 44.73552,6.93302 44.73552,15.48537c0,8.55232 -75.13272,17.15534 -75.13272,8.60298z" fill="#040017" stroke="none" stroke-width="0" stroke-linecap="butt"/><path d="M234.14976,533.26863c0,-8.55232 20.02878,-15.48537 44.73552,-15.48537c24.70676,0 30.3972,15.53603 30.3972,24.08835c0,8.55232 -75.13275,-0.05066 -75.13275,-8.60298z" data-paper-data="{&quot;index&quot;:null}" fill="#040017" stroke="none" stroke-width="0" stroke-linecap="butt"/><path d="M274.18038,265.94352c-7.54323,15.67527 -23.98147,42.22448 -41.31589,53.90642c-16.49313,11.11494 -33.69866,7.9452 -48.61316,0.76801c-12.91032,-6.21278 -32.69433,-21.45207 -36.92491,-38.73068c-5.79341,-23.6614 7.57074,-51.57191 16.07852,-69.25137c14.7205,-30.58976 51.45176,-43.45434 82.04153,-28.73383c30.58977,14.7205 43.45435,51.45178 28.73384,82.04154z" fill="#ffcb9d" stroke="#000000" stroke-width="0" stroke-linecap="butt"/><path d="M228.26304,202.30904l148.26664,-389.78469" data-paper-data="{&quot;index&quot;:null}" fill="none" stroke="#040017" stroke-width="50" stroke-linecap="round"/><path d="M397.48906,394.67013c0,0 0.04513,-142.44876 0.10399,-147.87264c0.06707,-6.17987 0.15197,-14.00298 0.20827,-19.19114c0.1091,-10.05251 0.73569,-19.75338 0.73569,-19.75338" data-paper-data="{&quot;index&quot;:null}" fill="none" stroke="#282828" stroke-width="50" stroke-linecap="round"/><path d="M443.0296,392.16263c0,0 0.04513,-142.44876 0.10399,-147.87264c0.06707,-6.17987 0.15197,-14.00298 0.20827,-19.19114c0.1091,-10.05251 0.73569,-19.75338 0.73569,-19.75338" data-paper-data="{&quot;index&quot;:null}" fill="none" stroke="#282828" stroke-width="50" stroke-linecap="round"/><path d="M489.57615,390.66112c0,0 0.04513,-142.44876 0.10399,-147.87264c0.06707,-6.17987 0.15197,-14.00298 0.20827,-19.19114c0.1091,-10.05251 0.73569,-19.75338 0.73569,-19.75338" data-paper-data="{&quot;index&quot;:null}" fill="none" stroke="#282828" stroke-width="50" stroke-linecap="round"/><path d="M351.9335,395.66112c0,0 0.04513,-142.44876 0.10399,-147.87264c0.06707,-6.17987 0.15197,-14.00298 0.20827,-19.19114c0.1091,-10.05251 0.73569,-19.75338 0.73569,-19.75338" data-paper-data="{&quot;index&quot;:null}" fill="none" stroke="#282828" stroke-width="50" stroke-linecap="round"/><path d="M294.79886,168.10346l51.16104,-430.68447l156.57235,-5.65957l40.92879,436.34398c0,0 -24.37108,47.16243 -123.68983,39.61647c-107.8054,-8.19081 -124.97227,-39.61647 -124.97227,-39.61647z" fill="#040017" stroke="#000000" stroke-width="0" stroke-linecap="butt"/><path d="M615.75969,216.48895l-148.26664,-389.78469" data-paper-data="{&quot;index&quot;:null}" fill="none" stroke="#040017" stroke-width="50" stroke-linecap="round"/></g></g></svg>