<svg version="1.1" xmlns="http://www.w3.org/2000/svg" xmlns:xlink="http://www.w3.org/1999/xlink" width="869.66584" height="577.69664" viewBox="0,0,869.66584,577.69664"><g transform="translate(9.67647,11.0297)"><g data-paper-data="{&quot;isPaintingLayer&quot;:true}" fill-rule="nonzero" stroke-linejoin="miter" stroke-miterlimit="10" stroke-dasharray="" stroke-dashoffset="0" style="mix-blend-mode: normal"><path d="M-9.67647,381.81625v-392.84595h499.25978v392.84596z" fill="#4d3913" stroke="none" stroke-width="0" stroke-linecap="butt"/><path d="M136.61872,318.23652v-276.47302h206.76256v276.47302z" fill="#ffffff" stroke="#000000" stroke-width="12.5" stroke-linecap="butt"/><path d="M189.55427,268.42733v-176.06539h97.91835v176.06539z" fill="#6e6e6e" stroke="none" stroke-width="0" stroke-linecap="butt"/><g><path d="M302.90638,338.15231c-6.72045,-2.0877 -18.32035,-7.08911 -24.02422,-13.33193c-5.42704,-5.93983 -5.18029,-13.01293 -3.19387,-19.40723c1.71949,-5.53504 6.64284,-14.35662 13.30578,-17.07548c9.12424,-3.72324 21.08633,-0.03276 28.66604,2.3219c13.11474,4.07413 20.44362,18.00848 16.36948,31.12323c-4.07413,13.11475 -18.00849,20.44362 -31.12323,16.36949z" fill="#ffcb9d" stroke="#000000" stroke-width="0" stroke-linecap="butt"/><path d="M329.6684,322.87314c0,0 117.9132,51.05403 188.97362,81.82177c91.94102,39.80861 316.34735,136.97203 316.34735,136.97203" data-paper-data="{&quot;index&quot;:null}" fill="none" stroke="#040017" stroke-width="50" stroke-linecap="round"/></g></g></g></svg>