<svg version="1.1" xmlns="http://www.w3.org/2000/svg" xmlns:xlink="http://www.w3.org/1999/xlink" width="499.35293" height="382.05954" viewBox="0,0,499.35293,382.05954"><defs><linearGradient x1="347.60573" y1="88.76924" x2="347.60573" y2="333.23078" gradientUnits="userSpaceOnUse" id="color-1"><stop offset="0" stop-color="#a2a2a2"/><stop offset="1" stop-color="#4d4d4d"/></linearGradient></defs><g transform="translate(9.67647,11.02977)"><g data-paper-data="{&quot;isPaintingLayer&quot;:true}" fill-rule="nonzero" stroke-linejoin="miter" stroke-miterlimit="10" stroke-dasharray="" stroke-dashoffset="0" style="mix-blend-mode: normal"><path d="M-9.67647,225.66003v-236.6898h499.25978v236.6898z" fill="#4d3913" stroke="none" stroke-width="0" stroke-linecap="butt"/><path d="M-9.46152,371.02977v-156.6413h499.13798v156.6413z" fill="#7b5b1f" stroke="none" stroke-width="0" stroke-linecap="butt"/><path d="M66.08051,263.28777v-113h145v113z" fill="#99865c" stroke="none" stroke-width="NaN" stroke-linecap="butt"/><path d="M78.58201,184.55382v-48.26605h122.34884v48.26605z" fill="#000000" stroke="none" stroke-width="0" stroke-linecap="butt"/><text transform="translate(102.58051,173.05924) scale(0.77983,0.77983)" font-size="40" xml:space="preserve" fill="#ffffff" fill-rule="nonzero" stroke="none" stroke-width="1" stroke-linecap="butt" stroke-linejoin="miter" stroke-miterlimit="10" stroke-dasharray="" stroke-dashoffset="0" font-family="Pixel" font-weight="normal" text-anchor="start" style="mix-blend-mode: normal"><tspan x="0" dy="0">11:00</tspan></text><path d="M424.25075,333.23078h-153.29003v-244.46154h153.29003z" data-paper-data="{&quot;origRot&quot;:0}" fill="url(#color-1)" stroke="#ffffff" stroke-width="0" stroke-linecap="butt"/><path d="M327.0344,261.58304c-1.0747,2.23329 -3.41669,6.01581 -5.88636,7.68016c-2.34981,1.58357 -4.80112,1.13197 -6.92602,0.10942c-1.83936,-0.88515 -4.65803,-3.05632 -5.26077,-5.51804c-0.8254,-3.37109 1.07862,-7.34756 2.29074,-9.86639c2.09726,-4.35819 7.33044,-6.19103 11.68863,-4.09377c4.35819,2.09726 6.19103,7.33044 4.09377,11.68863z" fill="#ffcb9d" stroke="#000000" stroke-width="0" stroke-linecap="butt"/><path d="M319.63677,252.73082l21.12386,-55.53344" data-paper-data="{&quot;index&quot;:null}" fill="none" stroke="#040017" stroke-width="17.5" stroke-linecap="round"/><path d="M353.66274,312.30607c0,0 0.04513,-14.64026 0.10399,-20.06414c0.06707,-6.17987 0.15198,-14.00298 0.20828,-19.19113c0.1091,-10.05251 0.73568,-19.75339 0.73568,-19.75339" data-paper-data="{&quot;index&quot;:null}" fill="none" stroke="#282828" stroke-width="17.5" stroke-linecap="round"/><path d="M337.93951,311.09658c0,0 0.04513,-11.81813 0.10399,-17.24201c0.06707,-6.17987 0.15197,-14.00298 0.20827,-19.19114c0.1091,-10.05251 0.73569,-19.75338 0.73569,-19.75338" data-paper-data="{&quot;index&quot;:null}" fill="none" stroke="#282828" stroke-width="17.5" stroke-linecap="round"/><path d="M329.11627,247.64356l7.28902,-61.36052l22.30719,-0.80633l5.83121,62.16684c0,0 -3.4722,6.71933 -17.62235,5.64424c-15.35926,-1.16696 -17.80506,-5.64424 -17.80506,-5.64424z" fill="#040017" stroke="#000000" stroke-width="0" stroke-linecap="butt"/><path d="M285.49849,158.29952v-67.78176h122v67.78176z" fill="#ffffff" stroke="none" stroke-width="0" stroke-linecap="butt"/><path d="M306.50378,147.15397c0,-23.8658 19.34705,-43.21285 43.21284,-43.21285c23.86581,0 43.21285,19.34706 43.21285,43.21285c0,23.8658 -19.34704,43.21285 -43.21285,43.21285c-23.86581,0 -43.21284,-19.34705 -43.21284,-43.21285z" fill="#ffcb9d" stroke="#000000" stroke-width="0" stroke-linecap="butt"/><path d="M307.36467,156.58355c0,0 -11.76282,-51.20219 23.78643,-58.65977c4.84276,-1.01592 25.80716,-3.3439 25.80716,-3.3439l1.9352,3.69186c0,0 7.56513,-0.49757 12.03521,0.29478c4.47008,0.79235 11.02058,3.79202 11.02058,3.79202l-3.64705,4.00859c0,0 4.03179,4.15281 5.76281,8.27827c2.89294,6.89464 19.56739,12.55173 12.39801,13.51539c-7.16938,0.96366 -39.75844,0.04879 -60.12585,-7.10013c-11.91806,-4.18322 -10.33645,-2.54195 -12.44161,-2.16508c-10.63252,1.9034 -10.37771,32.81531 -10.37771,32.81531c0,0 -0.615,-5.34267 -3.89952,-2.10334c-2.50901,2.47449 -2.25365,6.97601 -2.25365,6.97601z" fill="#000000" stroke="#000000" stroke-width="0" stroke-linecap="butt"/><path d="M309.70593,322.21509c0,-4.00786 2.66671,-11.28848 14.24498,-11.28848c11.57827,0 20.96432,3.24901 20.96432,7.25688c0,4.00786 -35.2093,8.03947 -35.2093,4.0316z" fill="#040017" stroke="none" stroke-width="0" stroke-linecap="butt"/><path d="M345.18401,318.18349c0,-4.00786 9.38605,-7.25688 20.96432,-7.25688c11.57828,0 14.24498,7.28062 14.24498,11.28848c0,4.00786 -35.20931,-0.02374 -35.20931,-4.0316z" data-paper-data="{&quot;index&quot;:null}" fill="#040017" stroke="none" stroke-width="0" stroke-linecap="butt"/><path d="M367.25292,261.58304c-2.09726,-4.35819 -0.26442,-9.59137 4.09377,-11.68863c4.35819,-2.09726 9.59137,-0.26442 11.68863,4.09377c1.21212,2.51883 3.11614,6.4953 2.29074,9.86639c-0.60273,2.46172 -3.42141,4.6329 -5.26076,5.51804c-2.12489,1.02255 -4.57621,1.47415 -6.92602,-0.10942c-2.46967,-1.66435 -4.81165,-5.44686 -5.88637,-7.68016z" data-paper-data="{&quot;index&quot;:null}" fill="#ffcb9d" stroke="#000000" stroke-width="0" stroke-linecap="butt"/><path d="M374.84423,254.53714l-21.12386,-55.53344" data-paper-data="{&quot;index&quot;:null}" fill="none" stroke="#040017" stroke-width="17.5" stroke-linecap="round"/><path d="M347.13145,177.69574l10.95251,0.21838" fill="none" stroke="#000000" stroke-width="4" stroke-linecap="round"/><path d="M359.63326,159.36335c0,0 0,-8.65737 0,-12.76823c0,-4.07861 0,-12.18784 0,-12.18784" fill="none" stroke="#000000" stroke-width="7.5" stroke-linecap="round"/><path d="M344.15664,159.65108c0,0 0,-8.65738 0,-12.76823c0,-4.07861 0,-12.18784 0,-12.18784" fill="none" stroke="#000000" stroke-width="7.5" stroke-linecap="round"/></g></g></svg>