<svg version="1.1" xmlns="http://www.w3.org/2000/svg" xmlns:xlink="http://www.w3.org/1999/xlink" width="940.75251" height="813.64426" viewBox="0,0,940.75251,813.64426"><defs><linearGradient x1="339.91804" y1="-74.89442" x2="339.91804" y2="446.75928" gradientUnits="userSpaceOnUse" id="color-1"><stop offset="0" stop-color="#a2a2a2"/><stop offset="1" stop-color="#4d4d4d"/></linearGradient></defs><g transform="translate(299.99282,268.24057)"><g data-paper-data="{&quot;isPaintingLayer&quot;:true}" fill-rule="nonzero" stroke-linejoin="miter" stroke-miterlimit="10" stroke-dasharray="" stroke-dashoffset="0" style="mix-blend-mode: normal"><path d="M-9.67647,381.81618v-392.84595h499.25978v392.84596z" fill="#7b5b1f" stroke="none" stroke-width="0" stroke-linecap="butt"/><path d="M554.52102,446.75928h-429.20594v-521.65369h429.20594z" data-paper-data="{&quot;origRot&quot;:0}" fill="url(#color-1)" stroke="#ffffff" stroke-width="0" stroke-linecap="butt"/><path d="M158.44349,541.87164c0,-8.55232 5.69046,-24.08835 30.3972,-24.08835c24.70674,0 44.73552,6.93302 44.73552,15.48537c0,8.55232 -75.13272,17.15534 -75.13272,8.60298z" fill="#040017" stroke="none" stroke-width="0" stroke-linecap="butt"/><path d="M234.14976,533.26864c0,-8.55232 20.02878,-15.48537 44.73552,-15.48537c24.70676,0 30.3972,15.53603 30.3972,24.08835c0,8.55232 -75.13275,-0.05066 -75.13275,-8.60298z" data-paper-data="{&quot;index&quot;:null}" fill="#040017" stroke="none" stroke-width="0" stroke-linecap="butt"/><path d="M-205.12607,151.27833c-17.27575,2.04032 -48.49983,2.40501 -67.65633,-5.96027c-18.22675,-7.95931 -24.77908,-24.18105 -26.72033,-40.61838c-1.68035,-14.22854 0.57133,-39.09967 12.88581,-51.93718c16.86349,-17.57978 47.58784,-21.26913 67.07246,-23.57025c33.71311,-3.98151 64.27066,20.12075 68.25218,53.83386c3.98152,33.71313 -20.12076,64.27069 -53.83387,68.25219z" fill="#ffcb9d" stroke="#000000" stroke-width="0" stroke-linecap="butt"/><path d="M346.0405,3.48888l-544.79934,80.08549" data-paper-data="{&quot;index&quot;:null}" fill="none" stroke="#040017" stroke-width="50" stroke-linecap="round"/><path d="M397.48906,394.67013c0,0 0.04513,-142.44876 0.10399,-147.87264c0.06707,-6.17987 0.15197,-14.00298 0.20827,-19.19114c0.1091,-10.05251 0.73569,-19.75338 0.73569,-19.75338" data-paper-data="{&quot;index&quot;:null}" fill="none" stroke="#282828" stroke-width="50" stroke-linecap="round"/><path d="M443.0296,392.16263c0,0 0.04513,-142.44876 0.10399,-147.87264c0.06707,-6.17987 0.15197,-14.00298 0.20827,-19.19114c0.1091,-10.05251 0.73569,-19.75338 0.73569,-19.75338" data-paper-data="{&quot;index&quot;:null}" fill="none" stroke="#282828" stroke-width="50" stroke-linecap="round"/><path d="M489.57615,390.66113c0,0 0.04513,-142.44876 0.10399,-147.87264c0.06707,-6.17987 0.15197,-14.00298 0.20827,-19.19114c0.1091,-10.05251 0.73569,-19.75338 0.73569,-19.75338" data-paper-data="{&quot;index&quot;:null}" fill="none" stroke="#282828" stroke-width="50" stroke-linecap="round"/><path d="M351.9335,395.66113c0,0 0.04513,-142.44876 0.10399,-147.87264c0.06707,-6.17987 0.15197,-14.00298 0.20827,-19.19114c0.1091,-10.05251 0.73569,-19.75338 0.73569,-19.75338" data-paper-data="{&quot;index&quot;:null}" fill="none" stroke="#282828" stroke-width="50" stroke-linecap="round"/><path d="M294.79886,168.10347l51.16104,-430.68447l156.57235,-5.65957l40.92879,436.34398c0,0 -24.37108,47.16243 -123.68983,39.61647c-107.8054,-8.19081 -124.97227,-39.61647 -124.97227,-39.61647z" fill="#040017" stroke="#000000" stroke-width="0" stroke-linecap="butt"/><path d="M615.75969,216.48895l-148.26664,-389.78469" data-paper-data="{&quot;index&quot;:null}" fill="none" stroke="#040017" stroke-width="50" stroke-linecap="round"/></g></g></svg>