<svg version="1.1" xmlns="http://www.w3.org/2000/svg" xmlns:xlink="http://www.w3.org/1999/xlink" width="490" height="368" viewBox="0,0,490,368"><g transform="translate(4.5,5.7)"><g data-paper-data="{&quot;isPaintingLayer&quot;:true}" stroke-linecap="butt" stroke-linejoin="miter" stroke-miterlimit="10" stroke-dasharray="" stroke-dashoffset="0" style="mix-blend-mode: normal"><path d="M-4.5,362.3v-368h490v368z" fill="#e0e0e0" fill-rule="nonzero" stroke="#000000" stroke-width="0"/><path d="M148.81047,153.83002c-3.4191,41.78506 -47.20068,74.64824 -58.30668,74.64824c-11.106,0 -54.89516,-32.86318 -58.30668,-74.64824c-0.09855,-1.36318 -0.19711,-2.72635 -0.19711,-4.08953c0,-20.25992 15.30635,-36.74049 34.13037,-36.74049c9.55226,0 18.23268,4.19565 24.37342,11.12581c6.14074,-6.93016 14.82116,-11.12581 24.37342,-11.12581c18.81643,0 34.12279,16.48057 34.12279,36.74049c0,1.36318 -0.09855,2.72635 -0.18953,4.08953z" fill="#a2a6b2" fill-rule="evenodd" stroke="none" stroke-width="1"/><path d="M401.74122,119.25782l11.69941,25.22591l26.15916,4.05725c8.91342,1.37365 12.46854,13.02687 6.0249,19.72224l-18.93783,19.64037l4.46953,27.73667c1.52118,9.44266 -7.79391,16.64746 -15.75873,12.18994l-23.39881,-13.09964l-23.39881,13.09964c-7.97338,4.45751 -17.27991,-2.74728 -15.76728,-12.18994l4.47808,-27.73667l-18.92928,-19.64037c-6.45219,-6.69537 -2.89708,-18.3486 6.01635,-19.72224l26.1677,-4.05725l11.69086,-25.22591c3.99096,-8.58754 15.49381,-8.58754 19.48476,0" fill="#a2a6b2" fill-rule="evenodd" stroke="none" stroke-width="1"/><path d="M139,357.60001v-75h211v75z" fill="#ff0000" fill-rule="nonzero" stroke="#000000" stroke-width="0"/><text transform="translate(149,299.35001) scale(0.34832,0.34832)" font-size="40" xml:space="preserve" fill="#ffffff" fill-rule="nonzero" stroke="none" stroke-width="1" stroke-linecap="butt" stroke-linejoin="miter" stroke-miterlimit="10" stroke-dasharray="" stroke-dashoffset="0" font-family="Sans Serif" font-weight="normal" text-anchor="start" style="mix-blend-mode: normal"><tspan x="0" dy="0">Scratch Cloud is kinda buggy </tspan><tspan x="0" dy="46.15px">             at the moment</tspan></text><text transform="translate(145,333.97501) scale(0.33749,0.33749)" font-size="40" xml:space="preserve" fill="#ffffff" fill-rule="nonzero" stroke="none" stroke-width="1" stroke-linecap="butt" stroke-linejoin="miter" stroke-miterlimit="10" stroke-dasharray="" stroke-dashoffset="0" font-family="Sans Serif" font-weight="normal" text-anchor="start" style="mix-blend-mode: normal"><tspan x="0" dy="0">If the ping var doesnt change,</tspan><tspan x="0" dy="46.15px">go to the link in the description</tspan></text></g></g></svg>