<svg version="1.1" xmlns="http://www.w3.org/2000/svg" xmlns:xlink="http://www.w3.org/1999/xlink" width="1448.17696" height="938.66627"><defs><linearGradient x1="318.36113" y1="-313.36405" x2="318.36113" y2="625.30221" gradientUnits="userSpaceOnUse" id="color-1"><stop offset="0" stop-color="#aaeaff"/><stop offset="1" stop-color="#00bfff"/></linearGradient><linearGradient x1="240.33286" y1="47.69836" x2="240.33286" y2="160.64786" gradientUnits="userSpaceOnUse" id="color-2"><stop offset="0" stop-color="#daad85"/><stop offset="1" stop-color="#ffca9c"/></linearGradient></defs><g transform="translate(536.47192,313.36406)"><g data-paper-data="{&quot;isPaintingLayer&quot;:true}" fill="none" fill-rule="nonzero" stroke="none" stroke-width="none" stroke-linecap="butt" stroke-linejoin="miter" stroke-miterlimit="10" stroke-dasharray="" stroke-dashoffset="0" font-family="none" font-weight="none" font-size="none" text-anchor="none" style="mix-blend-mode: normal"><g data-paper-data="{&quot;origPos&quot;:null}" stroke-width="0"><path d="M-274.9828,625.30221v-938.66627h1186.68784v938.66627z" data-paper-data="{&quot;origPos&quot;:null}" fill="url(#color-1)" stroke="none"/><path d="M-326.49491,453.78717v-207.95655h1039.67015v207.95655z" data-paper-data="{&quot;origPos&quot;:null}" fill="#2c6e3a" stroke="none"/><path d="M-536.47192,-18.8897l264.31917,-269.03915l271.53843,269.03915z" data-paper-data="{&quot;origPos&quot;:null}" fill="#594024" stroke="none"/><path d="M-529.25266,313.86923v-339.83891h521.55835v339.83891z" data-paper-data="{&quot;origPos&quot;:null}" fill="#886237" stroke="none"/><path d="M-265.07279,-280.84886l40.11987,-2.36l316.37829,217.11931c0,0 -89.14907,41.80427 -102.40408,33.81927c-39.76503,-23.95499 -254.09408,-248.57857 -254.09408,-248.57857z" data-paper-data="{&quot;origPos&quot;:null}" fill="#553d22" stroke="none"/><path d="M-21.85427,316.22923v-355.17189l113.27964,-27.1469l9.43997,382.31879z" data-paper-data="{&quot;origPos&quot;:null}" fill="#6d4f2c" stroke="none"/><path d="M312.63761,-213.20144c0,20.54679 -27.33368,37.20324 -61.05146,37.20324c-33.71779,0 -61.05146,-16.65646 -61.05146,-37.20324c0,-20.54679 27.33368,-37.20324 61.05146,-37.20324c33.71779,0 61.05146,16.65644 61.05146,37.20324z" data-paper-data="{&quot;origPos&quot;:null}" fill="#dcdcdc" stroke="#000000"/><path d="M346.97906,-186.49142c0,20.54678 -27.33368,37.20324 -61.05146,37.20324c-33.71779,0 -61.05146,-16.65644 -61.05146,-37.20324c0,-20.54679 27.33368,-37.20324 61.05146,-37.20324c33.71779,0 61.05146,16.65644 61.05146,37.20324z" data-paper-data="{&quot;origPos&quot;:null}" fill="#dcdcdc" stroke="#000000"/><path d="M282.11188,-182.67571c0,20.54678 -27.33368,37.20324 -61.05146,37.20324c-33.71779,0 -61.05146,-16.65644 -61.05146,-37.20324c0,-20.54679 27.33368,-37.20324 61.05146,-37.20324c33.71779,0 61.05146,16.65644 61.05146,37.20324z" data-paper-data="{&quot;origPos&quot;:null}" fill="#dcdcdc" stroke="#000000"/><path d="M388.33526,327.67638c0,0 -16.30387,-169.07663 -14.76701,-178.10124c0.51228,-3.0082 85.25845,17.09401 85.25845,17.09401l0.716,0.78684l5.72357,185.02255z" data-paper-data="{&quot;origPos&quot;:null,&quot;index&quot;:null}" fill="#21a700" stroke="none"/><path d="M461.33801,169.51629c0,0 -83.46634,-16.89265 -88.86981,-21.15855c-1.80115,-1.42196 331.05521,7.80354 331.05521,7.80354l3.81572,19.07858z" data-paper-data="{&quot;origPos&quot;:null}" fill="#2c6e3a" stroke="none"/><path d="M460.49529,349.93533l-6.50727,-180.45287l256.60539,4.16548l-13.05805,154.56432z" data-paper-data="{&quot;origPos&quot;:null,&quot;origRot&quot;:0}" fill="#1e9b00" stroke="#000000"/></g><path d="M295.75051,66.34225c0,15.87862 -24.36517,28.75079 -54.42113,28.75079c-30.05596,0 -54.42113,-12.87216 -54.42113,-28.75079c0,-15.87862 24.36517,-28.75079 54.42113,-28.75079c30.05596,0 54.42113,12.87216 54.42113,28.75079z" data-paper-data="{&quot;origPos&quot;:null}" fill="#000000" stroke="none" stroke-width="0"/><path d="M183.85811,104.1731c0,-31.19014 25.28461,-56.47475 56.47475,-56.47475c31.19014,0 56.47475,25.28461 56.47475,56.47475c0,31.19014 -25.2846,56.47475 -56.47475,56.47475c-31.19014,0 -56.47475,-25.28461 -56.47475,-56.47475z" data-paper-data="{&quot;origPos&quot;:null}" fill="url(#color-2)" stroke="#000000" stroke-width="4"/><path d="M206.93112,89.44555c0,-6.80512 5.51665,-12.32177 12.32176,-12.32177c6.80512,0 12.32176,5.51665 12.32176,12.32177c0,6.80512 -5.51665,12.32176 -12.32176,12.32176c-6.80512,0 -12.32176,-5.51665 -12.32176,-12.32176z" data-paper-data="{&quot;origPos&quot;:null}" fill="#ffffff" stroke="#ffffff" stroke-width="4"/><path d="M248.51707,90.47236c0,-6.80512 5.51665,-12.32176 12.32177,-12.32176c6.80512,0 12.32176,5.51665 12.32176,12.32176c0,6.80512 -5.51665,12.32177 -12.32176,12.32177c-6.80512,0 -12.32177,-5.51665 -12.32177,-12.32177z" data-paper-data="{&quot;origPos&quot;:null}" fill="#ffffff" stroke="#ffffff" stroke-width="4"/><path d="M209.50779,92.35807c0,-5.10385 4.13747,-9.24132 9.24132,-9.24132c5.10385,0 9.24132,4.13747 9.24132,9.24132c0,5.10385 -4.13747,9.24133 -9.24132,9.24133c-5.10385,0 -9.24132,-4.13748 -9.24132,-9.24133z" data-paper-data="{&quot;origPos&quot;:null}" fill="#000000" stroke="#ffffff" stroke-width="0"/><path d="M251.77508,92.87148c0,-5.10385 4.13747,-9.24132 9.24132,-9.24132c5.10385,0 9.24132,4.13747 9.24132,9.24132c0,5.10385 -4.13747,9.24132 -9.24132,9.24132c-5.10385,0 -9.24132,-4.13747 -9.24132,-9.24132z" data-paper-data="{&quot;origPos&quot;:null}" fill="#000000" stroke="#ffffff" stroke-width="0"/><path d="M217.19925,234.73967v-73.93059h46.20662v73.93059z" data-paper-data="{&quot;origPos&quot;:null}" fill="#474747" stroke="#000000" stroke-width="4"/><path d="M180.51394,211.13036l24.92081,-37.6851l19.69904,13.02678l-24.92081,37.68511z" data-paper-data="{&quot;origRot&quot;:0,&quot;origPos&quot;:null}" fill="#474747" stroke="#000000" stroke-width="4"/><path d="M279.36532,223.64373l-24.92081,-37.68511l19.69904,-13.02678l24.92081,37.68511z" data-paper-data="{&quot;origRot&quot;:0,&quot;origPos&quot;:null,&quot;index&quot;:null}" fill="#474747" stroke="#000000" stroke-width="4"/><path d="M244.20788,305.60692v-69.82333h18.99605v69.82333z" data-paper-data="{&quot;origPos&quot;:null}" fill="#222222" stroke="#000000" stroke-width="4"/><path d="M217.29168,305.60692v-69.82333h18.99606v69.82333z" data-paper-data="{&quot;origPos&quot;:null}" fill="#222222" stroke="#000000" stroke-width="4"/><path d="M277.5312,218.53586c0,-6.96665 5.64757,-12.61422 12.61422,-12.61422c6.96665,0 12.61422,5.64757 12.61422,12.61422c0,6.96665 -5.64757,12.61422 -12.61422,12.61422c-6.96665,0 -12.61422,-5.64757 -12.61422,-12.61422z" data-paper-data="{&quot;origPos&quot;:null}" fill="#daad85" stroke="#000000" stroke-width="4"/><path d="M177.24035,218.84732c0,-6.96665 5.64757,-12.61422 12.61422,-12.61422c6.96665,0 12.61422,5.64757 12.61422,12.61422c0,6.96665 -5.64757,12.61422 -12.61422,12.61422c-6.96665,0 -12.61422,-5.64757 -12.61422,-12.61422z" data-paper-data="{&quot;origPos&quot;:null}" fill="#daad85" stroke="#000000" stroke-width="4"/><path d="M243.89328,309.17139c0,-6.96665 5.64757,-12.61422 12.61422,-12.61422c6.96665,0 12.61422,5.64757 12.61422,12.61422c0,6.96665 -5.64757,12.61422 -12.61422,12.61422c-6.96665,0 -12.61422,-5.64757 -12.61422,-12.61422z" data-paper-data="{&quot;origPos&quot;:null}" fill="#222222" stroke="#000000" stroke-width="4"/><path d="M211.18974,309.79432c0,-6.96665 5.64757,-12.61422 12.61422,-12.61422c6.96665,0 12.61422,5.64757 12.61422,12.61422c0,6.96665 -5.64757,12.61422 -12.61422,12.61422c-6.96665,0 -12.61422,-5.64757 -12.61422,-12.61422z" data-paper-data="{&quot;origPos&quot;:null}" fill="#222222" stroke="#000000" stroke-width="4"/><path d="M250.96539,135.63937c0.27608,2.48471 -8.21249,2.42396 -10.48471,2.75669c-3.16783,0.46388 -6.78499,0 -10,0c0,0 -2.5,0 -2.5,-2.5c0,-2.5 2.5,-2.5 2.5,-2.5c3.22884,0 6.81282,0.43725 10,0c1.60052,-0.21958 3.63492,-1.34687 5.20943,-1.87171c0,0 4.9992,1.63031 5.27528,4.11502z" data-paper-data="{&quot;origPos&quot;:null}" fill="#000000" stroke="none" stroke-width="0.5"/><path d="M-43.94101,364.89926v-104h573.94101v104z" data-paper-data="{&quot;origPos&quot;:null}" fill="#000000" stroke="#000000" stroke-width="1.5"/><text transform="translate(16.05899,289.89926) scale(0.5,0.5)" font-size="40" xml:space="preserve" data-paper-data="{&quot;origPos&quot;:null}" fill="#ffffff" fill-rule="nonzero" stroke="none" stroke-width="1" stroke-linecap="butt" stroke-linejoin="miter" stroke-miterlimit="10" stroke-dasharray="" stroke-dashoffset="0" font-family="Pixel" font-weight="normal" text-anchor="start" style="mix-blend-mode: normal"><tspan x="0" dy="0">Paddler</tspan></text></g></g></svg>