<svg version="1.1" xmlns="http://www.w3.org/2000/svg" xmlns:xlink="http://www.w3.org/1999/xlink" width="2553.96037" height="1655.40296"><defs><linearGradient x1="221.84938" y1="-833.48892" x2="221.84938" y2="821.91402" gradientUnits="userSpaceOnUse" id="color-1"><stop offset="0" stop-color="#aaeaff"/><stop offset="1" stop-color="#00bfff"/></linearGradient></defs><g transform="translate(1285.70789,833.48894)"><g data-paper-data="{&quot;isPaintingLayer&quot;:true}" fill="none" fill-rule="nonzero" stroke="none" stroke-width="0" stroke-linecap="butt" stroke-linejoin="miter" stroke-miterlimit="10" stroke-dasharray="" stroke-dashoffset="0" font-family="none" font-weight="none" font-size="none" text-anchor="none" style="mix-blend-mode: normal"><path d="M-4.94101,412.89926v-106h489v106z" data-paper-data="{&quot;origPos&quot;:null}" fill="#40a04c" stroke="#000000"/><path d="M339.05899,309.89926v-105h242v105z" data-paper-data="{&quot;origPos&quot;:null}" fill="#1b4421" stroke="none"/><g data-paper-data="{&quot;origPos&quot;:null}"><path d="M-824.5537,821.91402v-1655.40296h2092.80618v1655.40296z" data-paper-data="{&quot;origPos&quot;:null}" fill="url(#color-1)" stroke="none"/><path d="M-915.3989,519.43537v-366.74577h1833.5303v366.74577z" data-paper-data="{&quot;origPos&quot;:null}" fill="#2c6e3a" stroke="none"/><path d="M-1285.70789,-314.16301l466.14515,-474.46917l478.87682,474.46917z" data-paper-data="{&quot;origPos&quot;:null}" fill="#594024" stroke="none"/><path d="M-1272.97622,272.6804v-599.32946h919.80427v599.32946z" data-paper-data="{&quot;origPos&quot;:null}" fill="#886237" stroke="none"/><path d="M-807.07673,-776.14613l70.75418,-4.16203l557.95501,382.90494c0,0 -157.22056,73.72471 -180.59669,59.64261c-70.12838,-42.24628 -448.11249,-438.38552 -448.11249,-438.38552z" data-paper-data="{&quot;origPos&quot;:null}" fill="#553d22" stroke="none"/><path d="M-378.14402,276.84243v-626.37022l199.77649,-47.87543l16.64803,674.24565z" data-paper-data="{&quot;origPos&quot;:null}" fill="#6d4f2c" stroke="none"/><path d="M211.75556,-656.84521c0,36.23569 -48.20483,65.61048 -107.66848,65.61048c-59.46365,0 -107.66848,-29.37482 -107.66848,-65.61048c0,-36.23569 48.20483,-65.61048 107.66848,-65.61048c59.46365,0 107.66848,29.37479 107.66848,65.61048z" data-paper-data="{&quot;origPos&quot;:null}" fill="#dcdcdc" stroke="#000000"/><path d="M272.31908,-609.74026c0,36.23566 -48.20483,65.61048 -107.66848,65.61048c-59.46365,0 -107.66848,-29.37479 -107.66848,-65.61048c0,-36.23569 48.20483,-65.61048 107.66848,-65.61048c59.46365,0 107.66848,29.37479 107.66848,65.61048z" data-paper-data="{&quot;origPos&quot;:null}" fill="#dcdcdc" stroke="#000000"/><path d="M157.92131,-603.01097c0,36.23566 -48.20483,65.61048 -107.66848,65.61048c-59.46365,0 -107.66848,-29.37479 -107.66848,-65.61048c0,-36.23569 48.20483,-65.61048 107.66848,-65.61048c59.46365,0 107.66848,29.37479 107.66848,65.61048z" data-paper-data="{&quot;origPos&quot;:null}" fill="#dcdcdc" stroke="#000000"/><path d="M464.10346,337.40585v-329.73473h548.43635v329.73473z" data-paper-data="{&quot;origPos&quot;:null}" fill="#1e9b00" stroke="#000000"/><path d="M345.25361,297.03026c0,0 -28.753,-298.17835 -26.04265,-314.09387c0.90344,-5.30517 150.35917,30.14648 150.35917,30.14648l1.26271,1.38765v326.30008z" data-paper-data="{&quot;origPos&quot;:null,&quot;index&quot;:null}" fill="#21a700" stroke="none"/><path d="M473.99901,18.10399c0,0 -147.19866,-29.79136 -156.72807,-37.31456c-3.17646,-2.50773 583.83879,13.76208 583.83879,13.76208l6.72927,33.6464z" data-paper-data="{&quot;origPos&quot;:null}" fill="#2c6e3a" stroke="none"/></g></g></g></svg>