<svg version="1.1" xmlns="http://www.w3.org/2000/svg" xmlns:xlink="http://www.w3.org/1999/xlink" width="1706.65077" height="1106.20148"><defs><linearGradient x1="313.05158" y1="-419.19409" x2="313.05158" y2="687.00738" gradientUnits="userSpaceOnUse" id="color-1"><stop offset="0" stop-color="#aaeaff"/><stop offset="1" stop-color="#00bfff"/></linearGradient></defs><g transform="translate(694.35395,419.19411)"><g data-paper-data="{&quot;isPaintingLayer&quot;:true}" fill="none" fill-rule="nonzero" stroke="none" stroke-width="0" stroke-linecap="butt" stroke-linejoin="miter" stroke-miterlimit="10" stroke-dasharray="" stroke-dashoffset="0" font-family="none" font-weight="none" font-size="none" text-anchor="none" style="mix-blend-mode: normal"><path d="M-4.94101,412.89926v-106h489v106z" data-paper-data="{&quot;origPos&quot;:null}" fill="#40a04c" stroke="#000000"/><path d="M339.05899,309.89926v-105h242v105z" data-paper-data="{&quot;origPos&quot;:null}" fill="#1b4421" stroke="none"/><g data-paper-data="{&quot;origPos&quot;:null}"><path d="M-386.19366,687.00738v-1106.20148h1398.49049v1106.20148z" data-paper-data="{&quot;origPos&quot;:null}" fill="url(#color-1)" stroke="none"/><path d="M-446.89978,484.87996v-245.07309h1225.23276v245.07309z" data-paper-data="{&quot;origPos&quot;:null}" fill="#2c6e3a" stroke="none"/><path d="M-694.35394,-72.16131l311.49543,-317.05785l320.0032,317.05785z" data-paper-data="{&quot;origPos&quot;:null}" fill="#594024" stroke="none"/><path d="M-685.84617,319.98916v-400.49411h614.64723v400.49411z" data-paper-data="{&quot;origPos&quot;:null}" fill="#886237" stroke="none"/><path d="M-374.5149,-380.87552l47.28056,-2.78122l372.84617,255.87124c0,0 -105.06059,49.26558 -120.68139,39.8554c-46.86238,-28.23053 -299.44534,-292.94542 -299.44534,-292.94542z" data-paper-data="{&quot;origPos&quot;:null}" fill="#553d22" stroke="none"/><path d="M-87.8862,322.77038v-418.56375l133.49804,-31.99213l11.12483,450.55588z" data-paper-data="{&quot;origPos&quot;:null}" fill="#6d4f2c" stroke="none"/><path d="M306.30652,-301.15424c0,24.21403 -32.21225,43.84335 -71.94806,43.84335c-39.73581,0 -71.94806,-19.62934 -71.94806,-43.84335c0,-24.21403 32.21225,-43.84335 71.94806,-43.84335c39.73581,0 71.94806,19.62932 71.94806,43.84335z" data-paper-data="{&quot;origPos&quot;:null}" fill="#dcdcdc" stroke="#000000"/><path d="M346.7773,-269.67696c0,24.21401 -32.21225,43.84335 -71.94806,43.84335c-39.73581,0 -71.94806,-19.62932 -71.94806,-43.84335c0,-24.21403 32.21225,-43.84335 71.94806,-43.84335c39.73581,0 71.94806,19.62932 71.94806,43.84335z" data-paper-data="{&quot;origPos&quot;:null}" fill="#dcdcdc" stroke="#000000"/><path d="M270.33248,-265.1802c0,24.21401 -32.21225,43.84335 -71.94806,43.84335c-39.73581,0 -71.94806,-19.62932 -71.94806,-43.84335c0,-24.21403 32.21225,-43.84335 71.94806,-43.84335c39.73581,0 71.94806,19.62932 71.94806,43.84335z" data-paper-data="{&quot;origPos&quot;:null}" fill="#dcdcdc" stroke="#000000"/><path d="M474.93472,363.2411v-220.34094h366.48545v220.34094z" data-paper-data="{&quot;origPos&quot;:null}" fill="#1e9b00" stroke="#000000"/><path d="M395.51485,336.26064c0,0 -19.21382,-199.2538 -17.40266,-209.88914c0.60371,-3.54511 100.47556,20.14499 100.47556,20.14499l0.84379,0.92728v218.04578z" data-paper-data="{&quot;origPos&quot;:null,&quot;index&quot;:null}" fill="#21a700" stroke="none"/><path d="M481.54729,149.87178c0,0 -98.36359,-19.90769 -104.73149,-24.93497c-2.12263,-1.67576 390.14267,9.19633 390.14267,9.19633l4.49675,22.48377z" data-paper-data="{&quot;origPos&quot;:null}" fill="#2c6e3a" stroke="none"/></g></g></g></svg>