<svg version="1.1" xmlns="http://www.w3.org/2000/svg" xmlns:xlink="http://www.w3.org/1999/xlink" width="759.05899" height="492"><defs><linearGradient x1="277.05899" y1="-17.10074" x2="277.05899" y2="474.89926" gradientUnits="userSpaceOnUse" id="color-1"><stop offset="0" stop-color="#aaeaff"/><stop offset="1" stop-color="#00bfff"/></linearGradient></defs><g transform="translate(171,17.10074)"><g data-paper-data="{&quot;isPaintingLayer&quot;:true}" fill="none" fill-rule="nonzero" stroke="none" stroke-width="0" stroke-linecap="butt" stroke-linejoin="miter" stroke-miterlimit="10" stroke-dasharray="" stroke-dashoffset="0" font-family="none" font-weight="none" font-size="none" text-anchor="none" style="mix-blend-mode: normal"><path d="M-4.94101,412.89926v-106h489v106z" data-paper-data="{&quot;origPos&quot;:null}" fill="#40a04c" stroke="#000000"/><path d="M339.05899,309.89926v-105h242v105z" data-paper-data="{&quot;origPos&quot;:null}" fill="#1b4421" stroke="none"/><path d="M-33.94101,474.89926v-492h622v492z" data-paper-data="{&quot;origPos&quot;:null}" fill="url(#color-1)" stroke="none"/><path d="M-60.94098,385v-109h544.94098v109z" data-paper-data="{&quot;origPos&quot;:null}" fill="#2c6e3a" stroke="none"/><path d="M-171,137.24739l138.54235,-141.01632l142.32631,141.01632z" data-paper-data="{&quot;origPos&quot;:null}" fill="#594024" stroke="none"/><path d="M-167.21604,311.6623v-178.12587h273.37374v178.12587z" data-paper-data="{&quot;origPos&quot;:null}" fill="#886237" stroke="none"/><path d="M-28.7467,-0.05797l21.02875,-1.23699l165.82903,113.80264c0,0 -46.7273,21.91162 -53.67489,17.7263c-20.84276,-12.55596 -133.18289,-130.29195 -133.18289,-130.29195z" data-paper-data="{&quot;origPos&quot;:null}" fill="#553d22" stroke="none"/><path d="M98.73579,312.89929v-186.16262l59.37529,-14.22899l4.94794,200.39161z" data-paper-data="{&quot;origPos&quot;:null}" fill="#6d4f2c" stroke="none"/><path d="M274.05902,35.39929c0,10.76956 -14.32689,19.5 -32,19.5c-17.67311,0 -32,-8.73045 -32,-19.5c0,-10.76956 14.32689,-19.5 32,-19.5c17.67311,0 32,8.73044 32,19.5z" data-paper-data="{&quot;origPos&quot;:null}" fill="#dcdcdc" stroke="#000000"/><path d="M292.05902,49.39929c0,10.76955 -14.32689,19.5 -32,19.5c-17.67311,0 -32,-8.73044 -32,-19.5c0,-10.76956 14.32689,-19.5 32,-19.5c17.67311,0 32,8.73044 32,19.5z" data-paper-data="{&quot;origPos&quot;:null}" fill="#dcdcdc" stroke="#000000"/><path d="M258.05902,51.39929c0,10.76955 -14.32689,19.5 -32,19.5c-17.67311,0 -32,-8.73044 -32,-19.5c0,-10.76956 14.32689,-19.5 32,-19.5c17.67311,0 32,8.73044 32,19.5z" data-paper-data="{&quot;origPos&quot;:null}" fill="#dcdcdc" stroke="#000000"/><path d="M313.73579,318.89929c0,0 -8.54564,-88.62117 -7.7401,-93.3514c0.26851,-1.57674 44.68804,8.95979 44.68804,8.95979l0.37529,0.41242l3,96.97919z" data-paper-data="{&quot;origPos&quot;:null,&quot;index&quot;:null}" fill="#21a700" stroke="none"/><path d="M352.00003,236c0,0 -43.74871,-8.85425 -46.58093,-11.09021c-0.94407,-0.74532 173.52191,4.09021 173.52191,4.09021l2,10z" data-paper-data="{&quot;origPos&quot;:null}" fill="#2c6e3a" stroke="none"/><path d="M351.55832,330.56627l-3.41077,-94.584l134.49919,2.18333l-6.84435,81.01457z" data-paper-data="{&quot;origPos&quot;:null,&quot;origRot&quot;:0}" fill="#1e9b00" stroke="#000000"/></g></g></svg>