<svg version="1.1" xmlns="http://www.w3.org/2000/svg" xmlns:xlink="http://www.w3.org/1999/xlink" width="28.36935" height="17.41176" viewBox="0,0,28.36935,17.41176"><g transform="translate(-225.81533,-171.29412)"><g data-paper-data="{&quot;isPaintingLayer&quot;:true}" fill-rule="evenodd" stroke="none" stroke-width="1" stroke-linecap="butt" stroke-linejoin="miter" stroke-miterlimit="10" stroke-dasharray="" stroke-dashoffset="0" style="mix-blend-mode: normal"><path d="M227.90827,188.70514c-3.33878,0 -1.31765,-13.89731 7.19768,-13.69111c8.67373,0.21025 11.82287,13.69111 11.82287,13.69111z" fill="#efab00"/><path d="M253.21837,183.12697c0,0 -17.32981,4.61455 -20.44037,5.07288c-4.16539,0.6138 -5.54592,-0.72554 -6.04872,-2.89443c-0.83176,-3.58762 2.06709,-3.70597 2.95544,-5.6661c0.888,-1.96049 -1.20115,-5.1497 2.95544,-5.31435c3.47663,-0.13783 3.52955,-2.80917 5.23864,-3.00543c2.65074,-0.30433 3.22964,2.21227 5.19087,2.91356c1.85245,0.66232 2.82716,-1.03245 4.90049,-0.19922c1.77636,0.71414 1.85648,4.5098 4.19629,5.29893c3.8133,1.28641 1.05191,3.79419 1.05191,3.79419" fill="#59c059"/><path d="M230.70074,182.02756c-0.37819,-0.11468 -0.59432,-0.51862 -0.47928,-0.89682l0.23045,-0.76008c0.11468,-0.37819 0.51825,-0.59396 0.89682,-0.47928l2.02371,0.61343c0.37857,0.11505 0.59432,0.51861 0.47928,0.89718l-0.23045,0.75972c-0.11468,0.37857 -0.51825,0.59396 -0.89682,0.47928l-2.02371,-0.61344" fill="#e8511c"/><path d="M229.34471,181.49094c0.41901,0.10659 1.01811,0.56236 1.50695,0.68365c-1.26435,3.27483 -1.49225,6.41367 -3.05799,6.52394h-0.00735c-1.20187,-0.09924 -2.49932,-1.22393 -1.74951,-2.3817c0.44473,-0.68731 -0.24626,-1.54002 -0.05881,-2.33024c0.26832,-1.1394 1.43342,-1.38566 1.83773,-1.4996c0.44105,-0.12129 0.90784,-1.1541 1.52899,-0.99606" fill="#c18500"/><path d="M232.49453,180.24112c-0.37122,0.67261 -0.67628,1.36361 -0.93356,2.04724l-0.3455,-0.10659l-0.3308,-0.09887c0.26832,-0.68401 0.58439,-1.37132 0.96663,-2.0362z" fill="#c6431a"/><path d="M231.56095,182.28851c-1.21658,3.205 -1.46284,6.24829 -2.97346,6.40634c-0.17642,0 -0.26464,0 -0.55868,0.01102h-0.07351c-0.05513,0 -0.10659,-0.00367 -0.16173,-0.00735c1.56574,-0.11027 1.79364,-3.24911 3.05799,-6.52394c0.13231,0.03307 0.2536,0.04042 0.36387,0.00735z" fill="#a06b00"/><path d="M232.22639,177.82268c-0.35652,0.17092 -0.78838,0.01875 -0.95893,-0.33815l-0.06616,-0.13746c-0.17055,-0.3569 -0.01839,-0.78802 0.33813,-0.95893l0.98687,-0.47229c0.3569,-0.17092 0.78838,-0.01875 0.95893,0.33777l0.06616,0.13783c0.17055,0.35652 0.01839,0.78838 -0.33813,0.95893l-0.98687,0.47229" fill="#e8511c"/><path d="M242.24186,174.79059c-0.26832,0.00367 -0.54397,0.01837 -0.82699,0.04044c-4.93248,0.37857 -7.45015,2.7419 -8.92034,5.41029l-0.64321,-0.19481c1.48488,-2.59121 3.99892,-4.84426 8.81011,-5.21548c0.55132,-0.04411 1.0769,-0.05513 1.58045,-0.04044" fill="#4ba04b"/><path d="M250.75464,180.33911c-0.19774,-0.34256 -0.07939,-0.78471 0.26353,-0.98244l0.34991,-0.20215c0.34256,-0.19774 0.78471,-0.07903 0.98246,0.26316l0.74721,1.2945c0.19774,0.34256 0.07939,0.78435 -0.26353,0.98246l-0.34991,0.20179c-0.34256,0.19774 -0.78471,0.07939 -0.98244,-0.26316l-0.74723,-1.29414" fill="#e8511c"/><path d="M242.27777,175.37905c-0.37305,0.13158 -0.78582,-0.06542 -0.9174,-0.43849l-0.13452,-0.38113c-0.13194,-0.37305 0.06506,-0.78582 0.43811,-0.91776l1.40917,-0.49803c0.37305,-0.13158 0.78582,0.0658 0.9174,0.43849l0.13489,0.38113c0.13194,0.37305 -0.06544,0.78618 -0.43849,0.91776l-1.40917,0.49803" fill="#e8511c"/><path d="M228.45952,188.70514c3.30792,0 0.81704,-12.94317 12.956,-13.87488c9.66353,-0.74171 12.05554,7.45679 12.55797,11.76224c0.1312,1.12359 -0.73509,2.11265 -1.86566,2.11265z" fill="#ffbf00"/><path d="M237.27567,174.46036c-0.10659,0 -0.21245,-0.04631 -0.28521,-0.13561c-0.12826,-0.15732 -0.10439,-0.38887 0.05293,-0.51678l1.92963,-1.57163c0.15768,-0.12753 0.38923,-0.10439 0.51714,0.05293c0.12826,0.15732 0.10439,0.38886 -0.05293,0.51714l-1.92963,1.57126c-0.06836,0.05551 -0.15033,0.0827 -0.23193,0.0827" fill="#ffbf00"/><path d="M249.80563,175.61074c-0.0228,0 -0.04556,-0.00183 -0.06872,-0.00661l-2.4453,-0.46274c-0.19958,-0.03748 -0.33043,-0.23007 -0.29293,-0.42929c0.03786,-0.19958 0.23045,-0.33263 0.42929,-0.29293l2.44565,0.4631c0.19958,0.03748 0.33043,0.23007 0.29257,0.42929c-0.03307,0.17642 -0.18745,0.29918 -0.36057,0.29918" fill="#ffbf00"/><path d="M228.91741,183.15604c-0.08159,0 -0.16391,-0.02683 -0.23228,-0.08306l-1.92852,-1.5731c-0.15732,-0.1279 -0.18083,-0.35946 -0.05219,-0.51678c0.12826,-0.15694 0.35946,-0.18119 0.51714,-0.05255l1.92852,1.57348c0.15732,0.1279 0.18083,0.35946 0.05219,0.51676c-0.0724,0.08894 -0.17827,0.13525 -0.28486,0.13525" fill="#ffbf00"/><path d="M249.65417,182.10618c-0.59946,0 -0.60057,-0.93173 0,-0.93173c0.59984,0 0.60057,0.93173 0,0.93173" fill="#efab00"/><path d="M244.88254,182.93958c-0.59946,0 -0.60057,-0.93173 0,-0.93173c0.59984,0 0.60057,0.93173 0,0.93173" fill="#efab00"/><path d="M244.30571,186.77586c-0.59946,0 -0.60057,-0.93173 0,-0.93173c0.59984,0 0.60095,0.93173 0,0.93173" fill="#efab00"/><path d="M236.4139,187.24175c-0.59946,0 -0.60057,-0.93173 0,-0.93173c0.59946,0 0.60057,0.93173 0,0.93173" fill="#efab00"/><path d="M237.33724,179.14066c-0.59946,0 -0.60057,-0.93173 0,-0.93173c0.59946,0 0.60057,0.93173 0,0.93173" fill="#efab00"/><path d="M242.27666,177.02943c-0.59946,0 -0.60057,-0.93209 0,-0.93209c0.59946,0 0.60057,0.93209 0,0.93209" fill="#efab00"/><path d="M239.8553,183.50384c-0.59946,0 -0.60057,-0.93173 0,-0.93173c0.59946,0 0.60057,0.93173 0,0.93173" fill="#efab00"/><path d="M234.69763,183.87138c-0.59946,0 -0.60057,-0.93173 0,-0.93173c0.59946,0 0.60057,0.93173 0,0.93173" fill="#efab00"/><path d="M250.56407,185.89039c-0.59946,0 -0.60057,-0.93173 0,-0.93173c0.59946,0 0.60057,0.93173 0,0.93173" fill="#efab00"/><path d="M246.92882,178.67475c-0.59984,0 -0.60095,-0.93173 0,-0.93173c0.59946,0 0.60057,0.93173 0,0.93173" fill="#efab00"/><path d="M230.8847,182.08282l0.3308,0.09924c-0.11027,0.03271 -0.23156,0.02572 -0.36387,-0.00735c0.01102,-0.0294 0.02205,-0.05881 0.03307,-0.09189" fill="#4ba04b"/></g></g></svg>