<svg version="1.1" xmlns="http://www.w3.org/2000/svg" xmlns:xlink="http://www.w3.org/1999/xlink" width="490.91675" height="1017.95983" viewBox="0,0,490.91675,1017.95983"><defs><linearGradient x1="157.94576" y1="-561.09619" x2="157.94576" y2="-174.49125" gradientUnits="userSpaceOnUse" id="color-1"><stop offset="0" stop-color="#daad85"/><stop offset="1" stop-color="#ffca9c"/></linearGradient></defs><g transform="translate(114.82352,594.3078)"><g data-paper-data="{&quot;isPaintingLayer&quot;:true}" fill="none" fill-rule="nonzero" stroke="none" stroke-width="none" stroke-linecap="butt" stroke-linejoin="miter" stroke-miterlimit="10" stroke-dasharray="" stroke-dashoffset="0" font-family="none" font-weight="none" font-size="none" text-anchor="none" style="mix-blend-mode: normal"><path d="M65.19368,84.72839v-280.49325h175.30829v280.49325z" data-paper-data="{&quot;origPos&quot;:null}" fill="#474747" stroke="#000000" stroke-width="10"/><path d="M65.54436,353.59931v-264.91027h72.07121v264.91028z" data-paper-data="{&quot;origPos&quot;:null}" fill="#222222" stroke="#000000" stroke-width="10"/><path d="M167.66464,353.59931v-264.91027h72.07117v264.91028z" data-paper-data="{&quot;origPos&quot;:null}" fill="#222222" stroke="#000000" stroke-width="10"/><path d="M-82.72992,19.33806l143.20719,-211.54994l74.41863,49.90653l-143.20719,211.54998z" data-paper-data="{&quot;origRot&quot;:0,&quot;origPos&quot;:null}" fill="#474747" stroke="#000000" stroke-width="10"/><path d="M-109.74382,69.50816c0.42224,-26.69817 22.28961,-48.29222 48.84224,-48.23171c26.55263,0.06051 47.73541,21.75264 47.31318,48.45082c-0.42224,26.69817 -22.28964,48.29222 -48.84223,48.2317c-26.55263,-0.06051 -47.73538,-21.75264 -47.31314,-48.45081z" data-paper-data="{&quot;origPos&quot;:null}" fill="#daad85" stroke="#000000" stroke-width="10"/><path d="M347.62996,-495.89924c0,54.34954 -83.39742,98.40857 -186.27331,98.40857c-102.87589,0 -186.27331,-44.05899 -186.27331,-98.40857c0,-54.34954 83.39741,-98.40856 186.27331,-98.40856c102.87589,0 186.27332,44.05898 186.27332,98.40856z" data-paper-data="{&quot;origPos&quot;:null}" fill="#000000" stroke="none" stroke-width="0"/><path d="M-35.35671,-367.79376c0,-106.758 86.54447,-193.30247 193.30247,-193.30247c106.758,0 193.30248,86.54447 193.30248,193.30247c0,106.758 -86.54444,193.30247 -193.30247,193.30247c-106.758,0 -193.30247,-86.54447 -193.30247,-193.30247z" data-paper-data="{&quot;origPos&quot;:null}" fill="url(#color-1)" stroke="#000000" stroke-width="4"/><path d="M292.49502,-277.64862c0.87581,7.70711 -5.82536,9.38352 -7.40818,9.67062c-5.42205,4.07749 -11.05066,8.19787 -17.45058,10.53217c-18.60734,6.7868 -43.50016,0.97893 -62.43515,-1.72608c0,0 -8.69814,-1.24257 -7.45557,-9.94072c1.24262,-8.69815 9.94072,-7.45557 9.94072,-7.45557c17.32572,2.4751 39.98964,7.96002 57.06093,1.78857c3.66703,-1.3257 8.67262,-6.41932 11.98831,-8.90602l6.0371,-1.70112c0,0 8.73028,-0.99206 9.72238,7.73826z" data-paper-data="{&quot;origPos&quot;:null}" fill="#000000" stroke="none" stroke-width="0.5"/><path d="M237.17789,-401.92439c0,-23.29263 18.88248,-42.17506 42.1751,-42.17506c23.29263,0 42.17507,18.88247 42.17507,42.17506c0,23.29263 -18.88247,42.17511 -42.17507,42.17511c-23.29263,0 -42.1751,-18.88248 -42.1751,-42.17511z" data-paper-data="{&quot;origPos&quot;:null}" fill="#ffffff" stroke="#ffffff" stroke-width="4"/><path d="M259.71145,-393.71264c0,-17.46951 14.16178,-31.63129 31.63129,-31.63129c17.46951,0 31.63129,14.16178 31.63129,31.63129c0,17.46951 -14.16178,31.63129 -31.63129,31.63129c-17.46951,0 -31.63129,-14.16178 -31.63129,-31.63129z" data-paper-data="{&quot;origPos&quot;:null}" fill="#000000" stroke="#ffffff" stroke-width="0"/><path d="M121.39504,-401.64496c0,-23.29263 18.88248,-42.1751 42.17507,-42.1751c23.29263,0 42.17506,18.88248 42.17506,42.1751c0,23.29263 -18.88247,42.17507 -42.17506,42.17507c-23.29263,0 -42.17507,-18.88247 -42.17507,-42.17507z" data-paper-data="{&quot;origPos&quot;:null}" fill="#ffffff" stroke="#ffffff" stroke-width="4"/><path d="M139.6995,-393.57294c0,-17.46951 14.16178,-31.63129 31.63129,-31.63129c17.46951,0 31.63129,14.16178 31.63129,31.63129c0,17.46951 -14.16178,31.63133 -31.63129,31.63133c-17.46951,0 -31.63129,-14.16182 -31.63129,-31.63133z" data-paper-data="{&quot;origPos&quot;:null}" fill="#000000" stroke="#ffffff" stroke-width="0"/><path d="M259.91609,113.73113l-137.26975,-205.49442l64.03221,-52.88651l137.26973,205.49439z" data-paper-data="{&quot;origRot&quot;:0,&quot;origPos&quot;:null}" fill="#474747" stroke="#000000" stroke-width="10"/><path d="M350.311,109.86167c1.59573,26.65311 -16.28864,49.18565 -39.94598,50.32793c-23.65729,1.14229 -44.12893,-19.53827 -45.72464,-46.19137c-1.59573,-26.65311 16.2887,-49.18563 39.94602,-50.32794c23.65733,-1.14229 44.12893,19.53826 45.72464,46.19137z" data-paper-data="{&quot;origPos&quot;:null,&quot;origRot&quot;:0}" fill="#daad85" stroke="#000000" stroke-width="10"/><path d="M371.09323,208.99365c0,41.03857 -26.87058,74.30691 -60.01712,74.30691c-33.14654,0 -60.01712,-33.26833 -60.01712,-74.30691c0,-41.03857 26.87058,-74.30691 60.01712,-74.30691c33.14654,0 60.01712,33.26833 60.01712,74.30691z" data-paper-data="{&quot;origPos&quot;:null}" fill="#a5a5a5" stroke="#000000" stroke-width="10"/><path d="M280.78174,154.50192v-42.60263h63.40856v42.60263z" data-paper-data="{&quot;origPos&quot;:null}" fill="#a5a5a5" stroke="#000000" stroke-width="10"/><path d="M169.52458,387.68733c-16.23942,-24.11665 0.27214,-52.43691 36.87958,-63.25503c36.60744,-10.8182 79.4482,-0.03763 95.68754,24.07902c16.23942,24.11665 -0.27215,52.43691 -36.87958,63.25503c-36.60744,10.8182 -79.4482,0.03763 -95.68754,-24.07902z" data-paper-data="{&quot;origPos&quot;:null,&quot;origRot&quot;:0}" fill="#222222" stroke="#000000" stroke-width="10"/><path d="M49.70722,367.40768c2.85651,-26.36536 37.84091,-46.22361 78.13991,-44.35476c40.29901,1.86885 70.65199,24.75719 67.79548,51.12255c-2.85651,26.36536 -37.8409,46.22361 -78.13991,44.35476c-40.29901,-1.86885 -70.65198,-24.75719 -67.79548,-51.12255z" data-paper-data="{&quot;origPos&quot;:null}" fill="#222222" stroke="#000000" stroke-width="10"/></g></g></svg>