<?xml version="1.0" standalone="no"?>
<!DOCTYPE svg PUBLIC "-//W3C//DTD SVG 20010904//EN"
 "http://www.w3.org/TR/2001/REC-SVG-20010904/DTD/svg10.dtd">
<svg version="1.0" xmlns="http://www.w3.org/2000/svg"
 width="200.000000pt" height="200.000000pt" viewBox="0 0 200.000000 200.000000"
 preserveAspectRatio="xMidYMid meet">
<metadata>
amogus
</metadata>
<g transform="translate(0.000000,200.000000) scale(0.100000,-0.100000)"
fill="#000000" stroke="none">
<path d="M863 1769 c-75 -13 -204 -62 -276 -106 -78 -47 -192 -160 -242 -238
-82 -130 -114 -237 -122 -407 l-6 -126 -71 69 c-39 38 -76 69 -82 69 -21 0
-36 -27 -26 -47 16 -28 198 -203 212 -203 18 0 222 208 218 221 -2 7 -12 17
-21 23 -14 9 -30 -2 -92 -64 l-75 -74 5 119 c6 166 38 270 121 396 155 234
437 353 721 304 466 -82 725 -594 516 -1022 -65 -134 -188 -258 -319 -323
-118 -58 -197 -75 -339 -74 -156 1 -311 56 -429 151 -83 68 -82 67 -100 60
-33 -13 -17 -46 51 -102 145 -119 337 -182 528 -172 55 3 109 8 120 10 62 15
87 23 150 50 241 102 416 321 464 582 11 54 8 239 -4 295 -46 224 -201 426
-411 535 -134 70 -336 101 -491 74z"/>
<path d="M1208 1616 c-9 -8 -13 -35 -12 -75 1 -68 -10 -77 -41 -32 -20 31 -78
68 -117 77 -81 18 -194 -12 -219 -58 -34 -63 -66 -198 -68 -284 -2 -106 13
-142 77 -191 50 -38 91 -51 190 -58 171 -13 246 -79 244 -217 -1 -22 -7 -49
-15 -62 -33 -49 -198 -108 -261 -92 -14 3 -41 20 -60 37 -59 52 -90 113 -102
203 -6 51 -19 66 -56 66 -35 0 -85 -44 -70 -63 5 -7 8 -43 5 -82 -5 -83 -5
-63 -3 -205 1 -132 5 -157 28 -163 25 -5 71 13 81 32 5 9 7 54 4 101 l-4 84
28 -24 c15 -14 30 -28 33 -31 3 -3 27 -14 53 -24 44 -17 56 -17 125 -5 42 7
85 13 95 13 9 1 17 5 17 9 0 4 7 8 15 8 47 0 146 74 172 127 25 54 20 153 -12
219 -50 103 -127 142 -315 160 -104 10 -135 33 -155 112 -9 36 -9 61 1 116 20
102 43 164 67 181 32 22 78 18 109 -8 39 -34 107 -181 114 -247 9 -75 26 -101
65 -96 17 2 35 8 39 12 5 5 11 50 14 99 3 50 8 124 11 165 12 157 12 170 -2
190 -16 23 -55 26 -75 6z"/>
</g>
</svg>
