<svg version="1.1" xmlns="http://www.w3.org/2000/svg" xmlns:xlink="http://www.w3.org/1999/xlink" width="70.90742" height="50.21807" viewBox="0,0,70.90742,50.21807"><g transform="translate(-204.54629,-154.72058)"><g data-paper-data="{&quot;isPaintingLayer&quot;:true}" fill-rule="evenodd" stroke="#000000" stroke-width="0.5" stroke-miterlimit="10" stroke-dasharray="" stroke-dashoffset="0" style="mix-blend-mode: normal"><g><path d="M221.23177,190.93785c0.28141,0.48389 0.95673,1.45168 -1.2382,2.78243c-2.19486,1.33069 -6.1344,-0.30244 -6.58464,-0.54442c-2.08235,-0.96778 -4.05212,-2.29847 -5.68423,-3.99206c-5.5154,-5.86724 -2.02609,-13.60951 0.61907,-13.66997c2.70141,-0.06053 1.46328,5.14136 3.09533,9.61731c0.67539,1.75412 1.80094,3.20579 3.26422,4.29457c1.74469,1.39122 6.24704,0.96778 6.52845,1.51214z" fill="#f9a41f" stroke-linecap="butt" stroke-linejoin="miter"/><path d="M210.25728,178.90108c0.28134,1.87504 0.84415,5.32281 0.84415,5.32281c-1.0693,-0.48389 -2.19486,-0.60488 -3.32048,-0.3629c-1.57579,0.42336 -1.8572,2.60091 -2.42001,1.5726c-0.50649,-1.69359 -0.67539,-3.50817 -0.39398,-5.26228c0.39398,-2.359 2.36375,-4.83892 3.60188,-4.59701c1.29445,0.30244 1.46328,1.39122 1.68843,3.32679z" fill="#ffffff" stroke-linecap="butt" stroke-linejoin="miter"/><path d="M221.23177,190.93785c0.28141,0.48389 0.95673,1.45168 -1.2382,2.78243c-2.19486,1.33069 -6.1344,-0.30244 -6.58464,-0.54442c-2.08235,-0.96778 -4.05212,-2.29847 -5.68423,-3.99206c-5.5154,-5.86724 -2.02609,-13.60951 0.61907,-13.66997c2.70141,-0.06053 1.46328,5.14136 3.09533,9.61731c0.67539,1.75412 1.80094,3.20579 3.26422,4.29457c1.74469,1.39122 6.24704,0.96778 6.52845,1.51214z" fill="none" stroke-linecap="round" stroke-linejoin="round"/></g><g><path d="M256.9692,197.10753c3.88329,1.33069 11.14331,0.54435 13.78847,-0.18145c4.22095,-1.14931 5.12142,6.2906 -0.73164,7.56075c-5.90938,1.27023 -15.42058,-3.87114 -15.42058,-3.87114c-2.42001,-1.2097 -1.57579,-4.83892 2.36375,-3.50817z" fill="#f9a41f" stroke-linecap="butt" stroke-linejoin="miter"/><path d="M256.9692,197.10753c3.88329,1.33069 11.14331,0.54435 13.78847,-0.18145c4.22095,-1.14931 5.12142,6.2906 -0.73164,7.56075c-5.90938,1.27023 -15.42058,-3.87114 -15.42058,-3.87114c-2.42001,-1.2097 -1.57579,-4.83892 2.36375,-3.50817z" fill="none" stroke-linecap="round" stroke-linejoin="round"/></g><g><path d="M227.08483,190.00358c-0.84422,-1.2097 -1.80094,-2.23794 -2.92656,-3.0848c-0.50649,-2.17748 -0.56281,-4.41549 -0.11258,-6.59304c1.74469,1.9961 3.26422,4.17358 4.55868,6.59304c1.12556,1.81465 0.11258,5.26235 -1.51954,3.0848z" fill="#231f20" stroke-linecap="round" stroke-linejoin="round" opacity="0.1"/><path d="M227.08483,189.90961c-4.72751,-6.47205 -8.27307,-3.75015 -10.97448,-6.71403c-2.19492,-2.35893 -0.84422,-7.56075 4.7837,-5.32281c3.88329,1.57267 7.654,8.95204 7.654,8.95204c1.18188,1.93557 0.1689,5.32281 -1.46322,3.0848z" fill="#f9a41f" stroke-linecap="butt" stroke-linejoin="miter"/><path d="M227.08483,189.90961c-4.72751,-6.47205 -8.27307,-3.75015 -10.97448,-6.71403c-2.19492,-2.35893 -0.84422,-7.56075 4.7837,-5.32281c3.88329,1.57267 7.654,8.95204 7.654,8.95204c1.18188,1.93557 0.1689,5.32281 -1.46322,3.0848z" fill="none" stroke-linecap="round" stroke-linejoin="round"/></g><g><path d="M238.34072,199.10356c0,0 -6.41587,3.02434 -17.50293,3.32679c-10.80565,0.30244 -16.15222,-2.11702 -15.42058,-5.50427c0.84422,-4.11312 4.33353,-2.359 6.64102,-1.87511c2.1386,0.30244 4.33346,0 6.35955,-0.96778l-0.05625,-3.14533c0.05625,-0.06046 20.65451,-3.26625 19.97919,8.16571z" fill="#f9a41f" stroke-linecap="butt" stroke-linejoin="miter"/><path d="M235.24532,197.10753c-0.45024,1.14924 -7.654,3.32671 -11.8187,2.60091c-1.80094,-0.30244 -3.26416,-1.93557 -1.68837,-3.62923c2.36375,-2.60091 10.24284,-2.29847 10.24284,-2.29847z" fill="#ffffff" stroke-linecap="butt" stroke-linejoin="miter"/><path d="M238.34072,199.10356c0,0 -6.41587,3.02434 -17.50293,3.32679c-10.80565,0.30244 -16.15222,-1.51221 -15.42058,-5.50427c0.73164,-4.17358 4.33353,-2.29854 6.64102,-1.87511c2.02603,0.30244 4.05212,0.48389 6.07815,0.48389l0.22515,-4.59701c0.05625,-0.06046 20.65451,-3.26625 19.97919,8.16571z" fill="none" stroke-linecap="round" stroke-linejoin="round"/></g><g><g><path d="M252.97334,165.29157l6.80985,-4.95984l0.22508,8.95197c2.08235,1.93557 3.65814,4.41556 4.50236,7.25838c1.40696,4.71793 0.45024,8.10518 0.45024,8.10518c0,0 3.65814,1.27023 3.26422,6.71403c-0.73164,10.40372 -13.16941,14.75875 -27.29554,10.34319c-10.63682,-3.32671 -17.61544,-12.5812 -15.47684,-21.71462c1.91352,-8.22617 6.19072,-10.40372 6.19072,-10.40372l1.29445,-14.27479l7.99166,8.83098c2.02603,-0.54435 4.1647,-0.7258 6.24704,-0.42336c1.96977,0.30244 3.88322,0.84679 5.79674,1.5726z" fill="#f9a41f" stroke-linecap="butt" stroke-linejoin="miter"/><path d="M264.96087,184.64726c2.1386,0.90732 3.26422,2.29854 3.26422,6.71403c0.05625,5.86717 -7.654,16.27088 -27.29554,10.34319c-6.69728,-1.99603 -13.39449,-6.89548 -9.22986,-16.08943c3.82703,-8.46808 15.36433,-0.06046 20.59832,0c5.17768,0 7.71026,-3.0848 12.66285,-0.96778z" fill="#ffffff" stroke-linecap="butt" stroke-linejoin="miter"/><g fill="none" stroke-linecap="round" stroke-linejoin="round"><path d="M252.97334,165.29157l6.80985,-4.95984l0.22508,8.95197c2.08235,1.93557 3.65814,4.41556 4.50236,7.25838c1.40696,4.71793 0.45024,8.10518 0.45024,8.10518c0,0 3.65814,1.27023 3.26422,6.71403c-0.73164,10.40372 -13.16941,14.75875 -27.29554,10.34319c-10.63682,-3.32671 -17.61544,-12.5812 -15.47684,-21.71462c1.91352,-8.22617 6.19072,-10.40372 6.19072,-10.40372l1.29445,-14.27479l7.99166,8.83098c2.02603,-0.54435 4.1647,-0.7258 6.24704,-0.42336c1.96977,0.30244 3.88322,0.84679 5.79674,1.5726z"/></g></g><path d="M241.66119,164.98919l-0.73164,-0.84686" fill="none" stroke-linecap="round" stroke-linejoin="round"/></g><g fill="none" stroke-linecap="round" stroke-linejoin="round"><path d="M226.46576,183.59206c0,0 -2.53258,-0.24198 -3.82703,-0.48389c-1.35071,-0.30244 -2.70141,-0.66534 -4.05212,-1.14924"/><path d="M219.48708,174.51903c1.46328,0.78633 2.81399,1.69366 4.05212,2.7219c1.29445,1.02832 2.53258,2.23801 3.65814,3.50824"/></g><g><path d="M263.04735,176.23964c1.35071,3.75022 0.61907,7.56082 -1.51954,8.46815c-2.19486,0.90725 -5.00885,-1.45168 -6.35955,-5.20182c-1.35071,-3.75022 -0.61907,-7.56082 1.51954,-8.46815c2.1386,-0.96778 5.00885,1.45168 6.35955,5.20182z" fill="#ffffff" stroke-linecap="round" stroke-linejoin="round"/><path d="M261.92179,178.2962c0,0.72587 -0.61907,1.33069 -1.29445,1.33069c-0.67532,0 -1.23813,-0.66534 -1.23813,-1.39115c0,-0.72587 0.50649,-1.27023 1.18188,-1.33076c0.73164,0 1.35071,0.66541 1.35071,1.39122v0" fill="#231f20" stroke-linecap="butt" stroke-linejoin="miter"/></g><g><path d="M246.10723,174.78796c1.35071,3.75022 0.33773,7.68182 -2.25118,8.71006c-2.58884,1.02832 -5.79674,-1.14924 -7.09119,-4.89938c-1.35071,-3.81068 -0.33766,-7.68182 2.25118,-8.71006c2.58884,-1.02824 5.79681,1.14924 7.09119,4.89938z" fill="#ffffff" stroke-linecap="round" stroke-linejoin="round"/><path d="M244.81284,177.02597c-0.22515,0.72587 -0.90047,1.14924 -1.57586,0.90732c-0.67532,-0.24198 -1.0693,-0.96778 -0.84415,-1.69366c0.16883,-0.66534 0.84415,-1.0887 1.46322,-0.90725c0.73164,0.12092 1.18188,0.90725 0.95679,1.69359v0" fill="#231f20" stroke-linecap="butt" stroke-linejoin="miter"/></g><g stroke-linecap="round" stroke-linejoin="round"><path d="M252.07287,183.80046c1.18188,0.12099 3.3768,-0.12099 3.26422,1.39122c-0.11258,0.66534 -1.74469,2.90335 -3.09539,2.66137c-1.35071,-0.24191 -3.54556,-2.41946 -3.2079,-3.5687c0.33766,-1.14924 1.96977,-0.60488 3.03907,-0.48389z" fill="#231f20"/><path d="M256.29382,192.02663c-0.16883,1.51221 -9.45495,0.72587 -9.11722,-1.2097" fill="none"/></g><g><path d="M222.69498,192.66502c-0.45024,2.17748 -3.15165,3.75015 -5.96557,3.50824c-2.81399,-0.24198 -4.67119,-2.17755 -4.1647,-4.35503c0.50649,-2.17755 3.15165,-3.75022 5.96564,-3.5687c2.81392,0.24191 4.67119,2.23794 4.16463,4.41549z" fill="#f9a41f" stroke-linecap="butt" stroke-linejoin="miter"/><path d="M222.69498,192.66502c-0.45024,2.17748 -3.15165,3.75015 -5.96557,3.50824c-2.81399,-0.24198 -4.67119,-2.17755 -4.1647,-4.35503c0.50649,-2.17755 3.15165,-3.75022 5.96564,-3.5687c2.81392,0.24191 4.67119,2.23794 4.16463,4.41549z" fill="none" stroke-linecap="round" stroke-linejoin="round"/></g><g fill="none" stroke-linecap="round" stroke-linejoin="round"><path d="M275.20371,187.64465c-1.0693,0.60488 -2.25118,0.96778 -3.48931,1.14924c-1.68837,0.12099 -3.32048,0.18145 -4.95259,0.06046"/><path d="M273.06511,194.72158c-1.0693,-0.06053 -2.1386,-0.24198 -3.2079,-0.48389c-1.35071,-0.36297 -2.5889,-0.84686 -3.77071,-1.51221"/></g></g></g></svg>