<svg version="1.1" xmlns="http://www.w3.org/2000/svg" xmlns:xlink="http://www.w3.org/1999/xlink" width="62.81517" height="64.65832" viewBox="0,0,62.81517,64.65832"><g transform="translate(-208.59241,-147.67084)"><g data-paper-data="{&quot;isPaintingLayer&quot;:true}" fill-rule="evenodd" stroke-width="0.5" stroke-miterlimit="10" stroke-dasharray="" stroke-dashoffset="0" style="mix-blend-mode: normal"><g><path d="M214.18272,198.55806c5.69102,-7.69585 13.06349,-11.5761 13.06349,-11.5761l12.86944,6.2084c0,0 -6.07904,9.63597 -8.85985,10.80005c0,0 -6.9198,-0.71141 -9.82994,-2.32814" fill="#f9a41e" stroke="none" stroke-linecap="butt" stroke-linejoin="miter"/><path d="M214.18272,198.55806c6.53171,-7.69585 13.06349,-11.5761 13.06349,-11.5761l12.86944,6.2084c0,0 -6.07904,9.63597 -8.85985,10.80005c0,0 -6.9198,-0.71141 -9.82994,-2.32814" fill="none" stroke="#231f20" stroke-linecap="round" stroke-linejoin="round"/><path d="M236.49407,194.48376c-3.62156,7.5018 -11.57602,5.94971 -12.93414,2.97485c-1.35806,-2.97485 3.42759,-7.17841 6.01442,-8.34249c2.58683,-1.09944 9.57127,0 6.91974,5.36763z" fill="#ffffff" stroke="none" stroke-linecap="butt" stroke-linejoin="miter"/></g><g><path d="M222.13718,200.8215c-2.00476,2.19881 -3.55685,5.3677 -5.04432,8.27785c-2.91015,5.56168 -9.57119,2.5222 -8.01918,-2.45748c1.22878,-3.6862 5.10903,-8.0838 5.10903,-8.0838" fill="#f9a41e" stroke="none" stroke-linecap="butt" stroke-linejoin="miter"/><path d="M222.13718,200.8215c-2.00476,2.19881 -3.55685,5.3677 -5.04432,8.27785c-2.91015,5.56168 -9.57119,2.5222 -8.01918,-2.45748c1.22878,-3.6862 5.10903,-8.0838 5.10903,-8.0838" fill="none" stroke="#231f20" stroke-linecap="round" stroke-linejoin="round"/></g><g><path d="M234.94198,206.38317c-1.55209,3.88024 -4.9796,5.88507 -7.69577,4.78563c-2.32814,-0.90539 -2.78087,-4.26826 -1.16408,-7.17841c1.81078,-3.23353 4.9796,-5.10903 7.37246,-4.39761c2.26345,0.77605 2.78081,3.49222 1.48739,6.79038z" fill="#f9a41e" stroke="none" stroke-linecap="butt" stroke-linejoin="miter"/><path d="M234.94198,206.38317c-1.55209,3.88024 -4.9796,5.88507 -7.69577,4.78563c-2.32814,-0.90539 -2.78087,-4.26826 -1.16408,-7.17841c1.81078,-3.23353 4.9796,-5.10903 7.37246,-4.39761c2.26345,0.77605 2.78081,3.49222 1.48739,6.79038z" fill="none" stroke="#231f20" stroke-linecap="round" stroke-linejoin="round"/></g><g><path d="M254.4079,168.03348c3.6862,-2.71617 7.76049,-9.82994 8.85985,-12.61083c1.74614,-4.59159 8.66588,-0.90539 5.88507,5.17365c-2.71617,6.01442 -13.25753,11.5761 -13.25753,11.5761c-2.58683,1.55209 -5.04432,-1.42275 -1.48739,-4.13893z" fill="#f9a41e" stroke="none" stroke-linecap="butt" stroke-linejoin="miter"/><path d="M254.4079,168.03348c3.6862,-2.71617 7.76049,-9.82994 8.85985,-12.61083c1.74614,-4.59159 8.66588,-0.90539 5.88507,5.17365c-2.71617,6.01442 -13.25753,11.5761 -13.25753,11.5761c-2.58683,1.55209 -5.04432,-1.42275 -1.48739,-4.13893z" fill="none" stroke="#231f20" stroke-linecap="round" stroke-linejoin="round"/></g><g><path d="M223.55993,188.14604c0,0 -5.23829,-0.6467 -7.56644,4.07429c-1.94012,4.20356 -9.11854,2.45748 -5.75573,-3.55692c2.97485,-5.36763 10.54136,-4.07423 10.54136,-4.07423z" fill="#f9a41e" stroke="none" stroke-linecap="butt" stroke-linejoin="miter"/><path d="M223.55993,188.14604c0,0 -5.23829,-0.6467 -7.56644,4.07429c-1.94012,4.20356 -8.79521,2.65146 -5.75573,-3.55692c2.58683,-5.36763 10.54136,-4.07423 10.54136,-4.07423z" fill="none" stroke="#231f20" stroke-linecap="round" stroke-linejoin="round"/></g><g><path d="M244.06058,154.45262l6.46707,-6.53178l2.06947,9.0539c0,0 3.88024,1.94012 6.33773,6.46707c2.45748,4.46231 2.06947,8.14851 2.06947,8.14851c0,0 4.3329,0.58208 4.9796,6.2084c1.16408,10.73533 -11.51139,17.84912 -27.87304,16.36173c-12.35214,-1.03473 -21.79407,-8.98927 -21.2767,-18.75451c0.51736,-8.79521 4.721,-11.89941 4.721,-11.89941l-1.42275,-14.87426l10.47666,7.30776c0,0 3.16884,-1.61673 6.79038,-1.81078c3.62156,-0.06464 6.66112,0.32339 6.66112,0.32339z" fill="#f9a41e" stroke="none" stroke-linecap="butt" stroke-linejoin="miter"/><path d="M260.9396,171.59033c2.58683,0.51736 4.07429,1.74614 4.97968,6.2084c1.29342,6.01442 -4.52695,18.49582 -27.87311,16.36173c-7.69577,-0.6467 -16.03834,-4.20364 -13.25747,-14.42161c2.45748,-9.44193 16.81439,-3.29817 22.50541,-4.39761c5.75566,-1.03473 7.88982,-4.78563 13.64548,-3.7509z" fill="#ffffff" stroke="none" stroke-linecap="butt" stroke-linejoin="miter"/><path d="M229.31566,155.03463l2.97485,2.13417" fill="none" stroke="#231f20" stroke-linecap="round" stroke-linejoin="round"/><path d="M244.06058,154.45262l6.46707,-6.53178l2.06947,9.0539c0,0 3.88024,1.94012 6.33773,6.46707c2.45748,4.46231 2.06947,8.14851 2.06947,8.14851c0,0 4.3329,0.58208 4.9796,6.2084c1.16408,10.73533 -11.51139,17.84912 -27.87304,16.36173c-12.35214,-1.03473 -21.79407,-8.98927 -21.2767,-18.75451c0.51736,-8.79521 4.721,-11.89941 4.721,-11.89941l-1.42275,-14.87426l10.47666,7.30776c0,0 3.16884,-1.61673 6.79038,-1.81078c3.62156,-0.06464 6.66112,0.32339 6.66112,0.32339z" fill="none" stroke="#231f20" stroke-linecap="round" stroke-linejoin="round"/></g><g fill="none" stroke="#231f20" stroke-linecap="round" stroke-linejoin="round"><path d="M218.70967,178.83345c0,0 -2.78087,0.25869 -4.26826,0.32339c-1.48747,0 -4.721,-0.32339 -4.721,-0.32339"/><path d="M209.20302,171.13768c0,0 1.74614,0.38803 4.97968,1.87542c2.91015,1.35812 4.72093,2.78087 4.72093,2.78087"/></g><g><path d="M257.25341,163.57117c2.19881,3.55692 2.19881,7.5018 0,8.92455c-2.19881,1.42275 -5.75573,-0.38803 -8.01918,-3.94487c-2.19881,-3.55692 -2.19881,-7.5018 0,-8.92455c2.19881,-1.35812 5.82037,0.38803 8.01918,3.94487z" fill="#ffffff" stroke="#231f20" stroke-linecap="round" stroke-linejoin="round"/><path d="M256.18465,165.92999c0.25869,0.84068 -0.25869,1.68144 -0.9701,1.81078c-0.71134,0.19398 -1.55209,-0.32339 -1.74607,-1.16408c-0.25869,-0.84075 0.25869,-1.68144 0.97003,-1.81078c0.71141,-0.12934 1.48747,0.38803 1.74614,1.16408" fill="#231f20" stroke="none" stroke-linecap="butt" stroke-linejoin="miter"/></g><g><path d="M238.43419,165.70534c2.19881,3.55685 1.87548,7.76049 -0.71134,9.37722c-2.58683,1.61681 -6.53178,0.06471 -8.73058,-3.49222c-2.19881,-3.55685 -1.87542,-7.76049 0.71141,-9.37722c2.58683,-1.61681 6.53171,-0.06471 8.73052,3.49222z" fill="#ffffff" stroke="#231f20" stroke-linecap="round" stroke-linejoin="round"/><path d="M237.17145,168.25813c0,0.84068 -0.6467,1.48739 -1.42275,1.48739c-0.71141,0 -1.42275,-0.71134 -1.42275,-1.55209c0,-0.84068 0.6467,-1.48739 1.42275,-1.48739c0.84068,0.06464 1.42275,0.71134 1.42275,1.55209" fill="#231f20" stroke="none" stroke-linecap="butt" stroke-linejoin="miter"/></g><g stroke="#231f20" stroke-linecap="round" stroke-linejoin="round"><path d="M246.71204,173.53046c1.29342,-0.19398 3.62156,-0.84068 3.88024,0.71141c0,0.6467 -1.29342,3.29817 -2.91015,3.36287c-1.55209,0.06464 -4.39761,-1.74614 -4.20364,-2.97485c0.19405,-1.16408 2.06947,-0.90539 3.23353,-1.09944z" fill="#231f20"/><path d="M252.07974,179.99753c0.06464,1.55209 -10.08863,2.71617 -9.95929,0.71141" fill="none"/></g><g fill="#231f20" stroke="#231f20" stroke-linecap="round" stroke-linejoin="round" opacity="0.1"><path d="M224.0773,189.24547c-0.51736,0.38803 -1.09937,0.84068 -1.74607,1.29342"/><path d="M239.33958,194.35443c-0.25869,0.38803 -0.6467,0.9701 -1.09937,1.55209"/></g><g fill="none" stroke="#231f20" stroke-linecap="round" stroke-linejoin="round"><path d="M271.15758,172.62507c0,0 -1.48739,1.22878 -3.62156,1.87548c-1.81078,0.582 -5.36763,1.09937 -5.36763,1.09937"/><path d="M270.31689,181.61434c0,0 -1.48747,0.06464 -3.62156,-0.19405c-2.13417,-0.25869 -4.26826,-1.16408 -4.26826,-1.16408"/></g></g></g></svg>