<svg version="1.1" xmlns="http://www.w3.org/2000/svg" xmlns:xlink="http://www.w3.org/1999/xlink" width="137.17054" height="286.81708"><g transform="translate(-40.24036,-34.59146)"><g data-paper-data="{&quot;isPaintingLayer&quot;:true}" fill="none" fill-rule="nonzero" stroke="none" stroke-width="none" stroke-linecap="butt" stroke-linejoin="miter" stroke-miterlimit="10" stroke-dasharray="" stroke-dashoffset="0" font-family="none" font-weight="none" font-size="none" text-anchor="none" style="mix-blend-mode: normal"><path d="M160.75052,63.34225c0,15.87862 -24.36517,28.75079 -54.42113,28.75079c-30.05596,0 -54.42113,-12.87216 -54.42113,-28.75079c0,-15.87862 24.36517,-28.75079 54.42113,-28.75079c30.05596,0 54.42113,12.87216 54.42113,28.75079z" data-paper-data="{&quot;origPos&quot;:null}" fill="#000000" stroke="none" stroke-width="0"/><path d="M48.85812,100.76922c0,-31.19014 25.28461,-56.47475 56.47475,-56.47475c31.19014,0 56.47475,25.28461 56.47475,56.47475c0,31.19014 -25.2846,56.47475 -56.47475,56.47475c-31.19014,0 -56.47475,-25.28461 -56.47475,-56.47475z" data-paper-data="{&quot;origPos&quot;:null}" fill="#daad85" stroke="#000000" stroke-width="4"/><path d="M71.93112,86.44555c0,-6.80512 5.51665,-12.32177 12.32176,-12.32177c6.80512,0 12.32176,5.51665 12.32176,12.32177c0,6.80512 -5.51665,12.32176 -12.32176,12.32176c-6.80512,0 -12.32176,-5.51665 -12.32176,-12.32176z" data-paper-data="{&quot;origPos&quot;:null}" fill="#ffffff" stroke="#ffffff" stroke-width="4"/><path d="M113.51707,87.47236c0,-6.80512 5.51665,-12.32176 12.32177,-12.32176c6.80512,0 12.32176,5.51665 12.32176,12.32176c0,6.80512 -5.51665,12.32177 -12.32176,12.32177c-6.80512,0 -12.32177,-5.51665 -12.32177,-12.32177z" data-paper-data="{&quot;origPos&quot;:null}" fill="#ffffff" stroke="#ffffff" stroke-width="4"/><path d="M74.5078,89.35807c0,-5.10385 4.13747,-9.24132 9.24132,-9.24132c5.10385,0 9.24132,4.13747 9.24132,9.24132c0,5.10385 -4.13747,9.24133 -9.24132,9.24133c-5.10385,0 -9.24132,-4.13748 -9.24132,-9.24133z" data-paper-data="{&quot;origPos&quot;:null}" fill="#000000" stroke="#ffffff" stroke-width="0"/><path d="M116.77509,89.87148c0,-5.10385 4.13747,-9.24132 9.24132,-9.24132c5.10385,0 9.24132,4.13747 9.24132,9.24132c0,5.10385 -4.13747,9.24132 -9.24132,9.24132c-5.10385,0 -9.24132,-4.13747 -9.24132,-9.24132z" data-paper-data="{&quot;origPos&quot;:null}" fill="#000000" stroke="#ffffff" stroke-width="0"/><path d="M82.19926,231.73967v-73.93059h46.20662v73.93059z" data-paper-data="{&quot;origPos&quot;:null}" fill="#474747" stroke="#000000" stroke-width="4"/><path d="M119.14814,128.76846c0.25587,2.25169 -1.70192,2.74147 -2.16436,2.82534c-1.58409,1.19127 -3.22853,2.39507 -5.09832,3.07705c-5.43627,1.98281 -12.70889,0.286 -18.24089,-0.50429c0,0 -2.54123,-0.36303 -2.1782,-2.90426c0.36304,-2.54123 2.90426,-2.1782 2.90426,-2.1782c5.06184,0.72312 11.68327,2.32558 16.67078,0.52254c1.07135,-0.38731 2.53377,-1.87545 3.50247,-2.60196l1.76378,-0.49699c0,0 2.55061,-0.28984 2.84046,2.26079z" data-paper-data="{&quot;origPos&quot;:null}" fill="#000000" stroke="none" stroke-width="0.5"/><path d="M45.51394,208.13036l24.92081,-37.6851l19.69904,13.02678l-24.92081,37.68511z" data-paper-data="{&quot;origRot&quot;:0,&quot;origPos&quot;:null}" fill="#474747" stroke="#000000" stroke-width="4"/><path d="M156.94321,212.25457l-42.10596,-16.37993l8.56225,-22.00994l42.10596,16.37994z" data-paper-data="{&quot;origRot&quot;:0,&quot;origPos&quot;:null,&quot;index&quot;:null}" fill="#474747" stroke="#000000" stroke-width="4"/><path d="M109.20788,302.60692v-69.82333h18.99605v69.82333z" data-paper-data="{&quot;origPos&quot;:null}" fill="#222222" stroke="#000000" stroke-width="4"/><path d="M82.29169,302.60692v-69.82333h18.99606v69.82333z" data-paper-data="{&quot;origPos&quot;:null}" fill="#222222" stroke="#000000" stroke-width="4"/><path d="M152.4965,209.14313c-4.02244,-5.68808 -2.67218,-13.55999 3.01589,-17.58242c5.68808,-4.02244 13.55998,-2.67218 17.58242,3.0159c4.02244,5.68808 2.67218,13.55999 -3.01589,17.58242c-5.68808,4.02244 -13.55999,2.67218 -17.58242,-3.01589z" data-paper-data="{&quot;origPos&quot;:null,&quot;origRot&quot;:0}" fill="#daad85" stroke="#000000" stroke-width="4"/><path d="M42.24036,215.84732c0,-6.96665 5.64757,-12.61422 12.61422,-12.61422c6.96665,0 12.61422,5.64757 12.61422,12.61422c0,6.96665 -5.64757,12.61422 -12.61422,12.61422c-6.96665,0 -12.61422,-5.64757 -12.61422,-12.61422z" data-paper-data="{&quot;origPos&quot;:null}" fill="#daad85" stroke="#000000" stroke-width="4"/><path d="M108.89329,306.17139c0,-6.96665 5.64757,-12.61422 12.61422,-12.61422c6.96665,0 12.61422,5.64757 12.61422,12.61422c0,6.96665 -5.64757,12.61422 -12.61422,12.61422c-6.96665,0 -12.61422,-5.64757 -12.61422,-12.61422z" data-paper-data="{&quot;origPos&quot;:null}" fill="#222222" stroke="#000000" stroke-width="4"/><path d="M76.18975,306.79432c0,-6.96665 5.64757,-12.61422 12.61422,-12.61422c6.96665,0 12.61422,5.64757 12.61422,12.61422c0,6.96665 -5.64757,12.61422 -12.61422,12.61422c-6.96665,0 -12.61422,-5.64757 -12.61422,-12.61422z" data-paper-data="{&quot;origPos&quot;:null}" fill="#222222" stroke="#000000" stroke-width="4"/></g></g></svg>