<svg version="1.1" xmlns="http://www.w3.org/2000/svg" xmlns:xlink="http://www.w3.org/1999/xlink" width="503.05344" height="394.8949" viewBox="0,0,503.05344,394.8949"><g transform="translate(13.05344,17.44743)"><g data-paper-data="{&quot;isPaintingLayer&quot;:true}" fill-rule="nonzero" stroke="none" stroke-linecap="butt" stroke-linejoin="miter" stroke-miterlimit="10" stroke-dasharray="" stroke-dashoffset="0" style="mix-blend-mode: normal"><path d="M-10,377.44746v-394.89489h500v394.8949z" fill="#000000" stroke-width="0"/><text transform="translate(200.29013,140.23015) scale(3.55897,0.95717)" font-size="40" xml:space="preserve" fill="#ffffff" fill-rule="nonzero" stroke="none" stroke-width="1" stroke-linecap="butt" stroke-linejoin="miter" stroke-miterlimit="10" stroke-dasharray="" stroke-dashoffset="0" font-family="Sans Serif" font-weight="normal" text-anchor="start" style="mix-blend-mode: normal"><tspan x="0" dy="0">yes</tspan></text><path d="M-12.26777,356.74812c1.76777,-1.76777 3.53553,0 3.53553,0l3.46447,3.46447c0.38714,0.95931 0.77429,1.91863 1.16143,2.87794c-1.33632,-4.76287 2.19138,-11.8696 3.75885,-16.51918c0.41431,-1.22898 1.372,-2.33991 1.3828,-3.6368c0.00537,-0.64522 -0.99735,-0.84991 -1.34088,-1.39611c-0.92001,-1.4628 -1.61467,-3.05576 -2.42053,-4.58441c-1.55446,-2.94869 -3.25019,-5.82748 -4.65746,-8.84918c-0.92955,-1.99593 -2.89979,-3.90995 -2.56646,-6.08635c0.29376,-1.91805 2.69166,-2.79974 4.12735,-4.10512c1.09753,-0.99792 8.26871,-6.79333 9.174,-6.89306c0.97737,-0.10768 8.26414,4.6967 9.18101,5.28016c7.65047,4.86848 17.07916,9.24864 23.36705,15.78864c-0.58701,-1.82876 1.20578,-3.67466 2.15818,-5.34256c1.65291,-2.89465 3.20402,-5.84985 4.95872,-8.68396c0.66725,-1.07771 2.13345,-1.86866 2.15058,-3.13609c0.01713,-1.26743 -1.42716,-2.09772 -2.06504,-3.19306c-0.83873,-1.44025 -1.57407,-2.93827 -2.36111,-4.4074c-2.35847,-4.40248 -4.8242,-8.76807 -7.08332,-13.2222c-0.91854,-1.81102 -2.41887,-3.466 -2.6552,-5.48285c-0.30746,-2.62391 5.01328,-9.39239 6.43642,-9.60435c1.52331,-0.22687 6.54711,7.0606 7.321,8.10633c1.89765,2.56423 3.35257,5.51514 5.66295,7.71478c4.03656,3.84309 9.93224,6.80089 14.82104,9.86745c-0.66434,-1.60867 -1.18881,-3.29975 -1.8915,-4.88398c-2.02715,-4.57026 -4.07991,-9.13036 -6.08186,-13.71171c-0.73887,-1.69085 -1.99456,-3.24881 -2.19135,-5.08352c-0.26361,-2.45766 -0.92066,-5.64727 0.85603,-7.36568c1.65069,-1.59655 4.59293,-0.19674 6.88826,-0.12458c4.5873,0.14421 9.83489,1.95465 14.38364,1.4974c2.92295,-0.29383 5.52978,-1.98559 8.30441,-2.95068c2.90944,-1.01198 5.81888,-2.02396 8.72832,-3.03594c-4.96855,-0.92572 -9.79834,-2.36392 -14.41752,-4.95645c-9.91629,-5.61789 -23.31441,-10.48961 -29.17541,-20.88892c-0.15375,-0.2728 -3.17125,-9.36928 -3.35607,-9.92373c-0.1647,-0.49409 -3.21415,-9.60933 -3.25996,-9.88736c-0.09349,-0.56744 -0.16932,-1.14458 -0.22988,-1.7297c-1.95978,-0.62676 -3.90161,-1.54119 -4.64549,-2.79579c-1.09409,-1.84524 -1.00709,-8.55667 -0.90142,-10.5028c0.15339,-2.82507 0.79747,-5.63252 1.68648,-8.31845c1.17554,-2.35662 2.37885,-4.99235 3.89695,-7.33691c0.02958,-1.73803 0.16994,-3.40316 0.52387,-4.87461c0.21035,-0.87455 0.51928,-1.78051 0.89705,-2.70339c1.82657,0.60483 4.16505,0.78065 7.13138,0.63233c2.24234,-0.11212 6.19259,-4.88278 8.24567,-7.27226c1.47604,-1.1619 2.97007,-2.29291 4.48096,-3.39499c5.72656,-3.01712 12.84974,-4.19387 17.75842,-8.14475c1.86356,-1.49994 4.36304,-4.16611 6.64124,-5.51637c2.10791,-1.24932 4.44097,-2.71508 6.41634,-4.4697c6.89049,-3.32674 13.94147,-6.37629 21.07419,-9.28285c-0.00422,-0.05938 -0.00637,-0.11933 -0.00637,-0.17979c0,-1.38071 1.11929,-2.5 2.5,-2.5c0.71394,0 1.35798,0.29926 1.81352,0.77919c0.09823,-0.04606 0.1965,-0.09225 0.2948,-0.13854c-2.57227,-4.90116 -8.34473,-8.19007 -12.92754,-11.01706c-13.13367,-8.10176 -25.93129,-14.04508 -41.67191,-14.1156c-4.78352,-0.02143 -6.36745,-0.31704 -10.67453,1.34868c-5.14886,1.68281 -10.0893,4.72071 -14.68675,7.54747c-5.16067,3.17305 -11.03418,6.0251 -15.36758,10.35132c-3.49775,3.49195 -4.90185,8.0765 -7.05409,12.38269c-3.13617,6.2748 -7.15568,12.0429 -9.49229,18.7724c-1.27149,3.66195 -1.16059,6.80413 -1.77458,10.54017c-0.07365,0.36148 -0.14937,0.71961 -0.22663,1.07485c0.03376,-0.04403 0.06746,-0.08766 0.10109,-0.13086c7.68022,-9.86979 20.80375,-11.16626 31.68571,-6.83072c0.23647,2.6262 0.73239,4.66291 1.59068,6.20326c-9.49998,-5.31956 -22.49413,-5.27966 -29.44339,3.83809c-1.36052,1.78507 -3.01077,4.60902 -4.10748,7.24913c0.76759,0.0537 1.52397,0.12563 2.22362,0.21032l0.7934,-1.02856c7.31337,-1.16999 11.7511,1.5337 17.95206,5.00201c0.31493,1.77629 1.07456,3.52955 0.9448,5.32886c-0.09569,1.32686 -1.03937,2.44958 -1.59302,3.65921c-1.37334,3.00049 -3.17746,5.8878 -5.5025,8.22942c-1.38818,1.39809 -2.43408,3.31912 -4.23087,4.12736c-1.86035,0.83684 -4.05786,0.53638 -6.09768,0.51868c-6.58493,-0.05713 -14.3829,-3.24665 -16.89951,-10.0507c-1.70232,-4.60247 0.67186,-12.12394 4.85463,-15.04973c0.00358,-0.89524 0.00975,-1.57858 0.02021,-1.64808c0.59711,-3.9667 2.25284,-7.69379 3.0168,-11.60395c0.68243,-4.02884 0.59303,-7.22664 1.96333,-11.26157c2.3681,-6.97303 6.52963,-12.9481 9.76981,-19.42585c2.40615,-4.81037 4.04536,-9.71141 7.9459,-13.61732c4.62677,-4.63314 10.78762,-7.71619 16.31192,-11.10168c4.9308,-3.02178 10.13708,-6.13669 15.63375,-7.99954c4.79319,-1.75115 7.24483,-1.66074 12.36684,-1.63528c16.68086,0.08294 30.35761,6.27481 44.28672,14.86835c5.69393,3.51287 11.62406,7.32216 14.73038,13.1716c3.37336,-1.54769 6.80885,-2.93354 10.35363,-3.52384c3.70406,-0.61683 8.00729,-0.09191 11.76078,0.05898c5.03913,0.20257 7.52813,-0.62894 11.20441,4.08936c0.89143,1.1441 0.75168,2.82804 0.7959,4.27775c0.14843,4.86622 -0.50861,6.49855 -2.71338,10.73541c-2.1625,4.15564 -4.8863,7.9078 -7.95081,11.38824c0.00708,0.01741 0.01416,0.03482 0.02125,0.05225c2.50581,6.16014 5.63111,12.3779 7.60717,18.72474c2.46633,7.92154 3.65502,16.51098 5.44475,24.61604c0.26949,1.22042 0.54821,2.42205 0.82244,3.61249c5.01053,-3.47084 9.24464,-6.61826 15.24499,-8.31912c2.78157,-0.78846 5.49382,-2.44427 8.37806,-2.24437c1.89313,0.13121 3.65694,1.01558 5.4854,1.52338c0.21318,0.06316 8.95583,2.62281 9.29688,2.8418c0.36889,0.23686 6.88565,7.05676 7.42293,7.62487c1.27981,1.35324 2.87859,2.47249 3.81536,4.08235c0.19445,0.33417 2.89083,9.44712 3.0932,10.12558c0.82247,2.75744 2.55631,5.43021 2.36742,8.30149c-0.03979,0.6049 -2.68329,9.37307 -2.9588,10.29801c-0.95159,3.19462 -1.65239,6.47494 -2.85477,9.58386c-0.78348,2.02579 -0.68455,5.15556 -2.71656,5.92279c-2.18019,0.82319 -4.48764,-1.35246 -6.55883,-2.42064c-0.96229,-0.49628 -1.41912,-2.6689 -2.3932,-2.19619c-1.33908,0.64984 -0.18477,3.83945 -1.63973,4.15333c-2.24838,0.48505 -4.35473,-1.49598 -6.46793,-2.40423c-3.96557,-1.70439 -7.95029,-3.82307 -11.32136,-6.50681c-0.76215,1.14602 -0.94579,3.12678 -2.28644,3.43807c-2.1032,0.48835 -4.2264,-0.89407 -6.31518,-1.4408c-4.26338,-1.11592 -8.62303,-2.45255 -12.82915,-3.87346c-0.54488,1.10408 -1.16307,2.1747 -1.87083,3.20363c-1.10879,1.61194 -1.81943,3.63648 -3.40779,4.7788c-1.58837,1.14231 -3.7364,1.16282 -5.61479,1.70999c-3.20031,0.93225 -6.42662,1.77286 -9.63993,2.65929c-1.32137,0.36452 -2.70961,0.81584 -4.12996,1.28507c5.6685,1.44608 11.37589,2.81126 16.98865,4.43915c1.56991,0.45533 3.48384,0.37111 4.6702,1.49561c1.13948,1.08007 0.3375,3.48351 1.58648,4.43484c0.95655,0.7286 2.37211,-0.42268 3.57166,-0.50592c3.32534,-0.23076 6.66561,-0.11847 9.99842,-0.17771c6.57711,-0.1169 13.29548,0.14516 19.85352,-0.34875c8.21161,-0.61844 16.47329,-2.20092 24.63793,-3.2897c11.0119,-1.45924 21.86593,-3.20543 32.83182,-5.22546c4.08105,-0.75177 9.86018,-2.89093 14.01191,-2.50808c4.74023,0.43712 10.36161,3.11301 14.92657,4.51761c12.90063,3.96943 24.88341,9.91001 37.15381,15.50827c4.80533,2.25106 8.34161,2.0686 13.61518,2.31026c8.3246,0.38148 16.64919,0.76296 24.97379,1.14443c1.29501,0.05934 10.27562,0.40565 11.0405,0.74342c1.33663,0.59024 1.65483,2.45893 2.78501,3.38505c2.44488,2.00343 5.55238,3.02271 8.31549,4.55777c6.90123,3.83402 13.77088,9.02334 21.60617,10.2354l3.84044,0.62614c0,0 2.46742,0.40229 2.06514,2.86971c-0.40229,2.46742 -2.86971,2.06514 -2.86971,2.06514l-3.84044,-0.62614c-8.5337,-1.45142 -15.70417,-6.61855 -23.22981,-10.79946c-0.59163,-0.32868 -8.86667,-4.90722 -9.16766,-5.15509c-0.84754,-0.69797 -0.8393,-2.27338 -1.83547,-2.73504c-1.19286,-0.55281 -2.62929,0.08207 -3.94377,0.05676c-3.33272,-0.06418 -6.65968,-0.30518 -9.98952,-0.45777c-6.65968,-0.30518 -13.31936,-0.61036 -19.97903,-0.91555c-0.58285,-0.02671 -10.15799,-0.45162 -10.46183,-0.52498c-1.77405,-0.42834 -3.33325,-1.48741 -4.99987,-2.23111c-12.07144,-5.50749 -23.85928,-11.37382 -36.54884,-15.2783c-4.20066,-1.29251 -9.38654,-3.85377 -13.7468,-4.30496c-1.00966,-0.10448 -1.98433,0.42938 -2.9809,0.62218c-3.27265,0.63313 -6.55635,1.20775 -9.83453,1.81162c-11.04444,2.0345 -21.98825,3.77579 -33.07672,5.26432c-8.25991,1.10149 -16.61561,2.69378 -24.92334,3.31946c-6.65389,0.50113 -13.4671,0.24347 -20.14017,0.36208c-3.33281,0.05924 -6.66582,0.24752 -9.99842,0.17771c-2.14457,-0.04493 -4.59173,0.78259 -6.42676,-0.32821c-1.5102,-0.91417 -0.94362,-3.54035 -2.12743,-4.84993c-0.59382,-0.6569 -1.76095,-0.21419 -2.62511,-0.40752c-1.62646,-0.36386 -3.22539,-0.84141 -4.83809,-1.26211c-4.83809,-1.26211 -9.67617,-2.52422 -14.51426,-3.78633c0,0 -2.0393,-0.53199 -1.88464,-2.49147c-1.80104,0.50213 -3.58331,0.89591 -5.27966,1.04817c-4.6265,0.41524 -10.34261,-1.04883 -14.96642,-1.53737c-2.27835,-0.24072 -4.54396,-0.45439 -6.79071,-0.69574c-0.34902,1.17437 -1.62622,1.61861 -1.62622,1.61861c-4.72248,1.6426 -9.44497,3.28521 -14.16745,4.92781c-0.25436,0.08847 -9.01839,3.15802 -9.36069,3.1937c-4.29196,0.44732 -11.20495,-0.63008 -15.46748,-1.48771c-1.06544,-0.21437 -2.14867,-1.70847 -3.06212,-1.11962c-0.7644,0.49277 0.38714,1.78463 0.71405,2.63331c0.53497,1.38885 1.25145,2.70085 1.86322,4.05762c2.05509,4.55767 4.05474,9.14152 6.08186,13.71171c0.09242,0.20836 4.00812,8.99219 4.02303,9.20388c0.13731,1.94872 0.57582,5.07131 -1.26609,5.72225c-2.30187,0.8135 -4.48443,-1.93171 -6.72665,-2.89756c-7.1521,-4.76807 -15.06933,-8.77354 -20.23815,-15.70608c-1.99245,-2.67231 -4.40455,-5.08412 -5.94867,-8.03824c-0.32013,-0.61245 0.29894,-2.53613 -0.20481,-2.06305c-0.71082,0.66753 -0.31154,1.93613 -0.63834,2.85486c-0.20078,0.56444 -1.06191,0.95751 -0.92523,1.5408c0.29818,1.27254 1.41794,2.1975 2.06702,3.33195c3.29272,5.75491 6.47751,11.70015 9.44443,17.6296c0.92749,1.8536 2.68519,3.54923 2.65718,5.62174c-0.02801,2.0725 -1.8309,3.72002 -2.80814,5.54787c-3.03767,5.68172 -6.12809,11.45801 -10.25767,16.40073c-9.54882,-4.65268 -18.29559,-10.72395 -27.25264,-16.42389c-1.4061,-0.89479 -2.87028,-1.70427 -4.21831,-2.68438c-0.72581,-0.52771 -1.09739,-1.97951 -1.981,-1.82294c-1.17058,0.20743 -1.55846,1.8028 -2.43535,2.60551c-1.22937,1.12536 -2.50563,2.20866 -3.86979,3.16619c-0.73422,0.51536 -2.32574,0.33565 -2.3935,1.23012c-0.08725,1.15167 1.48602,1.77899 2.09101,2.76283c2.5781,4.19253 4.45374,8.83933 6.8944,13.11395c0.62727,1.09861 1.96008,1.94398 2.02927,3.20716c0.11164,2.03823 -0.981,3.96354 -1.52882,5.92994c-1.93661,6.95144 -3.93762,13.54277 -7.32954,19.91408c-1.96988,-1.39771 -3.93976,-2.79542 -5.90964,-4.19312l-3.46447,-3.46447c0,0 -1.76777,-1.76777 0,-3.53553zM211.41987,244.40263l-1.42927,-2.39383c-5.54177,-1.56614 -11.55802,-4.75868 -17.22105,-5.50356c-3.7417,-0.49217 -9.11292,2.07673 -12.63538,3.02508c-3.21872,0.86658 -6.42852,1.76697 -9.65616,2.59973c-1.39085,0.35885 -2.90943,0.36594 -4.18535,1.02569c-1.17449,0.60731 -2.04562,1.60561 -2.8525,2.68856c-0.38822,1.85848 -0.83654,3.69479 -1.40117,5.48052c2.55353,0.75701 5.08386,1.59374 7.63079,2.37341c1.59367,0.48786 3.21661,0.88872 4.781,1.46357c1.11724,0.41054 2.12274,1.87778 3.24682,1.48634c1.40958,-0.49086 1.80904,-2.37462 2.71356,-3.56193c3.50875,1.39699 6.98082,2.90573 10.33933,4.63297c1.48215,0.76225 3.04807,1.37992 4.44644,2.28674c0.90996,0.59009 1.45008,2.6445 2.42495,2.16925c1.34267,-0.65455 0.19991,-3.85537 1.66191,-4.16159c2.25416,-0.47214 4.42708,1.37145 6.45598,2.46127c0.9401,0.50498 1.25136,2.48031 2.29035,2.23683c0.89091,-0.20878 -0.29026,-1.8399 -0.13562,-2.74178c0.56333,-3.28539 1.90318,-6.38924 2.85477,-9.58386c0.50459,-1.69398 1.23297,-3.34074 1.82034,-5.01552c-0.72769,-0.33481 -1.14974,-0.96789 -1.14974,-0.96789zM150.80148,256.35029c-0.34772,-0.32196 -0.5685,-0.64881 -0.69797,-0.96712c-1.05799,-0.38481 -2.09908,-0.87816 -3.15684,-1.22652c-3.16606,-1.04269 -6.26529,-2.27829 -9.39793,-3.41743c-2.41953,-0.87983 -4.6507,-2.71496 -7.22519,-2.72957c-6.23242,-0.03538 -12.576,4.17245 -18.85861,4.00599c-0.12296,-0.00326 -9.83913,-2.24862 -10.27225,-2.40252c-1.57173,-0.55847 -4.20892,-0.52365 -4.51193,-2.16389c-0.34477,-1.86624 4.40145,-8.81409 5.6112,-10.7013c1.79889,-2.80626 3.43635,-5.72282 5.39666,-8.41879c0.93888,-1.29121 1.47986,-3.39682 3.04843,-3.69399c2.16725,-0.41059 4.24783,1.19937 6.3338,1.9165c4.70225,1.61657 9.30979,3.72392 13.92715,5.57086l1.43047,0.57219c0,0 0.56175,0.2247 1.02201,0.72937c1.497,0.09973 2.97987,0.11237 4.39423,-0.32077c2.99453,-0.91705 5.43128,-3.12022 8.16516,-4.64798c4.47642,-2.50153 8.74108,-5.10503 12.97664,-7.89613c-0.42875,-1.82421 -0.88518,-3.65553 -1.29559,-5.51412c-1.75904,-7.96612 -2.91257,-16.42298 -5.33633,-24.20781c-1.715,-5.50838 -4.33046,-10.91952 -6.61096,-16.27881c-5.41954,5.40165 -11.52495,10.20943 -17.33736,15.00798c-5.23483,4.14837 -10.62576,7.76134 -16.1748,11.11243c-4.46413,8.06801 -9.32655,15.84931 -14.11514,23.77411c-3.28302,5.43318 -6.17318,10.0032 -10.42852,14.8299c-0.80622,0.91447 -1.43027,2.04333 -2.44345,2.72136c-6.58395,4.40606 -15.26867,4.01674 -22.84113,3.97163c-1.47369,-0.44038 -3.11866,-0.50297 -4.42106,-1.32116c-0.04579,-0.02876 -0.09144,-0.05775 -0.13694,-0.08696c3.17594,3.33155 7.30686,5.46471 11.39034,7.77813c4.35036,2.46462 8.70073,4.92924 13.05109,7.39385c8.58731,4.91689 18.31592,5.22147 27.97692,6.24222c4.30226,0.45456 9.72573,1.92016 14.03176,1.52648c4.48386,-0.40994 9.65185,-2.7079 13.99971,-3.90731c3.21331,-0.88643 6.41201,-1.82761 9.63993,-2.65929c1.33492,-0.34395 2.90598,-0.14443 4.02513,-0.9493c1.11916,-0.80487 1.42475,-2.36113 2.18079,-3.51383c0.04788,-0.07299 0.09685,-0.14536 0.14675,-0.21719c-0.28482,0.27621 -1.83014,1.62219 -3.4862,0.0888zM169.17815,237.30198c4.81499,-1.34362 9.65644,-2.60267 14.48424,-3.8996c2.20651,-0.59276 7.08714,-2.15624 9.56807,-1.87585c1.838,0.20773 3.53418,1.09336 5.29693,1.65382c4.75285,1.51116 9.47855,3.07758 14.18126,4.73639c-0.47218,-1.0879 -1.03735,-2.16695 -1.36745,-3.27365c-0.89684,-3.00676 -1.04534,-6.32808 -2.6234,-9.04002c-0.73987,-1.2715 -2.07797,-2.08301 -3.1037,-3.13753c-2.17527,-2.23634 -3.80359,-5.10825 -6.41518,-6.8149c-2.35492,-1.53892 -5.41787,-1.51812 -8.11514,-2.31731c-1.36753,-0.43917 -2.67291,-1.17948 -4.10258,-1.31751c-2.4185,-0.2335 -4.65027,1.41234 -6.9923,2.05933c-4.84917,1.33961 -6.51373,2.67112 -10.69758,5.53375c-1.58565,1.08492 -3.1665,2.15897 -4.74971,3.21927c0.7457,3.79543 1.23147,7.59193 0.99327,11.64666c-0.26536,1.29165 -0.50376,2.60101 -0.73493,3.9181c1.40246,-0.50401 2.93606,-0.68851 4.37821,-1.09094zM120.31552,233.39418c-1.73411,-0.68403 -3.44649,-1.40361 -5.10162,-2.20016c-1.03782,-0.49946 -1.80066,-1.73962 -2.95096,-1.79741c-0.55636,-0.02795 -0.10617,1.13753 -0.36492,1.63084c-1.54831,2.95192 -3.59777,5.61253 -5.39666,8.41879c-1.21204,1.89079 -2.53662,3.78855 -4.19096,5.30649c0.01697,-0.0019 0.03339,-0.00246 0.04916,-0.00157c1.66398,0.09459 3.24384,0.76744 4.86194,1.16686c1.44047,0.35558 2.83051,1.05376 4.31356,1.09808c2.95449,0.08829 5.77201,-1.27759 8.66442,-1.88652c0.87452,-0.18411 9.93681,-2.12073 10.47697,-2.1075c1.36523,0.03346 2.59376,0.8563 3.88204,1.30942c4.69145,1.65009 9.49428,3.24348 14.0969,5.12615c1.15645,0.47304 2.1412,1.64722 3.38976,1.59992c0.12525,-0.00474 0.23741,-0.04212 0.34009,-0.10309c0.17767,-0.19293 0.35528,-0.38591 0.53287,-0.57893c0.30277,-0.45568 0.57341,-0.99118 1.01405,-1.10273c1.47209,-1.6013 2.94408,-3.20304 4.42523,-4.79569c0.73269,-3.55657 1.48191,-7.10999 2.22156,-10.66486c0.18137,-2.74486 -0.06057,-5.40426 -0.50564,-8.03848c-3.79143,2.45473 -7.63414,4.81637 -11.62433,7.04618c-0.66905,0.37388 -8.87084,4.98253 -9.29371,5.10845c-0.36527,0.10876 -9.47762,0.27175 -9.60647,0.27443c-4.99892,0.10414 -9.99783,0.20829 -14.99675,0.31243c0,0 -2.49946,0.05207 -2.55153,-2.44739c-0.05207,-2.49946 2.44739,-2.55153 2.44739,-2.55153c1.95586,-0.04075 3.91173,-0.08149 5.86759,-0.12224zM67.13603,214.23019c6.24487,-2.52548 29.81502,-10.65423 29.81502,-10.65423c3.92267,-2.10527 19.90585,-12.41132 19.7589,-11.65963c2.8969,-1.94868 5.74729,-4.01236 8.5513,-6.23689c6.33824,-5.23317 12.78127,-10.35032 18.34601,-16.29566c-0.13543,-0.32376 -0.27113,-0.6451 -0.40767,-0.96433c1.42396,-1.00098 2.76355,-2.181 3.93511,-3.48385c0.05329,0.08805 0.09638,0.16923 0.12869,0.24314c1.32498,-1.65109 2.57596,-3.37225 3.73581,-5.17988c2.53458,-3.95017 3.92795,-6.64755 4.16693,-11.41455c0.02933,-0.58497 0.33567,-1.30293 -0.03456,-1.75679c-2.33884,-2.86714 -6.74082,-1.79461 -9.91767,-1.82775c-0.24431,-0.00255 -0.4889,-0.0084 -0.73371,-0.01661c-1.43418,-0.27744 -2.56522,-0.31252 -3.54248,-0.17816c-1.28875,-0.04834 -2.57289,-0.03694 -3.84095,0.17087c-3.19407,0.52346 -6.345,1.81238 -9.43873,3.25894c0.03641,0.00223 0.13149,0.05243 0.2785,0.14554c-6.62512,2.20833 -12.37522,6.51846 -18.96538,9.20188c-4.99552,2.03411 -12.10892,2.96993 -16.40043,6.63189c-10.83522,5.56255 -21.19578,11.94385 -30.73936,19.72221c-2.19095,1.7857 -4.67641,3.41866 -7.05598,5.13262c0.0038,0.13187 -0.00269,0.26848 -0.02321,0.40748c-3.64597,0.49719 -5.83112,2.84209 -7.7741,5.56733c-1.63511,2.29341 -1.05184,5.18455 -1.79416,7.59262c-0.33614,1.09043 -0.77023,2.36678 -1.10494,3.71361c0.04571,-1.00475 0.07823,-1.99245 0.08635,-2.95517c0.00048,-0.05659 0.00081,-0.11344 0.00101,-0.17052c-0.50156,1.76457 -0.82758,3.58812 -0.92016,5.414c-0.12656,2.49607 -0.90192,5.20692 0.09858,7.4972c0.05331,0.12205 0.14339,0.2088 0.25577,0.27313c0.01864,-1.47127 0.08449,-2.96007 0.16506,-4.44351c0.19284,0.83951 0.53389,1.64403 1.07342,2.38412c0.5397,0.74033 1.73854,0.71581 2.38636,1.36364c0.64783,0.64783 0.56818,1.93182 1.36364,2.38636c3.20023,1.8287 8.619,1.68022 11.83333,0c1.39458,-0.72899 2.57903,-1.73045 3.65035,-2.86893c1.03976,-0.27761 2.06564,-0.59663 3.06333,-1.0001zM60.05517,221.79026c-2.71813,0.71392 -5.46703,1.14522 -8.19338,1.15198c0.45739,6.87516 4.06975,16.19587 11.23497,18.08194c6.14173,-0.04636 13.81786,0.56134 19.15887,-3.02837c0.71802,-0.48259 1.09719,-1.33805 1.66015,-1.99495c1.27244,-1.4848 5.08483,-5.75104 6.26008,-7.39651c1.48541,-2.07973 2.33952,-4.54909 3.6608,-6.73677c3.28381,-5.43708 6.60554,-10.80362 9.80686,-16.2438c-1.43201,0.79131 -2.87403,1.57491 -4.32608,2.3551c-0.19666,0.13853 -0.40062,0.24032 -0.58636,0.31459c-1.44288,0.77299 -2.89565,1.5432 -4.35832,2.31483c-5.96403,3.14634 -12.04293,6.73389 -18.53897,8.66394c-5.24827,1.55931 -10.47962,2.2311 -15.77862,2.51803zM17.06071,197.09545c0.4444,0.62293 0.90978,1.7451 -0.14016,3.00502c-1.60046,1.92056 -3.52101,0.32009 -3.52101,0.32009c-1.11908,-0.99398 -1.99745,-1.56055 -2.86607,-1.8895c-0.25056,-0.01016 -0.52471,-0.05956 -0.82404,-0.15935c-0.14743,-0.04914 -0.28263,-0.10439 -0.40656,-0.1648c-0.82554,-0.13502 -1.73164,-0.14712 -2.89094,-0.17816c-0.04889,1.63125 -0.09987,3.97302 -0.1316,5.50516c0.58652,0.45441 1.50658,1.48245 0.70574,3.08413c-1.11803,2.23607 -3.3541,1.11803 -3.3541,1.11803l-2.3814,-2.78946c0.00347,-0.16243 0.00823,-0.40719 0.01423,-0.71428c-0.81589,-0.41609 -1.10547,-1.22429 -1.20825,-1.74556c-0.48586,1.81108 -0.60814,3.67022 -0.20587,4.66218c2.01172,4.96071 7.62708,6.52441 12.32553,6.75444c1.29373,0.06334 2.7143,0.48885 3.88528,-0.06482c1.23413,-0.58354 1.79036,-2.06212 2.72246,-3.05951c2.67109,-2.85818 5.82408,-6.69604 5.68794,-10.81727c-2.70682,-1.11081 -4.96819,-2.28303 -7.41118,-2.86634z" fill="#ffffff" stroke-width="0.5"/><path d="M119,213.51588c0,-1.38071 1.11929,-2.5 2.5,-2.5c1.38071,0 2.5,1.11929 2.5,2.5c0,1.38071 -1.11929,2.5 -2.5,2.5c-1.38071,0 -2.5,-1.11929 -2.5,-2.5z" fill="#ffffff" stroke-width="0.5"/><path d="M143.5,204.01588c0,-1.38071 1.11929,-2.5 2.5,-2.5c1.38071,0 2.5,1.11929 2.5,2.5c0,1.38071 -1.11929,2.5 -2.5,2.5c-1.38071,0 -2.5,-1.11929 -2.5,-2.5z" fill="#ffffff" stroke-width="0.5"/><path d="M33.38197,353.27982c2.23607,-1.11803 3.3541,1.11803 3.3541,1.11803l0.2918,0.58359c1.6464,3.2928 3.97635,6.51163 4.55893,10.1594c0.72903,-1.40027 1.82333,-2.59618 2.87232,-3.77862c1.56924,-1.76888 2.6701,-4.72915 5.0174,-5.01486c1.62102,-0.19731 1.16814,3.57239 2.72257,4.07276c0.98668,0.31761 -0.02821,-2.11712 0.32125,-3.09297c0.56192,-1.56908 1.57611,-2.93717 2.36417,-4.40576c2.36417,-4.40576 4.72834,-8.81151 7.09251,-13.21727c0.88132,-1.60703 1.47285,-3.41121 2.64397,-4.82109c2.92042,-3.5158 8.34855,-7.02728 12.04888,-9.74799c1.74862,-1.28569 3.20139,-3.60101 5.3703,-3.68186c2.16891,-0.08086 3.79003,2.11986 5.62953,3.27179c2.82511,1.76914 5.71026,3.49546 8.23941,5.66675c0.8154,0.70003 1.02573,2.75042 2.0648,2.47607c1.03906,-0.27435 0.20979,-2.16132 0.57334,-3.17263c0.56381,-1.56841 1.45601,-2.99853 2.18401,-4.49779c2.15998,-4.4483 4.08376,-9.21005 6.55203,-13.49337c1.15194,-1.99903 1.53611,-5.1895 3.7575,-5.81282c0.67032,-0.18809 1.32116,-0.09271 1.95832,0.1636c-0.04032,-10.46003 -1.41232,-22.01182 1.07554,-32.14524c0,0 0.60634,-2.42536 3.0317,-1.81902c2.42536,0.60634 1.81902,3.0317 1.81902,3.0317c-2.49619,9.78055 -0.92536,21.30274 -0.92536,31.39366v1c0,0 0,0.10676 -0.02206,0.27615l0.44194,-0.6629c0,0 1.38675,-2.08013 3.46688,-0.69338c1.25097,0.83398 1.24807,1.91873 1.04699,2.651c4.05856,-1.93791 9.02916,-1.9021 13.42006,-3.37973c1.8659,-0.62791 3.47207,-2.39974 5.43844,-2.30352c2.0556,0.10059 3.67576,1.85385 5.48329,2.83796c4.37436,2.38164 8.71473,4.94557 12.9838,7.51139c1.69731,1.02012 3.8075,1.58836 5.04841,3.13162c0.69334,0.86227 -0.88096,2.8817 0.13646,3.31655c0.9746,0.41655 1.30523,-1.70526 2.15667,-2.33646c1.33888,-0.99257 2.89187,-1.6578 4.34122,-2.48069c4.60525,-2.61473 6.77749,-5.79815 10.65506,-9.2828c1.74157,-1.56509 3.14857,-4.60429 5.48058,-4.39389c2.33201,0.21041 3.17229,3.45237 4.60559,5.30391c2.04044,2.63585 3.65144,5.57776 5.47717,8.36664c0.91286,1.39444 1.85411,2.7707 2.73858,4.18332c0.39829,0.63612 0.46377,1.57502 1.10797,1.96011c2.62013,1.56623 5.92309,1.52518 8.78345,2.59125c1.11912,0.4171 2.11802,1.86927 3.25383,1.50004c1.13581,-0.36922 1.08988,-2.13118 1.74982,-3.12661c2.74467,-4.13996 5.98555,-8.05079 8.94964,-12.03761c1.98881,-2.67502 3.65409,-5.62419 5.96642,-8.02507c1.23611,-1.28345 2.46666,-3.9971 4.13932,-3.38275c2.28797,0.84035 2.65336,4.10095 3.74691,6.27928c2.92706,5.83063 4.72994,12.61318 7.02247,18.72658c0.58521,1.56055 1.35625,3.06354 1.75562,4.68165c0.19548,0.79202 -0.80841,2.37236 0.00392,2.44735c1.07284,0.09904 1.44882,-1.62366 2.33866,-2.23109c1.37653,-0.93965 2.9349,-1.58033 4.40236,-2.3705c8.80469,-4.74099 17.60411,-9.49192 26.41413,-14.22299c1.19487,-0.64166 2.41576,-1.23664 3.58728,-1.92002c1.9281,-1.12471 3.51428,-3.9157 5.70777,-3.50202c2.26727,0.42759 2.98378,3.52592 4.33507,5.39604c2.89391,4.00503 5.3067,8.54352 7.9037,12.74878c0.79975,1.29501 1.74679,2.51097 2.39186,3.88956c0.14954,0.31958 -0.27734,1.34671 -0.07792,1.05564c0.6132,-0.89504 0.77167,-2.04855 1.37565,-2.94983c3.5206,-5.25354 8.35605,-10.85624 12.73763,-15.41924c1.56814,-1.63307 2.70231,-4.62639 4.96636,-4.63345c2.3193,-0.00723 3.47929,3.0678 5.21893,4.60169c4.40419,5.00476 8.80837,10.00951 13.21256,15.01427c1.10105,1.25119 2.38711,2.36121 3.30314,3.75357c0.30201,0.45906 -0.16365,2.00453 0.23937,1.63101c0.78454,-0.72713 0.64113,-2.06597 1.20841,-2.97283c3.45301,-5.51999 8.36501,-10.57511 12.41406,-15.68092c0.22785,-0.28731 5.76518,-7.46802 6.35332,-7.3455c2.05447,0.42797 6.35567,7.5141 7.65414,9.49998c2.73494,4.18285 5.53543,8.33211 8.20874,12.55454c0.74758,1.18078 1.21419,2.57134 2.18048,3.581c1.50325,1.57072 4.25766,0.88761 6.40027,1.25656c4.90715,0.85342 9.91128,1.51327 14.77818,2.57012c1.53944,0.33429 3.43383,0.11374 4.56969,1.20529c0.87275,0.83871 -0.62527,3.02267 0.43586,3.60501c0.94446,0.51832 1.71718,-1.30149 2.57578,-1.95224l0.35762,-0.14305c0,0 2.32119,-0.92848 3.24967,1.39272c0.92848,2.32119 -1.39272,3.24967 -1.39272,3.24967l-0.35762,0.14305c-2.23633,0.58722 -4.50576,2.46295 -6.70899,1.76167c-1.48176,-0.47164 -0.57313,-3.19668 -1.56414,-4.39499c-0.42969,-0.51957 -1.35201,0.13585 -2.02184,0.05893c-4.92973,-0.56604 -9.88852,-1.71974 -14.77818,-2.57012c-1.27653,-0.22403 -7.15589,-0.91949 -8.61688,-2.23867c-1.43769,-1.29814 -2.21185,-3.18079 -3.29201,-4.7887c-2.78719,-4.14896 -5.47344,-8.37114 -8.20874,-12.55454c-1.36064,-2.08099 -2.6536,-3.34712 -3.11638,-5.31274c-1.41629,1.79835 -5.79673,7.32856 -5.88952,7.44576c-3.06499,3.87157 -5.96448,8.13143 -9.31054,11.76069c-1.57645,1.70988 -2.70543,4.4801 -4.99862,4.86763c-1.74111,0.29423 -2.84491,-2.10773 -4.12296,-3.32618c-5.94737,-5.66998 -11.08436,-12.59586 -16.5157,-18.76784c-0.46245,-0.96848 -0.31473,-2.86924 -1.38735,-2.90544c-1.01916,-0.0344 -0.63056,1.9656 -1.18957,2.81846c-0.91364,1.39393 -2.12294,2.56987 -3.18441,3.85481c-3.15112,3.81451 -6.14776,7.97698 -9.55322,11.56443c-1.58311,1.66771 -2.73843,4.30854 -4.99317,4.75979c-1.64399,0.32902 -2.93549,-1.71724 -4.07792,-2.94436c-3.16774,-3.40257 -5.53665,-8.89924 -7.99205,-12.85982c-0.87819,-1.41653 -1.90684,-2.7502 -2.63457,-4.24959c-0.47167,-0.97181 0.13871,-2.97653 -0.93407,-3.10315c-1.14428,-0.13506 -1.2038,2.0219 -2.10092,2.74493c-1.17314,0.9455 -2.64917,1.43624 -3.97503,2.152c-8.7996,4.75043 -17.60944,9.48201 -26.41413,14.22299c-1.6873,0.90854 -9.43895,5.31603 -10.8684,4.88041c-1.95116,-0.59461 -2.06728,-3.52396 -2.92868,-5.3729c-2.78343,-5.97446 -4.70728,-12.55274 -7.02247,-18.72658c-0.48697,-1.29858 -1.48605,-3.12474 -1.80297,-4.92768c-0.66253,0.89054 -1.46569,1.69892 -2.12791,2.58963c-0.9944,1.33751 -1.98881,2.67502 -2.98321,4.01254c-2.9725,3.99812 -5.81887,8.16275 -8.94964,12.03761c-1.354,1.6758 -2.1677,4.23241 -4.2166,4.89846c-2.0489,0.66605 -4.21039,-0.9234 -6.29097,-1.48271c-0.92686,-0.24916 -9.86439,-3.08616 -10.30615,-3.37425c-2.49471,-1.62689 -3.38453,-4.9024 -5.0158,-7.39425c-1.82572,-2.78888 -3.99069,-5.3831 -5.47717,-8.36664c-0.47334,-0.95006 0.18557,-2.96734 -0.87157,-3.06273c-1.05715,-0.09538 -0.76996,2.00727 -1.40571,2.85726c-0.99825,1.33464 -2.29233,2.42 -3.44314,3.62557c-3.75555,3.93425 -7.73825,6.70576 -12.69801,9.036c-2.12209,0.99702 -4.25545,3.21057 -6.52576,2.62493c-1.72504,-0.44499 -1.03175,-3.52278 -2.19282,-4.87395c-0.88334,-1.02796 -2.42083,-1.22104 -3.60745,-1.87597c-4.35163,-2.40179 -8.7654,-4.88299 -12.9838,-7.51139c-1.08737,-0.67752 -1.89172,-2.14144 -3.17258,-2.16963c-1.36948,-0.03013 -2.29487,1.54177 -3.57809,2.02109c-1.64488,0.6144 -3.41435,0.82143 -5.12234,1.22874c-3.54459,0.8453 -6.62106,1.49262 -9.82383,1.91212l0.09337,0.39397l-0.1746,0.04138c0.38374,1.2363 0.521,2.59847 0.91016,3.83199c0,0 0.6868,2.40381 -1.71701,3.09061c-2.40381,0.6868 -3.09061,-1.71701 -3.09061,-1.71701c-0.32564,-1.33466 -0.15789,-2.90101 -0.97693,-4.00398c-0.01198,-0.01613 -0.02413,-0.03205 -0.03646,-0.04777c-0.11638,0.01661 -0.23534,0.0252 -0.35631,0.0252c-1.05143,0 -1.95127,-0.64908 -2.32066,-1.56841c-0.29832,-0.14279 -0.58338,-0.30292 -0.83706,-0.50193c-0.84992,-0.66678 -1.13709,-2.69238 -2.17718,-2.40053c-1.04009,0.29185 -0.24116,2.1676 -0.61052,3.18276c-2.16042,5.93775 -5.56763,12.52168 -8.73604,17.99115c-1.16129,2.00469 -1.55469,5.23151 -3.79468,5.82295c-2.23999,0.59144 -4.17506,-2.02058 -6.17461,-3.19069c-2.87694,-1.68354 -5.60714,-3.62169 -8.23941,-5.66675c-0.93241,-0.72441 -1.42996,-2.43895 -2.60988,-2.39496c-1.17992,0.04399 -1.54843,1.79082 -2.42432,2.58264c-3.39782,3.0717 -8.41817,5.53408 -11.33496,9.04552c-0.95888,1.15437 -1.38959,2.66028 -2.08438,3.99042c-3.0981,5.77347 -5.81641,12.18013 -9.45669,17.62303c-1.3379,2.0004 -2.05711,5.1997 -4.40709,5.71855c-1.66189,0.36693 -1.44583,-3.63206 -3.09235,-4.06276c-1.01659,-0.26592 -0.44319,2.08738 -0.95857,3.0031c-0.50335,0.89432 -5.7268,8.03602 -7.18887,7.65591c-2.33151,-0.60615 -2.96895,-3.80502 -4.25136,-5.84433c-1.77445,-2.82178 -2.98142,-5.96285 -4.47214,-8.94427l-0.2918,-0.58359c0,0 -1.11803,-2.23607 1.11803,-3.3541z" fill="#ffffff" stroke-width="0.5"/></g></g></svg>