<svg version="1.1" xmlns="http://www.w3.org/2000/svg" xmlns:xlink="http://www.w3.org/1999/xlink" width="165.37035" height="181.20125" viewBox="0,0,165.37035,181.20125"><g transform="translate(-157.11368,-89.35821)"><g data-paper-data="{&quot;isPaintingLayer&quot;:true}" fill="none" fill-rule="nonzero" stroke="#000000" stroke-width="1.5" stroke-linecap="butt" stroke-linejoin="miter" stroke-miterlimit="10" stroke-dasharray="" stroke-dashoffset="0" font-family="none" font-weight="none" font-size="none" text-anchor="none" style="mix-blend-mode: normal"><path d="M229.8789,140.71783l-2.55539,66.95125l-68.9498,-2.63167l32.1903,-56.81359z" data-paper-data="{&quot;origPos&quot;:null,&quot;origRot&quot;:0}" fill="#a5a5a5"/><path d="M241.15615,197.33256l35.70615,-18.71017l-2.51657,68.95409l-66.95542,-2.44363z" data-paper-data="{&quot;origPos&quot;:null,&quot;origRot&quot;:0}" fill="#a5a5a5"/><path d="M173.62631,269.37763v-67h69l-52,59z" data-paper-data="{&quot;origPos&quot;:null}" fill="#a5a5a5"/><path d="M289.62631,154.37762l7,52h-69v-67z" data-paper-data="{&quot;origPos&quot;:null,&quot;index&quot;:null}" fill="#a5a5a5"/><path d="M221.15616,109.33256l35.70615,-18.71017l-2.51657,68.95409l-66.95542,-2.44362z" data-paper-data="{&quot;origPos&quot;:null,&quot;origRot&quot;:0}" fill="#a5a5a5"/><path d="M314.62631,106.37762l7,52h-69v-67z" data-paper-data="{&quot;origPos&quot;:null,&quot;index&quot;:null}" fill="#a5a5a5"/><path d="M267.62631,112.87762c0,-4.69442 3.80558,-8.5 8.5,-8.5c4.69442,0 8.5,3.80558 8.5,8.5c0,4.69442 -3.80558,8.5 -8.5,8.5c-4.69442,0 -8.5,-3.80558 -8.5,-8.5z" data-paper-data="{&quot;origPos&quot;:null}" fill="#000000"/><path d="M289.62631,115.87762c0,-4.69442 3.80558,-8.5 8.5,-8.5c4.69442,0 8.5,3.80558 8.5,8.5c0,4.69442 -3.80558,8.5 -8.5,8.5c-4.69442,0 -8.5,-3.80558 -8.5,-8.5z" data-paper-data="{&quot;origPos&quot;:null}" fill="#000000"/></g></g></svg>