<svg version="1.1" xmlns="http://www.w3.org/2000/svg" xmlns:xlink="http://www.w3.org/1999/xlink" width="526.52553" height="404.9039" viewBox="0,0,526.52553,404.9039"><defs><linearGradient x1="237.7478" y1="-24.20417" x2="237.7478" y2="379.69976" gradientUnits="userSpaceOnUse" id="color-1"><stop offset="0" stop-color="#000000"/><stop offset="1" stop-color="#000d2f"/></linearGradient></defs><g transform="translate(25.51498,24.70414)"><g data-paper-data="{&quot;isPaintingLayer&quot;:true}" fill-rule="nonzero" stroke-linecap="butt" stroke-linejoin="miter" stroke-miterlimit="10" stroke-dasharray="" stroke-dashoffset="0" style="mix-blend-mode: normal"><path d="M-25.01498,379.69976v-403.9039h525.52553v403.9039z" fill="url(#color-1)" stroke="#ffffff" stroke-width="1"/><g fill="#bb0000" stroke="none" stroke-width="0"><path d="M118.25287,223.87828c4.21151,0 7.62563,3.57909 7.62563,7.99424c0,4.41506 -3.41412,7.99424 -7.62563,7.99424c-4.21151,0 -7.62557,-3.57909 -7.62557,-7.99424c0,-4.41506 3.41412,-7.99424 7.62557,-7.99424z" data-paper-data="{&quot;index&quot;:null}"/><path d="M134.92881,223.59449c4.21151,0 7.62563,3.57909 7.62563,7.99424c0,4.41506 -3.41412,7.99418 -7.62563,7.99418c-4.21151,0 -7.62557,-3.57909 -7.62557,-7.99418c0,-4.41506 3.41412,-7.99424 7.62557,-7.99424z" data-paper-data="{&quot;index&quot;:null}"/><path d="M101.31776,218.15128c4.21151,0 7.62563,3.57909 7.62563,7.99424c0,4.41506 -3.41412,7.99418 -7.62563,7.99418c-4.21151,0 -7.62557,-3.57909 -7.62557,-7.99418c0,-4.41506 3.41412,-7.99424 7.62557,-7.99424z" data-paper-data="{&quot;index&quot;:null}"/><path d="M85.49452,207.10718c4.21151,0 7.62563,3.57909 7.62563,7.99424c0,4.41506 -3.41412,7.99418 -7.62563,7.99418c-4.21151,0 -7.62557,-3.57909 -7.62557,-7.99418c0,-4.41506 3.41412,-7.99424 7.62557,-7.99424z" data-paper-data="{&quot;index&quot;:null}"/><path d="M152.41022,219.01293c4.21151,0 7.62557,3.57909 7.62557,7.99424c0,4.41506 -3.41412,7.99418 -7.62557,7.99418c-4.21151,0 -7.62563,-3.57909 -7.62563,-7.99418c0,-4.41506 3.41412,-7.99424 7.62563,-7.99424z" data-paper-data="{&quot;index&quot;:null}"/><path d="M165.58552,205.47307c4.21151,0 7.62557,3.57909 7.62557,7.99424c0,4.41506 -3.41412,7.99418 -7.62557,7.99418c-4.21151,0 -7.62563,-3.57909 -7.62563,-7.99418c0,-4.41506 3.41412,-7.99424 7.62563,-7.99424z" data-paper-data="{&quot;index&quot;:null}"/><path d="M175.50237,189.23243c4.21151,0 7.62563,3.57909 7.62563,7.99424c0,4.41506 -3.41412,7.99418 -7.62563,7.99418c-4.21151,0 -7.62557,-3.57909 -7.62557,-7.99418c0,-4.41506 3.41412,-7.99424 7.62557,-7.99424z" data-paper-data="{&quot;index&quot;:null}"/><path d="M181.67872,171.111c4.21151,0 7.62563,3.57909 7.62563,7.99424c0,4.41506 -3.41412,7.99418 -7.62563,7.99418c-4.21151,0 -7.62557,-3.57909 -7.62557,-7.99418c0,-4.41506 3.41412,-7.99424 7.62557,-7.99424z" data-paper-data="{&quot;index&quot;:null}"/><path d="M77.73503,190.95056c4.21151,0 7.62557,3.57909 7.62557,7.99424c0,4.41506 -3.41412,7.99418 -7.62557,7.99418c-4.21151,0 -7.62563,-3.57909 -7.62563,-7.99418c0,-4.41506 3.41412,-7.99424 7.62563,-7.99424z" data-paper-data="{&quot;index&quot;:null}"/><path d="M71.01239,171.84649c4.21151,0 7.62557,3.57909 7.62557,7.99418c0,4.41506 -3.41412,7.99418 -7.62557,7.99418c-4.21151,0 -7.62563,-3.57909 -7.62563,-7.99418c0,-4.41506 3.41412,-7.99418 7.62563,-7.99418z" data-paper-data="{&quot;index&quot;:null}"/><path d="M109.84962,124.66869c0,-4.41506 3.41412,-7.99418 7.62557,-7.99418c4.21151,0 7.62563,3.57909 7.62563,7.99418c0,4.41506 -3.41412,7.99424 -7.62563,7.99424c-4.21151,0 -7.62557,-3.57909 -7.62557,-7.99424z" data-paper-data="{&quot;index&quot;:null}"/><path d="M126.52552,124.9525c0,-4.41506 3.41412,-7.99418 7.62557,-7.99418c4.21151,0 7.62563,3.57909 7.62563,7.99418c0,4.41506 -3.41412,7.99424 -7.62563,7.99424c-4.21151,0 -7.62557,-3.57909 -7.62557,-7.99424z" data-paper-data="{&quot;index&quot;:null}"/><path d="M92.91453,130.39569c0,-4.41506 3.41412,-7.99424 7.62557,-7.99424c4.21151,0 7.62563,3.57909 7.62563,7.99424c0,4.41506 -3.41412,7.99424 -7.62563,7.99424c-4.21151,0 -7.62557,-3.57909 -7.62557,-7.99424z" data-paper-data="{&quot;index&quot;:null}"/><path d="M77.09129,141.43979c0,-4.41506 3.41412,-7.99424 7.62557,-7.99424c4.21151,0 7.62563,3.57909 7.62563,7.99424c0,4.41506 -3.41412,7.99424 -7.62563,7.99424c-4.21151,0 -7.62557,-3.57909 -7.62557,-7.99424z" data-paper-data="{&quot;index&quot;:null}"/><path d="M144.00696,129.53413c0,-4.41506 3.41412,-7.99418 7.62563,-7.99418c4.21151,0 7.62557,3.57909 7.62557,7.99418c0,4.41506 -3.41412,7.99424 -7.62557,7.99424c-4.21151,0 -7.62563,-3.57909 -7.62563,-7.99424z" data-paper-data="{&quot;index&quot;:null}"/><path d="M157.18223,143.07393c0,-4.41506 3.41412,-7.99418 7.62563,-7.99418c4.21151,0 7.62557,3.57909 7.62557,7.99418c0,4.41506 -3.41412,7.99424 -7.62557,7.99424c-4.21151,0 -7.62563,-3.57909 -7.62563,-7.99424z" data-paper-data="{&quot;index&quot;:null}"/><path d="M167.09911,159.31454c0,-4.41506 3.41412,-7.99418 7.62557,-7.99418c4.21151,0 7.62563,3.57909 7.62563,7.99418c0,4.41506 -3.41412,7.99424 -7.62563,7.99424c-4.21151,0 -7.62557,-3.57915 -7.62557,-7.99424z" data-paper-data="{&quot;index&quot;:null}"/><path d="M69.33175,157.59644c0,-4.41506 3.41412,-7.99418 7.62563,-7.99418c4.21151,0 7.62557,3.57909 7.62557,7.99418c0,4.41506 -3.41412,7.99424 -7.62557,7.99424c-4.21151,0 -7.62563,-3.57909 -7.62563,-7.99424z" data-paper-data="{&quot;index&quot;:null}"/></g></g></g></svg>