<svg version="1.1" xmlns="http://www.w3.org/2000/svg" xmlns:xlink="http://www.w3.org/1999/xlink" width="508.13862" height="963.46246" viewBox="0,0,508.13862,963.46246"><defs><linearGradient x1="244.85008" y1="-506.2312" x2="244.85008" y2="349.03204" gradientUnits="userSpaceOnUse" id="color-1"><stop offset="0" stop-color="#000000"/><stop offset="1" stop-color="#000d2d"/></linearGradient><linearGradient x1="246.95442" y1="306.33177" x2="246.95442" y2="457.23126" gradientUnits="userSpaceOnUse" id="color-2"><stop offset="0" stop-color="#0b1c0f"/><stop offset="1" stop-color="#32682a"/></linearGradient></defs><g transform="translate(7.11489,506.2312)"><g data-paper-data="{&quot;isPaintingLayer&quot;:true}" fill-rule="nonzero" stroke="none" stroke-width="0" stroke-linecap="butt" stroke-linejoin="miter" stroke-miterlimit="10" stroke-dasharray="" stroke-dashoffset="0" style="mix-blend-mode: normal"><path d="M-1.04722,349.03204v-855.26324h491.79461v855.26324z" fill="url(#color-1)"/><path d="M-7.11489,457.23126v-150.89949h508.13862v150.89949z" fill="url(#color-2)"/><path d="M50.49705,336v-288h384v288z" fill="#886237"/><path d="M306.39491,328.04217v-131.61194h76.73758v131.61194z" fill="#c48d4e"/><path d="M313.24918,261.54566c0,-4.73188 3.83594,-8.56782 8.56782,-8.56782c4.73188,0 8.56782,3.83594 8.56782,8.56782c0,4.73188 -3.83594,8.56782 -8.56782,8.56782c-4.73188,0 -8.56782,-3.83594 -8.56782,-8.56782z" fill="#000000"/><path d="M87.49702,315.43529v-111h145.85714v111z" fill="#312314"/><path d="M32.05925,50.47403l203.44774,-82.77097l225.93795,82.77097z" fill="#594024"/><path d="M86.49702,178.43529v-111h145.85714v111z" fill="#312314"/><path d="M262.49701,177.43529v-111h145.85714v111z" fill="#312314"/></g></g></svg>