<svg version="1.1" xmlns="http://www.w3.org/2000/svg" xmlns:xlink="http://www.w3.org/1999/xlink" width="526.52553" height="404.9039" viewBox="0,0,526.52553,404.9039"><defs><linearGradient x1="237.74781" y1="-24.20416" x2="237.74781" y2="379.69979" gradientUnits="userSpaceOnUse" id="color-1"><stop offset="0" stop-color="#000000"/><stop offset="1" stop-color="#000d2f"/></linearGradient></defs><g transform="translate(25.51497,24.70411)"><g data-paper-data="{&quot;isPaintingLayer&quot;:true}" fill-rule="nonzero" stroke-linecap="butt" stroke-linejoin="miter" stroke-miterlimit="10" stroke-dasharray="" stroke-dashoffset="0" style="mix-blend-mode: normal"><path d="M-25.01497,379.69979v-403.9039h525.52553v403.9039z" fill="url(#color-1)" stroke="#ffffff" stroke-width="1"/><g fill="#0cba00" stroke="none" stroke-width="0"><path d="M340.68613,87.69382c1.75751,0 3.18227,1.49362 3.18227,3.33609c0,1.84247 -1.42476,3.33609 -3.18227,3.33609c-1.75751,0 -3.18227,-1.49362 -3.18227,-3.33609c0,-1.84247 1.42476,-3.33609 3.18227,-3.33609z" data-paper-data="{&quot;index&quot;:null}"/><path d="M347.64526,87.57538c1.75751,0 3.18227,1.49362 3.18227,3.33609c0,1.84247 -1.42476,3.33609 -3.18227,3.33609c-1.75751,0 -3.18227,-1.49362 -3.18227,-3.33609c0,-1.84247 1.42476,-3.33609 3.18227,-3.33609z" data-paper-data="{&quot;index&quot;:null}"/><path d="M333.61886,85.30384c1.75751,0 3.18227,1.49362 3.18227,3.33609c0,1.84247 -1.42476,3.33609 -3.18227,3.33609c-1.75751,0 -3.18227,-1.49362 -3.18227,-3.33609c0,-1.84247 1.42476,-3.33609 3.18227,-3.33609z" data-paper-data="{&quot;index&quot;:null}"/><path d="M327.01559,80.695c1.75751,0 3.18227,1.49362 3.18227,3.33609c0,1.84247 -1.42476,3.33609 -3.18227,3.33609c-1.75751,0 -3.18227,-1.49362 -3.18227,-3.33609c0,-1.84247 1.42476,-3.33609 3.18227,-3.33609z" data-paper-data="{&quot;index&quot;:null}"/><path d="M354.94049,85.66341c1.75751,0 3.18227,1.49362 3.18227,3.33609c0,1.84247 -1.42476,3.33609 -3.18227,3.33609c-1.75751,0 -3.18227,-1.49362 -3.18227,-3.33609c0,-1.84247 1.42476,-3.33609 3.18227,-3.33609z" data-paper-data="{&quot;index&quot;:null}"/><path d="M360.43875,80.01303c1.75751,0 3.18227,1.49362 3.18227,3.33609c0,1.84247 -1.42476,3.33609 -3.18227,3.33609c-1.75751,0 -3.18227,-1.49362 -3.18227,-3.33609c0,-1.84247 1.42476,-3.33609 3.18227,-3.33609z" data-paper-data="{&quot;index&quot;:null}"/><path d="M364.57721,73.2356c1.75751,0 3.18227,1.49362 3.18227,3.33609c0,1.84247 -1.42476,3.33609 -3.18227,3.33609c-1.75751,0 -3.18227,-1.49362 -3.18227,-3.33609c0,-1.84247 1.42476,-3.33609 3.18227,-3.33609z" data-paper-data="{&quot;index&quot;:null}"/><path d="M367.15466,65.67325c1.75751,0 3.18227,1.49362 3.18227,3.33609c0,1.84247 -1.42476,3.33609 -3.18227,3.33609c-1.75751,0 -3.18227,-1.49362 -3.18227,-3.33609c0,-1.84247 1.42476,-3.33609 3.18227,-3.33609z" data-paper-data="{&quot;index&quot;:null}"/><path d="M323.77744,73.95258c1.75751,0 3.18227,1.49362 3.18227,3.33609c0,1.84247 -1.42476,3.33609 -3.18227,3.33609c-1.75751,0 -3.18227,-1.49362 -3.18227,-3.33609c0,-1.84247 1.42476,-3.33609 3.18227,-3.33609z" data-paper-data="{&quot;index&quot;:null}"/><path d="M320.972,65.98018c1.75751,0 3.18227,1.49362 3.18227,3.33609c0,1.84247 -1.42476,3.33609 -3.18227,3.33609c-1.75751,0 -3.18227,-1.49362 -3.18227,-3.33609c0,-1.84247 1.42476,-3.33609 3.18227,-3.33609z" data-paper-data="{&quot;index&quot;:null}"/><path d="M337.17932,46.29221c0,-1.84247 1.42476,-3.33609 3.18227,-3.33609c1.75751,0 3.18227,1.49362 3.18227,3.33609c0,1.84247 -1.42476,3.33609 -3.18227,3.33609c-1.75751,0 -3.18227,-1.49362 -3.18227,-3.33609z" data-paper-data="{&quot;index&quot;:null}"/><path d="M344.13846,46.41061c0,-1.84247 1.42476,-3.33609 3.18227,-3.33609c1.75751,0 3.18227,1.49362 3.18227,3.33609c0,1.84247 -1.42476,3.33609 -3.18227,3.33609c-1.75751,0 -3.18227,-1.49362 -3.18227,-3.33609z" data-paper-data="{&quot;index&quot;:null}"/><path d="M330.11206,48.68216c0,-1.84247 1.42476,-3.33609 3.18227,-3.33609c1.75751,0 3.18227,1.49362 3.18227,3.33609c0,1.84247 -1.42476,3.33609 -3.18227,3.33609c-1.75751,0 -3.18227,-1.49362 -3.18227,-3.33609z" data-paper-data="{&quot;index&quot;:null}"/><path d="M323.50881,53.29104c0,-1.84247 1.42476,-3.33609 3.18227,-3.33609c1.75751,0 3.18227,1.49362 3.18227,3.33609c0,1.8425 -1.42476,3.33609 -3.18227,3.33609c-1.75751,0 -3.18227,-1.49362 -3.18227,-3.33609z" data-paper-data="{&quot;index&quot;:null}"/><path d="M351.43371,48.32259c0,-1.84247 1.42476,-3.33609 3.18227,-3.33609c1.75751,0 3.18227,1.49362 3.18227,3.33609c0,1.84247 -1.42476,3.33609 -3.18227,3.33609c-1.75751,0 -3.18227,-1.49362 -3.18227,-3.33609z" data-paper-data="{&quot;index&quot;:null}"/><path d="M356.93194,53.97299c0,-1.8425 1.42476,-3.33609 3.18227,-3.33609c1.75751,0 3.18227,1.49362 3.18227,3.33609c0,1.8425 -1.42476,3.33609 -3.18227,3.33609c-1.75751,0 -3.18227,-1.49362 -3.18227,-3.33609z" data-paper-data="{&quot;index&quot;:null}"/><path d="M361.0704,60.75039c0,-1.8425 1.42476,-3.33609 3.18227,-3.33609c1.75751,0 3.18227,1.49362 3.18227,3.33609c0,1.8425 -1.42476,3.33609 -3.18227,3.33609c-1.75751,0 -3.18227,-1.49362 -3.18227,-3.33609z" data-paper-data="{&quot;index&quot;:null}"/><path d="M320.27063,60.03342c0,-1.8425 1.42476,-3.33609 3.18227,-3.33609c1.75751,0 3.18227,1.49362 3.18227,3.33609c0,1.8425 -1.42476,3.33609 -3.18227,3.33609c-1.75751,0 -3.18227,-1.49362 -3.18227,-3.33609z" data-paper-data="{&quot;index&quot;:null}"/></g></g></g></svg>