<svg version="1.1" xmlns="http://www.w3.org/2000/svg" xmlns:xlink="http://www.w3.org/1999/xlink" width="526.52553" height="404.9039" viewBox="0,0,526.52553,404.9039"><defs><linearGradient x1="237.7478" y1="-24.20417" x2="237.7478" y2="379.69976" gradientUnits="userSpaceOnUse" id="color-1"><stop offset="0" stop-color="#000000"/><stop offset="1" stop-color="#000d2f"/></linearGradient></defs><g transform="translate(25.51498,24.70414)"><g data-paper-data="{&quot;isPaintingLayer&quot;:true}" fill-rule="nonzero" stroke-linecap="butt" stroke-linejoin="miter" stroke-miterlimit="10" stroke-dasharray="" stroke-dashoffset="0" style="mix-blend-mode: normal"><path d="M-25.01498,379.69976v-403.9039h525.52553v403.9039z" fill="url(#color-1)" stroke="#ffffff" stroke-width="1"/><g fill="#bb0000" stroke="none" stroke-width="0"><path d="M115.55355,239.09078c5.61627,0 10.16917,4.7729 10.16917,10.66073c0,5.88771 -4.5529,10.66073 -10.16917,10.66073c-5.61627,0 -10.16909,-4.7729 -10.16909,-10.66073c0,-5.88771 4.5529,-10.66073 10.16909,-10.66073z" data-paper-data="{&quot;index&quot;:null}"/><path d="M137.79177,238.71233c5.61627,0 10.16917,4.7729 10.16917,10.66073c0,5.88771 -4.5529,10.66065 -10.16917,10.66065c-5.61627,0 -10.16909,-4.7729 -10.16909,-10.66065c0,-5.88771 4.5529,-10.66073 10.16909,-10.66073z" data-paper-data="{&quot;index&quot;:null}"/><path d="M92.96971,231.45353c5.61627,0 10.16917,4.7729 10.16917,10.66073c0,5.88771 -4.5529,10.66065 -10.16917,10.66065c-5.61627,0 -10.16909,-4.7729 -10.16909,-10.66065c0,-5.88771 4.5529,-10.66073 10.16909,-10.66073z" data-paper-data="{&quot;index&quot;:null}"/><path d="M71.8686,216.72566c5.61627,0 10.16917,4.7729 10.16917,10.66073c0,5.88771 -4.5529,10.66065 -10.16917,10.66065c-5.61627,0 -10.16909,-4.7729 -10.16909,-10.66065c0,-5.88771 4.5529,-10.66073 10.16909,-10.66073z" data-paper-data="{&quot;index&quot;:null}"/><path d="M161.10413,232.60259c5.61627,0 10.16909,4.7729 10.16909,10.66073c0,5.88771 -4.5529,10.66065 -10.16909,10.66065c-5.61627,0 -10.16917,-4.7729 -10.16917,-10.66065c0,-5.88771 4.5529,-10.66073 10.16917,-10.66073z" data-paper-data="{&quot;index&quot;:null}"/><path d="M178.67407,214.54649c5.61627,0 10.16909,4.7729 10.16909,10.66073c0,5.88771 -4.5529,10.66065 -10.16909,10.66065c-5.61627,0 -10.16917,-4.7729 -10.16917,-10.66065c0,-5.88771 4.5529,-10.66073 10.16917,-10.66073z" data-paper-data="{&quot;index&quot;:null}"/><path d="M191.8987,192.88876c5.61627,0 10.16917,4.7729 10.16917,10.66073c0,5.88771 -4.5529,10.66065 -10.16917,10.66065c-5.61627,0 -10.16909,-4.7729 -10.16909,-10.66065c0,-5.88771 4.5529,-10.66073 10.16909,-10.66073z" data-paper-data="{&quot;index&quot;:null}"/><path d="M200.13518,168.7229c5.61627,0 10.16917,4.7729 10.16917,10.66073c0,5.88771 -4.5529,10.66065 -10.16917,10.66065c-5.61627,0 -10.16909,-4.7729 -10.16909,-10.66065c0,-5.88771 4.5529,-10.66073 10.16909,-10.66073z" data-paper-data="{&quot;index&quot;:null}"/><path d="M61.52092,195.17997c5.61627,0 10.16909,4.7729 10.16909,10.66073c0,5.88771 -4.5529,10.66065 -10.16909,10.66065c-5.61627,0 -10.16917,-4.7729 -10.16917,-10.66065c0,-5.88771 4.5529,-10.66073 10.16917,-10.66073z" data-paper-data="{&quot;index&quot;:null}"/><path d="M52.55594,169.70371c5.61627,0 10.16909,4.7729 10.16909,10.66065c0,5.88771 -4.5529,10.66065 -10.16909,10.66065c-5.61627,0 -10.16917,-4.7729 -10.16917,-10.66065c0,-5.88771 4.5529,-10.66065 10.16917,-10.66065z" data-paper-data="{&quot;index&quot;:null}"/><path d="M104.34738,106.78969c0,-5.88771 4.5529,-10.66065 10.16909,-10.66065c5.61627,0 10.16917,4.7729 10.16917,10.66065c0,5.88771 -4.5529,10.66073 -10.16917,10.66073c-5.61627,0 -10.16909,-4.7729 -10.16909,-10.66073z" data-paper-data="{&quot;index&quot;:null}"/><path d="M126.58555,107.16816c0,-5.88771 4.5529,-10.66065 10.16909,-10.66065c5.61627,0 10.16917,4.7729 10.16917,10.66065c0,5.88771 -4.5529,10.66073 -10.16917,10.66073c-5.61627,0 -10.16909,-4.7729 -10.16909,-10.66073z" data-paper-data="{&quot;index&quot;:null}"/><path d="M81.76357,114.42694c0,-5.88771 4.5529,-10.66073 10.16909,-10.66073c5.61627,0 10.16917,4.7729 10.16917,10.66073c0,5.88771 -4.5529,10.66073 -10.16917,10.66073c-5.61627,0 -10.16909,-4.7729 -10.16909,-10.66073z" data-paper-data="{&quot;index&quot;:null}"/><path d="M60.66246,129.15481c0,-5.88771 4.5529,-10.66073 10.16909,-10.66073c5.61627,0 10.16917,4.7729 10.16917,10.66073c0,5.88771 -4.5529,10.66073 -10.16917,10.66073c-5.61627,0 -10.16909,-4.7729 -10.16909,-10.66073z" data-paper-data="{&quot;index&quot;:null}"/><path d="M149.89795,113.278c0,-5.88771 4.5529,-10.66065 10.16917,-10.66065c5.61627,0 10.16909,4.7729 10.16909,10.66065c0,5.88771 -4.5529,10.66073 -10.16909,10.66073c-5.61627,0 -10.16917,-4.7729 -10.16917,-10.66073z" data-paper-data="{&quot;index&quot;:null}"/><path d="M167.46785,131.33402c0,-5.88771 4.5529,-10.66065 10.16917,-10.66065c5.61627,0 10.16909,4.7729 10.16909,10.66065c0,5.88771 -4.5529,10.66073 -10.16909,10.66073c-5.61627,0 -10.16917,-4.7729 -10.16917,-10.66073z" data-paper-data="{&quot;index&quot;:null}"/><path d="M180.69252,152.99171c0,-5.88771 4.5529,-10.66065 10.16909,-10.66065c5.61627,0 10.16917,4.7729 10.16917,10.66065c0,5.88771 -4.5529,10.66073 -10.16917,10.66073c-5.61627,0 -10.16909,-4.77298 -10.16909,-10.66073z" data-paper-data="{&quot;index&quot;:null}"/><path d="M50.31472,150.70054c0,-5.88771 4.5529,-10.66065 10.16917,-10.66065c5.61627,0 10.16909,4.7729 10.16909,10.66065c0,5.88771 -4.5529,10.66073 -10.16909,10.66073c-5.61627,0 -10.16917,-4.7729 -10.16917,-10.66073z" data-paper-data="{&quot;index&quot;:null}"/></g></g></g></svg>