<svg version="1.1" xmlns="http://www.w3.org/2000/svg" xmlns:xlink="http://www.w3.org/1999/xlink" width="526.52553" height="404.9039" viewBox="0,0,526.52553,404.9039"><defs><linearGradient x1="237.74781" y1="-24.20416" x2="237.74781" y2="379.69979" gradientUnits="userSpaceOnUse" id="color-1"><stop offset="0" stop-color="#000000"/><stop offset="1" stop-color="#000d2f"/></linearGradient></defs><g transform="translate(25.51497,24.70411)"><g data-paper-data="{&quot;isPaintingLayer&quot;:true}" fill-rule="nonzero" stroke-linecap="butt" stroke-linejoin="miter" stroke-miterlimit="10" stroke-dasharray="" stroke-dashoffset="0" style="mix-blend-mode: normal"><path d="M-25.01497,379.69979v-403.9039h525.52553v403.9039z" fill="url(#color-1)" stroke="#ffffff" stroke-width="1"/><g fill="#bb0000" stroke="none" stroke-width="0"><path d="M125.01921,185.74565c0.69026,0 1.24982,0.5866 1.24982,1.31023c0,0.72361 -0.55956,1.31023 -1.24982,1.31023c-0.69026,0 -1.24981,-0.5866 -1.24981,-1.31023c0,-0.72361 0.55956,-1.31023 1.24981,-1.31023z" data-paper-data="{&quot;index&quot;:null}"/><path d="M127.75236,185.69914c0.69026,0 1.24982,0.5866 1.24982,1.31023c0,0.72361 -0.55956,1.31022 -1.24982,1.31022c-0.69026,0 -1.24981,-0.5866 -1.24981,-1.31022c0,-0.72361 0.55956,-1.31023 1.24981,-1.31023z" data-paper-data="{&quot;index&quot;:null}"/><path d="M122.24361,184.80701c0.69026,0 1.24982,0.5866 1.24982,1.31023c0,0.72361 -0.55956,1.31022 -1.24982,1.31022c-0.69026,0 -1.24981,-0.5866 -1.24981,-1.31022c0,-0.72361 0.55956,-1.31023 1.24981,-1.31023z" data-paper-data="{&quot;index&quot;:null}"/><path d="M119.65021,182.99691c0.69026,0 1.24982,0.5866 1.24982,1.31023c0,0.72361 -0.55956,1.31022 -1.24982,1.31022c-0.69026,0 -1.24981,-0.5866 -1.24981,-1.31022c0,-0.72361 0.55956,-1.31023 1.24981,-1.31023z" data-paper-data="{&quot;index&quot;:null}"/><path d="M130.61751,184.94823c0.69026,0 1.24981,0.5866 1.24981,1.31023c0,0.72361 -0.55956,1.31022 -1.24981,1.31022c-0.69026,0 -1.24982,-0.5866 -1.24982,-1.31022c0,-0.72361 0.55956,-1.31023 1.24982,-1.31023z" data-paper-data="{&quot;index&quot;:null}"/><path d="M132.77691,182.72909c0.69026,0 1.24981,0.5866 1.24981,1.31023c0,0.72361 -0.55956,1.31022 -1.24981,1.31022c-0.69026,0 -1.24982,-0.5866 -1.24982,-1.31022c0,-0.72361 0.55956,-1.31023 1.24982,-1.31023z" data-paper-data="{&quot;index&quot;:null}"/><path d="M134.40226,180.06729c0.69026,0 1.24982,0.5866 1.24982,1.31023c0,0.72361 -0.55956,1.31022 -1.24982,1.31022c-0.69026,0 -1.24981,-0.5866 -1.24981,-1.31022c0,-0.72361 0.55956,-1.31023 1.24981,-1.31023z" data-paper-data="{&quot;index&quot;:null}"/><path d="M135.41454,177.09723c0.69026,0 1.24982,0.5866 1.24982,1.31023c0,0.72361 -0.55957,1.31022 -1.24982,1.31022c-0.69026,0 -1.24981,-0.5866 -1.24981,-1.31022c0,-0.72361 0.55956,-1.31023 1.24981,-1.31023z" data-paper-data="{&quot;index&quot;:null}"/><path d="M118.37845,180.34888c0.69026,0 1.24981,0.5866 1.24981,1.31023c0,0.72361 -0.55956,1.31022 -1.24981,1.31022c-0.69026,0 -1.24982,-0.5866 -1.24982,-1.31022c0,-0.72361 0.55956,-1.31023 1.24982,-1.31023z" data-paper-data="{&quot;index&quot;:null}"/><path d="M117.27663,177.21777c0.69026,0 1.24981,0.5866 1.24981,1.31022c0,0.72361 -0.55956,1.31022 -1.24981,1.31022c-0.69026,0 -1.24982,-0.5866 -1.24982,-1.31022c0,-0.72361 0.55957,-1.31022 1.24982,-1.31022z" data-paper-data="{&quot;index&quot;:null}"/><path d="M123.64195,169.48547c0,-0.72361 0.55956,-1.31022 1.24981,-1.31022c0.69026,0 1.24982,0.5866 1.24982,1.31022c0,0.72361 -0.55956,1.31023 -1.24982,1.31023c-0.69026,0 -1.24981,-0.5866 -1.24981,-1.31023z" data-paper-data="{&quot;index&quot;:null}"/><path d="M126.37508,169.53198c0,-0.72361 0.55956,-1.31022 1.24981,-1.31022c0.69026,0 1.24982,0.5866 1.24982,1.31022c0,0.72361 -0.55956,1.31023 -1.24982,1.31023c-0.69026,0 -1.24981,-0.5866 -1.24981,-1.31023z" data-paper-data="{&quot;index&quot;:null}"/><path d="M120.86633,170.4241c0,-0.72361 0.55956,-1.31023 1.24981,-1.31023c0.69026,0 1.24982,0.5866 1.24982,1.31023c0,0.72361 -0.55956,1.31023 -1.24982,1.31023c-0.69026,0 -1.24981,-0.5866 -1.24981,-1.31023z" data-paper-data="{&quot;index&quot;:null}"/><path d="M118.27295,172.2342c0,-0.72361 0.55956,-1.31023 1.24981,-1.31023c0.69026,0 1.24982,0.5866 1.24982,1.31023c0,0.72361 -0.55956,1.31023 -1.24982,1.31023c-0.69026,0 -1.24981,-0.5866 -1.24981,-1.31023z" data-paper-data="{&quot;index&quot;:null}"/><path d="M129.24024,170.2829c0,-0.72361 0.55957,-1.31022 1.24982,-1.31022c0.69026,0 1.24981,0.5866 1.24981,1.31022c0,0.72361 -0.55956,1.31023 -1.24981,1.31023c-0.69026,0 -1.24982,-0.5866 -1.24982,-1.31023z" data-paper-data="{&quot;index&quot;:null}"/><path d="M131.39965,172.50203c0,-0.72361 0.55956,-1.31022 1.24982,-1.31022c0.69026,0 1.24981,0.5866 1.24981,1.31022c0,0.72361 -0.55956,1.31023 -1.24981,1.31023c-0.69026,0 -1.24982,-0.5866 -1.24982,-1.31023z" data-paper-data="{&quot;index&quot;:null}"/><path d="M133.02498,175.16382c0,-0.72361 0.55956,-1.31022 1.24981,-1.31022c0.69026,0 1.24982,0.5866 1.24982,1.31022c0,0.72361 -0.55956,1.31023 -1.24982,1.31023c-0.69026,0 -1.24981,-0.58661 -1.24981,-1.31023z" data-paper-data="{&quot;index&quot;:null}"/><path d="M117.00117,174.88223c0,-0.72361 0.55956,-1.31022 1.24982,-1.31022c0.69026,0 1.24981,0.5866 1.24981,1.31022c0,0.72361 -0.55956,1.31023 -1.24981,1.31023c-0.69026,0 -1.24982,-0.5866 -1.24982,-1.31023z" data-paper-data="{&quot;index&quot;:null}"/></g><g fill="#0cba00" stroke="none" stroke-width="0"><path d="M337.16511,107.53703c3.58987,0 6.50006,3.05084 6.50006,6.81424c0,3.76339 -2.91019,6.81424 -6.50006,6.81424c-3.58987,0 -6.50006,-3.05084 -6.50006,-6.81424c0,-3.76339 2.91019,-6.81424 6.50006,-6.81424z" data-paper-data="{&quot;index&quot;:null}"/><path d="M351.37969,107.29512c3.58987,0 6.50006,3.05084 6.50006,6.81424c0,3.76339 -2.91019,6.81424 -6.50006,6.81424c-3.58987,0 -6.50006,-3.05084 -6.50006,-6.81424c0,-3.76339 2.91019,-6.81424 6.50006,-6.81424z" data-paper-data="{&quot;index&quot;:null}"/><path d="M322.72961,102.6553c3.58987,0 6.50006,3.05084 6.50006,6.81424c0,3.76339 -2.91019,6.81424 -6.50006,6.81424c-3.58987,0 -6.50006,-3.05084 -6.50006,-6.81424c0,-3.76339 2.91019,-6.81424 6.50006,-6.81424z" data-paper-data="{&quot;index&quot;:null}"/><path d="M309.24186,93.24135c3.58987,0 6.50006,3.05084 6.50006,6.81424c0,3.76339 -2.91019,6.81424 -6.50006,6.81424c-3.58987,0 -6.50006,-3.05084 -6.50006,-6.81424c0,-3.76339 2.91019,-6.81424 6.50006,-6.81424z" data-paper-data="{&quot;index&quot;:null}"/><path d="M366.28081,103.38975c3.58987,0 6.50006,3.05084 6.50006,6.81424c0,3.76339 -2.91019,6.81424 -6.50006,6.81424c-3.58987,0 -6.50006,-3.05084 -6.50006,-6.81424c0,-3.76339 2.91019,-6.81424 6.50006,-6.81424z" data-paper-data="{&quot;index&quot;:null}"/><path d="M377.51145,91.84838c3.58987,0 6.50006,3.05084 6.50006,6.81424c0,3.76339 -2.91019,6.81424 -6.50006,6.81424c-3.58987,0 -6.50006,-3.05084 -6.50006,-6.81424c0,-3.76339 2.91019,-6.81424 6.50006,-6.81424z" data-paper-data="{&quot;index&quot;:null}"/><path d="M385.9646,78.00492c3.58987,0 6.50006,3.05084 6.50006,6.81424c0,3.76339 -2.91019,6.81424 -6.50006,6.81424c-3.58987,0 -6.50006,-3.05084 -6.50006,-6.81424c0,-3.76339 2.91019,-6.81424 6.50006,-6.81424z" data-paper-data="{&quot;index&quot;:null}"/><path d="M391.22927,62.55819c3.58987,0 6.50006,3.05084 6.50006,6.81424c0,3.76339 -2.91019,6.81424 -6.50006,6.81424c-3.58987,0 -6.50006,-3.05084 -6.50006,-6.81424c0,-3.76339 2.91019,-6.81424 6.50006,-6.81424z" data-paper-data="{&quot;index&quot;:null}"/><path d="M302.62769,79.46941c3.58987,0 6.50006,3.05084 6.50006,6.81424c0,3.76339 -2.91019,6.81424 -6.50006,6.81424c-3.58987,0 -6.50006,-3.05084 -6.50006,-6.81424c0,-3.76339 2.91019,-6.81424 6.50006,-6.81424z" data-paper-data="{&quot;index&quot;:null}"/><path d="M296.89732,63.18511c3.58987,0 6.50006,3.05084 6.50006,6.81424c0,3.76339 -2.91019,6.81424 -6.50006,6.81424c-3.58987,0 -6.50006,-3.05084 -6.50006,-6.81424c0,-3.76339 2.91019,-6.81424 6.50006,-6.81424z" data-paper-data="{&quot;index&quot;:null}"/><path d="M330.00217,22.97078c0,-3.76339 2.91019,-6.81424 6.50006,-6.81424c3.58987,0 6.50006,3.05084 6.50006,6.81424c0,3.76339 -2.91019,6.81424 -6.50006,6.81424c-3.58987,0 -6.50006,-3.05084 -6.50006,-6.81424z" data-paper-data="{&quot;index&quot;:null}"/><path d="M344.21677,23.21265c0,-3.76339 2.91019,-6.81424 6.50006,-6.81424c3.58987,0 6.50006,3.05084 6.50006,6.81424c0,3.76339 -2.91019,6.81424 -6.50006,6.81424c-3.58987,0 -6.50006,-3.05084 -6.50006,-6.81424z" data-paper-data="{&quot;index&quot;:null}"/><path d="M315.5667,27.85246c0,-3.76339 2.91019,-6.81424 6.50006,-6.81424c3.58987,0 6.50006,3.05084 6.50006,6.81424c0,3.76339 -2.91019,6.81424 -6.50006,6.81424c-3.58987,0 -6.50006,-3.05084 -6.50006,-6.81424z" data-paper-data="{&quot;index&quot;:null}"/><path d="M302.07898,37.26648c0,-3.76339 2.91019,-6.81424 6.50006,-6.81424c3.58987,0 6.50006,3.05084 6.50006,6.81424c0,3.76345 -2.91019,6.81424 -6.50006,6.81424c-3.58987,0 -6.50006,-3.05084 -6.50006,-6.81424z" data-paper-data="{&quot;index&quot;:null}"/><path d="M359.1179,27.11802c0,-3.76339 2.91019,-6.81424 6.50006,-6.81424c3.58987,0 6.50006,3.05084 6.50006,6.81424c0,3.76339 -2.91019,6.81424 -6.50006,6.81424c-3.58987,0 -6.50006,-3.05084 -6.50006,-6.81424z" data-paper-data="{&quot;index&quot;:null}"/><path d="M370.34853,38.65944c0,-3.76345 2.91019,-6.81424 6.50006,-6.81424c3.58987,0 6.50006,3.05084 6.50006,6.81424c0,3.76345 -2.91019,6.81424 -6.50006,6.81424c-3.58987,0 -6.50006,-3.05084 -6.50006,-6.81424z" data-paper-data="{&quot;index&quot;:null}"/><path d="M378.80168,52.50283c0,-3.76345 2.91019,-6.81424 6.50006,-6.81424c3.58987,0 6.50006,3.05084 6.50006,6.81424c0,3.76345 -2.91019,6.81424 -6.50006,6.81424c-3.58987,0 -6.50006,-3.05084 -6.50006,-6.81424z" data-paper-data="{&quot;index&quot;:null}"/><path d="M295.46473,51.03836c0,-3.76345 2.91019,-6.81424 6.50006,-6.81424c3.58987,0 6.50006,3.05084 6.50006,6.81424c0,3.76345 -2.91019,6.81424 -6.50006,6.81424c-3.58987,0 -6.50006,-3.05084 -6.50006,-6.81424z" data-paper-data="{&quot;index&quot;:null}"/></g></g></g></svg>