<svg version="1.1" xmlns="http://www.w3.org/2000/svg" xmlns:xlink="http://www.w3.org/1999/xlink" width="526.52553" height="404.9039" viewBox="0,0,526.52553,404.9039"><defs><linearGradient x1="237.74781" y1="-24.20416" x2="237.74781" y2="379.69979" gradientUnits="userSpaceOnUse" id="color-1"><stop offset="0" stop-color="#000000"/><stop offset="1" stop-color="#000d2f"/></linearGradient></defs><g transform="translate(25.51497,24.70411)"><g data-paper-data="{&quot;isPaintingLayer&quot;:true}" fill-rule="nonzero" stroke-linecap="butt" stroke-linejoin="miter" stroke-miterlimit="10" stroke-dasharray="" stroke-dashoffset="0" style="mix-blend-mode: normal"><path d="M-25.01497,379.69979v-403.9039h525.52553v403.9039z" fill="url(#color-1)" stroke="#ffffff" stroke-width="1"/><g fill="#0cba00" stroke="none" stroke-width="0"><path d="M334.07709,124.94019c5.1969,0 9.40986,4.41657 9.40986,9.86469c0,5.4481 -4.21296,9.86469 -9.40986,9.86469c-5.1969,0 -9.40986,-4.41657 -9.40986,-9.86469c0,-5.4481 4.21296,-9.86469 9.40986,-9.86469z" data-paper-data="{&quot;index&quot;:null}"/><path d="M354.65494,124.58998c5.1969,0 9.40986,4.41657 9.40986,9.86469c0,5.4481 -4.21296,9.86469 -9.40986,9.86469c-5.1969,0 -9.40986,-4.41657 -9.40986,-9.86469c0,-5.4481 4.21296,-9.86469 9.40986,-9.86469z" data-paper-data="{&quot;index&quot;:null}"/><path d="M313.17943,117.87312c5.1969,0 9.40986,4.41657 9.40986,9.86469c0,5.4481 -4.21296,9.86469 -9.40986,9.86469c-5.1969,0 -9.40986,-4.41657 -9.40986,-9.86469c0,-5.4481 4.21296,-9.86469 9.40986,-9.86469z" data-paper-data="{&quot;index&quot;:null}"/><path d="M293.65378,104.24494c5.1969,0 9.40986,4.41657 9.40986,9.86469c0,5.4481 -4.21296,9.86469 -9.40986,9.86469c-5.1969,0 -9.40986,-4.41657 -9.40986,-9.86469c0,-5.4481 4.21296,-9.86469 9.40986,-9.86469z" data-paper-data="{&quot;index&quot;:null}"/><path d="M376.22667,118.93635c5.1969,0 9.40986,4.41657 9.40986,9.86469c0,5.4481 -4.21296,9.86469 -9.40986,9.86469c-5.1969,0 -9.40986,-4.41657 -9.40986,-9.86469c0,-5.4481 4.21296,-9.86469 9.40986,-9.86469z" data-paper-data="{&quot;index&quot;:null}"/><path d="M392.48479,102.2284c5.1969,0 9.40986,4.41657 9.40986,9.86469c0,5.4481 -4.21296,9.86469 -9.40986,9.86469c-5.1969,0 -9.40986,-4.41657 -9.40986,-9.86469c0,-5.4481 4.21296,-9.86469 9.40986,-9.86469z" data-paper-data="{&quot;index&quot;:null}"/><path d="M404.72206,82.18779c5.1969,0 9.40986,4.41657 9.40986,9.86469c0,5.4481 -4.21296,9.86469 -9.40986,9.86469c-5.1969,0 -9.40986,-4.41657 -9.40986,-9.86469c0,-5.4481 4.21296,-9.86469 9.40986,-9.86469z" data-paper-data="{&quot;index&quot;:null}"/><path d="M412.3435,59.82622c5.1969,0 9.40986,4.41657 9.40986,9.86469c0,5.4481 -4.21296,9.86469 -9.40986,9.86469c-5.1969,0 -9.40986,-4.41657 -9.40986,-9.86469c0,-5.4481 4.21296,-9.86469 9.40986,-9.86469z" data-paper-data="{&quot;index&quot;:null}"/><path d="M284.07872,84.30788c5.1969,0 9.40986,4.41657 9.40986,9.86469c0,5.4481 -4.21296,9.86469 -9.40986,9.86469c-5.1969,0 -9.40986,-4.41657 -9.40986,-9.86469c0,-5.4481 4.21296,-9.86469 9.40986,-9.86469z" data-paper-data="{&quot;index&quot;:null}"/><path d="M275.78311,60.73379c5.1969,0 9.40986,4.41657 9.40986,9.86469c0,5.4481 -4.21296,9.86469 -9.40986,9.86469c-5.1969,0 -9.40986,-4.41657 -9.40986,-9.86469c0,-5.4481 4.21296,-9.86469 9.40986,-9.86469z" data-paper-data="{&quot;index&quot;:null}"/><path d="M323.7076,2.5172c0,-5.4481 4.21296,-9.86469 9.40986,-9.86469c5.1969,0 9.40986,4.41657 9.40986,9.86469c0,5.4481 -4.21296,9.86469 -9.40986,9.86469c-5.1969,0 -9.40986,-4.41657 -9.40986,-9.86469z" data-paper-data="{&quot;index&quot;:null}"/><path d="M344.28549,2.86733c0,-5.4481 4.21296,-9.86469 9.40986,-9.86469c5.1969,0 9.40986,4.41657 9.40986,9.86469c0,5.4481 -4.21296,9.86469 -9.40986,9.86469c-5.1969,0 -9.40986,-4.41657 -9.40986,-9.86469z" data-paper-data="{&quot;index&quot;:null}"/><path d="M302.80998,9.5842c0,-5.4481 4.21296,-9.86469 9.40986,-9.86469c5.1969,0 9.40986,4.41657 9.40986,9.86469c0,5.4481 -4.21296,9.86469 -9.40986,9.86469c-5.1969,0 -9.40986,-4.41657 -9.40986,-9.86469z" data-paper-data="{&quot;index&quot;:null}"/><path d="M283.28438,23.21248c0,-5.4481 4.21296,-9.86469 9.40986,-9.86469c5.1969,0 9.40986,4.41657 9.40986,9.86469c0,5.44819 -4.21296,9.86469 -9.40986,9.86469c-5.1969,0 -9.40986,-4.41657 -9.40986,-9.86469z" data-paper-data="{&quot;index&quot;:null}"/><path d="M365.85722,8.52098c0,-5.4481 4.21296,-9.86469 9.40986,-9.86469c5.1969,0 9.40986,4.41657 9.40986,9.86469c0,5.4481 -4.21296,9.86469 -9.40986,9.86469c-5.1969,0 -9.40986,-4.41657 -9.40986,-9.86469z" data-paper-data="{&quot;index&quot;:null}"/><path d="M382.11533,25.229c0,-5.44819 4.21296,-9.86469 9.40986,-9.86469c5.1969,0 9.40986,4.41657 9.40986,9.86469c0,5.44819 -4.21296,9.86469 -9.40986,9.86469c-5.1969,0 -9.40986,-4.41657 -9.40986,-9.86469z" data-paper-data="{&quot;index&quot;:null}"/><path d="M394.35261,45.2695c0,-5.44819 4.21296,-9.86469 9.40986,-9.86469c5.1969,0 9.40986,4.41657 9.40986,9.86469c0,5.44819 -4.21296,9.86469 -9.40986,9.86469c-5.1969,0 -9.40986,-4.41657 -9.40986,-9.86469z" data-paper-data="{&quot;index&quot;:null}"/><path d="M273.7092,43.14945c0,-5.44819 4.21296,-9.86469 9.40986,-9.86469c5.1969,0 9.40986,4.41657 9.40986,9.86469c0,5.44819 -4.21296,9.86469 -9.40986,9.86469c-5.1969,0 -9.40986,-4.41657 -9.40986,-9.86469z" data-paper-data="{&quot;index&quot;:null}"/></g></g></g></svg>