<svg version="1.1" xmlns="http://www.w3.org/2000/svg" xmlns:xlink="http://www.w3.org/1999/xlink" width="526.52553" height="404.9039" viewBox="0,0,526.52553,404.9039"><defs><linearGradient x1="237.74779" y1="-24.20417" x2="237.74779" y2="379.69975" gradientUnits="userSpaceOnUse" id="color-1"><stop offset="0" stop-color="#000000"/><stop offset="1" stop-color="#000d2f"/></linearGradient></defs><g transform="translate(25.51499,24.70416)"><g data-paper-data="{&quot;isPaintingLayer&quot;:true}" fill-rule="nonzero" stroke-linecap="butt" stroke-linejoin="miter" stroke-miterlimit="10" stroke-dasharray="" stroke-dashoffset="0" style="mix-blend-mode: normal"><path d="M-25.01498,379.69975v-403.9039h525.52553v403.9039z" fill="url(#color-1)" stroke="#ffffff" stroke-width="1"/><g fill="#bb0000" stroke="none" stroke-width="0"><path d="M124.93691,186.20923c0.73307,0 1.32734,0.62299 1.32734,1.3915c0,0.7685 -0.59427,1.3915 -1.32734,1.3915c-0.73307,0 -1.32733,-0.62299 -1.32733,-1.3915c0,-0.7685 0.59427,-1.3915 1.32733,-1.3915z" data-paper-data="{&quot;index&quot;:null}"/><path d="M127.83957,186.15983c0.73307,0 1.32734,0.62299 1.32734,1.3915c0,0.7685 -0.59427,1.39149 -1.32734,1.39149c-0.73307,0 -1.32733,-0.62299 -1.32733,-1.39149c0,-0.7685 0.59427,-1.3915 1.32733,-1.3915z" data-paper-data="{&quot;index&quot;:null}"/><path d="M121.98913,185.21237c0.73307,0 1.32734,0.62299 1.32734,1.3915c0,0.7685 -0.59427,1.39149 -1.32734,1.39149c-0.73307,0 -1.32733,-0.62299 -1.32733,-1.39149c0,-0.7685 0.59427,-1.3915 1.32733,-1.3915z" data-paper-data="{&quot;index&quot;:null}"/><path d="M119.23489,183.29c0.73307,0 1.32734,0.62299 1.32734,1.3915c0,0.7685 -0.59427,1.39149 -1.32734,1.39149c-0.73307,0 -1.32733,-0.62299 -1.32733,-1.39149c0,-0.7685 0.59427,-1.3915 1.32733,-1.3915z" data-paper-data="{&quot;index&quot;:null}"/><path d="M130.88244,185.36235c0.73307,0 1.32733,0.62299 1.32733,1.3915c0,0.7685 -0.59427,1.39149 -1.32733,1.39149c-0.73307,0 -1.32734,-0.62299 -1.32734,-1.39149c0,-0.7685 0.59427,-1.3915 1.32734,-1.3915z" data-paper-data="{&quot;index&quot;:null}"/><path d="M133.17577,183.00556c0.73307,0 1.32733,0.62299 1.32733,1.3915c0,0.7685 -0.59427,1.39149 -1.32733,1.39149c-0.73307,0 -1.32734,-0.62299 -1.32734,-1.39149c0,-0.7685 0.59427,-1.3915 1.32734,-1.3915z" data-paper-data="{&quot;index&quot;:null}"/><path d="M134.90193,180.17867c0.73307,0 1.32734,0.62299 1.32734,1.3915c0,0.7685 -0.59427,1.39149 -1.32734,1.39149c-0.73307,0 -1.32733,-0.62299 -1.32733,-1.39149c0,-0.7685 0.59427,-1.3915 1.32733,-1.3915z" data-paper-data="{&quot;index&quot;:null}"/><path d="M135.977,177.0244c0.73307,0 1.32734,0.62299 1.32734,1.3915c0,0.7685 -0.59427,1.39149 -1.32734,1.39149c-0.73307,0 -1.32733,-0.62299 -1.32733,-1.39149c0,-0.7685 0.59427,-1.3915 1.32733,-1.3915z" data-paper-data="{&quot;index&quot;:null}"/><path d="M117.88425,180.47773c0.73307,0 1.32733,0.62299 1.32733,1.3915c0,0.7685 -0.59427,1.39149 -1.32733,1.39149c-0.73307,0 -1.32734,-0.62299 -1.32734,-1.39149c0,-0.7685 0.59427,-1.3915 1.32734,-1.3915z" data-paper-data="{&quot;index&quot;:null}"/><path d="M116.71409,177.15242c0.73307,0 1.32733,0.62299 1.32733,1.39149c0,0.7685 -0.59427,1.39149 -1.32733,1.39149c-0.73307,0 -1.32734,-0.62299 -1.32734,-1.39149c0,-0.7685 0.59427,-1.39149 1.32734,-1.39149z" data-paper-data="{&quot;index&quot;:null}"/><path d="M123.47421,168.94051c0,-0.7685 0.59427,-1.39149 1.32733,-1.39149c0.73307,0 1.32734,0.62299 1.32734,1.39149c0,0.7685 -0.59427,1.3915 -1.32734,1.3915c-0.73307,0 -1.32733,-0.62299 -1.32733,-1.3915z" data-paper-data="{&quot;index&quot;:null}"/><path d="M126.37687,168.98991c0,-0.7685 0.59427,-1.39149 1.32733,-1.39149c0.73307,0 1.32734,0.62299 1.32734,1.39149c0,0.7685 -0.59427,1.3915 -1.32734,1.3915c-0.73307,0 -1.32733,-0.62299 -1.32733,-1.3915z" data-paper-data="{&quot;index&quot;:null}"/><path d="M120.52644,169.93737c0,-0.7685 0.59427,-1.3915 1.32733,-1.3915c0.73307,0 1.32734,0.62299 1.32734,1.3915c0,0.7685 -0.59427,1.3915 -1.32734,1.3915c-0.73307,0 -1.32733,-0.62299 -1.32733,-1.3915z" data-paper-data="{&quot;index&quot;:null}"/><path d="M117.7722,171.85974c0,-0.7685 0.59427,-1.3915 1.32733,-1.3915c0.73307,0 1.32734,0.62299 1.32734,1.3915c0,0.7685 -0.59427,1.3915 -1.32734,1.3915c-0.73307,0 -1.32733,-0.62299 -1.32733,-1.3915z" data-paper-data="{&quot;index&quot;:null}"/><path d="M129.41974,169.7874c0,-0.7685 0.59427,-1.39149 1.32734,-1.39149c0.73307,0 1.32733,0.62299 1.32733,1.39149c0,0.7685 -0.59427,1.3915 -1.32733,1.3915c-0.73307,0 -1.32734,-0.62299 -1.32734,-1.3915z" data-paper-data="{&quot;index&quot;:null}"/><path d="M131.71307,172.14418c0,-0.7685 0.59427,-1.39149 1.32734,-1.39149c0.73307,0 1.32733,0.62299 1.32733,1.39149c0,0.7685 -0.59427,1.3915 -1.32733,1.3915c-0.73307,0 -1.32734,-0.62299 -1.32734,-1.3915z" data-paper-data="{&quot;index&quot;:null}"/><path d="M133.43923,174.97107c0,-0.7685 0.59427,-1.39149 1.32733,-1.39149c0.73307,0 1.32734,0.62299 1.32734,1.39149c0,0.7685 -0.59427,1.3915 -1.32734,1.3915c-0.73307,0 -1.32733,-0.623 -1.32733,-1.3915z" data-paper-data="{&quot;index&quot;:null}"/><path d="M116.42155,174.67201c0,-0.7685 0.59427,-1.39149 1.32734,-1.39149c0.73307,0 1.32733,0.62299 1.32733,1.39149c0,0.7685 -0.59427,1.3915 -1.32733,1.3915c-0.73307,0 -1.32734,-0.62299 -1.32734,-1.3915z" data-paper-data="{&quot;index&quot;:null}"/></g></g></g></svg>