<svg version="1.1" xmlns="http://www.w3.org/2000/svg" xmlns:xlink="http://www.w3.org/1999/xlink" width="526.52553" height="404.9039" viewBox="0,0,526.52553,404.9039"><defs><linearGradient x1="237.74781" y1="-24.20416" x2="237.74781" y2="379.69979" gradientUnits="userSpaceOnUse" id="color-1"><stop offset="0" stop-color="#000000"/><stop offset="1" stop-color="#000d2f"/></linearGradient></defs><g transform="translate(25.51497,24.70411)"><g data-paper-data="{&quot;isPaintingLayer&quot;:true}" fill-rule="nonzero" stroke-linecap="butt" stroke-linejoin="miter" stroke-miterlimit="10" stroke-dasharray="" stroke-dashoffset="0" style="mix-blend-mode: normal"><path d="M-25.01497,379.69979v-403.9039h525.52553v403.9039z" fill="url(#color-1)" stroke="#ffffff" stroke-width="1"/><g fill="#bb0000" stroke="none" stroke-width="0"><path d="M123.86119,192.27181c1.2929,0 2.341,1.09875 2.341,2.45416c0,1.35538 -1.0481,2.45416 -2.341,2.45416c-1.2929,0 -2.34098,-1.09875 -2.34098,-2.45416c0,-1.35538 1.0481,-2.45416 2.34098,-2.45416z" data-paper-data="{&quot;index&quot;:null}"/><path d="M128.98056,192.18469c1.2929,0 2.341,1.09875 2.341,2.45416c0,1.35538 -1.0481,2.45414 -2.341,2.45414c-1.2929,0 -2.34098,-1.09875 -2.34098,-2.45414c0,-1.35538 1.0481,-2.45416 2.34098,-2.45416z" data-paper-data="{&quot;index&quot;:null}"/><path d="M118.66228,190.51367c1.2929,0 2.341,1.09875 2.341,2.45416c0,1.35538 -1.0481,2.45414 -2.341,2.45414c-1.2929,0 -2.34098,-1.09875 -2.34098,-2.45414c0,-1.35538 1.0481,-2.45416 2.34098,-2.45416z" data-paper-data="{&quot;index&quot;:null}"/><path d="M113.80467,187.12323c1.2929,0 2.341,1.09875 2.341,2.45416c0,1.35538 -1.0481,2.45414 -2.341,2.45414c-1.2929,0 -2.34098,-1.09875 -2.34098,-2.45414c0,-1.35538 1.0481,-2.45416 2.34098,-2.45416z" data-paper-data="{&quot;index&quot;:null}"/><path d="M134.3472,190.77819c1.2929,0 2.34098,1.09875 2.34098,2.45416c0,1.35538 -1.0481,2.45414 -2.34098,2.45414c-1.2929,0 -2.341,-1.09875 -2.341,-2.45414c0,-1.35538 1.0481,-2.45416 2.341,-2.45416z" data-paper-data="{&quot;index&quot;:null}"/><path d="M138.3919,186.62158c1.2929,0 2.34098,1.09875 2.34098,2.45416c0,1.35538 -1.0481,2.45414 -2.34098,2.45414c-1.2929,0 -2.341,-1.09875 -2.341,-2.45414c0,-1.35538 1.0481,-2.45416 2.341,-2.45416z" data-paper-data="{&quot;index&quot;:null}"/><path d="M141.4363,181.63584c1.2929,0 2.341,1.09875 2.341,2.45416c0,1.35538 -1.0481,2.45414 -2.341,2.45414c-1.2929,0 -2.34098,-1.09875 -2.34098,-2.45414c0,-1.35538 1.0481,-2.45416 2.34098,-2.45416z" data-paper-data="{&quot;index&quot;:null}"/><path d="M143.33236,176.07272c1.2929,0 2.341,1.09875 2.341,2.45416c0,1.35538 -1.04811,2.45414 -2.341,2.45414c-1.2929,0 -2.34098,-1.09875 -2.34098,-2.45414c0,-1.35538 1.0481,-2.45416 2.34098,-2.45416z" data-paper-data="{&quot;index&quot;:null}"/><path d="M111.42258,182.16329c1.2929,0 2.34098,1.09875 2.34098,2.45416c0,1.35538 -1.0481,2.45414 -2.34098,2.45414c-1.2929,0 -2.341,-1.09875 -2.341,-2.45414c0,-1.35538 1.0481,-2.45416 2.341,-2.45416z" data-paper-data="{&quot;index&quot;:null}"/><path d="M109.35879,176.29851c1.2929,0 2.34098,1.09875 2.34098,2.45414c0,1.35538 -1.0481,2.45414 -2.34098,2.45414c-1.2929,0 -2.341,-1.09875 -2.341,-2.45414c0,-1.35538 1.04811,-2.45414 2.341,-2.45414z" data-paper-data="{&quot;index&quot;:null}"/><path d="M121.28147,161.81535c0,-1.35538 1.0481,-2.45414 2.34098,-2.45414c1.2929,0 2.341,1.09875 2.341,2.45414c0,1.35538 -1.0481,2.45416 -2.341,2.45416c-1.2929,0 -2.34098,-1.09875 -2.34098,-2.45416z" data-paper-data="{&quot;index&quot;:null}"/><path d="M126.40082,161.90247c0,-1.35538 1.0481,-2.45414 2.34098,-2.45414c1.2929,0 2.341,1.09875 2.341,2.45414c0,1.35538 -1.0481,2.45416 -2.341,2.45416c-1.2929,0 -2.34098,-1.09875 -2.34098,-2.45416z" data-paper-data="{&quot;index&quot;:null}"/><path d="M116.08255,163.57348c0,-1.35538 1.0481,-2.45416 2.34098,-2.45416c1.2929,0 2.341,1.09875 2.341,2.45416c0,1.35538 -1.0481,2.45416 -2.341,2.45416c-1.2929,0 -2.34098,-1.09875 -2.34098,-2.45416z" data-paper-data="{&quot;index&quot;:null}"/><path d="M111.22496,166.96393c0,-1.35538 1.0481,-2.45416 2.34098,-2.45416c1.2929,0 2.341,1.09875 2.341,2.45416c0,1.35538 -1.0481,2.45416 -2.341,2.45416c-1.2929,0 -2.34098,-1.09875 -2.34098,-2.45416z" data-paper-data="{&quot;index&quot;:null}"/><path d="M131.76747,163.30899c0,-1.35538 1.04811,-2.45414 2.341,-2.45414c1.2929,0 2.34098,1.09875 2.34098,2.45414c0,1.35538 -1.0481,2.45416 -2.34098,2.45416c-1.2929,0 -2.341,-1.09875 -2.341,-2.45416z" data-paper-data="{&quot;index&quot;:null}"/><path d="M135.81217,167.46559c0,-1.35538 1.0481,-2.45414 2.341,-2.45414c1.2929,0 2.34098,1.09875 2.34098,2.45414c0,1.35538 -1.0481,2.45416 -2.34098,2.45416c-1.2929,0 -2.341,-1.09875 -2.341,-2.45416z" data-paper-data="{&quot;index&quot;:null}"/><path d="M138.85656,172.45131c0,-1.35538 1.0481,-2.45414 2.34098,-2.45414c1.2929,0 2.341,1.09875 2.341,2.45414c0,1.35538 -1.0481,2.45416 -2.341,2.45416c-1.2929,0 -2.34098,-1.09877 -2.34098,-2.45416z" data-paper-data="{&quot;index&quot;:null}"/><path d="M108.84284,171.92387c0,-1.35538 1.0481,-2.45414 2.341,-2.45414c1.2929,0 2.34098,1.09875 2.34098,2.45414c0,1.35538 -1.0481,2.45416 -2.34098,2.45416c-1.2929,0 -2.341,-1.09875 -2.341,-2.45416z" data-paper-data="{&quot;index&quot;:null}"/></g><g fill="#0cba00" stroke="none" stroke-width="0"><path d="M341.79714,81.43229c1.17932,0 2.13535,1.00224 2.13535,2.23856c0,1.23632 -0.95604,2.23856 -2.13535,2.23856c-1.17932,0 -2.13535,-1.00224 -2.13535,-2.23856c0,-1.23632 0.95604,-2.23856 2.13535,-2.23856z" data-paper-data="{&quot;index&quot;:null}"/><path d="M346.46681,81.35282c1.17932,0 2.13535,1.00224 2.13535,2.23856c0,1.23632 -0.95604,2.23856 -2.13535,2.23856c-1.17932,0 -2.13535,-1.00224 -2.13535,-2.23856c0,-1.23632 0.95604,-2.23856 2.13535,-2.23856z" data-paper-data="{&quot;index&quot;:null}"/><path d="M337.05489,79.82858c1.17932,0 2.13535,1.00224 2.13535,2.23856c0,1.23632 -0.95604,2.23856 -2.13535,2.23856c-1.17932,0 -2.13535,-1.00224 -2.13535,-2.23856c0,-1.23632 0.95604,-2.23856 2.13535,-2.23856z" data-paper-data="{&quot;index&quot;:null}"/><path d="M332.62398,76.73597c1.17932,0 2.13535,1.00224 2.13535,2.23856c0,1.23632 -0.95604,2.23856 -2.13535,2.23856c-1.17932,0 -2.13535,-1.00224 -2.13535,-2.23856c0,-1.23632 0.95604,-2.23856 2.13535,-2.23856z" data-paper-data="{&quot;index&quot;:null}"/><path d="M351.36202,80.06985c1.17932,0 2.13535,1.00224 2.13535,2.23856c0,1.23632 -0.95604,2.23856 -2.13535,2.23856c-1.17932,0 -2.13535,-1.00224 -2.13535,-2.23856c0,-1.23632 0.95604,-2.23856 2.13535,-2.23856z" data-paper-data="{&quot;index&quot;:null}"/><path d="M355.05143,76.27837c1.17932,0 2.13535,1.00224 2.13535,2.23856c0,1.23632 -0.95604,2.23856 -2.13535,2.23856c-1.17932,0 -2.13535,-1.00224 -2.13535,-2.23856c0,-1.23632 0.95604,-2.23856 2.13535,-2.23856z" data-paper-data="{&quot;index&quot;:null}"/><path d="M357.8284,71.73061c1.17932,0 2.13535,1.00224 2.13535,2.23856c0,1.23632 -0.95604,2.23856 -2.13535,2.23856c-1.17932,0 -2.13535,-1.00224 -2.13535,-2.23856c0,-1.23632 0.95604,-2.23856 2.13535,-2.23856z" data-paper-data="{&quot;index&quot;:null}"/><path d="M359.55791,66.65616c1.17932,0 2.13535,1.00224 2.13535,2.23856c0,1.23632 -0.95604,2.23856 -2.13535,2.23856c-1.17932,0 -2.13535,-1.00224 -2.13535,-2.23856c0,-1.23632 0.95604,-2.23856 2.13535,-2.23856z" data-paper-data="{&quot;index&quot;:null}"/><path d="M330.45115,72.21171c1.17932,0 2.13535,1.00224 2.13535,2.23856c0,1.23632 -0.95604,2.23856 -2.13535,2.23856c-1.17932,0 -2.13535,-1.00224 -2.13535,-2.23856c0,-1.23632 0.95604,-2.23856 2.13535,-2.23856z" data-paper-data="{&quot;index&quot;:null}"/><path d="M328.56865,66.86211c1.17932,0 2.13535,1.00224 2.13535,2.23856c0,1.23632 -0.95604,2.23856 -2.13535,2.23856c-1.17932,0 -2.13535,-1.00224 -2.13535,-2.23856c0,-1.23632 0.95604,-2.23856 2.13535,-2.23856z" data-paper-data="{&quot;index&quot;:null}"/><path d="M339.44402,53.65118c0,-1.23632 0.95604,-2.23856 2.13535,-2.23856c1.17932,0 2.13535,1.00224 2.13535,2.23856c0,1.23632 -0.95604,2.23856 -2.13535,2.23856c-1.17932,0 -2.13535,-1.00224 -2.13535,-2.23856z" data-paper-data="{&quot;index&quot;:null}"/><path d="M344.11369,53.73064c0,-1.23632 0.95604,-2.23856 2.13535,-2.23856c1.17932,0 2.13535,1.00224 2.13535,2.23856c0,1.23632 -0.95604,2.23856 -2.13535,2.23856c-1.17932,0 -2.13535,-1.00224 -2.13535,-2.23856z" data-paper-data="{&quot;index&quot;:null}"/><path d="M334.70178,55.25488c0,-1.23632 0.95604,-2.23856 2.13535,-2.23856c1.17932,0 2.13535,1.00224 2.13535,2.23856c0,1.23632 -0.95604,2.23856 -2.13535,2.23856c-1.17932,0 -2.13535,-1.00224 -2.13535,-2.23856z" data-paper-data="{&quot;index&quot;:null}"/><path d="M330.27089,58.3475c0,-1.23632 0.95604,-2.23856 2.13535,-2.23856c1.17932,0 2.13535,1.00224 2.13535,2.23856c0,1.23634 -0.95604,2.23856 -2.13535,2.23856c-1.17932,0 -2.13535,-1.00224 -2.13535,-2.23856z" data-paper-data="{&quot;index&quot;:null}"/><path d="M349.00891,55.0136c0,-1.23632 0.95604,-2.23856 2.13535,-2.23856c1.17932,0 2.13535,1.00224 2.13535,2.23856c0,1.23632 -0.95604,2.23856 -2.13535,2.23856c-1.17932,0 -2.13535,-1.00224 -2.13535,-2.23856z" data-paper-data="{&quot;index&quot;:null}"/><path d="M352.69832,58.80511c0,-1.23634 0.95604,-2.23856 2.13535,-2.23856c1.17932,0 2.13535,1.00224 2.13535,2.23856c0,1.23634 -0.95604,2.23856 -2.13535,2.23856c-1.17932,0 -2.13535,-1.00224 -2.13535,-2.23856z" data-paper-data="{&quot;index&quot;:null}"/><path d="M355.47528,63.35285c0,-1.23634 0.95604,-2.23856 2.13535,-2.23856c1.17932,0 2.13535,1.00224 2.13535,2.23856c0,1.23634 -0.95604,2.23856 -2.13535,2.23856c-1.17932,0 -2.13535,-1.00224 -2.13535,-2.23856z" data-paper-data="{&quot;index&quot;:null}"/><path d="M328.09802,62.87174c0,-1.23634 0.95604,-2.23856 2.13535,-2.23856c1.17932,0 2.13535,1.00224 2.13535,2.23856c0,1.23634 -0.95604,2.23856 -2.13535,2.23856c-1.17932,0 -2.13535,-1.00224 -2.13535,-2.23856z" data-paper-data="{&quot;index&quot;:null}"/></g></g></g></svg>