<svg version="1.1" xmlns="http://www.w3.org/2000/svg" xmlns:xlink="http://www.w3.org/1999/xlink" width="526.52553" height="404.9039" viewBox="0,0,526.52553,404.9039"><defs><linearGradient x1="237.7478" y1="-24.20417" x2="237.7478" y2="379.69976" gradientUnits="userSpaceOnUse" id="color-1"><stop offset="0" stop-color="#000000"/><stop offset="1" stop-color="#000d2f"/></linearGradient></defs><g transform="translate(25.51498,24.70415)"><g data-paper-data="{&quot;isPaintingLayer&quot;:true}" fill-rule="nonzero" stroke-linecap="butt" stroke-linejoin="miter" stroke-miterlimit="10" stroke-dasharray="" stroke-dashoffset="0" style="mix-blend-mode: normal"><path d="M-25.01498,379.69976v-403.9039h525.52553v403.9039z" fill="url(#color-1)" stroke="#ffffff" stroke-width="1"/><g fill="#bb0000" stroke="none" stroke-width="0"><path d="M123.65152,193.45328c1.402,0 2.53855,1.19147 2.53855,2.66126c0,1.46976 -1.13655,2.66126 -2.53855,2.66126c-1.402,0 -2.53853,-1.19147 -2.53853,-2.66126c0,-1.46976 1.13655,-2.66126 2.53853,-2.66126z" data-paper-data="{&quot;index&quot;:null}"/><path d="M129.20289,193.35881c1.402,0 2.53855,1.19147 2.53855,2.66126c0,1.46976 -1.13655,2.66124 -2.53855,2.66124c-1.402,0 -2.53853,-1.19147 -2.53853,-2.66124c0,-1.46976 1.13655,-2.66126 2.53853,-2.66126z" data-paper-data="{&quot;index&quot;:null}"/><path d="M118.01387,191.54678c1.402,0 2.53855,1.19147 2.53855,2.66126c0,1.46976 -1.13655,2.66124 -2.53855,2.66124c-1.402,0 -2.53853,-1.19147 -2.53853,-2.66124c0,-1.46976 1.13655,-2.66126 2.53853,-2.66126z" data-paper-data="{&quot;index&quot;:null}"/><path d="M112.74636,187.87023c1.402,0 2.53855,1.19147 2.53855,2.66126c0,1.46976 -1.13655,2.66124 -2.53855,2.66124c-1.402,0 -2.53853,-1.19147 -2.53853,-2.66124c0,-1.46976 1.13655,-2.66126 2.53853,-2.66126z" data-paper-data="{&quot;index&quot;:null}"/><path d="M135.0224,191.83362c1.402,0 2.53853,1.19147 2.53853,2.66126c0,1.46976 -1.13655,2.66124 -2.53853,2.66124c-1.402,0 -2.53855,-1.19147 -2.53855,-2.66124c0,-1.46976 1.13655,-2.66126 2.53855,-2.66126z" data-paper-data="{&quot;index&quot;:null}"/><path d="M139.40842,187.32624c1.402,0 2.53853,1.19147 2.53853,2.66126c0,1.46976 -1.13655,2.66124 -2.53853,2.66124c-1.402,0 -2.53855,-1.19147 -2.53855,-2.66124c0,-1.46976 1.13655,-2.66126 2.53855,-2.66126z" data-paper-data="{&quot;index&quot;:null}"/><path d="M142.70971,181.91978c1.402,0 2.53855,1.19147 2.53855,2.66126c0,1.46976 -1.13655,2.66124 -2.53855,2.66124c-1.402,0 -2.53853,-1.19147 -2.53853,-2.66124c0,-1.46976 1.13655,-2.66126 2.53853,-2.66126z" data-paper-data="{&quot;index&quot;:null}"/><path d="M144.7658,175.88721c1.402,0 2.53855,1.19147 2.53855,2.66126c0,1.46976 -1.13655,2.66124 -2.53855,2.66124c-1.402,0 -2.53853,-1.19147 -2.53853,-2.66124c0,-1.46976 1.13655,-2.66126 2.53853,-2.66126z" data-paper-data="{&quot;index&quot;:null}"/><path d="M110.16325,182.49174c1.402,0 2.53853,1.19147 2.53853,2.66126c0,1.46976 -1.13655,2.66124 -2.53853,2.66124c-1.402,0 -2.53855,-1.19147 -2.53855,-2.66124c0,-1.46976 1.13655,-2.66126 2.53855,-2.66126z" data-paper-data="{&quot;index&quot;:null}"/><path d="M107.9253,176.13205c1.402,0 2.53853,1.19147 2.53853,2.66124c0,1.46976 -1.13655,2.66124 -2.53853,2.66124c-1.402,0 -2.53855,-1.19147 -2.53855,-2.66124c0,-1.46976 1.13655,-2.66124 2.53855,-2.66124z" data-paper-data="{&quot;index&quot;:null}"/><path d="M120.8541,160.4267c0,-1.46976 1.13655,-2.66124 2.53853,-2.66124c1.402,0 2.53855,1.19147 2.53855,2.66124c0,1.46976 -1.13655,2.66126 -2.53855,2.66126c-1.402,0 -2.53853,-1.19147 -2.53853,-2.66126z" data-paper-data="{&quot;index&quot;:null}"/><path d="M126.40546,160.52118c0,-1.46976 1.13655,-2.66124 2.53853,-2.66124c1.402,0 2.53855,1.19147 2.53855,2.66124c0,1.46976 -1.13655,2.66126 -2.53855,2.66126c-1.402,0 -2.53853,-1.19147 -2.53853,-2.66126z" data-paper-data="{&quot;index&quot;:null}"/><path d="M115.21646,162.3332c0,-1.46976 1.13655,-2.66126 2.53853,-2.66126c1.402,0 2.53855,1.19147 2.53855,2.66126c0,1.46976 -1.13655,2.66126 -2.53855,2.66126c-1.402,0 -2.53853,-1.19147 -2.53853,-2.66126z" data-paper-data="{&quot;index&quot;:null}"/><path d="M109.94895,166.00975c0,-1.46976 1.13655,-2.66126 2.53853,-2.66126c1.402,0 2.53855,1.19147 2.53855,2.66126c0,1.46976 -1.13655,2.66126 -2.53855,2.66126c-1.402,0 -2.53853,-1.19147 -2.53853,-2.66126z" data-paper-data="{&quot;index&quot;:null}"/><path d="M132.22498,162.04639c0,-1.46976 1.13655,-2.66124 2.53855,-2.66124c1.402,0 2.53853,1.19147 2.53853,2.66124c0,1.46976 -1.13655,2.66126 -2.53853,2.66126c-1.402,0 -2.53855,-1.19147 -2.53855,-2.66126z" data-paper-data="{&quot;index&quot;:null}"/><path d="M136.61099,166.55375c0,-1.46976 1.13655,-2.66124 2.53855,-2.66124c1.402,0 2.53853,1.19147 2.53853,2.66124c0,1.46976 -1.13655,2.66126 -2.53853,2.66126c-1.402,0 -2.53855,-1.19147 -2.53855,-2.66126z" data-paper-data="{&quot;index&quot;:null}"/><path d="M139.91229,171.9602c0,-1.46976 1.13655,-2.66124 2.53853,-2.66124c1.402,0 2.53855,1.19147 2.53855,2.66124c0,1.46976 -1.13655,2.66126 -2.53855,2.66126c-1.402,0 -2.53853,-1.19149 -2.53853,-2.66126z" data-paper-data="{&quot;index&quot;:null}"/><path d="M107.36582,171.38825c0,-1.46976 1.13655,-2.66124 2.53855,-2.66124c1.402,0 2.53853,1.19147 2.53853,2.66124c0,1.46976 -1.13655,2.66126 -2.53853,2.66126c-1.402,0 -2.53855,-1.19147 -2.53855,-2.66126z" data-paper-data="{&quot;index&quot;:null}"/></g></g></g></svg>