<svg version="1.1" xmlns="http://www.w3.org/2000/svg" xmlns:xlink="http://www.w3.org/1999/xlink" width="526.52553" height="404.9039" viewBox="0,0,526.52553,404.9039"><defs><linearGradient x1="237.74781" y1="-24.20416" x2="237.74781" y2="379.69979" gradientUnits="userSpaceOnUse" id="color-1"><stop offset="0" stop-color="#000000"/><stop offset="1" stop-color="#000d2f"/></linearGradient></defs><g transform="translate(25.51497,24.70411)"><g data-paper-data="{&quot;isPaintingLayer&quot;:true}" fill-rule="nonzero" stroke-linecap="butt" stroke-linejoin="miter" stroke-miterlimit="10" stroke-dasharray="" stroke-dashoffset="0" style="mix-blend-mode: normal"><path d="M-25.01497,379.69979v-403.9039h525.52553v403.9039z" fill="url(#color-1)" stroke="#ffffff" stroke-width="1"/><g fill="#0cba00" stroke="none" stroke-width="0"><path d="M336.24708,112.71084c4.06762,0 7.36511,3.45686 7.36511,7.72111c0,4.26424 -3.29749,7.72111 -7.36511,7.72111c-4.06762,0 -7.36511,-3.45686 -7.36511,-7.72111c0,-4.26424 3.29749,-7.72111 7.36511,-7.72111z" data-paper-data="{&quot;index&quot;:null}"/><path d="M352.3534,112.43673c4.06762,0 7.36511,3.45686 7.36511,7.72111c0,4.26424 -3.29749,7.72111 -7.36511,7.72111c-4.06762,0 -7.36511,-3.45686 -7.36511,-7.72111c0,-4.26424 3.29749,-7.72111 7.36511,-7.72111z" data-paper-data="{&quot;index&quot;:null}"/><path d="M319.89045,107.17943c4.06762,0 7.36511,3.45686 7.36511,7.72111c0,4.26424 -3.29749,7.72111 -7.36511,7.72111c-4.06762,0 -7.36511,-3.45686 -7.36511,-7.72111c0,-4.26424 3.29749,-7.72111 7.36511,-7.72111z" data-paper-data="{&quot;index&quot;:null}"/><path d="M304.60768,96.51263c4.06762,0 7.36511,3.45686 7.36511,7.72111c0,4.26424 -3.29749,7.72111 -7.36511,7.72111c-4.06762,0 -7.36511,-3.45686 -7.36511,-7.72111c0,-4.26424 3.29749,-7.72111 7.36511,-7.72111z" data-paper-data="{&quot;index&quot;:null}"/><path d="M369.23763,108.01162c4.06762,0 7.36511,3.45686 7.36511,7.72111c0,4.26424 -3.29749,7.72111 -7.36511,7.72111c-4.06762,0 -7.36511,-3.45686 -7.36511,-7.72111c0,-4.26424 3.29749,-7.72111 7.36511,-7.72111z" data-paper-data="{&quot;index&quot;:null}"/><path d="M381.96289,94.93428c4.06762,0 7.36511,3.45686 7.36511,7.72111c0,4.26424 -3.29749,7.72111 -7.36511,7.72111c-4.06762,0 -7.36511,-3.45686 -7.36511,-7.72111c0,-4.26424 3.29749,-7.72111 7.36511,-7.72111z" data-paper-data="{&quot;index&quot;:null}"/><path d="M391.54103,79.24846c4.06762,0 7.36511,3.45686 7.36511,7.72111c0,4.26424 -3.29749,7.72111 -7.36511,7.72111c-4.06762,0 -7.36511,-3.45686 -7.36511,-7.72111c0,-4.26424 3.29749,-7.72111 7.36511,-7.72111z" data-paper-data="{&quot;index&quot;:null}"/><path d="M397.50634,61.74602c4.06762,0 7.36511,3.45686 7.36511,7.72111c0,4.26424 -3.29749,7.72111 -7.36511,7.72111c-4.06762,0 -7.36511,-3.45686 -7.36511,-7.72111c0,-4.26424 3.29749,-7.72111 7.36511,-7.72111z" data-paper-data="{&quot;index&quot;:null}"/><path d="M297.11327,80.90785c4.06762,0 7.36511,3.45686 7.36511,7.72111c0,4.26424 -3.29749,7.72111 -7.36511,7.72111c-4.06762,0 -7.36511,-3.45686 -7.36511,-7.72111c0,-4.26424 3.29749,-7.72111 7.36511,-7.72111z" data-paper-data="{&quot;index&quot;:null}"/><path d="M290.62028,62.45637c4.06762,0 7.36511,3.45686 7.36511,7.72111c0,4.26424 -3.29749,7.72111 -7.36511,7.72111c-4.06762,0 -7.36511,-3.45686 -7.36511,-7.72111c0,-4.26424 3.29749,-7.72111 7.36511,-7.72111z" data-paper-data="{&quot;index&quot;:null}"/><path d="M328.13086,16.89014c0,-4.26424 3.29749,-7.72111 7.36511,-7.72111c4.06762,0 7.36511,3.45686 7.36511,7.72111c0,4.26424 -3.29749,7.72111 -7.36511,7.72111c-4.06762,0 -7.36511,-3.45686 -7.36511,-7.72111z" data-paper-data="{&quot;index&quot;:null}"/><path d="M344.23721,17.16419c0,-4.26424 3.29749,-7.72111 7.36511,-7.72111c4.06762,0 7.36511,3.45686 7.36511,7.72111c0,4.26424 -3.29749,7.72111 -7.36511,7.72111c-4.06762,0 -7.36511,-3.45686 -7.36511,-7.72111z" data-paper-data="{&quot;index&quot;:null}"/><path d="M311.77426,22.4215c0,-4.26424 3.29749,-7.72111 7.36511,-7.72111c4.06762,0 7.36511,3.45686 7.36511,7.72111c0,4.26424 -3.29749,7.72111 -7.36511,7.72111c-4.06762,0 -7.36511,-3.45686 -7.36511,-7.72111z" data-paper-data="{&quot;index&quot;:null}"/><path d="M296.49154,33.08838c0,-4.26424 3.29749,-7.72111 7.36511,-7.72111c4.06762,0 7.36511,3.45686 7.36511,7.72111c0,4.26431 -3.29749,7.72111 -7.36511,7.72111c-4.06762,0 -7.36511,-3.45686 -7.36511,-7.72111z" data-paper-data="{&quot;index&quot;:null}"/><path d="M361.12145,21.58931c0,-4.26424 3.29749,-7.72111 7.36511,-7.72111c4.06762,0 7.36511,3.45686 7.36511,7.72111c0,4.26424 -3.29749,7.72111 -7.36511,7.72111c-4.06762,0 -7.36511,-3.45686 -7.36511,-7.72111z" data-paper-data="{&quot;index&quot;:null}"/><path d="M373.8467,34.66671c0,-4.26431 3.29749,-7.72111 7.36511,-7.72111c4.06762,0 7.36511,3.45686 7.36511,7.72111c0,4.26431 -3.29749,7.72111 -7.36511,7.72111c-4.06762,0 -7.36511,-3.45686 -7.36511,-7.72111z" data-paper-data="{&quot;index&quot;:null}"/><path d="M383.42484,50.35244c0,-4.26431 3.29749,-7.72111 7.36511,-7.72111c4.06762,0 7.36511,3.45686 7.36511,7.72111c0,4.26431 -3.29749,7.72111 -7.36511,7.72111c-4.06762,0 -7.36511,-3.45686 -7.36511,-7.72111z" data-paper-data="{&quot;index&quot;:null}"/><path d="M288.99703,48.69308c0,-4.26431 3.29749,-7.72111 7.36511,-7.72111c4.06762,0 7.36511,3.45686 7.36511,7.72111c0,4.26431 -3.29749,7.72111 -7.36511,7.72111c-4.06762,0 -7.36511,-3.45686 -7.36511,-7.72111z" data-paper-data="{&quot;index&quot;:null}"/></g></g></g></svg>