<svg version="1.1" xmlns="http://www.w3.org/2000/svg" xmlns:xlink="http://www.w3.org/1999/xlink" width="526.52553" height="404.9039" viewBox="0,0,526.52553,404.9039"><defs><linearGradient x1="237.74781" y1="-24.20416" x2="237.74781" y2="379.69979" gradientUnits="userSpaceOnUse" id="color-1"><stop offset="0" stop-color="#000000"/><stop offset="1" stop-color="#000d2f"/></linearGradient></defs><g transform="translate(25.51497,24.70411)"><g data-paper-data="{&quot;isPaintingLayer&quot;:true}" fill-rule="nonzero" stroke-linecap="butt" stroke-linejoin="miter" stroke-miterlimit="10" stroke-dasharray="" stroke-dashoffset="0" style="mix-blend-mode: normal"><path d="M-25.01497,379.69979v-403.9039h525.52553v403.9039z" fill="url(#color-1)" stroke="#ffffff" stroke-width="1"/><g fill="#0cba00" stroke="none" stroke-width="0"><path d="M342.45732,77.71206c0.83578,0 1.51332,0.71029 1.51332,1.58647c0,0.87618 -0.67754,1.58647 -1.51332,1.58647c-0.83578,0 -1.51332,-0.71029 -1.51332,-1.58647c0,-0.87618 0.67754,-1.58647 1.51332,-1.58647z" data-paper-data="{&quot;index&quot;:null}"/><path d="M345.76672,77.65573c0.83578,0 1.51332,0.71029 1.51332,1.58647c0,0.87618 -0.67754,1.58647 -1.51332,1.58647c-0.83578,0 -1.51332,-0.71029 -1.51332,-1.58647c0,-0.87618 0.67754,-1.58647 1.51332,-1.58647z" data-paper-data="{&quot;index&quot;:null}"/><path d="M339.09649,76.5755c0.83578,0 1.51332,0.71029 1.51332,1.58647c0,0.87618 -0.67754,1.58647 -1.51332,1.58647c-0.83578,0 -1.51332,-0.71029 -1.51332,-1.58647c0,-0.87618 0.67754,-1.58647 1.51332,-1.58647z" data-paper-data="{&quot;index&quot;:null}"/><path d="M335.95633,74.38378c0.83578,0 1.51332,0.71029 1.51332,1.58647c0,0.87618 -0.67754,1.58647 -1.51332,1.58647c-0.83578,0 -1.51332,-0.71029 -1.51332,-1.58647c0,-0.87618 0.67754,-1.58647 1.51332,-1.58647z" data-paper-data="{&quot;index&quot;:null}"/><path d="M349.23595,76.74649c0.83578,0 1.51332,0.71029 1.51332,1.58647c0,0.87618 -0.67754,1.58647 -1.51332,1.58647c-0.83578,0 -1.51332,-0.71029 -1.51332,-1.58647c0,-0.87618 0.67754,-1.58647 1.51332,-1.58647z" data-paper-data="{&quot;index&quot;:null}"/><path d="M351.85063,74.05947c0.83578,0 1.51332,0.71029 1.51332,1.58647c0,0.87618 -0.67754,1.58647 -1.51332,1.58647c-0.83578,0 -1.51332,-0.71029 -1.51332,-1.58647c0,-0.87618 0.67754,-1.58647 1.51332,-1.58647z" data-paper-data="{&quot;index&quot;:null}"/><path d="M353.81866,70.83649c0.83578,0 1.51332,0.71029 1.51332,1.58647c0,0.87618 -0.67754,1.58647 -1.51332,1.58647c-0.83578,0 -1.51332,-0.71029 -1.51332,-1.58647c0,-0.87618 0.67754,-1.58647 1.51332,-1.58647z" data-paper-data="{&quot;index&quot;:null}"/><path d="M355.04437,67.24022c0.83578,0 1.51332,0.71029 1.51332,1.58647c0,0.87618 -0.67754,1.58647 -1.51332,1.58647c-0.83578,0 -1.51332,-0.71029 -1.51332,-1.58647c0,-0.87618 0.67754,-1.58647 1.51332,-1.58647z" data-paper-data="{&quot;index&quot;:null}"/><path d="M334.41644,71.17744c0.83578,0 1.51332,0.71029 1.51332,1.58647c0,0.87618 -0.67754,1.58647 -1.51332,1.58647c-0.83578,0 -1.51332,-0.71029 -1.51332,-1.58647c0,-0.87618 0.67754,-1.58647 1.51332,-1.58647z" data-paper-data="{&quot;index&quot;:null}"/><path d="M333.08231,67.38618c0.83578,0 1.51332,0.71029 1.51332,1.58647c0,0.87618 -0.67754,1.58647 -1.51332,1.58647c-0.83578,0 -1.51332,-0.71029 -1.51332,-1.58647c0,-0.87618 0.67754,-1.58647 1.51332,-1.58647z" data-paper-data="{&quot;index&quot;:null}"/><path d="M340.78967,58.02362c0,-0.87618 0.67754,-1.58647 1.51332,-1.58647c0.83578,0 1.51332,0.71029 1.51332,1.58647c0,0.87618 -0.67754,1.58647 -1.51332,1.58647c-0.83578,0 -1.51332,-0.71029 -1.51332,-1.58647z" data-paper-data="{&quot;index&quot;:null}"/><path d="M344.09907,58.07992c0,-0.87618 0.67754,-1.58647 1.51332,-1.58647c0.83578,0 1.51332,0.71029 1.51332,1.58647c0,0.87618 -0.67754,1.58647 -1.51332,1.58647c-0.83578,0 -1.51332,-0.71029 -1.51332,-1.58647z" data-paper-data="{&quot;index&quot;:null}"/><path d="M337.42884,59.16015c0,-0.87618 0.67754,-1.58647 1.51332,-1.58647c0.83578,0 1.51332,0.71029 1.51332,1.58647c0,0.87618 -0.67754,1.58647 -1.51332,1.58647c-0.83578,0 -1.51332,-0.71029 -1.51332,-1.58647z" data-paper-data="{&quot;index&quot;:null}"/><path d="M334.28869,61.35189c0,-0.87618 0.67754,-1.58647 1.51332,-1.58647c0.83578,0 1.51332,0.71029 1.51332,1.58647c0,0.87619 -0.67754,1.58647 -1.51332,1.58647c-0.83578,0 -1.51332,-0.71029 -1.51332,-1.58647z" data-paper-data="{&quot;index&quot;:null}"/><path d="M347.56831,58.98916c0,-0.87618 0.67754,-1.58647 1.51332,-1.58647c0.83578,0 1.51332,0.71029 1.51332,1.58647c0,0.87618 -0.67754,1.58647 -1.51332,1.58647c-0.83578,0 -1.51332,-0.71029 -1.51332,-1.58647z" data-paper-data="{&quot;index&quot;:null}"/><path d="M350.18298,61.67619c0,-0.87619 0.67754,-1.58647 1.51332,-1.58647c0.83578,0 1.51332,0.71029 1.51332,1.58647c0,0.87619 -0.67754,1.58647 -1.51332,1.58647c-0.83578,0 -1.51332,-0.71029 -1.51332,-1.58647z" data-paper-data="{&quot;index&quot;:null}"/><path d="M352.15101,64.89917c0,-0.87619 0.67754,-1.58647 1.51332,-1.58647c0.83578,0 1.51332,0.71029 1.51332,1.58647c0,0.87619 -0.67754,1.58647 -1.51332,1.58647c-0.83578,0 -1.51332,-0.71029 -1.51332,-1.58647z" data-paper-data="{&quot;index&quot;:null}"/><path d="M332.74878,64.55821c0,-0.87619 0.67754,-1.58647 1.51332,-1.58647c0.83578,0 1.51332,0.71029 1.51332,1.58647c0,0.87619 -0.67754,1.58647 -1.51332,1.58647c-0.83578,0 -1.51332,-0.71029 -1.51332,-1.58647z" data-paper-data="{&quot;index&quot;:null}"/></g></g></g></svg>