<svg version="1.1" xmlns="http://www.w3.org/2000/svg" xmlns:xlink="http://www.w3.org/1999/xlink" width="526.52553" height="404.9039" viewBox="0,0,526.52553,404.9039"><defs><linearGradient x1="237.74781" y1="-24.20416" x2="237.74781" y2="379.69979" gradientUnits="userSpaceOnUse" id="color-1"><stop offset="0" stop-color="#000000"/><stop offset="1" stop-color="#000d2f"/></linearGradient></defs><g transform="translate(25.51497,24.70412)"><g data-paper-data="{&quot;isPaintingLayer&quot;:true}" fill-rule="nonzero" stroke-linecap="butt" stroke-linejoin="miter" stroke-miterlimit="10" stroke-dasharray="" stroke-dashoffset="0" style="mix-blend-mode: normal"><path d="M-25.01497,379.69979v-403.9039h525.52553v403.9039z" fill="url(#color-1)" stroke="#ffffff" stroke-width="1"/><g fill="#bb0000" stroke="none" stroke-width="0"><path d="M117.49212,228.16572c4.60743,0 8.34248,3.91555 8.34248,8.74576c0,4.8301 -3.73507,8.74576 -8.34248,8.74576c-4.60743,0 -8.34242,-3.91555 -8.34242,-8.74576c0,-4.8301 3.73507,-8.74576 8.34242,-8.74576z" data-paper-data="{&quot;index&quot;:null}"/><path d="M135.73571,227.85526c4.60743,0 8.34249,3.91555 8.34249,8.74576c0,4.8301 -3.73507,8.74569 -8.34249,8.74569c-4.60743,0 -8.34242,-3.91555 -8.34242,-8.74569c0,-4.8301 3.73507,-8.74576 8.34242,-8.74576z" data-paper-data="{&quot;index&quot;:null}"/><path d="M98.96501,221.90035c4.60743,0 8.34248,3.91555 8.34248,8.74576c0,4.8301 -3.73507,8.74569 -8.34248,8.74569c-4.60743,0 -8.34242,-3.91555 -8.34242,-8.74569c0,-4.8301 3.73507,-8.74576 8.34242,-8.74576z" data-paper-data="{&quot;index&quot;:null}"/><path d="M81.65426,209.81803c4.60743,0 8.34249,3.91555 8.34249,8.74576c0,4.8301 -3.73507,8.74569 -8.34249,8.74569c-4.60743,0 -8.34242,-3.91555 -8.34242,-8.74569c0,-4.8301 3.73507,-8.74576 8.34242,-8.74576z" data-paper-data="{&quot;index&quot;:null}"/><path d="M154.86048,222.84299c4.60743,0 8.34242,3.91555 8.34242,8.74576c0,4.8301 -3.73507,8.74569 -8.34242,8.74569c-4.60743,0 -8.34248,-3.91555 -8.34248,-8.74569c0,-4.8301 3.73507,-8.74576 8.34248,-8.74576z" data-paper-data="{&quot;index&quot;:null}"/><path d="M169.27437,208.03031c4.60743,0 8.34242,3.91555 8.34242,8.74576c0,4.8301 -3.73507,8.74569 -8.34242,8.74569c-4.60743,0 -8.34249,-3.91555 -8.34249,-8.74569c0,-4.8301 3.73507,-8.74576 8.34249,-8.74576z" data-paper-data="{&quot;index&quot;:null}"/><path d="M180.12347,190.26294c4.60743,0 8.34249,3.91555 8.34249,8.74576c0,4.8301 -3.73507,8.74569 -8.34249,8.74569c-4.60743,0 -8.34242,-3.91555 -8.34242,-8.74569c0,-4.8301 3.73507,-8.74576 8.34242,-8.74576z" data-paper-data="{&quot;index&quot;:null}"/><path d="M186.88042,170.43797c4.60743,0 8.34249,3.91555 8.34249,8.74576c0,4.8301 -3.73508,8.74569 -8.34249,8.74569c-4.60743,0 -8.34242,-3.91555 -8.34242,-8.74569c0,-4.8301 3.73507,-8.74576 8.34242,-8.74576z" data-paper-data="{&quot;index&quot;:null}"/><path d="M73.16533,192.14258c4.60743,0 8.34242,3.91555 8.34242,8.74576c0,4.8301 -3.73507,8.74569 -8.34242,8.74569c-4.60743,0 -8.34249,-3.91555 -8.34249,-8.74569c0,-4.8301 3.73507,-8.74576 8.34249,-8.74576z" data-paper-data="{&quot;index&quot;:null}"/><path d="M65.81072,171.2426c4.60743,0 8.34242,3.91555 8.34242,8.74569c0,4.8301 -3.73507,8.74569 -8.34242,8.74569c-4.60742,0 -8.34249,-3.91555 -8.34249,-8.74569c0,-4.8301 3.73508,-8.74569 8.34249,-8.74569z" data-paper-data="{&quot;index&quot;:null}"/><path d="M108.29891,119.62978c0,-4.8301 3.73507,-8.74569 8.34242,-8.74569c4.60743,0 8.34249,3.91555 8.34249,8.74569c0,4.8301 -3.73507,8.74575 -8.34249,8.74575c-4.60743,0 -8.34242,-3.91554 -8.34242,-8.74575z" data-paper-data="{&quot;index&quot;:null}"/><path d="M126.54245,119.94026c0,-4.8301 3.73507,-8.74569 8.34242,-8.74569c4.60743,0 8.34249,3.91555 8.34249,8.74569c0,4.8301 -3.73507,8.74575 -8.34249,8.74575c-4.60743,0 -8.34242,-3.91554 -8.34242,-8.74575z" data-paper-data="{&quot;index&quot;:null}"/><path d="M89.77181,125.89514c0,-4.8301 3.73507,-8.74576 8.34242,-8.74576c4.60743,0 8.34249,3.91555 8.34249,8.74576c0,4.8301 -3.73507,8.74576 -8.34249,8.74576c-4.60743,0 -8.34242,-3.91555 -8.34242,-8.74576z" data-paper-data="{&quot;index&quot;:null}"/><path d="M72.46107,137.97747c0,-4.8301 3.73507,-8.74576 8.34242,-8.74576c4.60743,0 8.34248,3.91555 8.34248,8.74576c0,4.8301 -3.73507,8.74576 -8.34248,8.74576c-4.60743,0 -8.34242,-3.91555 -8.34242,-8.74576z" data-paper-data="{&quot;index&quot;:null}"/><path d="M145.66726,124.95259c0,-4.8301 3.73508,-8.74568 8.34249,-8.74568c4.60743,0 8.34242,3.91554 8.34242,8.74568c0,4.8301 -3.73507,8.74576 -8.34242,8.74576c-4.60743,0 -8.34249,-3.91555 -8.34249,-8.74576z" data-paper-data="{&quot;index&quot;:null}"/><path d="M160.0811,139.76522c0,-4.8301 3.73507,-8.74569 8.34249,-8.74569c4.60743,0 8.34242,3.91555 8.34242,8.74569c0,4.8301 -3.73507,8.74575 -8.34242,8.74575c-4.60743,0 -8.34249,-3.91554 -8.34249,-8.74575z" data-paper-data="{&quot;index&quot;:null}"/><path d="M170.93024,157.53256c0,-4.8301 3.73507,-8.74569 8.34242,-8.74569c4.60743,0 8.34249,3.91555 8.34249,8.74569c0,4.8301 -3.73507,8.74576 -8.34249,8.74576c-4.60743,0 -8.34242,-3.91562 -8.34242,-8.74576z" data-paper-data="{&quot;index&quot;:null}"/><path d="M63.97209,155.65294c0,-4.8301 3.73507,-8.74568 8.34249,-8.74568c4.60743,0 8.34242,3.91554 8.34242,8.74568c0,4.8301 -3.73507,8.74576 -8.34242,8.74576c-4.60743,0 -8.34249,-3.91555 -8.34249,-8.74576z" data-paper-data="{&quot;index&quot;:null}"/></g><g fill="#0cba00" stroke="none" stroke-width="0"><path d="M342.76213,75.9938c0.67712,0 1.22604,0.57545 1.22604,1.2853c0,0.70985 -0.54892,1.2853 -1.22604,1.2853c-0.67712,0 -1.22604,-0.57545 -1.22604,-1.2853c0,-0.70985 0.54892,-1.2853 1.22604,-1.2853z" data-paper-data="{&quot;index&quot;:null}"/><path d="M345.44328,75.94817c0.67712,0 1.22604,0.57545 1.22604,1.2853c0,0.70985 -0.54892,1.2853 -1.22604,1.2853c-0.67712,0 -1.22604,-0.57545 -1.22604,-1.2853c0,-0.70985 0.54892,-1.2853 1.22604,-1.2853z" data-paper-data="{&quot;index&quot;:null}"/><path d="M340.03931,75.07301c0.67712,0 1.22604,0.57545 1.22604,1.2853c0,0.70985 -0.54892,1.2853 -1.22604,1.2853c-0.67712,0 -1.22604,-0.57545 -1.22604,-1.2853c0,-0.70985 0.54892,-1.2853 1.22604,-1.2853z" data-paper-data="{&quot;index&quot;:null}"/><path d="M337.49526,73.29735c0.67712,0 1.22604,0.57545 1.22604,1.2853c0,0.70985 -0.54892,1.2853 -1.22604,1.2853c-0.67712,0 -1.22604,-0.57545 -1.22604,-1.2853c0,-0.70985 0.54892,-1.2853 1.22604,-1.2853z" data-paper-data="{&quot;index&quot;:null}"/><path d="M348.25393,75.21154c0.67712,0 1.22604,0.57545 1.22604,1.2853c0,0.70985 -0.54892,1.2853 -1.22604,1.2853c-0.67712,0 -1.22604,-0.57545 -1.22604,-1.2853c0,-0.70985 0.54892,-1.2853 1.22604,-1.2853z" data-paper-data="{&quot;index&quot;:null}"/><path d="M350.37225,73.03461c0.67712,0 1.22604,0.57545 1.22604,1.2853c0,0.70985 -0.54892,1.2853 -1.22604,1.2853c-0.67712,0 -1.22604,-0.57545 -1.22604,-1.2853c0,-0.70985 0.54892,-1.2853 1.22604,-1.2853z" data-paper-data="{&quot;index&quot;:null}"/><path d="M351.96668,70.42346c0.67712,0 1.22604,0.57545 1.22604,1.2853c0,0.70985 -0.54892,1.2853 -1.22604,1.2853c-0.67712,0 -1.22604,-0.57545 -1.22604,-1.2853c0,-0.70985 0.54892,-1.2853 1.22604,-1.2853z" data-paper-data="{&quot;index&quot;:null}"/><path d="M352.95971,67.5099c0.67712,0 1.22604,0.57545 1.22604,1.2853c0,0.70985 -0.54892,1.2853 -1.22604,1.2853c-0.67712,0 -1.22604,-0.57545 -1.22604,-1.2853c0,-0.70985 0.54892,-1.2853 1.22604,-1.2853z" data-paper-data="{&quot;index&quot;:null}"/><path d="M336.24769,70.69969c0.67712,0 1.22604,0.57545 1.22604,1.2853c0,0.70985 -0.54892,1.2853 -1.22604,1.2853c-0.67712,0 -1.22604,-0.57545 -1.22604,-1.2853c0,-0.70985 0.54892,-1.2853 1.22604,-1.2853z" data-paper-data="{&quot;index&quot;:null}"/><path d="M335.16683,67.62815c0.67712,0 1.22604,0.57545 1.22604,1.2853c0,0.70985 -0.54892,1.2853 -1.22604,1.2853c-0.67712,0 -1.22604,-0.57545 -1.22604,-1.2853c0,-0.70985 0.54892,-1.2853 1.22604,-1.2853z" data-paper-data="{&quot;index&quot;:null}"/><path d="M341.41106,60.04293c0,-0.70985 0.54892,-1.2853 1.22604,-1.2853c0.67712,0 1.22604,0.57545 1.22604,1.2853c0,0.70985 -0.54892,1.2853 -1.22604,1.2853c-0.67712,0 -1.22604,-0.57545 -1.22604,-1.2853z" data-paper-data="{&quot;index&quot;:null}"/><path d="M344.09221,60.08855c0,-0.70985 0.54892,-1.2853 1.22604,-1.2853c0.67712,0 1.22604,0.57545 1.22604,1.2853c0,0.70985 -0.54892,1.2853 -1.22604,1.2853c-0.67712,0 -1.22604,-0.57545 -1.22604,-1.2853z" data-paper-data="{&quot;index&quot;:null}"/><path d="M338.68824,60.96371c0,-0.70985 0.54892,-1.2853 1.22604,-1.2853c0.67712,0 1.22604,0.57545 1.22604,1.2853c0,0.70985 -0.54892,1.2853 -1.22604,1.2853c-0.67712,0 -1.22604,-0.57545 -1.22604,-1.2853z" data-paper-data="{&quot;index&quot;:null}"/><path d="M336.14419,62.73938c0,-0.70985 0.54892,-1.2853 1.22604,-1.2853c0.67712,0 1.22604,0.57545 1.22604,1.2853c0,0.70986 -0.54892,1.2853 -1.22604,1.2853c-0.67712,0 -1.22604,-0.57545 -1.22604,-1.2853z" data-paper-data="{&quot;index&quot;:null}"/><path d="M346.90286,60.82518c0,-0.70985 0.54892,-1.2853 1.22604,-1.2853c0.67712,0 1.22604,0.57545 1.22604,1.2853c0,0.70985 -0.54892,1.2853 -1.22604,1.2853c-0.67712,0 -1.22604,-0.57545 -1.22604,-1.2853z" data-paper-data="{&quot;index&quot;:null}"/><path d="M349.02118,63.00212c0,-0.70986 0.54892,-1.2853 1.22604,-1.2853c0.67712,0 1.22604,0.57545 1.22604,1.2853c0,0.70986 -0.54892,1.2853 -1.22604,1.2853c-0.67712,0 -1.22604,-0.57545 -1.22604,-1.2853z" data-paper-data="{&quot;index&quot;:null}"/><path d="M350.61561,65.61326c0,-0.70986 0.54892,-1.2853 1.22604,-1.2853c0.67712,0 1.22604,0.57545 1.22604,1.2853c0,0.70986 -0.54892,1.2853 -1.22604,1.2853c-0.67712,0 -1.22604,-0.57545 -1.22604,-1.2853z" data-paper-data="{&quot;index&quot;:null}"/><path d="M334.89662,65.33703c0,-0.70986 0.54892,-1.2853 1.22604,-1.2853c0.67712,0 1.22604,0.57545 1.22604,1.2853c0,0.70986 -0.54892,1.2853 -1.22604,1.2853c-0.67712,0 -1.22604,-0.57545 -1.22604,-1.2853z" data-paper-data="{&quot;index&quot;:null}"/></g></g></g></svg>