<svg version="1.1" xmlns="http://www.w3.org/2000/svg" xmlns:xlink="http://www.w3.org/1999/xlink" width="938.13494" height="971.44322" viewBox="0,0,938.13494,971.44322"><defs><linearGradient x1="-4.06996" y1="61.59304" x2="288.31185" y2="104.64894" gradientUnits="userSpaceOnUse" id="color-1"><stop offset="0" stop-color="#00ff15"/><stop offset="1" stop-color="#00ff15" stop-opacity="0"/></linearGradient><linearGradient x1="32.39176" y1="157.68069" x2="311.19687" y2="59.65705" gradientUnits="userSpaceOnUse" id="color-2"><stop offset="0" stop-color="#00ff15"/><stop offset="1" stop-color="#00ff15" stop-opacity="0"/></linearGradient><linearGradient x1="364.81637" y1="162.72037" x2="292.16882" y2="449.18723" gradientUnits="userSpaceOnUse" id="color-3"><stop offset="0" stop-color="#00ff15"/><stop offset="1" stop-color="#00ff15" stop-opacity="0"/></linearGradient></defs><g transform="translate(143.54162,396.77387)"><g data-paper-data="{&quot;isPaintingLayer&quot;:true}" fill-rule="nonzero" stroke-linecap="butt" stroke-linejoin="miter" stroke-miterlimit="10" stroke-dasharray="" stroke-dashoffset="0" style="mix-blend-mode: normal"><path d="M-78.62331,468.28829v-531.53154h656.15615v531.53154z" fill="#000000" stroke="#000000" stroke-width="2"/><path d="M43.0905,557.57492l147.89211,-948.00613l167.8159,16.42288c0,0 -111.57616,-13.19939 -115.88143,1.48735c-25.62947,87.43102 -158.96618,936.11297 -158.96618,936.11297z" fill="url(#color-1)" stroke="none" stroke-width="0"/><path d="M305.05014,574.66935l-310.49137,-907.84514l156.16393,-63.59807c0,0 -104.89075,40.26656 -101.86302,55.26885c18.0243,89.30945 295.15351,902.47556 295.15351,902.47556z" fill="url(#color-2)" stroke="none" stroke-width="0"/><path d="M-133.38912,159.05641l927.98244,243.79559l-33.45056,165.26629c0,0 24.50874,-109.64847 10.3376,-115.429c-84.36162,-34.41178 -915.02198,-253.5991 -915.02198,-253.5991z" fill="url(#color-3)" stroke="none" stroke-width="0"/></g></g></svg>