<svg version="1.1" xmlns="http://www.w3.org/2000/svg" xmlns:xlink="http://www.w3.org/1999/xlink" width="503.00301" height="375.37538" viewBox="0,0,503.00301,375.37538"><defs><linearGradient x1="239.99997" y1="25.21021" x2="239.99997" y2="334.78974" gradientUnits="userSpaceOnUse" id="color-1"><stop offset="0" stop-color="#000000"/><stop offset="1" stop-color="#000d2f"/></linearGradient></defs><g transform="translate(16.75748,5.13561)"><g data-paper-data="{&quot;isPaintingLayer&quot;:true}" fill-rule="nonzero" stroke="none" stroke-width="0" stroke-linecap="butt" stroke-linejoin="miter" stroke-miterlimit="10" stroke-dasharray="" stroke-dashoffset="0" style="mix-blend-mode: normal"><path d="M-16.75747,370.23977v-375.37537h503.00301v375.37538z" fill="#b1832d"/><path d="M76.17144,334.78974v-309.57947h327.65711v309.57947z" fill="url(#color-1)"/><g fill="#bb0000"><path d="M224.67243,266.38096c7.97661,0 14.44295,6.77879 14.44295,15.14111c0,8.36214 -6.46634,15.14112 -14.44295,15.14112c-7.97661,0 -14.44286,-6.7788 -14.44286,-15.14112c0,-8.36214 6.46634,-15.14111 14.44286,-15.14111z" data-paper-data="{&quot;index&quot;:null}"/><path d="M256.25671,265.84346c7.97661,0 14.44295,6.7788 14.44295,15.14112c0,8.36214 -6.46634,15.14101 -14.44295,15.14101c-7.97661,0 -14.44286,-6.77881 -14.44286,-15.14101c0,-8.36214 6.46635,-15.14112 14.44286,-15.14112z" data-paper-data="{&quot;index&quot;:null}"/><path d="M192.59731,255.53402c7.97661,0 14.44295,6.7788 14.44295,15.14112c0,8.36214 -6.46634,15.14099 -14.44295,15.14099c-7.97661,0 -14.44286,-6.7788 -14.44286,-15.14099c0,-8.36214 6.46634,-15.14112 14.44286,-15.14112z" data-paper-data="{&quot;index&quot;:null}"/><path d="M162.62806,234.61646c7.97661,0 14.44295,6.77881 14.44295,15.14113c0,8.36214 -6.46634,15.14099 -14.44295,15.14099c-7.97661,0 -14.44286,-6.7788 -14.44286,-15.14099c0,-8.36214 6.46634,-15.14113 14.44286,-15.14113z" data-paper-data="{&quot;index&quot;:null}"/><path d="M289.36653,257.16598c7.97661,0 14.44286,6.7788 14.44286,15.14112c0,8.36214 -6.46634,15.141 -14.44286,15.141c-7.97661,0 -14.44295,-6.7788 -14.44295,-15.141c0,-8.36214 6.46634,-15.14112 14.44295,-15.14112z" data-paper-data="{&quot;index&quot;:null}"/><path d="M314.32056,231.52148c7.97661,0 14.44286,6.77879 14.44286,15.14111c0,8.36214 -6.46634,15.141 -14.44286,15.141c-7.97661,0 -14.44295,-6.7788 -14.44295,-15.141c0,-8.36214 6.46634,-15.14111 14.44295,-15.14111z" data-paper-data="{&quot;index&quot;:null}"/><path d="M333.10309,200.76165c7.97661,0 14.44295,6.77881 14.44295,15.14113c0,8.36214 -6.46634,15.141 -14.44295,15.141c-7.97661,0 -14.44286,-6.7788 -14.44286,-15.141c0,-8.36214 6.46634,-15.14113 14.44286,-15.14113z" data-paper-data="{&quot;index&quot;:null}"/><path d="M344.80113,166.43963c7.97661,0 14.44295,6.7788 14.44295,15.14112c0,8.36214 -6.46634,15.141 -14.44295,15.141c-7.97661,0 -14.44286,-6.7788 -14.44286,-15.141c0,-8.36214 6.46634,-15.14112 14.44286,-15.14112z" data-paper-data="{&quot;index&quot;:null}"/><path d="M147.93155,204.01578c7.97661,0 14.44286,6.7788 14.44286,15.14112c0,8.36214 -6.46634,15.141 -14.44286,15.141c-7.97661,0 -14.44295,-6.7788 -14.44295,-15.141c0,-8.36214 6.46634,-15.14112 14.44295,-15.14112z" data-paper-data="{&quot;index&quot;:null}"/><path d="M135.19887,167.83264c7.97661,0 14.44286,6.7788 14.44286,15.141c0,8.36214 -6.46634,15.141 -14.44286,15.141c-7.97661,0 -14.44294,-6.7788 -14.44294,-15.141c0,-8.36214 6.46634,-15.141 14.44294,-15.141z" data-paper-data="{&quot;index&quot;:null}"/><path d="M208.75666,78.47781c0,-8.36214 6.46634,-15.141 14.44286,-15.141c7.97661,0 14.44295,6.7788 14.44295,15.141c0,8.36214 -6.46634,15.14112 -14.44295,15.14112c-7.97661,0 -14.44286,-6.7788 -14.44286,-15.14111z" data-paper-data="{&quot;index&quot;:null}"/><path d="M240.34085,79.01532c0,-8.36214 6.46635,-15.141 14.44286,-15.141c7.9766,0 14.44295,6.7788 14.44295,15.141c0,8.36214 -6.46634,15.14112 -14.44295,15.14112c-7.97661,0 -14.44286,-6.7788 -14.44286,-15.14112z" data-paper-data="{&quot;index&quot;:null}"/><path d="M176.68158,89.32475c0,-8.36214 6.46634,-15.14112 14.44285,-15.14112c7.97661,0 14.44295,6.7788 14.44295,15.14112c0,8.36214 -6.46635,15.14112 -14.44295,15.14112c-7.97661,0 -14.44285,-6.7788 -14.44285,-15.14112z" data-paper-data="{&quot;index&quot;:null}"/><path d="M146.71233,110.2423c0,-8.36214 6.46634,-15.14112 14.44286,-15.14112c7.97661,0 14.44295,6.7788 14.44295,15.14112c0,8.36214 -6.46634,15.14112 -14.44295,15.14112c-7.97661,0 -14.44286,-6.7788 -14.44286,-15.14111z" data-paper-data="{&quot;index&quot;:null}"/><path d="M273.45073,87.69296c0,-8.36214 6.46634,-15.141 14.44295,-15.141c7.97661,0 14.44286,6.7788 14.44286,15.141c0,8.36214 -6.46634,15.14112 -14.44286,15.14112c-7.97661,0 -14.44295,-6.7788 -14.44295,-15.14112z" data-paper-data="{&quot;index&quot;:null}"/><path d="M298.40471,113.33735c0,-8.36214 6.46634,-15.14101 14.44294,-15.14101c7.97661,0 14.44286,6.77881 14.44286,15.14101c0,8.36214 -6.46635,15.14111 -14.44286,15.14111c-7.97661,0 -14.44294,-6.77879 -14.44294,-15.14111z" data-paper-data="{&quot;index&quot;:null}"/><path d="M317.1873,144.09711c0,-8.36214 6.46634,-15.14099 14.44286,-15.14099c7.97661,0 14.44295,6.77879 14.44295,15.14099c0,8.36214 -6.46634,15.14112 -14.44295,15.14112c-7.97661,0 -14.44286,-6.77892 -14.44286,-15.14112z" data-paper-data="{&quot;index&quot;:null}"/><path d="M132.01573,140.84303c0,-8.36214 6.46634,-15.141 14.44295,-15.141c7.97661,0 14.44286,6.7788 14.44286,15.141c0,8.36214 -6.46634,15.14112 -14.44286,15.14112c-7.97661,0 -14.44295,-6.7788 -14.44295,-15.14112z" data-paper-data="{&quot;index&quot;:null}"/></g></g></g></svg>