<svg version="1.1" xmlns="http://www.w3.org/2000/svg" xmlns:xlink="http://www.w3.org/1999/xlink" width="515.01503" height="567.56758" viewBox="0,0,515.01503,567.56758"><defs><linearGradient x1="227.98799" y1="295.61562" x2="227.98799" y2="372.19219" gradientUnits="userSpaceOnUse" id="color-1"><stop offset="0" stop-color="#969696"/><stop offset="1" stop-color="#4e4e4e"/></linearGradient><linearGradient x1="117.62763" y1="280.6006" x2="117.62763" y2="313.63363" gradientUnits="userSpaceOnUse" id="color-2"><stop offset="0" stop-color="#ffffff"/><stop offset="1" stop-color="#b8b8b8"/></linearGradient><linearGradient x1="113.14327" y1="35.19208" x2="113.14327" y2="202.65706" gradientUnits="userSpaceOnUse" id="color-3"><stop offset="0" stop-color="#abebff"/><stop offset="1" stop-color="#00bfff"/></linearGradient></defs><g transform="translate(23.51352,7.68769)"><g data-paper-data="{&quot;isPaintingLayer&quot;:true}" fill-rule="nonzero" stroke-linejoin="miter" stroke-miterlimit="10" stroke-dasharray="" stroke-dashoffset="0" style="mix-blend-mode: normal"><path d="M-11.5015,367.68768v-375.37537h503.00301v375.37538z" fill="#b1832d" stroke="none" stroke-width="0" stroke-linecap="butt"/><path d="M-23.51352,559.87989v-303.3033h513.51351v303.3033z" fill="#7b5b1f" stroke="none" stroke-width="0" stroke-linecap="butt"/><path d="M44.05405,372.19219v-76.57658h367.86787v76.57658z" fill="url(#color-1)" stroke="none" stroke-width="0" stroke-linecap="butt"/><path d="M51.56156,313.63363v-33.03303h132.13213v33.03303z" fill="url(#color-2)" stroke="none" stroke-width="0" stroke-linecap="butt"/><g><path d="M378.84723,332.37579c0,0 -25.02844,1.06266 -34.3042,1.38435c-10.56862,0.36649 -23.94746,0.83046 -32.8201,1.13813c-17.19148,0.59616 -33.82222,0.28036 -33.82222,0.28036" data-paper-data="{&quot;index&quot;:null}" fill="none" stroke="#282828" stroke-width="33.5" stroke-linecap="round"/><path d="M378.00399,359.3461c0,0 -20.20455,0.84297 -29.4803,1.16462c-10.56862,0.36649 -23.94746,0.83045 -32.8201,1.13812c-17.19148,0.59616 -33.82221,0.28036 -33.82221,0.28036" data-paper-data="{&quot;index&quot;:null}" fill="none" stroke="#282828" stroke-width="33.5" stroke-linecap="round"/><path d="M390.87205,375.35458c-6.85072,0.31202 -13.13512,-15.47881 -14.03654,-35.26982c-0.90145,-19.79105 11.33587,-24.91615 18.18661,-25.22817c6.85074,-0.31204 2.70066,60.18597 -4.15008,60.498z" data-paper-data="{&quot;index&quot;:null}" fill="#040017" stroke="none" stroke-width="0" stroke-linecap="butt"/><path d="M389.55377,346.41108c-6.85074,0.31204 -13.13511,-15.47881 -14.03655,-35.26984c-0.90144,-19.79103 11.33583,-24.91613 18.18659,-25.22815c6.85074,-0.31204 2.70068,60.18596 -4.15007,60.49799z" data-paper-data="{&quot;index&quot;:null}" fill="#040017" stroke="none" stroke-width="0" stroke-linecap="butt"/><path d="M308.5188,374.72187c3.26374,1.36109 8.8313,4.40967 11.3907,7.80152c2.4352,3.22727 1.97853,6.75415 0.68353,9.85949c-1.12101,2.68805 -3.99966,6.86935 -7.46109,7.91561c-4.74011,1.43279 -10.5506,-0.97705 -14.23163,-2.51214c-6.36907,-2.65607 -9.37911,-9.97243 -6.72302,-16.3415c2.65607,-6.36909 9.97241,-9.37911 16.34149,-6.72302z" data-paper-data="{&quot;index&quot;:null}" fill="#ffcb9d" stroke="#000000" stroke-width="0" stroke-linecap="butt"/><path d="M293.97345,382.33644l-80.73035,-25.86576" data-paper-data="{&quot;index&quot;:null}" fill="none" stroke="#040017" stroke-width="26.5" stroke-linecap="round"/><path d="M281.51788,369.45793l-93.16727,-5.43328l-2.9163,-31.71709l93.38482,-13.32485c0,0 10.40606,4.40476 9.86134,24.65195c-0.59124,21.97724 -7.16255,25.82321 -7.16255,25.82321z" data-paper-data="{&quot;index&quot;:null}" fill="#040017" stroke="#000000" stroke-width="0" stroke-linecap="butt"/><path d="M304.15875,311.99296c-6.08889,3.24742 -13.65744,0.94393 -16.90482,-5.14495c-3.2474,-6.08887 -0.9439,-13.65742 5.14495,-16.90484c3.51909,-1.87685 9.0752,-4.82623 13.9297,-3.84884c3.54494,0.71371 6.80674,4.60356 8.1773,7.17333c1.58332,2.96872 2.37202,6.43649 0.25342,9.87989c-2.22664,3.61904 -7.48036,7.1813 -10.60054,8.84534z" data-paper-data="{&quot;index&quot;:null}" fill="#ffcb9d" stroke="#000000" stroke-width="0" stroke-linecap="butt"/><path d="M211.04016,339.18642l77.91745,-33.39611" data-paper-data="{&quot;index&quot;:null}" fill="none" stroke="#040017" stroke-width="26.5" stroke-linecap="round"/><path d="M145.39604,413.65358c-34.00276,1.81805 -63.04127,-24.27283 -64.85932,-58.27559c-1.81805,-34.00276 24.27282,-63.04128 58.27557,-64.85934c34.00277,-1.81804 63.04128,24.27282 64.85934,58.27559c1.81806,34.00276 -24.27282,63.04127 -58.27559,64.85932z" data-paper-data="{&quot;index&quot;:null}" fill="#ffcb9d" stroke="#000000" stroke-width="0" stroke-linecap="butt"/><path d="M158.76527,411.70875c0,0 -72.05417,20.65954 -85.38743,-29.42109c-1.81635,-6.82232 -6.73017,-36.514 -6.73017,-36.514l5.11255,-3.03842c0,0 -1.28521,-10.74051 -0.49684,-17.16961c0.78837,-6.42911 4.56314,-15.99043 4.56314,-15.99043l5.98909,4.89074c0,0 5.60957,-6.06063 11.35544,-8.84117c9.60278,-4.64695 16.39242,-28.83478 18.31157,-18.69362c1.91912,10.14117 3.09824,56.64207 -5.53561,86.2051c-5.05215,17.29893 -2.83424,14.92047 -2.13693,17.89109c3.52184,15.00367 47.54415,12.28581 47.54415,12.28581c0,0 -7.56512,1.28319 -2.69969,5.71606c3.71665,3.38622 10.11075,2.67944 10.11075,2.67944z" data-paper-data="{&quot;index&quot;:null}" fill="#000000" stroke="#000000" stroke-width="0" stroke-linecap="butt"/><path d="M159.20728,316.84653c0,0 -12.85242,0.6872 -18.95524,1.0135c-6.05496,0.32374 -18.09365,0.96743 -18.09365,0.96743" data-paper-data="{&quot;index&quot;:null}" fill="#ffffff" stroke="#ffffff" stroke-width="11.5" stroke-linecap="round"/><path d="M160.43567,339.82262c0,0 -12.85242,0.68719 -18.95526,1.01349c-6.05496,0.32374 -18.09364,0.96741 -18.09364,0.96741" data-paper-data="{&quot;index&quot;:null}" fill="#ffffff" stroke="#ffffff" stroke-width="11.5" stroke-linecap="round"/><path d="M180.93945,320.64244l2.05501,16.05834" fill="none" stroke="#000000" stroke-width="5" stroke-linecap="round"/></g><path d="M24.52132,202.65706v-167.46495h177.24393v167.46495z" fill="url(#color-3)" stroke="none" stroke-width="0" stroke-linecap="butt"/><g fill="#bb0000" stroke="none" stroke-width="0" stroke-linecap="butt"><path d="M104.47384,163.87224c3.95901,0 7.16843,3.3645 7.16843,7.51493c0,4.15035 -3.20942,7.51493 -7.16843,7.51493c-3.95901,0 -7.16837,-3.3645 -7.16837,-7.51493c0,-4.15035 3.20942,-7.51493 7.16837,-7.51493z" data-paper-data="{&quot;index&quot;:null}"/><path d="M120.14995,163.60546c3.95901,0 7.16843,3.3645 7.16843,7.51493c0,4.15035 -3.20942,7.51488 -7.16843,7.51488c-3.95901,0 -7.16837,-3.3645 -7.16837,-7.51488c0,-4.15035 3.20942,-7.51493 7.16837,-7.51493z" data-paper-data="{&quot;index&quot;:null}"/><path d="M88.5541,158.4886c3.95901,0 7.16843,3.3645 7.16843,7.51493c0,4.15035 -3.20942,7.51488 -7.16843,7.51488c-3.95901,0 -7.16837,-3.3645 -7.16837,-7.51488c0,-4.15035 3.20942,-7.51493 7.16837,-7.51493z" data-paper-data="{&quot;index&quot;:null}"/><path d="M73.67955,148.10667c3.95901,0 7.16843,3.3645 7.16843,7.51493c0,4.15035 -3.20942,7.51488 -7.16843,7.51488c-3.95901,0 -7.16837,-3.3645 -7.16837,-7.51488c0,-4.15035 3.20942,-7.51493 7.16837,-7.51493z" data-paper-data="{&quot;index&quot;:null}"/><path d="M136.58324,159.2986c3.95901,0 7.16837,3.3645 7.16837,7.51493c0,4.15035 -3.20942,7.51488 -7.16837,7.51488c-3.95901,0 -7.16843,-3.3645 -7.16843,-7.51488c0,-4.15035 3.20942,-7.51493 7.16843,-7.51493z" data-paper-data="{&quot;index&quot;:null}"/><path d="M148.96858,146.57054c3.95901,0 7.16837,3.3645 7.16837,7.51493c0,4.15035 -3.20942,7.51488 -7.16837,7.51488c-3.95901,0 -7.16843,-3.3645 -7.16843,-7.51488c0,-4.15035 3.20942,-7.51493 7.16843,-7.51493z" data-paper-data="{&quot;index&quot;:null}"/><path d="M158.29087,131.30363c3.95901,0 7.16843,3.3645 7.16843,7.51493c0,4.15035 -3.20942,7.51488 -7.16843,7.51488c-3.95901,0 -7.16837,-3.3645 -7.16837,-7.51488c0,-4.15035 3.20942,-7.51493 7.16837,-7.51493z" data-paper-data="{&quot;index&quot;:null}"/><path d="M164.09689,114.26869c3.95901,0 7.16843,3.3645 7.16843,7.51493c0,4.15035 -3.20942,7.51488 -7.16843,7.51488c-3.95901,0 -7.16837,-3.3645 -7.16837,-7.51488c0,-4.15035 3.20942,-7.51493 7.16837,-7.51493z" data-paper-data="{&quot;index&quot;:null}"/><path d="M66.3853,132.91874c3.95901,0 7.16837,3.3645 7.16837,7.51493c0,4.15035 -3.20942,7.51488 -7.16837,7.51488c-3.95901,0 -7.16843,-3.3645 -7.16843,-7.51488c0,-4.15035 3.20942,-7.51493 7.16843,-7.51493z" data-paper-data="{&quot;index&quot;:null}"/><path d="M60.06573,114.96008c3.95901,0 7.16837,3.3645 7.16837,7.51488c0,4.15035 -3.20942,7.51488 -7.16837,7.51488c-3.95901,0 -7.16843,-3.3645 -7.16843,-7.51488c0,-4.15035 3.20942,-7.51488 7.16843,-7.51488z" data-paper-data="{&quot;index&quot;:null}"/><path d="M96.57442,70.61089c0,-4.15035 3.20942,-7.51488 7.16837,-7.51488c3.95901,0 7.16843,3.3645 7.16843,7.51488c0,4.15035 -3.20942,7.51493 -7.16843,7.51493c-3.95901,0 -7.16837,-3.3645 -7.16837,-7.51493z" data-paper-data="{&quot;index&quot;:null}"/><path d="M112.25049,70.87768c0,-4.15035 3.20942,-7.51488 7.16837,-7.51488c3.95901,0 7.16843,3.3645 7.16843,7.51488c0,4.15035 -3.20942,7.51493 -7.16843,7.51493c-3.95901,0 -7.16837,-3.3645 -7.16837,-7.51493z" data-paper-data="{&quot;index&quot;:null}"/><path d="M80.6547,75.99452c0,-4.15035 3.20942,-7.51493 7.16837,-7.51493c3.95901,0 7.16843,3.3645 7.16843,7.51493c0,4.15035 -3.20942,7.51493 -7.16843,7.51493c-3.95901,0 -7.16837,-3.3645 -7.16837,-7.51493z" data-paper-data="{&quot;index&quot;:null}"/><path d="M65.78015,86.37645c0,-4.15035 3.20942,-7.51493 7.16837,-7.51493c3.95901,0 7.16843,3.3645 7.16843,7.51493c0,4.15035 -3.20942,7.51493 -7.16843,7.51493c-3.95901,0 -7.16837,-3.3645 -7.16837,-7.51493z" data-paper-data="{&quot;index&quot;:null}"/><path d="M128.68381,75.18461c0,-4.15035 3.20942,-7.51488 7.16843,-7.51488c3.95901,0 7.16837,3.3645 7.16837,7.51488c0,4.15035 -3.20942,7.51493 -7.16837,7.51493c-3.95901,0 -7.16843,-3.3645 -7.16843,-7.51493z" data-paper-data="{&quot;index&quot;:null}"/><path d="M141.06913,87.91262c0,-4.15035 3.20942,-7.51488 7.16843,-7.51488c3.95901,0 7.16837,3.3645 7.16837,7.51488c0,4.15035 -3.20942,7.51493 -7.16837,7.51493c-3.95901,0 -7.16843,-3.3645 -7.16843,-7.51493z" data-paper-data="{&quot;index&quot;:null}"/><path d="M150.39144,103.1795c0,-4.15035 3.20942,-7.51488 7.16837,-7.51488c3.95901,0 7.16843,3.3645 7.16843,7.51488c0,4.15035 -3.20942,7.51493 -7.16843,7.51493c-3.95901,0 -7.16837,-3.36456 -7.16837,-7.51493z" data-paper-data="{&quot;index&quot;:null}"/><path d="M58.48586,101.56441c0,-4.15035 3.20942,-7.51488 7.16843,-7.51488c3.95901,0 7.16837,3.3645 7.16837,7.51488c0,4.15035 -3.20942,7.51493 -7.16837,7.51493c-3.95901,0 -7.16843,-3.3645 -7.16843,-7.51493z" data-paper-data="{&quot;index&quot;:null}"/></g></g></g></svg>