<svg version="1.1" xmlns="http://www.w3.org/2000/svg" xmlns:xlink="http://www.w3.org/1999/xlink" width="515.01503" height="567.56758" viewBox="0,0,515.01503,567.56758"><defs><linearGradient x1="227.98799" y1="295.61562" x2="227.98799" y2="372.19219" gradientUnits="userSpaceOnUse" id="color-1"><stop offset="0" stop-color="#969696"/><stop offset="1" stop-color="#4e4e4e"/></linearGradient><linearGradient x1="117.62763" y1="280.6006" x2="117.62763" y2="313.63363" gradientUnits="userSpaceOnUse" id="color-2"><stop offset="0" stop-color="#ffffff"/><stop offset="1" stop-color="#b8b8b8"/></linearGradient><linearGradient x1="113.14327" y1="35.19208" x2="113.14327" y2="202.65706" gradientUnits="userSpaceOnUse" id="color-3"><stop offset="0" stop-color="#abebff"/><stop offset="1" stop-color="#00bfff"/></linearGradient></defs><g transform="translate(23.51352,7.68769)"><g data-paper-data="{&quot;isPaintingLayer&quot;:true}" fill-rule="nonzero" stroke-linejoin="miter" stroke-miterlimit="10" stroke-dasharray="" stroke-dashoffset="0" style="mix-blend-mode: normal"><path d="M-11.5015,367.68768v-375.37537h503.00301v375.37538z" fill="#b1832d" stroke="none" stroke-width="0" stroke-linecap="butt"/><path d="M-23.51352,559.87989v-303.3033h513.51351v303.3033z" fill="#7b5b1f" stroke="none" stroke-width="0" stroke-linecap="butt"/><path d="M44.05405,372.19219v-76.57658h367.86787v76.57658z" fill="url(#color-1)" stroke="none" stroke-width="0" stroke-linecap="butt"/><path d="M51.56156,313.63363v-33.03303h132.13213v33.03303z" fill="url(#color-2)" stroke="none" stroke-width="0" stroke-linecap="butt"/><g><path d="M377.48986,316.9019c0,0 -25.02294,-1.18522 -34.29019,-1.69632c-10.55892,-0.58238 -23.92549,-1.31958 -32.78999,-1.80851c-17.17571,-0.94732 -33.71119,-2.75266 -33.71119,-2.75266" data-paper-data="{&quot;index&quot;:null}" fill="none" stroke="#282828" stroke-width="33.5" stroke-linecap="round"/><path d="M374.23234,343.68804c0,0 -20.19877,-0.9716 -29.46601,-1.48274c-10.55892,-0.58238 -23.92549,-1.31959 -32.78999,-1.80852c-17.17571,-0.94732 -33.71118,-2.75266 -33.71118,-2.75266" data-paper-data="{&quot;index&quot;:null}" fill="none" stroke="#282828" stroke-width="33.5" stroke-linecap="round"/><path d="M385.61356,360.78559c-6.85111,-0.30335 -11.69469,-16.59395 -10.81837,-36.38609c0.87629,-19.79218 13.52377,-23.79967 20.37489,-23.49632c6.85113,0.30333 -2.7054,60.18576 -9.55653,59.88242z" data-paper-data="{&quot;index&quot;:null}" fill="#040017" stroke="none" stroke-width="0" stroke-linecap="butt"/><path d="M386.89514,331.84044c-6.85113,-0.30333 -11.69468,-16.59395 -10.81838,-36.38611c0.8763,-19.79216 13.52372,-23.79965 20.37487,-23.4963c6.85113,0.30333 -2.70538,60.18575 -9.55652,59.88241z" data-paper-data="{&quot;index&quot;:null}" fill="#040017" stroke="none" stroke-width="0" stroke-linecap="butt"/><path d="M303.64858,352.77312c3.12859,1.64818 8.40045,5.18357 10.6455,8.7912c2.1361,3.43257 1.36511,6.90432 -0.20305,9.88107c-1.35746,2.57674 -4.59934,6.48316 -8.14062,7.21492c-4.84946,1.00211 -10.42054,-1.91889 -13.94914,-3.77778c-6.10533,-3.21631 -8.4474,-10.77304 -5.23107,-16.87837c3.21631,-6.10535 10.77302,-8.4474 16.87836,-5.23107z" data-paper-data="{&quot;index&quot;:null}" fill="#ffcb9d" stroke="#000000" stroke-width="0" stroke-linecap="butt"/><path d="M210.39252,326.05471l78.08668,32.99845" data-paper-data="{&quot;index&quot;:null}" fill="none" stroke="#040017" stroke-width="26.5" stroke-linecap="round"/><path d="M277.22823,345.10996l-92.30513,-13.7631l-0.06138,-31.85082l94.20332,-4.90001c0,0 9.96931,5.31985 7.61179,25.43669c-2.55894,21.83576 -9.44856,25.07718 -9.44856,25.07718z" data-paper-data="{&quot;index&quot;:null}" fill="#040017" stroke="#000000" stroke-width="0" stroke-linecap="butt"/><path d="M304.92923,289.90591c-6.35548,2.68853 -13.68707,-0.28415 -16.37556,-6.63962c-2.68851,-6.35546 0.28418,-13.68705 6.63962,-16.37558c3.67317,-1.55384 9.4713,-3.99328 14.21864,-2.58466c3.46669,1.02861 6.36666,5.1952 7.50135,7.87748c1.31082,3.0987 1.78549,6.62321 -0.63325,9.86283c-2.54209,3.40487 -8.09399,6.48183 -11.35078,7.85948z" data-paper-data="{&quot;index&quot;:null}" fill="#ffcb9d" stroke="#000000" stroke-width="0" stroke-linecap="butt"/><path d="M209.74785,308.64256l80.59745,-26.27699" data-paper-data="{&quot;index&quot;:null}" fill="none" stroke="#040017" stroke-width="26.5" stroke-linecap="round"/><path d="M137.69263,376.92545c-34.02884,-1.23734 -60.61161,-29.82625 -59.37426,-63.85509c1.23734,-34.02884 29.82624,-60.61162 63.85507,-59.37428c34.02885,1.23735 60.61162,29.82624 59.37428,63.85509c-1.23733,34.02884 -29.82624,60.61161 -63.85509,59.37426z" data-paper-data="{&quot;index&quot;:null}" fill="#ffcb9d" stroke="#000000" stroke-width="0" stroke-linecap="butt"/><path d="M151.18237,376.18689c0,0 -73.61605,14.11729 -82.4063,-36.95694c-1.19747,-6.95767 -3.42989,-36.9703 -3.42989,-36.9703l5.36434,-2.56789c0,0 -0.31724,-10.81248 1.04428,-17.14502c1.36151,-6.33256 5.97818,-15.517 5.97818,-15.517l5.52656,5.40792c0,0 6.13027,-5.53338 12.10226,-7.78765c9.98068,-3.76743 18.91123,-27.24924 19.91358,-16.97688c1.00232,10.27238 -1.99174,56.69176 -13.24092,85.36182c-6.58252,16.7764 -4.16033,14.60633 -3.73212,17.6275c2.1627,15.25897 46.25142,16.4983 46.25142,16.4983c0,0 -7.64969,0.59987 -3.20122,5.45104c3.39814,3.70576 9.82985,3.575 9.82985,3.575z" data-paper-data="{&quot;index&quot;:null}" fill="#000000" stroke="#000000" stroke-width="0" stroke-linecap="butt"/><path d="M160.12624,281.74621c0,0 -12.86228,-0.46768 -18.96978,-0.68977c-6.0596,-0.22034 -18.10753,-0.65842 -18.10753,-0.65842" data-paper-data="{&quot;index&quot;:null}" fill="#ffffff" stroke="#ffffff" stroke-width="11.5" stroke-linecap="round"/><path d="M159.29006,304.73991c0,0 -12.86228,-0.46769 -18.9698,-0.68978c-6.0596,-0.22034 -18.10752,-0.65843 -18.10752,-0.65843" data-paper-data="{&quot;index&quot;:null}" fill="#ffffff" stroke="#ffffff" stroke-width="11.5" stroke-linecap="round"/><path d="M182.03788,303.65286l-0.60724,-16.17791" fill="none" stroke="#000000" stroke-width="5" stroke-linecap="round"/></g><path d="M24.52132,202.65706v-167.46495h177.24393v167.46495z" fill="url(#color-3)" stroke="none" stroke-width="0" stroke-linecap="butt"/><g fill="#bb0000" stroke="none" stroke-width="0" stroke-linecap="butt"><path d="M104.47383,163.87224c3.95901,0 7.16843,3.3645 7.16843,7.51493c0,4.15035 -3.20942,7.51493 -7.16843,7.51493c-3.95901,0 -7.16837,-3.3645 -7.16837,-7.51493c0,-4.15035 3.20942,-7.51493 7.16837,-7.51493z" data-paper-data="{&quot;index&quot;:null}"/><path d="M120.14994,163.60546c3.95901,0 7.16843,3.3645 7.16843,7.51493c0,4.15035 -3.20942,7.51488 -7.16843,7.51488c-3.95901,0 -7.16837,-3.3645 -7.16837,-7.51488c0,-4.15035 3.20942,-7.51493 7.16837,-7.51493z" data-paper-data="{&quot;index&quot;:null}"/><path d="M88.55409,158.4886c3.95901,0 7.16843,3.3645 7.16843,7.51493c0,4.15035 -3.20942,7.51488 -7.16843,7.51488c-3.95901,0 -7.16837,-3.3645 -7.16837,-7.51488c0,-4.15035 3.20942,-7.51493 7.16837,-7.51493z" data-paper-data="{&quot;index&quot;:null}"/><path d="M73.67955,148.10667c3.95901,0 7.16843,3.3645 7.16843,7.51493c0,4.15035 -3.20942,7.51488 -7.16843,7.51488c-3.95901,0 -7.16837,-3.3645 -7.16837,-7.51488c0,-4.15035 3.20942,-7.51493 7.16837,-7.51493z" data-paper-data="{&quot;index&quot;:null}"/><path d="M136.58323,159.2986c3.95901,0 7.16837,3.3645 7.16837,7.51493c0,4.15035 -3.20942,7.51488 -7.16837,7.51488c-3.95901,0 -7.16843,-3.3645 -7.16843,-7.51488c0,-4.15035 3.20942,-7.51493 7.16843,-7.51493z" data-paper-data="{&quot;index&quot;:null}"/><path d="M148.96858,146.57054c3.95901,0 7.16837,3.3645 7.16837,7.51493c0,4.15035 -3.20942,7.51488 -7.16837,7.51488c-3.95901,0 -7.16843,-3.3645 -7.16843,-7.51488c0,-4.15035 3.20942,-7.51493 7.16843,-7.51493z" data-paper-data="{&quot;index&quot;:null}"/><path d="M158.29086,131.30363c3.95901,0 7.16843,3.3645 7.16843,7.51493c0,4.15035 -3.20942,7.51488 -7.16843,7.51488c-3.95901,0 -7.16837,-3.3645 -7.16837,-7.51488c0,-4.15035 3.20942,-7.51493 7.16837,-7.51493z" data-paper-data="{&quot;index&quot;:null}"/><path d="M164.09689,114.26869c3.95901,0 7.16843,3.3645 7.16843,7.51493c0,4.15035 -3.20942,7.51488 -7.16843,7.51488c-3.95901,0 -7.16837,-3.3645 -7.16837,-7.51488c0,-4.15035 3.20942,-7.51493 7.16837,-7.51493z" data-paper-data="{&quot;index&quot;:null}"/><path d="M66.38529,132.91874c3.95901,0 7.16837,3.3645 7.16837,7.51493c0,4.15035 -3.20942,7.51488 -7.16837,7.51488c-3.95901,0 -7.16843,-3.3645 -7.16843,-7.51488c0,-4.15035 3.20942,-7.51493 7.16843,-7.51493z" data-paper-data="{&quot;index&quot;:null}"/><path d="M60.06572,114.96008c3.95901,0 7.16837,3.3645 7.16837,7.51488c0,4.15035 -3.20942,7.51488 -7.16837,7.51488c-3.95901,0 -7.16843,-3.3645 -7.16843,-7.51488c0,-4.15035 3.20942,-7.51488 7.16843,-7.51488z" data-paper-data="{&quot;index&quot;:null}"/><path d="M96.57441,70.61089c0,-4.15035 3.20942,-7.51488 7.16837,-7.51488c3.95901,0 7.16843,3.3645 7.16843,7.51488c0,4.15035 -3.20942,7.51493 -7.16843,7.51493c-3.95901,0 -7.16837,-3.3645 -7.16837,-7.51493z" data-paper-data="{&quot;index&quot;:null}"/><path d="M112.25048,70.87768c0,-4.15035 3.20942,-7.51488 7.16837,-7.51488c3.95901,0 7.16843,3.3645 7.16843,7.51488c0,4.15035 -3.20942,7.51493 -7.16843,7.51493c-3.95901,0 -7.16837,-3.3645 -7.16837,-7.51493z" data-paper-data="{&quot;index&quot;:null}"/><path d="M80.65469,75.99452c0,-4.15035 3.20942,-7.51493 7.16837,-7.51493c3.95901,0 7.16843,3.3645 7.16843,7.51493c0,4.15035 -3.20942,7.51493 -7.16843,7.51493c-3.95901,0 -7.16837,-3.3645 -7.16837,-7.51493z" data-paper-data="{&quot;index&quot;:null}"/><path d="M65.78015,86.37645c0,-4.15035 3.20942,-7.51493 7.16837,-7.51493c3.95901,0 7.16843,3.3645 7.16843,7.51493c0,4.15035 -3.20942,7.51493 -7.16843,7.51493c-3.95901,0 -7.16837,-3.3645 -7.16837,-7.51493z" data-paper-data="{&quot;index&quot;:null}"/><path d="M128.6838,75.18461c0,-4.15035 3.20942,-7.51488 7.16843,-7.51488c3.95901,0 7.16837,3.3645 7.16837,7.51488c0,4.15035 -3.20942,7.51493 -7.16837,7.51493c-3.95901,0 -7.16843,-3.3645 -7.16843,-7.51493z" data-paper-data="{&quot;index&quot;:null}"/><path d="M141.06913,87.91262c0,-4.15035 3.20942,-7.51488 7.16843,-7.51488c3.95901,0 7.16837,3.3645 7.16837,7.51488c0,4.15035 -3.20942,7.51493 -7.16837,7.51493c-3.95901,0 -7.16843,-3.3645 -7.16843,-7.51493z" data-paper-data="{&quot;index&quot;:null}"/><path d="M150.39143,103.1795c0,-4.15035 3.20942,-7.51488 7.16837,-7.51488c3.95901,0 7.16843,3.3645 7.16843,7.51488c0,4.15035 -3.20942,7.51493 -7.16843,7.51493c-3.95901,0 -7.16837,-3.36456 -7.16837,-7.51493z" data-paper-data="{&quot;index&quot;:null}"/><path d="M58.48585,101.56441c0,-4.15035 3.20942,-7.51488 7.16843,-7.51488c3.95901,0 7.16837,3.3645 7.16837,7.51488c0,4.15035 -3.20942,7.51493 -7.16837,7.51493c-3.95901,0 -7.16843,-3.3645 -7.16843,-7.51493z" data-paper-data="{&quot;index&quot;:null}"/></g></g></g></svg>