<svg version="1.1" xmlns="http://www.w3.org/2000/svg" xmlns:xlink="http://www.w3.org/1999/xlink" width="678.24477" height="444.92052" viewBox="0,0,678.24477,444.92052"><defs><linearGradient x1="263.83934" y1="118.1754" x2="263.83934" y2="144.50786" gradientUnits="userSpaceOnUse" id="color-1"><stop offset="0" stop-color="#ff0000"/><stop offset="1" stop-color="#980000"/></linearGradient><linearGradient x1="198.99247" y1="241.60943" x2="198.99247" y2="273.41004" gradientUnits="userSpaceOnUse" id="color-2"><stop offset="0" stop-color="#ffffff"/><stop offset="1" stop-color="#747474"/></linearGradient><linearGradient x1="205.65913" y1="197.94276" x2="205.65913" y2="229.74338" gradientUnits="userSpaceOnUse" id="color-3"><stop offset="0" stop-color="#ffffff"/><stop offset="1" stop-color="#747474"/></linearGradient><linearGradient x1="267.99246" y1="199.17683" x2="267.99246" y2="230.5093" gradientUnits="userSpaceOnUse" id="color-4"><stop offset="0" stop-color="#ffffff"/><stop offset="1" stop-color="#747474"/></linearGradient><linearGradient x1="263.65914" y1="241.02079" x2="263.65914" y2="273.99869" gradientUnits="userSpaceOnUse" id="color-5"><stop offset="0" stop-color="#ffffff"/><stop offset="1" stop-color="#747474"/></linearGradient></defs><g transform="translate(176.30475,-104.05799)"><g data-paper-data="{&quot;isPaintingLayer&quot;:true}" fill-rule="nonzero" stroke-linejoin="miter" stroke-miterlimit="10" stroke-dasharray="" stroke-dashoffset="0" style="mix-blend-mode: normal"><path d="M-11.00593,440.00001v-247.1021h512.94595v247.1021z" fill="#583600" stroke="none" stroke-width="0" stroke-linecap="butt"/><path d="M151.59859,329.50103l30.23386,-225.44304l116.13552,0.28368l12.70682,226.4786z" fill="#000000" stroke="none" stroke-width="NaN" stroke-linecap="butt"/><path d="M240.07671,144.43732l4.16511,-26.26192l42.19195,0.07054l1.16822,26.26192z" fill="url(#color-1)" stroke="none" stroke-width="0" stroke-linecap="butt"/><path d="M171.9806,272.44651l5.54885,-30.83709l48.47489,0.96353l-3.14874,30.83709z" fill="url(#color-2)" stroke="none" stroke-width="0" stroke-linecap="butt"/><text transform="translate(188.75266,310.16312) rotate(2.16901) scale(0.95344,0.69442) skewX(-1.75383)" font-size="40" xml:space="preserve" fill="#ffffff" fill-rule="nonzero" stroke="#ffffff" stroke-width="1" stroke-linecap="butt" stroke-linejoin="miter" stroke-miterlimit="10" stroke-dasharray="" stroke-dashoffset="0" font-family="Handwriting" font-weight="normal" text-anchor="start" style="mix-blend-mode: normal"><tspan x="0" dy="0">Suny</tspan></text><path d="M178.64727,228.77985l5.54884,-30.83709l48.47489,0.96353l-3.14874,30.83709z" fill="url(#color-3)" stroke="none" stroke-width="0" stroke-linecap="butt"/><path d="M241.37825,229.55996l5.46716,-30.38313l47.76127,0.94934l-3.10238,30.38313z" fill="url(#color-4)" stroke="none" stroke-width="0" stroke-linecap="butt"/><path d="M235.64727,272.99949l5.75427,-31.9787l50.26947,0.9992l-3.26531,31.9787z" fill="url(#color-5)" stroke="none" stroke-width="0" stroke-linecap="butt"/><g><path d="M-23.54661,343.76989c5.45989,-6.44222 16.42773,-16.90572 25.99936,-20.27508c9.10707,-3.20581 16.80282,0.38643 22.93237,5.58132c5.30588,4.49682 12.73765,14.07451 12.61317,22.70912c-0.1705,11.8243 -9.86056,23.30309 -16.01854,30.56898c-10.65478,12.57177 -29.48363,14.12576 -42.05538,3.47096c-12.57175,-10.65478 -14.12576,-29.48361 -3.47096,-42.05538z" fill="#ffcb9d" stroke="#000000" stroke-width="0" stroke-linecap="butt"/><path d="M-151.30475,523.97851l138.57711,-147.58065" data-paper-data="{&quot;index&quot;:null}" fill="none" stroke="#040017" stroke-width="50" stroke-linecap="round"/></g><path d="M276.69451,132.01054c-0.19488,3.67361 -6.16866,6.51561 -13.3428,6.34779c-7.17415,-0.16782 -12.83196,-3.28193 -12.63708,-6.95554c0.19488,-3.67361 6.16866,-6.51561 13.34281,-6.34778c7.17415,0.16782 12.83196,3.28193 12.63708,6.95554z" fill="none" stroke="#e6e6e6" stroke-width="3" stroke-linecap="butt"/><path d="M264.42357,122.03359l-0.90844,15.11715" fill="none" stroke="#e6e6e6" stroke-width="3.5" stroke-linecap="round"/></g></g></svg>