<svg version="1.1" xmlns="http://www.w3.org/2000/svg" xmlns:xlink="http://www.w3.org/1999/xlink" width="636.91187" height="375.81225" viewBox="0,0,636.91187,375.81225"><defs><linearGradient x1="240.00003" y1="2.09387" x2="240.00003" y2="357.90614" gradientUnits="userSpaceOnUse" id="color-1"><stop offset="0" stop-color="#191919"/><stop offset="1" stop-color="#0c0c0c"/></linearGradient><linearGradient x1="237.74781" y1="10.33038" x2="237.74781" y2="345.16523" gradientUnits="userSpaceOnUse" id="color-2"><stop offset="0" stop-color="#000000"/><stop offset="1" stop-color="#000d2f"/></linearGradient></defs><g transform="translate(78.45592,7.90612)"><g data-paper-data="{&quot;isPaintingLayer&quot;:true}" fill-rule="nonzero" stroke-linecap="butt" stroke-linejoin="miter" stroke-miterlimit="10" stroke-dasharray="" stroke-dashoffset="0" style="mix-blend-mode: normal"><path d="M-68.45592,357.90614v-355.81225h616.91187v355.81225z" fill="url(#color-1)" stroke="#575757" stroke-width="20"/><path d="M-25.01496,345.16523v-334.83483h525.52553v334.83483z" fill="url(#color-2)" stroke="#ffffff" stroke-width="0"/><g fill="#bb0000" stroke="none" stroke-width="0"><path d="M115.55356,288.64033c5.61627,0 10.16917,4.7729 10.16917,10.66073c0,5.88771 -4.5529,10.66073 -10.16917,10.66073c-5.61627,0 -10.16909,-4.7729 -10.16909,-10.66073c0,-5.88771 4.5529,-10.66073 10.16909,-10.66073z" data-paper-data="{&quot;index&quot;:null}"/><path d="M137.79178,288.26188c5.61627,0 10.16917,4.7729 10.16917,10.66073c0,5.88771 -4.5529,10.66065 -10.16917,10.66065c-5.61627,0 -10.16909,-4.7729 -10.16909,-10.66065c0,-5.88771 4.5529,-10.66073 10.16909,-10.66073z" data-paper-data="{&quot;index&quot;:null}"/><path d="M92.96972,281.00308c5.61627,0 10.16917,4.7729 10.16917,10.66073c0,5.88771 -4.5529,10.66065 -10.16917,10.66065c-5.61627,0 -10.16909,-4.7729 -10.16909,-10.66065c0,-5.88771 4.5529,-10.66073 10.16909,-10.66073z" data-paper-data="{&quot;index&quot;:null}"/><path d="M71.86861,266.27521c5.61627,0 10.16917,4.7729 10.16917,10.66073c0,5.88771 -4.5529,10.66065 -10.16917,10.66065c-5.61627,0 -10.16909,-4.7729 -10.16909,-10.66065c0,-5.88771 4.5529,-10.66073 10.16909,-10.66073z" data-paper-data="{&quot;index&quot;:null}"/><path d="M161.10413,282.15214c5.61627,0 10.16909,4.7729 10.16909,10.66073c0,5.88771 -4.5529,10.66065 -10.16909,10.66065c-5.61627,0 -10.16917,-4.7729 -10.16917,-10.66065c0,-5.88771 4.5529,-10.66073 10.16917,-10.66073z" data-paper-data="{&quot;index&quot;:null}"/><path d="M178.67408,264.09604c5.61627,0 10.16909,4.7729 10.16909,10.66073c0,5.88771 -4.5529,10.66065 -10.16909,10.66065c-5.61627,0 -10.16917,-4.7729 -10.16917,-10.66065c0,-5.88771 4.5529,-10.66073 10.16917,-10.66073z" data-paper-data="{&quot;index&quot;:null}"/><path d="M191.8987,242.43831c5.61627,0 10.16917,4.7729 10.16917,10.66073c0,5.88771 -4.5529,10.66065 -10.16917,10.66065c-5.61627,0 -10.16909,-4.7729 -10.16909,-10.66065c0,-5.88771 4.5529,-10.66073 10.16909,-10.66073z" data-paper-data="{&quot;index&quot;:null}"/><path d="M200.13518,218.27245c5.61627,0 10.16917,4.7729 10.16917,10.66073c0,5.88771 -4.5529,10.66065 -10.16917,10.66065c-5.61627,0 -10.16909,-4.7729 -10.16909,-10.66065c0,-5.88771 4.5529,-10.66073 10.16909,-10.66073z" data-paper-data="{&quot;index&quot;:null}"/><path d="M61.52093,244.72952c5.61627,0 10.16909,4.7729 10.16909,10.66073c0,5.88771 -4.5529,10.66065 -10.16909,10.66065c-5.61627,0 -10.16917,-4.7729 -10.16917,-10.66065c0,-5.88771 4.5529,-10.66073 10.16917,-10.66073z" data-paper-data="{&quot;index&quot;:null}"/><path d="M52.55595,219.25326c5.61627,0 10.16909,4.7729 10.16909,10.66065c0,5.88771 -4.5529,10.66065 -10.16909,10.66065c-5.61627,0 -10.16917,-4.7729 -10.16917,-10.66065c0,-5.88771 4.5529,-10.66065 10.16917,-10.66065z" data-paper-data="{&quot;index&quot;:null}"/><path d="M104.34739,156.33924c0,-5.88771 4.5529,-10.66065 10.16909,-10.66065c5.61627,0 10.16917,4.7729 10.16917,10.66065c0,5.88771 -4.5529,10.66073 -10.16917,10.66073c-5.61627,0 -10.16909,-4.7729 -10.16909,-10.66073z" data-paper-data="{&quot;index&quot;:null}"/><path d="M126.58556,156.71771c0,-5.88771 4.5529,-10.66065 10.16909,-10.66065c5.61627,0 10.16917,4.7729 10.16917,10.66065c0,5.88771 -4.5529,10.66073 -10.16917,10.66073c-5.61627,0 -10.16909,-4.7729 -10.16909,-10.66073z" data-paper-data="{&quot;index&quot;:null}"/><path d="M81.76358,163.97649c0,-5.88771 4.5529,-10.66073 10.16909,-10.66073c5.61627,0 10.16917,4.7729 10.16917,10.66073c0,5.88771 -4.5529,10.66073 -10.16917,10.66073c-5.61627,0 -10.16909,-4.7729 -10.16909,-10.66073z" data-paper-data="{&quot;index&quot;:null}"/><path d="M60.66247,178.70436c0,-5.88771 4.5529,-10.66073 10.16909,-10.66073c5.61627,0 10.16917,4.7729 10.16917,10.66073c0,5.88771 -4.5529,10.66073 -10.16917,10.66073c-5.61627,0 -10.16909,-4.7729 -10.16909,-10.66073z" data-paper-data="{&quot;index&quot;:null}"/><path d="M149.89795,162.82755c0,-5.88771 4.5529,-10.66065 10.16917,-10.66065c5.61627,0 10.16909,4.7729 10.16909,10.66065c0,5.88771 -4.5529,10.66073 -10.16909,10.66073c-5.61627,0 -10.16917,-4.7729 -10.16917,-10.66073z" data-paper-data="{&quot;index&quot;:null}"/><path d="M167.46785,180.88357c0,-5.88771 4.5529,-10.66065 10.16917,-10.66065c5.61627,0 10.16909,4.7729 10.16909,10.66065c0,5.88771 -4.5529,10.66073 -10.16909,10.66073c-5.61627,0 -10.16917,-4.7729 -10.16917,-10.66073z" data-paper-data="{&quot;index&quot;:null}"/><path d="M180.69252,202.54126c0,-5.88771 4.5529,-10.66065 10.16909,-10.66065c5.61627,0 10.16917,4.7729 10.16917,10.66065c0,5.88771 -4.5529,10.66073 -10.16917,10.66073c-5.61627,0 -10.16909,-4.77298 -10.16909,-10.66073z" data-paper-data="{&quot;index&quot;:null}"/><path d="M50.31473,200.25009c0,-5.88771 4.5529,-10.66065 10.16917,-10.66065c5.61627,0 10.16909,4.7729 10.16909,10.66065c0,5.88771 -4.5529,10.66073 -10.16909,10.66073c-5.61627,0 -10.16917,-4.7729 -10.16917,-10.66073z" data-paper-data="{&quot;index&quot;:null}"/></g><path d="M23.03303,109.42943v-72.07207h418.91892v72.07207z" fill="#ffffff" stroke="none" stroke-width="0"/><text transform="translate(35.04505,81.78609) scale(0.65572,0.65572)" font-size="40" xml:space="preserve" fill="#000000" fill-rule="nonzero" stroke="none" stroke-width="1" stroke-linecap="butt" stroke-linejoin="miter" stroke-miterlimit="10" stroke-dasharray="" stroke-dashoffset="0" font-family="Sans Serif" font-weight="normal" text-anchor="start" style="mix-blend-mode: normal"><tspan x="0" dy="0">2021 4th of July Fireworks Show</tspan></text></g></g></svg>