<svg version="1.1" xmlns="http://www.w3.org/2000/svg" xmlns:xlink="http://www.w3.org/1999/xlink" width="514.73678" height="652.41576" viewBox="0,0,514.73678,652.41576"><g transform="translate(11.50151,7.68769)"><g data-paper-data="{&quot;isPaintingLayer&quot;:true}" fill-rule="nonzero" stroke-linejoin="miter" stroke-miterlimit="10" stroke-dasharray="" stroke-dashoffset="0" style="mix-blend-mode: normal"><path d="M-11.50151,367.68768v-375.37537h503.00301v375.37538z" fill="#b1832d" stroke="none" stroke-width="0" stroke-linecap="butt"/><path d="M152.48556,623.96988c0.36488,-11.69884 28.05833,-20.32821 61.85503,-19.27412c33.79678,1.05403 40.91804,22.54877 40.55314,34.24763c-0.36485,11.69887 -102.77307,-3.27464 -102.40817,-14.97351z" data-paper-data="{&quot;index&quot;:null}" fill="#040017" stroke="none" stroke-width="0" stroke-linecap="butt"/><path d="M201.91178,625.51143c0.36484,-11.69888 28.05833,-20.32818 61.85506,-19.27413c33.79674,1.05405 40.91801,22.5487 40.55312,34.2476c-0.36484,11.69888 -102.77303,-3.2746 -102.40816,-14.97349z" data-paper-data="{&quot;index&quot;:null}" fill="#040017" stroke="none" stroke-width="0" stroke-linecap="butt"/><g><path d="M484.48527,559.74723c0,0 -25.91496,-34.00665 -35.41828,-46.6802c-10.82784,-14.44003 -24.53484,-32.7197 -33.62508,-44.84251c-17.61313,-23.48892 -33.40213,-47.08281 -33.40213,-47.08281" data-paper-data="{&quot;index&quot;:null}" fill="none" stroke="#282828" stroke-width="37.5" stroke-linecap="round"/><path d="M445.89963,584.88887c0,0 -20.89937,-27.46684 -30.40262,-40.14042c-10.82784,-14.44003 -24.53483,-32.7197 -33.62507,-44.84252c-17.61313,-23.48892 -33.40211,-47.08279 -33.40211,-47.08279" data-paper-data="{&quot;index&quot;:null}" fill="none" stroke="#282828" stroke-width="37.5" stroke-linecap="round"/><path d="M356.55547,502.605c1.27958,5.89814 2.44486,16.6689 0.19366,23.56286c-2.142,6.55938 -7.52587,9.36212 -13.13775,10.57964c-4.85777,1.05387 -13.52173,1.10416 -18.36494,-2.72128c-6.63235,-5.23854 -8.92909,-15.72608 -10.37228,-22.3783c-2.49713,-11.50995 4.80921,-22.86505 16.31919,-25.36215c11.50997,-2.49714 22.86502,4.80918 25.36213,16.31916z" data-paper-data="{&quot;index&quot;:null}" fill="#ffcb9d" stroke="#000000" stroke-width="0" stroke-linecap="butt"/><path d="M287.22256,349.0666l42.5745,138.27948" data-paper-data="{&quot;index&quot;:null}" fill="none" stroke="#040017" stroke-width="45" stroke-linecap="round"/><path d="M337.57363,459.662l-83.32127,-135.75157l41.56268,-35.03832l109.79795,117.74874c0,0 3.98865,18.86905 -24.89222,37.86705c-31.34864,20.62136 -43.147,15.17404 -43.147,15.17404z" data-paper-data="{&quot;index&quot;:null}" fill="#040017" stroke="#000000" stroke-width="0" stroke-linecap="butt"/><path d="M434.44006,430.8946c-10.35072,-5.61948 -14.1861,-18.56591 -8.5666,-28.91657c5.61947,-10.35068 18.5659,-14.18604 28.9166,-8.56664c5.98223,3.2478 15.4075,8.38865 18.5798,16.22231c2.3166,5.72042 -0.15711,14.02395 -2.52873,18.39241c-2.73986,5.04662 -6.9377,9.43065 -13.83446,9.6507c-7.24852,0.23128 -17.26241,-3.9026 -22.56646,-6.7823z" data-paper-data="{&quot;index&quot;:null}" fill="#ffcb9d" stroke="#000000" stroke-width="0" stroke-linecap="butt"/><path d="M308.15015,323.82701l120.83179,79.58318" data-paper-data="{&quot;index&quot;:null}" fill="none" stroke="#040017" stroke-width="45" stroke-linecap="round"/><path d="M142.84155,312.20378c-35.73133,-45.83484 -27.54081,-111.95733 18.29407,-147.68866c45.83484,-35.73133 111.95733,-27.54082 147.68866,18.29401c35.73131,45.83486 27.54082,111.95732 -18.29404,147.68867c-45.83482,35.73133 -111.95732,27.54082 -147.68864,-18.29406z" data-paper-data="{&quot;index&quot;:null}" fill="#ffcb9d" stroke="#000000" stroke-width="0" stroke-linecap="butt"/><path d="M158.61262,329.02469c0,0 -99.24954,-80.72403 -42.14167,-148.27002c7.77962,-9.20158 44.55687,-45.05997 44.55687,-45.05997l9.24397,4.19297c0,0 13.78407,-12.28195 23.55526,-17.45272c9.77119,-5.1708 26.84261,-9.21711 26.84261,-9.21711l-1.00261,13.15888c0,0 13.96062,1.93928 23.46162,7.27066c15.8785,8.91011 56.3718,-5.18998 44.04561,7.39461c-12.32621,12.58459 -76.28401,59.61914 -126.10331,76.3831c-29.15198,9.80948 -23.65714,10.59359 -27.13593,14.46918c-17.57027,19.57428 29.19974,78.5599 29.19974,78.5599c0,0 -9.18003,-9.34 -10.63819,1.79873c-1.1139,8.50877 6.11617,16.7717 6.11617,16.7717z" data-paper-data="{&quot;index&quot;:null}" fill="#000000" stroke="#000000" stroke-width="0" stroke-linecap="butt"/><path d="M291.86602,237.06062c0,0 -13.50582,-17.32471 -19.91885,-25.55117c-6.36276,-8.16192 -19.01347,-24.38977 -19.01347,-24.38977" data-paper-data="{&quot;index&quot;:null}" fill="none" stroke="#000000" stroke-width="20" stroke-linecap="round"/><path d="M260.89477,261.20459c0,0 -13.50579,-17.32473 -19.91886,-25.5512c-6.36276,-8.16192 -19.01345,-24.38977 -19.01345,-24.38977" data-paper-data="{&quot;index&quot;:null}" fill="none" stroke="#000000" stroke-width="20" stroke-linecap="round"/><path d="M308.34938,272.6091l-21.06679,17.13453" fill="none" stroke="#000000" stroke-width="8" stroke-linecap="round"/><path d="M215.3964,232.96944l-14.96981,-18.30748l59.28133,-48.47367l14.96981,18.30748z" fill="#ffcb9d" stroke="none" stroke-width="0" stroke-linecap="butt"/></g></g></g></svg>