<svg version="1.1" xmlns="http://www.w3.org/2000/svg" xmlns:xlink="http://www.w3.org/1999/xlink" width="515.01503" height="567.56758" viewBox="0,0,515.01503,567.56758"><defs><linearGradient x1="227.988" y1="295.61562" x2="227.988" y2="372.19219" gradientUnits="userSpaceOnUse" id="color-1"><stop offset="0" stop-color="#969696"/><stop offset="1" stop-color="#4e4e4e"/></linearGradient><linearGradient x1="117.62764" y1="280.6006" x2="117.62764" y2="313.63363" gradientUnits="userSpaceOnUse" id="color-2"><stop offset="0" stop-color="#ffffff"/><stop offset="1" stop-color="#b8b8b8"/></linearGradient><linearGradient x1="113.14328" y1="35.19208" x2="113.14328" y2="202.65706" gradientUnits="userSpaceOnUse" id="color-3"><stop offset="0" stop-color="#abebff"/><stop offset="1" stop-color="#00bfff"/></linearGradient></defs><g transform="translate(23.51352,7.68769)"><g data-paper-data="{&quot;isPaintingLayer&quot;:true}" fill-rule="nonzero" stroke-linejoin="miter" stroke-miterlimit="10" stroke-dasharray="" stroke-dashoffset="0" style="mix-blend-mode: normal"><path d="M-11.50149,367.68768v-375.37537h503.00301v375.37538z" fill="#b1832d" stroke="none" stroke-width="0" stroke-linecap="butt"/><path d="M-23.51351,559.87989v-303.3033h513.51351v303.3033z" fill="#7b5b1f" stroke="none" stroke-width="0" stroke-linecap="butt"/><path d="M44.05406,372.19219v-76.57658h367.86787v76.57658z" fill="url(#color-1)" stroke="none" stroke-width="0" stroke-linecap="butt"/><path d="M51.56157,313.63363v-33.03303h132.13213v33.03303z" fill="url(#color-2)" stroke="none" stroke-width="0" stroke-linecap="butt"/><g><path d="M374.82497,360.41096c0,0 -24.64094,4.51401 -33.78306,6.1155c-10.41636,1.82466 -23.60246,4.13454 -32.34728,5.66639c-16.94381,2.9681 -33.45841,4.95546 -33.45841,4.95546" data-paper-data="{&quot;index&quot;:null}" fill="none" stroke="#282828" stroke-width="33.5" stroke-linecap="round"/><path d="M377.71997,387.2387c0,0 -19.89379,3.62926 -29.03591,5.23071c-10.41636,1.82466 -23.60246,4.13453 -32.34728,5.66638c-16.94381,2.9681 -33.4584,4.95546 -33.4584,4.95546" data-paper-data="{&quot;index&quot;:null}" fill="none" stroke="#282828" stroke-width="33.5" stroke-linecap="round"/><path d="M392.67842,401.31362c-6.74173,1.25651 -15.14969,-13.51339 -18.77964,-32.98954c-3.62999,-19.47618 7.7809,-26.24451 14.52264,-27.50102c6.74174,-1.25653 10.99875,59.23405 4.257,60.49057z" data-paper-data="{&quot;index&quot;:null}" fill="#040017" stroke="none" stroke-width="0" stroke-linecap="butt"/><path d="M387.36977,372.8306c-6.74174,1.25653 -15.14968,-13.5134 -18.77966,-32.98956c-3.62998,-19.47616 7.78085,-26.24448 14.52262,-27.501c6.74174,-1.25653 10.99876,59.23403 4.25701,60.49056z" data-paper-data="{&quot;index&quot;:null}" fill="#040017" stroke="none" stroke-width="0" stroke-linecap="butt"/><path d="M311.02911,412.07688c3.42062,0.89662 9.3563,3.14587 12.36023,6.15115c2.85815,2.85945 2.89365,6.4156 2.04058,9.6702c-0.73847,2.81726 -3.01115,7.35651 -6.29461,8.87145c-4.49639,2.0746 -10.58434,0.49155 -14.4423,-0.51969c-6.67521,-1.74967 -10.66821,-8.57941 -8.91853,-15.25462c1.74966,-6.67523 8.57939,-10.66821 15.25461,-8.91852z" data-paper-data="{&quot;index&quot;:null}" fill="#ffcb9d" stroke="#000000" stroke-width="0" stroke-linecap="butt"/><path d="M297.67668,421.62997l-83.53188,-14.45174" data-paper-data="{&quot;index&quot;:null}" fill="none" stroke="#040017" stroke-width="26.5" stroke-linecap="round"/><path d="M283.55965,410.5979l-93.02335,7.50447l-7.27492,-31.00894l90.64446,-26.11241c0,0 10.91525,2.92322 13.17606,23.05116c2.45401,21.8478 -3.52223,26.56566 -3.52223,26.56566z" data-paper-data="{&quot;index&quot;:null}" fill="#040017" stroke="#000000" stroke-width="0" stroke-linecap="butt"/><path d="M298.03522,350.55383c-5.58124,4.05834 -13.39563,2.82375 -17.45393,-2.75748c-4.05832,-5.58122 -2.82372,-13.39562 2.75748,-17.45395c3.22569,-2.34553 8.32049,-6.035 13.26352,-5.7384c3.60958,0.21656 7.37802,3.61791 9.09083,5.97343c1.97869,2.72121 3.23942,6.04657 1.61743,9.74989c-1.70471,3.89222 -6.41526,8.14685 -9.27531,10.22645z" data-paper-data="{&quot;index&quot;:null}" fill="#ffcb9d" stroke="#000000" stroke-width="0" stroke-linecap="butt"/><path d="M282.12231,346.51319l-72.54977,43.85156" data-paper-data="{&quot;index&quot;:null}" fill="none" stroke="#040017" stroke-width="26.5" stroke-linecap="round"/><path d="M154.85848,473.19518c-33.42453,6.50334 -65.79249,-15.32061 -72.29582,-48.74515c-6.50334,-33.42453 15.3206,-65.79249 48.74513,-72.29584c33.42455,-6.50334 65.79249,15.3206 72.29584,48.74515c6.50335,33.42453 -15.3206,65.79248 -48.74515,72.29582z" data-paper-data="{&quot;index&quot;:null}" fill="#ffcb9d" stroke="#000000" stroke-width="0" stroke-linecap="butt"/><path d="M167.83024,469.42001c0,0 -68.50438,30.42647 -88.63592,-17.32881c-2.74245,-6.50554 -11.71557,-35.23227 -11.71557,-35.23227l4.64319,-3.71631c0,0 -2.75833,-10.45954 -2.86671,-16.93589c-0.10839,-6.47636 2.30772,-16.46786 2.30772,-16.46786l6.60794,4.01541c0,0 4.71744,-6.77822 10.02353,-10.32672c8.86779,-5.93041 12.24688,-30.82482 15.55016,-21.04656c3.30326,9.77829 10.90236,55.66921 6.44021,86.14224c-2.61106,17.83142 -0.74342,15.16907 0.35804,18.0147c5.56308,14.37239 48.78643,5.59213 48.78643,5.59213c0,0 -7.31494,2.31715 -1.88318,6.03451c4.14927,2.83965 10.38416,1.25532 10.38416,1.25532z" data-paper-data="{&quot;index&quot;:null}" fill="#000000" stroke="#000000" stroke-width="0" stroke-linecap="butt"/><path d="M155.14806,375.40832c0,0 -12.63386,2.45816 -18.6329,3.62537c-5.95199,1.15806 -17.78597,3.46058 -17.78597,3.46058" data-paper-data="{&quot;index&quot;:null}" fill="#ffffff" stroke="#ffffff" stroke-width="11.5" stroke-linecap="round"/><path d="M159.54236,397.99371c0,0 -12.63386,2.45815 -18.63292,3.62536c-5.95199,1.15806 -17.78596,3.46056 -17.78596,3.46056" data-paper-data="{&quot;index&quot;:null}" fill="#ffffff" stroke="#ffffff" stroke-width="11.5" stroke-linecap="round"/><path d="M177.19637,376.16208l4.25622,15.6198" fill="none" stroke="#000000" stroke-width="5" stroke-linecap="round"/></g><path d="M24.52133,202.65706v-167.46495h177.24393v167.46495z" fill="url(#color-3)" stroke="none" stroke-width="0" stroke-linecap="butt"/><g fill="#bb0000" stroke="none" stroke-width="0" stroke-linecap="butt"><path d="M104.47385,163.87224c3.95901,0 7.16843,3.3645 7.16843,7.51493c0,4.15035 -3.20942,7.51493 -7.16843,7.51493c-3.95901,0 -7.16837,-3.3645 -7.16837,-7.51493c0,-4.15035 3.20942,-7.51493 7.16837,-7.51493z" data-paper-data="{&quot;index&quot;:null}"/><path d="M120.14996,163.60546c3.95901,0 7.16843,3.3645 7.16843,7.51493c0,4.15035 -3.20942,7.51488 -7.16843,7.51488c-3.95901,0 -7.16837,-3.3645 -7.16837,-7.51488c0,-4.15035 3.20942,-7.51493 7.16837,-7.51493z" data-paper-data="{&quot;index&quot;:null}"/><path d="M88.55411,158.4886c3.95901,0 7.16843,3.3645 7.16843,7.51493c0,4.15035 -3.20942,7.51488 -7.16843,7.51488c-3.95901,0 -7.16837,-3.3645 -7.16837,-7.51488c0,-4.15035 3.20942,-7.51493 7.16837,-7.51493z" data-paper-data="{&quot;index&quot;:null}"/><path d="M73.67955,148.10667c3.95901,0 7.16843,3.3645 7.16843,7.51493c0,4.15035 -3.20942,7.51488 -7.16843,7.51488c-3.95901,0 -7.16837,-3.3645 -7.16837,-7.51488c0,-4.15035 3.20942,-7.51493 7.16837,-7.51493z" data-paper-data="{&quot;index&quot;:null}"/><path d="M136.58325,159.2986c3.95901,0 7.16837,3.3645 7.16837,7.51493c0,4.15035 -3.20942,7.51488 -7.16837,7.51488c-3.95901,0 -7.16843,-3.3645 -7.16843,-7.51488c0,-4.15035 3.20942,-7.51493 7.16843,-7.51493z" data-paper-data="{&quot;index&quot;:null}"/><path d="M148.96858,146.57054c3.95901,0 7.16837,3.3645 7.16837,7.51493c0,4.15035 -3.20942,7.51488 -7.16837,7.51488c-3.95901,0 -7.16843,-3.3645 -7.16843,-7.51488c0,-4.15035 3.20942,-7.51493 7.16843,-7.51493z" data-paper-data="{&quot;index&quot;:null}"/><path d="M158.29088,131.30363c3.95901,0 7.16843,3.3645 7.16843,7.51493c0,4.15035 -3.20942,7.51488 -7.16843,7.51488c-3.95901,0 -7.16837,-3.3645 -7.16837,-7.51488c0,-4.15035 3.20942,-7.51493 7.16837,-7.51493z" data-paper-data="{&quot;index&quot;:null}"/><path d="M164.09689,114.26869c3.95901,0 7.16843,3.3645 7.16843,7.51493c0,4.15035 -3.20942,7.51488 -7.16843,7.51488c-3.95901,0 -7.16837,-3.3645 -7.16837,-7.51488c0,-4.15035 3.20942,-7.51493 7.16837,-7.51493z" data-paper-data="{&quot;index&quot;:null}"/><path d="M66.38531,132.91874c3.95901,0 7.16837,3.3645 7.16837,7.51493c0,4.15035 -3.20942,7.51488 -7.16837,7.51488c-3.95901,0 -7.16843,-3.3645 -7.16843,-7.51488c0,-4.15035 3.20942,-7.51493 7.16843,-7.51493z" data-paper-data="{&quot;index&quot;:null}"/><path d="M60.06574,114.96008c3.95901,0 7.16837,3.3645 7.16837,7.51488c0,4.15035 -3.20942,7.51488 -7.16837,7.51488c-3.95901,0 -7.16843,-3.3645 -7.16843,-7.51488c0,-4.15035 3.20942,-7.51488 7.16843,-7.51488z" data-paper-data="{&quot;index&quot;:null}"/><path d="M96.57443,70.61089c0,-4.15035 3.20942,-7.51488 7.16837,-7.51488c3.95901,0 7.16843,3.3645 7.16843,7.51488c0,4.15035 -3.20942,7.51493 -7.16843,7.51493c-3.95901,0 -7.16837,-3.3645 -7.16837,-7.51493z" data-paper-data="{&quot;index&quot;:null}"/><path d="M112.2505,70.87768c0,-4.15035 3.20942,-7.51488 7.16837,-7.51488c3.95901,0 7.16843,3.3645 7.16843,7.51488c0,4.15035 -3.20942,7.51493 -7.16843,7.51493c-3.95901,0 -7.16837,-3.3645 -7.16837,-7.51493z" data-paper-data="{&quot;index&quot;:null}"/><path d="M80.65471,75.99452c0,-4.15035 3.20942,-7.51493 7.16837,-7.51493c3.95901,0 7.16843,3.3645 7.16843,7.51493c0,4.15035 -3.20942,7.51493 -7.16843,7.51493c-3.95901,0 -7.16837,-3.3645 -7.16837,-7.51493z" data-paper-data="{&quot;index&quot;:null}"/><path d="M65.78015,86.37645c0,-4.15035 3.20942,-7.51493 7.16837,-7.51493c3.95901,0 7.16843,3.3645 7.16843,7.51493c0,4.15035 -3.20942,7.51493 -7.16843,7.51493c-3.95901,0 -7.16837,-3.3645 -7.16837,-7.51493z" data-paper-data="{&quot;index&quot;:null}"/><path d="M128.68382,75.18461c0,-4.15035 3.20942,-7.51488 7.16843,-7.51488c3.95901,0 7.16837,3.3645 7.16837,7.51488c0,4.15035 -3.20942,7.51493 -7.16837,7.51493c-3.95901,0 -7.16843,-3.3645 -7.16843,-7.51493z" data-paper-data="{&quot;index&quot;:null}"/><path d="M141.06913,87.91262c0,-4.15035 3.20942,-7.51488 7.16843,-7.51488c3.95901,0 7.16837,3.3645 7.16837,7.51488c0,4.15035 -3.20942,7.51493 -7.16837,7.51493c-3.95901,0 -7.16843,-3.3645 -7.16843,-7.51493z" data-paper-data="{&quot;index&quot;:null}"/><path d="M150.39145,103.1795c0,-4.15035 3.20942,-7.51488 7.16837,-7.51488c3.95901,0 7.16843,3.3645 7.16843,7.51488c0,4.15035 -3.20942,7.51493 -7.16843,7.51493c-3.95901,0 -7.16837,-3.36456 -7.16837,-7.51493z" data-paper-data="{&quot;index&quot;:null}"/><path d="M58.48587,101.56441c0,-4.15035 3.20942,-7.51488 7.16843,-7.51488c3.95901,0 7.16837,3.3645 7.16837,7.51488c0,4.15035 -3.20942,7.51493 -7.16837,7.51493c-3.95901,0 -7.16843,-3.3645 -7.16843,-7.51493z" data-paper-data="{&quot;index&quot;:null}"/></g></g></g></svg>