<svg version="1.1" xmlns="http://www.w3.org/2000/svg" xmlns:xlink="http://www.w3.org/1999/xlink" width="671.38591" height="392.7773" viewBox="0,0,671.38591,392.7773"><defs><linearGradient x1="54.83934" y1="317.17545" x2="54.83934" y2="343.50789" gradientUnits="userSpaceOnUse" id="color-1"><stop offset="0" stop-color="#ff0000"/><stop offset="1" stop-color="#980000"/></linearGradient><linearGradient x1="-10.00753" y1="440.60948" x2="-10.00753" y2="472.41009" gradientUnits="userSpaceOnUse" id="color-2"><stop offset="0" stop-color="#ffffff"/><stop offset="1" stop-color="#747474"/></linearGradient><linearGradient x1="-3.34087" y1="396.94283" x2="-3.34087" y2="428.74344" gradientUnits="userSpaceOnUse" id="color-3"><stop offset="0" stop-color="#ffffff"/><stop offset="1" stop-color="#747474"/></linearGradient><linearGradient x1="58.99246" y1="398.17689" x2="58.99246" y2="429.50938" gradientUnits="userSpaceOnUse" id="color-4"><stop offset="0" stop-color="#ffffff"/><stop offset="1" stop-color="#747474"/></linearGradient><linearGradient x1="54.65914" y1="440.02086" x2="54.65914" y2="472.99872" gradientUnits="userSpaceOnUse" id="color-5"><stop offset="0" stop-color="#ffffff"/><stop offset="1" stop-color="#747474"/></linearGradient></defs><g transform="translate(169.44589,-192.89796)"><g data-paper-data="{&quot;isPaintingLayer&quot;:true}" fill-rule="nonzero" stroke-linejoin="miter" stroke-miterlimit="10" stroke-dasharray="" stroke-dashoffset="0" style="mix-blend-mode: normal"><path d="M-11.00593,440.00006v-247.1021h512.94595v247.1021z" fill="#583600" stroke="none" stroke-width="0" stroke-linecap="butt"/><g><path d="M-57.40141,528.50108l30.23386,-225.44304l116.13552,0.28368l12.70682,226.4786z" fill="#000000" stroke="none" stroke-width="NaN" stroke-linecap="butt"/><path d="M31.07671,343.43733l4.16511,-26.26192l42.19195,0.07054l1.16822,26.26192z" fill="url(#color-1)" stroke="none" stroke-width="0" stroke-linecap="butt"/><path d="M-37.0194,471.44653l5.54885,-30.83709l48.47489,0.96353l-3.14874,30.83709z" fill="url(#color-2)" stroke="none" stroke-width="0" stroke-linecap="butt"/><text transform="translate(-20.24734,509.16315) rotate(2.16901) scale(0.95344,0.69442) skewX(-1.75383)" font-size="40" xml:space="preserve" fill="#ffffff" fill-rule="nonzero" stroke="#ffffff" stroke-width="1" stroke-linecap="butt" stroke-linejoin="miter" stroke-miterlimit="10" stroke-dasharray="" stroke-dashoffset="0" font-family="Handwriting" font-weight="normal" text-anchor="start" style="mix-blend-mode: normal"><tspan x="0" dy="0">Suny</tspan></text><path d="M-30.35273,427.77991l5.54884,-30.83709l48.47489,0.96353l-3.14874,30.83709z" fill="url(#color-3)" stroke="none" stroke-width="0" stroke-linecap="butt"/><path d="M32.37825,428.56004l5.46716,-30.38313l47.76127,0.94934l-3.10238,30.38313z" fill="url(#color-4)" stroke="none" stroke-width="0" stroke-linecap="butt"/><path d="M26.64727,471.99953l5.75427,-31.9787l50.26947,0.9992l-3.26531,31.9787z" fill="url(#color-5)" stroke="none" stroke-width="0" stroke-linecap="butt"/><path d="M67.69451,331.01057c-0.19488,3.67361 -6.16866,6.51561 -13.3428,6.34779c-7.17415,-0.16782 -12.83196,-3.28193 -12.63708,-6.95554c0.19488,-3.67361 6.16866,-6.51561 13.34281,-6.34778c7.17415,0.16782 12.83196,3.28193 12.63708,6.95554z" fill="none" stroke="#e6e6e6" stroke-width="3" stroke-linecap="butt"/><path d="M54.51513,336.15079l0.90844,-15.11715" fill="none" stroke="#e6e6e6" stroke-width="3.5" stroke-linecap="round"/><path d="M8.8588,339.89307c5.45989,-6.44222 16.42773,-16.90572 25.99936,-20.27508c9.10707,-3.20581 16.80282,0.38643 22.93237,5.58132c5.30588,4.49682 12.73765,14.07451 12.61317,22.70912c-0.1705,11.8243 -9.86056,23.30309 -16.01854,30.56898c-10.65478,12.57177 -29.48363,14.12576 -42.05538,3.47096c-12.57175,-10.65478 -14.12576,-29.48361 -3.47096,-42.05538z" fill="#ffcb9d" stroke="#000000" stroke-width="0" stroke-linecap="butt"/><path d="M16.65374,374.05558l-161.09963,186.61969" data-paper-data="{&quot;index&quot;:null}" fill="none" stroke="#040017" stroke-width="50" stroke-linecap="round"/></g></g></g></svg>