<svg version="1.1" xmlns="http://www.w3.org/2000/svg" xmlns:xlink="http://www.w3.org/1999/xlink" width="591.36422" height="656.61342" viewBox="0,0,591.36422,656.61342"><g transform="translate(11.50151,7.68769)"><g data-paper-data="{&quot;isPaintingLayer&quot;:true}" fill-rule="nonzero" stroke-linejoin="miter" stroke-miterlimit="10" stroke-dasharray="" stroke-dashoffset="0" style="mix-blend-mode: normal"><path d="M-11.50151,367.68768v-375.37537h503.00301v375.37538z" fill="#b1832d" stroke="none" stroke-width="0" stroke-linecap="butt"/><path d="M152.48556,623.96988c0.36488,-11.69884 28.05833,-20.32821 61.85503,-19.27412c33.79678,1.05403 40.91804,22.54877 40.55314,34.24763c-0.36485,11.69887 -102.77307,-3.27464 -102.40817,-14.97351z" data-paper-data="{&quot;index&quot;:null}" fill="#040017" stroke="none" stroke-width="0" stroke-linecap="butt"/><path d="M201.91178,625.51143c0.36484,-11.69888 28.05833,-20.32818 61.85506,-19.27413c33.79674,1.05405 40.91801,22.5487 40.55312,34.2476c-0.36484,11.69888 -102.77303,-3.2746 -102.40816,-14.97349z" data-paper-data="{&quot;index&quot;:null}" fill="#040017" stroke="none" stroke-width="0" stroke-linecap="butt"/><g><path d="M561.11271,597.06954c0,0 -32.83993,-27.3784 -44.92792,-37.61619c-13.77278,-11.66479 -31.20778,-26.43127 -42.77037,-36.22419c-22.40352,-18.97456 -43.05214,-38.45785 -43.05214,-38.45785" data-paper-data="{&quot;index&quot;:null}" fill="none" stroke="#282828" stroke-width="37.5" stroke-linecap="round"/><path d="M529.09813,630.17573c0,0 -26.4934,-22.12037 -38.58133,-32.35821c-13.77278,-11.66479 -31.20777,-26.43127 -42.77037,-36.2242c-22.40352,-18.97456 -43.05212,-38.45784 -43.05212,-38.45784" data-paper-data="{&quot;index&quot;:null}" fill="none" stroke="#282828" stroke-width="37.5" stroke-linecap="round"/><path d="M423.66756,569.86478c2.56146,5.46482 6.09705,15.70527 5.43833,22.9275c-0.62681,6.87173 -5.25095,10.8035 -10.45053,13.24068c-4.50089,2.10964 -12.93589,4.0889 -18.50964,1.43861c-7.63274,-3.62927 -12.20826,-13.34153 -15.09722,-19.50504c-4.99865,-10.66434 -0.40573,-23.36181 10.25864,-28.36045c10.66435,-4.99867 23.36178,-0.40576 28.36042,10.25861z" data-paper-data="{&quot;index&quot;:null}" fill="#ffcb9d" stroke="#000000" stroke-width="0" stroke-linecap="butt"/><path d="M394.18217,560.95084l-72.31156,-125.31896" data-paper-data="{&quot;index&quot;:null}" fill="none" stroke="#040017" stroke-width="45" stroke-linecap="round"/><path d="M395.59559,532.23002l-111.47104,-113.77667l32.71194,-43.41739l133.27145,90.3276c0,0 8.09221,17.50618 -15.83025,42.46103c-25.96654,27.0872 -38.68197,24.40533 -38.68197,24.40533z" data-paper-data="{&quot;index&quot;:null}" fill="#040017" stroke="#000000" stroke-width="0" stroke-linecap="butt"/><path d="M483.6184,482.6049c-11.34253,-3.17222 -17.96583,-14.93879 -14.79358,-26.28126c3.17222,-11.34249 14.93879,-17.96577 26.28128,-14.79362c6.55545,1.8334 16.88916,4.7452 21.72698,11.67522c3.53282,5.06054 2.97121,13.70649 1.63244,18.49352c-1.54667,5.53019 -4.66229,10.73927 -11.33669,12.49031c-7.01481,1.84035 -17.698,0.04135 -23.51031,-1.58429z" data-paper-data="{&quot;index&quot;:null}" fill="#ffcb9d" stroke="#000000" stroke-width="0" stroke-linecap="butt"/><path d="M336.64913,406.36421l135.52512,50.66305" data-paper-data="{&quot;index&quot;:null}" fill="none" stroke="#040017" stroke-width="45" stroke-linecap="round"/><path d="M172.90574,431.86198c-45.04477,-36.72233 -51.79144,-103.0077 -15.06907,-148.05248c36.72233,-45.04477 103.0077,-51.79145 148.05247,-15.06913c45.04475,36.72235 51.79144,103.00769 15.0691,148.05248c-36.72231,45.04476 -103.00769,51.79144 -148.05246,15.06907z" data-paper-data="{&quot;index&quot;:null}" fill="#ffcb9d" stroke="#000000" stroke-width="0" stroke-linecap="butt"/><path d="M192.02794,444.74651c0,0 -114.73947,-56.58351 -74.11538,-135.15483c5.53409,-10.70353 33.39817,-53.85423 33.39817,-53.85423l9.94579,2.02814c0,0 10.70135,-15.0442 19.07497,-22.26192c8.37361,-7.21775 24.1145,-14.96568 24.1145,-14.96568l1.95424,13.05153c0,0 14.04179,-1.21973 24.49177,1.86094c17.46449,5.14862 53.79873,-17.61853 44.58604,-2.6041c-9.21271,15.01444 -61.08428,75.11593 -105.91664,102.55773c-26.23386,16.05766 -20.70243,15.59788 -23.23035,20.1511c-12.76775,22.99677 45.96811,70.08007 45.96811,70.08007c0,0 -11.03015,-7.06005 -9.97008,4.12359c0.80975,8.54308 9.69899,14.98756 9.69899,14.98756z" data-paper-data="{&quot;index&quot;:null}" fill="#000000" stroke="#000000" stroke-width="0" stroke-linecap="butt"/><path d="M301.44371,325.40646c0,0 -17.02612,-13.88034 -25.11073,-20.47129c-8.02123,-6.53923 -23.96936,-19.54079 -23.96936,-19.54079" data-paper-data="{&quot;index&quot;:null}" fill="none" stroke="#000000" stroke-width="20" stroke-linecap="round"/><path d="M276.62987,355.84365c0,0 -17.0261,-13.88037 -25.11075,-20.47132c-8.02123,-6.53923 -23.96934,-19.5408 -23.96934,-19.5408" data-paper-data="{&quot;index&quot;:null}" fill="none" stroke="#000000" stroke-width="20" stroke-linecap="round"/><path d="M325.43259,356.38919l-16.71994,21.39732" fill="none" stroke="#000000" stroke-width="8" stroke-linecap="round"/><path d="M225.98455,338.45466l-18.67227,-14.51225l46.99202,-60.46257l18.67227,14.51225z" fill="#ffcb9d" stroke="none" stroke-width="0" stroke-linecap="butt"/></g></g></g></svg>