<svg version="1.1" xmlns="http://www.w3.org/2000/svg" xmlns:xlink="http://www.w3.org/1999/xlink" width="636.91187" height="375.81225" viewBox="0,0,636.91187,375.81225"><defs><linearGradient x1="240.00003" y1="2.09388" x2="240.00003" y2="357.90615" gradientUnits="userSpaceOnUse" id="color-1"><stop offset="0" stop-color="#191919"/><stop offset="1" stop-color="#0c0c0c"/></linearGradient><linearGradient x1="237.74781" y1="10.33039" x2="237.74781" y2="345.16524" gradientUnits="userSpaceOnUse" id="color-2"><stop offset="0" stop-color="#000000"/><stop offset="1" stop-color="#000d2f"/></linearGradient></defs><g transform="translate(78.45592,7.90611)"><g data-paper-data="{&quot;isPaintingLayer&quot;:true}" fill-rule="nonzero" stroke-linecap="butt" stroke-linejoin="miter" stroke-miterlimit="10" stroke-dasharray="" stroke-dashoffset="0" style="mix-blend-mode: normal"><path d="M-68.45592,357.90615v-355.81225h616.91187v355.81225z" fill="url(#color-1)" stroke="#575757" stroke-width="20"/><path d="M-25.01496,345.16524v-334.83483h525.52553v334.83483z" fill="url(#color-2)" stroke="#ffffff" stroke-width="0"/><g fill="#bb0000" stroke="none" stroke-width="0"><path d="M115.55356,288.64034c5.61627,0 10.16917,4.7729 10.16917,10.66073c0,5.88771 -4.5529,10.66073 -10.16917,10.66073c-5.61627,0 -10.16909,-4.7729 -10.16909,-10.66073c0,-5.88771 4.5529,-10.66073 10.16909,-10.66073z" data-paper-data="{&quot;index&quot;:null}"/><path d="M137.79178,288.26189c5.61627,0 10.16917,4.7729 10.16917,10.66073c0,5.88771 -4.5529,10.66065 -10.16917,10.66065c-5.61627,0 -10.16909,-4.7729 -10.16909,-10.66065c0,-5.88771 4.5529,-10.66073 10.16909,-10.66073z" data-paper-data="{&quot;index&quot;:null}"/><path d="M92.96972,281.00309c5.61627,0 10.16917,4.7729 10.16917,10.66073c0,5.88771 -4.5529,10.66065 -10.16917,10.66065c-5.61627,0 -10.16909,-4.7729 -10.16909,-10.66065c0,-5.88771 4.5529,-10.66073 10.16909,-10.66073z" data-paper-data="{&quot;index&quot;:null}"/><path d="M71.86861,266.27522c5.61627,0 10.16917,4.7729 10.16917,10.66073c0,5.88771 -4.5529,10.66065 -10.16917,10.66065c-5.61627,0 -10.16909,-4.7729 -10.16909,-10.66065c0,-5.88771 4.5529,-10.66073 10.16909,-10.66073z" data-paper-data="{&quot;index&quot;:null}"/><path d="M161.10413,282.15214c5.61627,0 10.16909,4.7729 10.16909,10.66073c0,5.88771 -4.5529,10.66065 -10.16909,10.66065c-5.61627,0 -10.16917,-4.7729 -10.16917,-10.66065c0,-5.88771 4.5529,-10.66073 10.16917,-10.66073z" data-paper-data="{&quot;index&quot;:null}"/><path d="M178.67408,264.09605c5.61627,0 10.16909,4.7729 10.16909,10.66073c0,5.88771 -4.5529,10.66065 -10.16909,10.66065c-5.61627,0 -10.16917,-4.7729 -10.16917,-10.66065c0,-5.88771 4.5529,-10.66073 10.16917,-10.66073z" data-paper-data="{&quot;index&quot;:null}"/><path d="M191.8987,242.43832c5.61627,0 10.16917,4.7729 10.16917,10.66073c0,5.88771 -4.5529,10.66065 -10.16917,10.66065c-5.61627,0 -10.16909,-4.7729 -10.16909,-10.66065c0,-5.88771 4.5529,-10.66073 10.16909,-10.66073z" data-paper-data="{&quot;index&quot;:null}"/><path d="M200.13518,218.27245c5.61627,0 10.16917,4.7729 10.16917,10.66073c0,5.88771 -4.5529,10.66065 -10.16917,10.66065c-5.61627,0 -10.16909,-4.7729 -10.16909,-10.66065c0,-5.88771 4.5529,-10.66073 10.16909,-10.66073z" data-paper-data="{&quot;index&quot;:null}"/><path d="M61.52093,244.72953c5.61627,0 10.16909,4.7729 10.16909,10.66073c0,5.88771 -4.5529,10.66065 -10.16909,10.66065c-5.61627,0 -10.16917,-4.7729 -10.16917,-10.66065c0,-5.88771 4.5529,-10.66073 10.16917,-10.66073z" data-paper-data="{&quot;index&quot;:null}"/><path d="M52.55595,219.25327c5.61627,0 10.16909,4.7729 10.16909,10.66065c0,5.88771 -4.5529,10.66065 -10.16909,10.66065c-5.61627,0 -10.16917,-4.7729 -10.16917,-10.66065c0,-5.88771 4.5529,-10.66065 10.16917,-10.66065z" data-paper-data="{&quot;index&quot;:null}"/><path d="M104.34739,156.33924c0,-5.88771 4.5529,-10.66065 10.16909,-10.66065c5.61627,0 10.16917,4.7729 10.16917,10.66065c0,5.88771 -4.5529,10.66073 -10.16917,10.66073c-5.61627,0 -10.16909,-4.7729 -10.16909,-10.66073z" data-paper-data="{&quot;index&quot;:null}"/><path d="M126.58556,156.71772c0,-5.88771 4.5529,-10.66065 10.16909,-10.66065c5.61627,0 10.16917,4.7729 10.16917,10.66065c0,5.88771 -4.5529,10.66073 -10.16917,10.66073c-5.61627,0 -10.16909,-4.7729 -10.16909,-10.66073z" data-paper-data="{&quot;index&quot;:null}"/><path d="M81.76358,163.9765c0,-5.88771 4.5529,-10.66073 10.16909,-10.66073c5.61627,0 10.16917,4.7729 10.16917,10.66073c0,5.88771 -4.5529,10.66073 -10.16917,10.66073c-5.61627,0 -10.16909,-4.7729 -10.16909,-10.66073z" data-paper-data="{&quot;index&quot;:null}"/><path d="M60.66247,178.70437c0,-5.88771 4.5529,-10.66073 10.16909,-10.66073c5.61627,0 10.16917,4.7729 10.16917,10.66073c0,5.88771 -4.5529,10.66073 -10.16917,10.66073c-5.61627,0 -10.16909,-4.7729 -10.16909,-10.66073z" data-paper-data="{&quot;index&quot;:null}"/><path d="M149.89795,162.82755c0,-5.88771 4.5529,-10.66065 10.16917,-10.66065c5.61627,0 10.16909,4.7729 10.16909,10.66065c0,5.88771 -4.5529,10.66073 -10.16909,10.66073c-5.61627,0 -10.16917,-4.7729 -10.16917,-10.66073z" data-paper-data="{&quot;index&quot;:null}"/><path d="M167.46785,180.88357c0,-5.88771 4.5529,-10.66065 10.16917,-10.66065c5.61627,0 10.16909,4.7729 10.16909,10.66065c0,5.88771 -4.5529,10.66073 -10.16909,10.66073c-5.61627,0 -10.16917,-4.7729 -10.16917,-10.66073z" data-paper-data="{&quot;index&quot;:null}"/><path d="M180.69252,202.54127c0,-5.88771 4.5529,-10.66065 10.16909,-10.66065c5.61627,0 10.16917,4.7729 10.16917,10.66065c0,5.88771 -4.5529,10.66073 -10.16917,10.66073c-5.61627,0 -10.16909,-4.77298 -10.16909,-10.66073z" data-paper-data="{&quot;index&quot;:null}"/><path d="M50.31473,200.2501c0,-5.88771 4.5529,-10.66065 10.16917,-10.66065c5.61627,0 10.16909,4.7729 10.16909,10.66065c0,5.88771 -4.5529,10.66073 -10.16909,10.66073c-5.61627,0 -10.16917,-4.7729 -10.16917,-10.66073z" data-paper-data="{&quot;index&quot;:null}"/></g><path d="M23.03303,109.42944v-72.07207h418.91892v72.07207z" fill="#ffffff" stroke="none" stroke-width="0"/><text transform="translate(35.04505,81.7861) scale(0.65572,0.65572)" font-size="40" xml:space="preserve" fill="#000000" fill-rule="nonzero" stroke="none" stroke-width="1" stroke-linecap="butt" stroke-linejoin="miter" stroke-miterlimit="10" stroke-dasharray="" stroke-dashoffset="0" font-family="Sans Serif" font-weight="normal" text-anchor="start" style="mix-blend-mode: normal"><tspan x="0" dy="0">2021 4th of July Fireworks Show</tspan></text><g fill="#0cba00" stroke="none" stroke-width="0"><path d="M323.56658,285.60086c5.1969,0 9.40986,4.41657 9.40986,9.86469c0,5.4481 -4.21296,9.86469 -9.40986,9.86469c-5.1969,0 -9.40986,-4.41657 -9.40986,-9.86469c0,-5.4481 4.21296,-9.86469 9.40986,-9.86469z" data-paper-data="{&quot;index&quot;:null}"/><path d="M344.14443,285.25065c5.1969,0 9.40986,4.41657 9.40986,9.86469c0,5.4481 -4.21296,9.86469 -9.40986,9.86469c-5.1969,0 -9.40986,-4.41657 -9.40986,-9.86469c0,-5.4481 4.21296,-9.86469 9.40986,-9.86469z" data-paper-data="{&quot;index&quot;:null}"/><path d="M302.66892,278.53379c5.1969,0 9.40986,4.41657 9.40986,9.86469c0,5.4481 -4.21296,9.86469 -9.40986,9.86469c-5.1969,0 -9.40986,-4.41657 -9.40986,-9.86469c0,-5.4481 4.21296,-9.86469 9.40986,-9.86469z" data-paper-data="{&quot;index&quot;:null}"/><path d="M283.14327,264.90561c5.1969,0 9.40986,4.41657 9.40986,9.86469c0,5.4481 -4.21296,9.86469 -9.40986,9.86469c-5.1969,0 -9.40986,-4.41657 -9.40986,-9.86469c0,-5.4481 4.21296,-9.86469 9.40986,-9.86469z" data-paper-data="{&quot;index&quot;:null}"/><path d="M365.71616,279.59702c5.1969,0 9.40986,4.41657 9.40986,9.86469c0,5.4481 -4.21296,9.86469 -9.40986,9.86469c-5.1969,0 -9.40986,-4.41657 -9.40986,-9.86469c0,-5.4481 4.21296,-9.86469 9.40986,-9.86469z" data-paper-data="{&quot;index&quot;:null}"/><path d="M381.97428,262.88907c5.1969,0 9.40986,4.41657 9.40986,9.86469c0,5.4481 -4.21296,9.86469 -9.40986,9.86469c-5.1969,0 -9.40986,-4.41657 -9.40986,-9.86469c0,-5.4481 4.21296,-9.86469 9.40986,-9.86469z" data-paper-data="{&quot;index&quot;:null}"/><path d="M394.21155,242.84846c5.1969,0 9.40986,4.41657 9.40986,9.86469c0,5.4481 -4.21296,9.86469 -9.40986,9.86469c-5.1969,0 -9.40986,-4.41657 -9.40986,-9.86469c0,-5.4481 4.21296,-9.86469 9.40986,-9.86469z" data-paper-data="{&quot;index&quot;:null}"/><path d="M401.83299,220.48689c5.1969,0 9.40986,4.41657 9.40986,9.86469c0,5.4481 -4.21296,9.86469 -9.40986,9.86469c-5.1969,0 -9.40986,-4.41657 -9.40986,-9.86469c0,-5.4481 4.21296,-9.86469 9.40986,-9.86469z" data-paper-data="{&quot;index&quot;:null}"/><path d="M273.56821,244.96855c5.1969,0 9.40986,4.41657 9.40986,9.86469c0,5.4481 -4.21296,9.86469 -9.40986,9.86469c-5.1969,0 -9.40986,-4.41657 -9.40986,-9.86469c0,-5.4481 4.21296,-9.86469 9.40986,-9.86469z" data-paper-data="{&quot;index&quot;:null}"/><path d="M265.2726,221.39446c5.1969,0 9.40986,4.41657 9.40986,9.86469c0,5.4481 -4.21296,9.86469 -9.40986,9.86469c-5.1969,0 -9.40986,-4.41657 -9.40986,-9.86469c0,-5.4481 4.21296,-9.86469 9.40986,-9.86469z" data-paper-data="{&quot;index&quot;:null}"/><path d="M313.19709,163.17787c0,-5.4481 4.21296,-9.86469 9.40986,-9.86469c5.1969,0 9.40986,4.41657 9.40986,9.86469c0,5.4481 -4.21296,9.86469 -9.40986,9.86469c-5.1969,0 -9.40986,-4.41657 -9.40986,-9.86469z" data-paper-data="{&quot;index&quot;:null}"/><path d="M333.77498,163.528c0,-5.4481 4.21296,-9.86469 9.40986,-9.86469c5.1969,0 9.40986,4.41657 9.40986,9.86469c0,5.4481 -4.21296,9.86469 -9.40986,9.86469c-5.1969,0 -9.40986,-4.41657 -9.40986,-9.86469z" data-paper-data="{&quot;index&quot;:null}"/><path d="M292.29947,170.24487c0,-5.4481 4.21296,-9.86469 9.40986,-9.86469c5.1969,0 9.40986,4.41657 9.40986,9.86469c0,5.4481 -4.21296,9.86469 -9.40986,9.86469c-5.1969,0 -9.40986,-4.41657 -9.40986,-9.86469z" data-paper-data="{&quot;index&quot;:null}"/><path d="M272.77387,183.87315c0,-5.4481 4.21296,-9.86469 9.40986,-9.86469c5.1969,0 9.40986,4.41657 9.40986,9.86469c0,5.44819 -4.21296,9.86469 -9.40986,9.86469c-5.1969,0 -9.40986,-4.41657 -9.40986,-9.86469z" data-paper-data="{&quot;index&quot;:null}"/><path d="M355.34671,169.18165c0,-5.4481 4.21296,-9.86469 9.40986,-9.86469c5.1969,0 9.40986,4.41657 9.40986,9.86469c0,5.4481 -4.21296,9.86469 -9.40986,9.86469c-5.1969,0 -9.40986,-4.41657 -9.40986,-9.86469z" data-paper-data="{&quot;index&quot;:null}"/><path d="M371.60482,185.88967c0,-5.44819 4.21296,-9.86469 9.40986,-9.86469c5.1969,0 9.40986,4.41657 9.40986,9.86469c0,5.44819 -4.21296,9.86469 -9.40986,9.86469c-5.1969,0 -9.40986,-4.41657 -9.40986,-9.86469z" data-paper-data="{&quot;index&quot;:null}"/><path d="M383.8421,205.93017c0,-5.44819 4.21296,-9.86469 9.40986,-9.86469c5.1969,0 9.40986,4.41657 9.40986,9.86469c0,5.44819 -4.21296,9.86469 -9.40986,9.86469c-5.1969,0 -9.40986,-4.41657 -9.40986,-9.86469z" data-paper-data="{&quot;index&quot;:null}"/><path d="M263.19869,203.81012c0,-5.44819 4.21296,-9.86469 9.40986,-9.86469c5.1969,0 9.40986,4.41657 9.40986,9.86469c0,5.44819 -4.21296,9.86469 -9.40986,9.86469c-5.1969,0 -9.40986,-4.41657 -9.40986,-9.86469z" data-paper-data="{&quot;index&quot;:null}"/></g></g></g></svg>