<svg version="1.1" xmlns="http://www.w3.org/2000/svg" xmlns:xlink="http://www.w3.org/1999/xlink" width="512.94595" height="335.94204" viewBox="0,0,512.94595,335.94204"><defs><linearGradient x1="263.83934" y1="118.17541" x2="263.83934" y2="144.50787" gradientUnits="userSpaceOnUse" id="color-1"><stop offset="0" stop-color="#ff0000"/><stop offset="1" stop-color="#980000"/></linearGradient><linearGradient x1="198.99248" y1="241.60944" x2="198.99248" y2="273.41004" gradientUnits="userSpaceOnUse" id="color-2"><stop offset="0" stop-color="#ffffff"/><stop offset="1" stop-color="#747474"/></linearGradient><linearGradient x1="205.65914" y1="197.94277" x2="205.65914" y2="229.74339" gradientUnits="userSpaceOnUse" id="color-3"><stop offset="0" stop-color="#ffffff"/><stop offset="1" stop-color="#747474"/></linearGradient><linearGradient x1="267.99247" y1="199.17684" x2="267.99247" y2="230.50931" gradientUnits="userSpaceOnUse" id="color-4"><stop offset="0" stop-color="#ffffff"/><stop offset="1" stop-color="#747474"/></linearGradient><linearGradient x1="263.65914" y1="241.0208" x2="263.65914" y2="273.9987" gradientUnits="userSpaceOnUse" id="color-5"><stop offset="0" stop-color="#ffffff"/><stop offset="1" stop-color="#747474"/></linearGradient></defs><g transform="translate(11.00591,-104.05799)"><g data-paper-data="{&quot;isPaintingLayer&quot;:true}" fill-rule="nonzero" stroke-linejoin="miter" stroke-miterlimit="10" stroke-dasharray="" stroke-dashoffset="0" style="mix-blend-mode: normal"><path d="M-11.00591,440.00004v-247.1021h512.94595v247.1021z" fill="#583600" stroke="none" stroke-width="0" stroke-linecap="butt"/><path d="M151.5986,329.50104l30.23386,-225.44304l116.13552,0.28368l12.70682,226.4786z" fill="#000000" stroke="none" stroke-width="NaN" stroke-linecap="butt"/><path d="M240.07672,144.43733l4.16511,-26.26192l42.19195,0.07054l1.16822,26.26192z" fill="url(#color-1)" stroke="none" stroke-width="0" stroke-linecap="butt"/><path d="M171.98061,272.44651l5.54885,-30.83709l48.47489,0.96353l-3.14874,30.83709z" fill="url(#color-2)" stroke="none" stroke-width="0" stroke-linecap="butt"/><text transform="translate(188.75267,310.16313) rotate(2.16901) scale(0.95344,0.69442) skewX(-1.75383)" font-size="40" xml:space="preserve" fill="#ffffff" fill-rule="nonzero" stroke="#ffffff" stroke-width="1" stroke-linecap="butt" stroke-linejoin="miter" stroke-miterlimit="10" stroke-dasharray="" stroke-dashoffset="0" font-family="Handwriting" font-weight="normal" text-anchor="start" style="mix-blend-mode: normal"><tspan x="0" dy="0">Suny</tspan></text><path d="M178.64728,228.77986l5.54884,-30.83709l48.47489,0.96353l-3.14874,30.83709z" fill="url(#color-3)" stroke="none" stroke-width="0" stroke-linecap="butt"/><path d="M241.37826,229.55997l5.46716,-30.38313l47.76127,0.94934l-3.10238,30.38313z" fill="url(#color-4)" stroke="none" stroke-width="0" stroke-linecap="butt"/><path d="M235.64728,272.9995l5.75427,-31.9787l50.26947,0.9992l-3.26531,31.9787z" fill="url(#color-5)" stroke="none" stroke-width="0" stroke-linecap="butt"/><path d="M276.69451,132.01054c-0.19488,3.67361 -6.16866,6.51561 -13.34281,6.34778c-7.17415,-0.16783 -12.83196,-3.28193 -12.63708,-6.95554c0.19488,-3.67361 6.16866,-6.51561 13.34281,-6.34778c7.17415,0.16783 12.83196,3.28193 12.63708,6.95554z" fill="none" stroke="#e6e6e6" stroke-width="3" stroke-linecap="butt"/><path d="M264.42357,122.03359l-0.90844,15.11714" fill="none" stroke="#e6e6e6" stroke-width="3.5" stroke-linecap="round"/></g></g></svg>