<svg version="1.1" xmlns="http://www.w3.org/2000/svg" xmlns:xlink="http://www.w3.org/1999/xlink" width="512.94595" height="304.94203" viewBox="0,0,512.94595,304.94203"><defs><linearGradient x1="228.83934" y1="149.17544" x2="228.83934" y2="175.50789" gradientUnits="userSpaceOnUse" id="color-1"><stop offset="0" stop-color="#ff0000"/><stop offset="1" stop-color="#980000"/></linearGradient><linearGradient x1="163.99247" y1="272.60947" x2="163.99247" y2="304.41006" gradientUnits="userSpaceOnUse" id="color-2"><stop offset="0" stop-color="#ffffff"/><stop offset="1" stop-color="#747474"/></linearGradient><linearGradient x1="170.65913" y1="228.94282" x2="170.65913" y2="260.74342" gradientUnits="userSpaceOnUse" id="color-3"><stop offset="0" stop-color="#ffffff"/><stop offset="1" stop-color="#747474"/></linearGradient><linearGradient x1="232.99246" y1="230.17688" x2="232.99246" y2="261.50935" gradientUnits="userSpaceOnUse" id="color-4"><stop offset="0" stop-color="#ffffff"/><stop offset="1" stop-color="#747474"/></linearGradient><linearGradient x1="228.65914" y1="272.02083" x2="228.65914" y2="304.9987" gradientUnits="userSpaceOnUse" id="color-5"><stop offset="0" stop-color="#ffffff"/><stop offset="1" stop-color="#747474"/></linearGradient></defs><g transform="translate(11.00593,-135.05802)"><g data-paper-data="{&quot;isPaintingLayer&quot;:true}" fill-rule="nonzero" stroke-linejoin="miter" stroke-miterlimit="10" stroke-dasharray="" stroke-dashoffset="0" style="mix-blend-mode: normal"><path d="M-11.00593,440.00005v-247.1021h512.94595v247.1021z" fill="#583600" stroke="none" stroke-width="0" stroke-linecap="butt"/><g><path d="M116.59859,360.50106l30.23386,-225.44304l116.13552,0.28368l12.70682,226.4786z" fill="#000000" stroke="none" stroke-width="NaN" stroke-linecap="butt"/><path d="M205.07671,175.43733l4.16511,-26.26192l42.19195,0.07054l1.16822,26.26192z" fill="url(#color-1)" stroke="none" stroke-width="0" stroke-linecap="butt"/><path d="M136.9806,303.44651l5.54885,-30.83709l48.47489,0.96353l-3.14874,30.83709z" fill="url(#color-2)" stroke="none" stroke-width="0" stroke-linecap="butt"/><text transform="translate(153.75266,341.16315) rotate(2.16901) scale(0.95344,0.69442) skewX(-1.75383)" font-size="40" xml:space="preserve" fill="#ffffff" fill-rule="nonzero" stroke="#ffffff" stroke-width="1" stroke-linecap="butt" stroke-linejoin="miter" stroke-miterlimit="10" stroke-dasharray="" stroke-dashoffset="0" font-family="Handwriting" font-weight="normal" text-anchor="start" style="mix-blend-mode: normal"><tspan x="0" dy="0">Suny</tspan></text><path d="M143.64727,259.77991l5.54884,-30.83709l48.47489,0.96353l-3.14874,30.83709z" fill="url(#color-3)" stroke="none" stroke-width="0" stroke-linecap="butt"/><path d="M206.37825,260.56001l5.46716,-30.38313l47.76127,0.94934l-3.10238,30.38313z" fill="url(#color-4)" stroke="none" stroke-width="0" stroke-linecap="butt"/><path d="M200.64727,303.99951l5.75427,-31.9787l50.26947,0.9992l-3.26531,31.9787z" fill="url(#color-5)" stroke="none" stroke-width="0" stroke-linecap="butt"/><path d="M241.69451,163.01057c-0.19488,3.67361 -6.16866,6.51561 -13.3428,6.34779c-7.17415,-0.16782 -12.83196,-3.28193 -12.63708,-6.95554c0.19488,-3.67361 6.16866,-6.51561 13.34281,-6.34778c7.17415,0.16782 12.83196,3.28193 12.63708,6.95554z" fill="none" stroke="#e6e6e6" stroke-width="3" stroke-linecap="butt"/><path d="M228.51513,168.15078l0.90844,-15.11715" fill="none" stroke="#e6e6e6" stroke-width="3.5" stroke-linecap="round"/><path d="M182.8588,171.89305c5.45989,-6.44222 16.42773,-16.90572 25.99936,-20.27508c9.10707,-3.20581 16.80282,0.38643 22.93237,5.58132c5.30588,4.49682 12.73765,14.07451 12.61317,22.70912c-0.1705,11.8243 -9.86056,23.30309 -16.01854,30.56898c-10.65478,12.57177 -29.48363,14.12576 -42.05538,3.47096c-12.57175,-10.65478 -14.12576,-29.48361 -3.47096,-42.05538z" fill="#ffcb9d" stroke="#000000" stroke-width="0" stroke-linecap="butt"/><path d="M29.55411,392.67524l161.09963,-186.61969" data-paper-data="{&quot;index&quot;:null}" fill="none" stroke="#040017" stroke-width="50" stroke-linecap="round"/></g></g></g></svg>