<svg version="1.1" xmlns="http://www.w3.org/2000/svg" xmlns:xlink="http://www.w3.org/1999/xlink" width="495.4955" height="326.46043" viewBox="0,0,495.4955,326.46043"><defs><linearGradient x1="233.99405" y1="-35.65362" x2="233.99405" y2="58.94097" gradientUnits="userSpaceOnUse" id="color-1"><stop offset="0" stop-color="#c0c159"/><stop offset="1" stop-color="#c0c159" stop-opacity="0"/></linearGradient><linearGradient x1="123.63367" y1="249.01631" x2="123.63367" y2="289.55682" gradientUnits="userSpaceOnUse" id="color-2"><stop offset="0" stop-color="#191919"/><stop offset="1" stop-color="#0c0c0c"/></linearGradient><linearGradient x1="235.74397" y1="29.0676" x2="235.74397" y2="227.26581" gradientUnits="userSpaceOnUse" id="color-3"><stop offset="0" stop-color="#191919"/><stop offset="1" stop-color="#0c0c0c"/></linearGradient></defs><g transform="translate(13.75372,35.65362)"><g data-paper-data="{&quot;isPaintingLayer&quot;:true}" fill-rule="nonzero" stroke-linejoin="miter" stroke-miterlimit="10" stroke-dasharray="" stroke-dashoffset="0" style="mix-blend-mode: normal"><path d="M127.42437,224.11338" data-paper-data="{&quot;index&quot;:null}" fill="none" stroke="#040017" stroke-width="22.5" stroke-linecap="round"/><path d="M-13.75371,58.94097v-94.59459h495.4955v94.59459z" fill="url(#color-1)" stroke="none" stroke-width="0" stroke-linecap="butt"/><path d="M180.59541,205.58164c3.55756,1.18586 2.37171,4.74341 2.37171,4.74341l-0.57577,1.70686c-2.01298,5.03098 -4.6342,9.28106 -7.21267,13.94451c-5.77463,10.44405 -11.17803,21.94258 -21.83976,28.37838c0,0 -3.21559,1.92936 -5.14495,-1.28624c-1.92936,-3.2156 1.28624,-5.14496 1.28624,-5.14496c9.46357,-5.63737 14.03958,-16.44057 19.16024,-25.62162c2.4458,-4.38518 4.89061,-8.31226 6.78733,-13.0555l0.42422,-1.29314c0,0 1.18586,-3.55756 4.74341,-2.37171z" fill="#191919" stroke="none" stroke-width="0.5" stroke-linecap="butt"/><path d="M14.17031,221.90439v-56.05406h35.55181v56.05406z" fill="#ffffff" stroke="none" stroke-width="NaN" stroke-linecap="butt"/><g stroke-width="4"><path d="M28.13759,189.21045c0,-2.36784 1.91952,-4.28735 4.28735,-4.28735c2.36783,0 4.28735,1.91951 4.28735,4.28735c0,2.36784 -1.91951,2.40991 -4.28735,2.40991c-2.36783,0 -4.28735,-0.04207 -4.28735,-2.40991z" fill="#000000" stroke="none" stroke-linecap="butt"/><path d="M25.94512,171.8423v8.28283" fill="none" stroke="#000000" stroke-linecap="round"/><path d="M38.81299,180.12512v-8.28283" fill="none" stroke="#000000" stroke-linecap="round"/></g><g stroke-width="4"><path d="M27.8993,216.85249c0,-2.36784 1.91952,-4.28735 4.28735,-4.28735c2.36783,0 4.28735,1.91951 4.28735,4.28735c0,2.36784 -1.91952,2.40991 -4.28735,2.40991c-2.36783,0 -4.28735,-0.04207 -4.28735,-2.40991z" fill="#000000" stroke="none" stroke-linecap="butt"/><path d="M25.70685,199.48433v8.28283" fill="none" stroke="#000000" stroke-linecap="round"/><path d="M38.57471,207.76717v-8.28283" fill="none" stroke="#000000" stroke-linecap="round"/></g><path d="M33.01729,211.76907c2.97071,0.59519 3.9122,4.69375 3.9122,4.69375l-0.521,1.36803c0,3.53177 5.4157,5.75472 5.39934,9.28647c1.47269,7.79736 10.38993,11.5052 15.42777,17.50204c1.70191,2.02588 0.84767,2.91083 2.81141,4.64406c4.91169,4.3351 15.38322,9.55919 22.80379,9.46776c0,0 3.06213,0 3.06213,2.45402c0,2.45402 -3.06213,2.45401 -3.06213,2.45401c-9.15995,-0.0817 -21.36015,-5.60531 -27.41516,-11.146c-1.59316,-1.45783 -1.9839,-3.55302 -3.31285,-5.17201c-1.70656,-2.07903 -5.0078,-3.73291 -7.0744,-5.60392c-4.39374,-3.97788 -8.19999,-8.99977 -9.34399,-14.19512c-0.01308,-3.32872 -8.04998,-7.0512 -7.89441,-10.18107c0.0158,-0.31779 0.0245,-0.64465 0.0245,-0.98263l0.70385,-2.5584c0,0 -0.73735,-3.03516 2.23336,-2.43997z" fill="#191919" stroke="none" stroke-width="0.5" stroke-linecap="butt"/><path d="M65.82588,289.55682v-40.54054h115.61562v40.54054z" fill="url(#color-2)" stroke="#adadad" stroke-width="2.5" stroke-linecap="butt"/><path d="M424.40017,222.08155v-56.05406h35.55181v56.05406z" data-paper-data="{&quot;index&quot;:null}" fill="#ffffff" stroke="none" stroke-width="NaN" stroke-linecap="butt"/><g data-paper-data="{&quot;index&quot;:null}" stroke-width="4"><path d="M441.69734,191.79753c-2.36784,0 -4.28735,-0.04207 -4.28735,-2.40991c0,-2.36784 1.91952,-4.28735 4.28735,-4.28735c2.36783,0 4.28735,1.91951 4.28735,4.28735c0,2.36784 -1.91952,2.40991 -4.28735,2.40991z" fill="#000000" stroke="none" stroke-linecap="butt"/><path d="M448.17716,172.01947v8.28283" fill="none" stroke="#000000" stroke-linecap="round"/><path d="M435.30929,172.01947v8.28283" fill="none" stroke="#000000" stroke-linecap="round"/></g><g data-paper-data="{&quot;index&quot;:null}" stroke-width="4"><path d="M441.93562,219.43957c-2.36783,0 -4.28735,-0.04207 -4.28735,-2.40991c0,-2.36784 1.91952,-4.28735 4.28735,-4.28735c2.36783,0 4.28735,1.91951 4.28735,4.28735c0,2.36784 -1.91952,2.40991 -4.28735,2.40991z" fill="#000000" stroke="none" stroke-linecap="butt"/><path d="M448.41545,199.66151v8.28283" fill="none" stroke="#000000" stroke-linecap="round"/><path d="M435.54758,207.94433v-8.28283" fill="none" stroke="#000000" stroke-linecap="round"/></g><path d="M387.78207,200.61969c3.75,0 3.75,3.59162 3.75,3.59162v0.63852c0,3.00235 -0.60939,6.73514 0.22082,9.66222c1.05613,3.72364 3.53913,7.0119 4.63512,10.74194c0.85523,2.91065 0.77197,7.76239 2.93467,10.17195c1.68919,1.882 4.76588,2.68147 7.14796,3.24621c2.17872,0.26125 4.65908,0.54861 6.85324,0.2851c2.52428,-0.30315 4.68309,-1.32543 6.95925,-2.28155c8.67919,-3.64579 18.63262,-9.7148 18.41561,-20.01342c0,0 0,-3.59162 3.75,-3.59162c3.75,0 3.75,3.59162 3.75,3.59162c-0.26602,18.94604 -23.20824,31.21126 -41.10524,29.07098c-5.52977,-1.33293 -11.05937,-3.50746 -13.45771,-8.89583c-1.32977,-2.98761 -1.57166,-6.50062 -2.45965,-9.61154c-1.08608,-3.80489 -3.66864,-7.1368 -4.69822,-10.96743c-0.96291,-3.58259 -0.44585,-7.73918 -0.44585,-11.40862v-0.63852c0,0 0,-3.59162 3.75,-3.59162z" fill="#1b1b1b" stroke="none" stroke-width="0.5" stroke-linecap="butt"/><path d="M63.92467,227.26581v-198.1982h343.6386v198.1982z" fill="url(#color-3)" stroke="#575757" stroke-width="5" stroke-linecap="butt"/></g></g></svg>