<svg version="1.1" xmlns="http://www.w3.org/2000/svg" xmlns:xlink="http://www.w3.org/1999/xlink" width="503.00301" height="652.41576" viewBox="0,0,503.00301,652.41576"><g transform="translate(11.50151,7.68769)"><g data-paper-data="{&quot;isPaintingLayer&quot;:true}" fill-rule="nonzero" stroke-linejoin="miter" stroke-miterlimit="10" stroke-dasharray="" stroke-dashoffset="0" style="mix-blend-mode: normal"><path d="M-11.50151,367.68768v-375.37537h503.00301v375.37538z" fill="#b1832d" stroke="none" stroke-width="0" stroke-linecap="butt"/><path d="M227.19605,586.6047c0,0 1.46459,-42.73046 2.13013,-58.55731c0.75836,-18.03279 1.71836,-40.86054 2.35505,-55.99956c1.23359,-29.33309 3.94578,-57.59274 3.94578,-57.59274" data-paper-data="{&quot;index&quot;:null}" fill="none" stroke="#282828" stroke-width="37.5" stroke-linecap="round"/><path d="M181.41031,581.64289c0,0 1.20763,-34.49279 1.87324,-50.31961c0.75836,-18.03279 1.71837,-40.86054 2.35506,-55.99956c1.23359,-29.33309 3.94578,-57.59271 3.94578,-57.59271" data-paper-data="{&quot;index&quot;:null}" fill="none" stroke="#282828" stroke-width="37.5" stroke-linecap="round"/><path d="M152.48556,623.96988c0.36488,-11.69884 28.05833,-20.32821 61.85503,-19.27412c33.79678,1.05403 40.91804,22.54877 40.55314,34.24763c-0.36485,11.69887 -102.77307,-3.27464 -102.40817,-14.97351z" data-paper-data="{&quot;index&quot;:null}" fill="#040017" stroke="none" stroke-width="0" stroke-linecap="butt"/><path d="M201.91178,625.51143c0.36484,-11.69888 28.05833,-20.32818 61.85506,-19.27413c33.79674,1.05405 40.91801,22.5487 40.55312,34.2476c-0.36484,11.69888 -102.77303,-3.2746 -102.40816,-14.97349z" data-paper-data="{&quot;index&quot;:null}" fill="#040017" stroke="none" stroke-width="0" stroke-linecap="butt"/><path d="M164.33147,461.38763c-2.743,5.376 -8.65889,14.45176 -14.76558,18.36364c-5.81036,3.722 -11.75242,2.48368 -16.86752,-0.12615c-4.42773,-2.25916 -11.16672,-7.7046 -12.49452,-13.73183c-1.81836,-8.25372 3.04235,-17.82645 6.13602,-23.88979c5.35277,-10.49107 18.19681,-14.65657 28.68788,-9.30376c10.49109,5.35276 14.65657,18.19677 9.30377,28.68785z" data-paper-data="{&quot;index&quot;:null}" fill="#ffcb9d" stroke="#000000" stroke-width="0" stroke-linecap="butt"/><path d="M207.84899,298.63838l-54.57335,133.99832" data-paper-data="{&quot;index&quot;:null}" fill="none" stroke="#040017" stroke-width="45" stroke-linecap="round"/><path d="M176.8201,416.12787l21.42928,-157.83444l54.35508,-0.81516l10.46344,160.65763c0,0 -8.85649,17.13222 -43.24036,13.55757c-37.32188,-3.88006 -43.00731,-15.56555 -43.00731,-15.56555z" data-paper-data="{&quot;index&quot;:null}" fill="#040017" stroke="#000000" stroke-width="0" stroke-linecap="butt"/><path d="M270.01873,455.17508c-4.45577,-10.90239 0.7703,-23.35262 11.67267,-27.80834c10.90236,-4.45575 23.35258,0.77034 27.80838,11.67265c2.57522,6.30108 6.61753,16.24711 4.11458,24.31959c-1.8277,5.89486 -8.99891,10.75711 -13.60017,12.63767c-5.31561,2.17246 -11.34047,2.90906 -16.81885,-1.28631c-5.7578,-4.40934 -10.89322,-13.94844 -13.17645,-19.53525z" data-paper-data="{&quot;index&quot;:null}" fill="#ffcb9d" stroke="#000000" stroke-width="0" stroke-linecap="butt"/><path d="M283.19124,430.44316l-43.16438,-138.0965" data-paper-data="{&quot;index&quot;:null}" fill="none" stroke="#040017" stroke-width="45" stroke-linecap="round"/><path d="M119.41174,178.70675c1.35266,-58.10103 49.54944,-104.10472 107.65051,-102.75203c58.10103,1.35266 104.10473,49.54944 102.75207,107.65047c-1.35269,58.10105 -49.54943,104.10472 -107.65049,102.75206c-58.10103,-1.35265 -104.10472,-49.54943 -102.75203,-107.65049z" data-paper-data="{&quot;index&quot;:null}" fill="#ffcb9d" stroke="#000000" stroke-width="0" stroke-linecap="butt"/><path d="M120.97305,201.71179c0,0 -25.73443,-125.31791 61.23254,-141.45846c11.84723,-2.19878 63.01682,-6.67802 63.01682,-6.67802l4.50198,9.09748c0,0 18.44545,-0.78256 29.2829,1.39977c10.83748,2.18231 26.61457,9.85624 26.61457,9.85624l-9.10586,9.55221c0,0 9.57996,10.33848 13.56029,20.47996c6.65208,16.94895 46.92521,31.66606 29.41681,33.60577c-17.50843,1.93968 -96.79429,-2.13465 -145.97336,-20.693c-28.77733,-10.85951 -25.01988,-6.77422 -30.16625,-5.97605c-25.99263,4.03118 -27.12432,79.30041 -27.12432,79.30041c0,0 -1.19436,-13.04155 -9.37411,-5.3416c-6.24845,5.88191 -5.88185,16.85531 -5.88185,16.85531z" data-paper-data="{&quot;index&quot;:null}" fill="#000000" stroke="#000000" stroke-width="0" stroke-linecap="butt"/><path d="M282.34451,214.86894c0,0 0.51124,-21.96113 0.75405,-32.38911c0.24087,-10.34619 0.71978,-30.91691 0.71978,-30.91691" data-paper-data="{&quot;index&quot;:null}" fill="none" stroke="#000000" stroke-width="20" stroke-linecap="round"/><path d="M243.08494,213.95478c0,0 0.51127,-21.96113 0.75407,-32.38914c0.24087,-10.34619 0.71979,-30.91689 0.71979,-30.91689" data-paper-data="{&quot;index&quot;:null}" fill="none" stroke="#000000" stroke-width="20" stroke-linecap="round"/><path d="M272.6025,252.82272l-27.15505,-0.07087" fill="none" stroke="#000000" stroke-width="8" stroke-linecap="round"/><path d="M225.73574,152.95474v-13.47702h76.57658v13.47702z" fill="#ffcb9d" stroke="none" stroke-width="0" stroke-linecap="butt"/></g></g></svg>