<svg version="1.1" xmlns="http://www.w3.org/2000/svg" xmlns:xlink="http://www.w3.org/1999/xlink" width="515.01503" height="567.56758" viewBox="0,0,515.01503,567.56758"><defs><linearGradient x1="227.98799" y1="295.61562" x2="227.98799" y2="372.19219" gradientUnits="userSpaceOnUse" id="color-1"><stop offset="0" stop-color="#969696"/><stop offset="1" stop-color="#4e4e4e"/></linearGradient><linearGradient x1="117.62763" y1="280.6006" x2="117.62763" y2="313.63363" gradientUnits="userSpaceOnUse" id="color-2"><stop offset="0" stop-color="#ffffff"/><stop offset="1" stop-color="#b8b8b8"/></linearGradient><linearGradient x1="113.14327" y1="35.19208" x2="113.14327" y2="202.65706" gradientUnits="userSpaceOnUse" id="color-3"><stop offset="0" stop-color="#abebff"/><stop offset="1" stop-color="#00bfff"/></linearGradient></defs><g transform="translate(23.51352,7.68769)"><g data-paper-data="{&quot;isPaintingLayer&quot;:true}" fill-rule="nonzero" stroke-linejoin="miter" stroke-miterlimit="10" stroke-dasharray="" stroke-dashoffset="0" style="mix-blend-mode: normal"><path d="M-11.5015,367.68768v-375.37537h503.00301v375.37538z" fill="#b1832d" stroke="none" stroke-width="0" stroke-linecap="butt"/><path d="M-23.51352,559.87989v-303.3033h513.51351v303.3033z" fill="#7b5b1f" stroke="none" stroke-width="0" stroke-linecap="butt"/><path d="M44.05405,372.19219v-76.57658h367.86787v76.57658z" fill="url(#color-1)" stroke="none" stroke-width="0" stroke-linecap="butt"/><path d="M51.56156,313.63363v-33.03303h132.13213v33.03303z" fill="url(#color-2)" stroke="none" stroke-width="0" stroke-linecap="butt"/><g><path d="M378.69582,380.25511c0,0 -24.77913,3.68059 -33.97006,4.97291c-10.47196,1.4724 -23.72845,3.33635 -32.51994,4.57246c-17.03426,2.3951 -33.60647,3.82448 -33.60647,3.82448" data-paper-data="{&quot;index&quot;:null}" fill="none" stroke="#282828" stroke-width="33.5" stroke-linecap="round"/><path d="M380.68458,407.16521c0,0 -20.00485,2.95641 -29.19577,4.24869c-10.47196,1.4724 -23.72845,3.33634 -32.51995,4.57245c-17.03426,2.3951 -33.60646,3.82447 -33.60646,3.82447" data-paper-data="{&quot;index&quot;:null}" fill="none" stroke="#282828" stroke-width="33.5" stroke-linecap="round"/><path d="M395.15994,421.7365c-6.78026,1.02848 -14.68543,-14.01653 -17.65661,-33.604c-2.97122,-19.5875 8.6614,-25.96723 15.44167,-26.9957c6.78028,-1.0285 8.99521,59.57123 2.21493,60.59972z" data-paper-data="{&quot;index&quot;:null}" fill="#040017" stroke="none" stroke-width="0" stroke-linecap="butt"/><path d="M390.81471,393.09068c-6.78028,1.0285 -14.68542,-14.01654 -17.65662,-33.60402c-2.97121,-19.58748 8.66135,-25.9672 15.44165,-26.99568c6.78028,-1.0285 8.99523,59.57121 2.21494,60.5997z" data-paper-data="{&quot;index&quot;:null}" fill="#040017" stroke="none" stroke-width="0" stroke-linecap="butt"/><path d="M313.19414,429.74055c3.38844,1.01145 9.24491,3.45957 12.14579,6.56442c2.76011,2.9542 2.67568,6.50952 1.71335,9.73351c-0.83304,2.79076 -3.25749,7.2508 -6.59016,8.65416c-4.56378,1.92181 -10.59489,0.13438 -14.41657,-1.00637c-6.61241,-1.97375 -10.37286,-8.93424 -8.39909,-15.54666c1.97374,-6.61243 8.93423,-10.37286 15.54665,-8.39909z" data-paper-data="{&quot;index&quot;:null}" fill="#ffcb9d" stroke="#000000" stroke-width="0" stroke-linecap="butt"/><path d="M216.53009,421.5779l82.99709,17.26009" data-paper-data="{&quot;index&quot;:null}" fill="none" stroke="#040017" stroke-width="26.5" stroke-linecap="round"/><path d="M285.79016,427.33619l-93.22349,4.3636l-6.22521,-31.2366l91.47338,-23.04117c0,0 10.81048,3.2896 12.39132,23.48233c1.71594,21.91812 -4.41598,26.43179 -4.41598,26.43179z" data-paper-data="{&quot;index&quot;:null}" fill="#040017" stroke="#000000" stroke-width="0" stroke-linecap="butt"/><path d="M302.2821,367.81436c-5.7149,3.86784 -13.48323,2.37047 -17.35103,-3.34443c-3.86782,-5.71489 -2.37044,-13.48322 3.34443,-17.35105c3.30295,-2.23543 8.51925,-5.75101 13.44947,-5.28792c3.60023,0.33815 7.25183,3.86463 8.88424,6.27656c1.88581,2.78638 3.0337,6.15236 1.28776,9.79888c-1.83498,3.83252 -6.68631,7.92591 -9.61486,9.90788z" data-paper-data="{&quot;index&quot;:null}" fill="#ffcb9d" stroke="#000000" stroke-width="0" stroke-linecap="butt"/><path d="M286.51448,363.23946l-73.98713,41.38036" data-paper-data="{&quot;index&quot;:null}" fill="none" stroke="#040017" stroke-width="26.5" stroke-linecap="round"/><path d="M155.0515,485.55828c-33.62481,5.37262 -65.23849,-17.53032 -70.6111,-51.15513c-5.37262,-33.62481 17.53031,-65.2385 51.15511,-70.61112c33.62482,-5.37261 65.2385,17.53031 70.61112,51.15513c5.37263,33.62481 -17.53031,65.23849 -51.15513,70.6111z" data-paper-data="{&quot;index&quot;:null}" fill="#ffcb9d" stroke="#000000" stroke-width="0" stroke-linecap="butt"/><path d="M168.14318,482.22263c0,0 -69.49136,28.09931 -88.00122,-20.30762c-2.52154,-6.59431 -10.52093,-35.60726 -10.52093,-35.60726l4.76586,-3.55764c0,0 -2.40409,-10.5466 -2.29403,-17.02292c0.11004,-6.47634 2.86168,-16.38068 2.86168,-16.38068l6.46879,4.23594c0,0 4.94331,-6.6153 10.36603,-9.98287c9.06272,-5.62803 13.27928,-30.39435 16.25097,-20.51026c2.97167,9.88411 9.01908,56.00517 3.53197,86.31041c-3.21083,17.73324 -1.25448,15.13537 -0.24959,18.01653c5.0753,14.5518 48.57013,7.23395 48.57013,7.23395c0,0 -7.38892,2.06919 -2.08559,5.96758c4.05116,2.97794 10.33593,1.60474 10.33593,1.60474z" data-paper-data="{&quot;index&quot;:null}" fill="#000000" stroke="#000000" stroke-width="0" stroke-linecap="butt"/><path d="M158.63814,387.83678c0,0 -12.70956,2.03076 -18.74455,2.99503c-5.98765,0.95671 -17.89254,2.85889 -17.89254,2.85889" data-paper-data="{&quot;index&quot;:null}" fill="#ffffff" stroke="#ffffff" stroke-width="11.5" stroke-linecap="round"/><path d="M162.26839,410.55749c0,0 -12.70956,2.03076 -18.74457,2.99503c-5.98765,0.95671 -17.89253,2.85888 -17.89253,2.85888" data-paper-data="{&quot;index&quot;:null}" fill="#ffffff" stroke="#ffffff" stroke-width="11.5" stroke-linecap="round"/><path d="M184.37561,405.08797l-3.72712,-15.75443" fill="none" stroke="#000000" stroke-width="5" stroke-linecap="round"/></g><path d="M24.52132,202.65706v-167.46495h177.24393v167.46495z" fill="url(#color-3)" stroke="none" stroke-width="0" stroke-linecap="butt"/><g fill="#bb0000" stroke="none" stroke-width="0" stroke-linecap="butt"><path d="M104.47384,163.87224c3.95901,0 7.16843,3.3645 7.16843,7.51493c0,4.15035 -3.20942,7.51493 -7.16843,7.51493c-3.95901,0 -7.16837,-3.3645 -7.16837,-7.51493c0,-4.15035 3.20942,-7.51493 7.16837,-7.51493z" data-paper-data="{&quot;index&quot;:null}"/><path d="M120.14995,163.60546c3.95901,0 7.16843,3.3645 7.16843,7.51493c0,4.15035 -3.20942,7.51488 -7.16843,7.51488c-3.95901,0 -7.16837,-3.3645 -7.16837,-7.51488c0,-4.15035 3.20942,-7.51493 7.16837,-7.51493z" data-paper-data="{&quot;index&quot;:null}"/><path d="M88.5541,158.4886c3.95901,0 7.16843,3.3645 7.16843,7.51493c0,4.15035 -3.20942,7.51488 -7.16843,7.51488c-3.95901,0 -7.16837,-3.3645 -7.16837,-7.51488c0,-4.15035 3.20942,-7.51493 7.16837,-7.51493z" data-paper-data="{&quot;index&quot;:null}"/><path d="M73.67955,148.10667c3.95901,0 7.16843,3.3645 7.16843,7.51493c0,4.15035 -3.20942,7.51488 -7.16843,7.51488c-3.95901,0 -7.16837,-3.3645 -7.16837,-7.51488c0,-4.15035 3.20942,-7.51493 7.16837,-7.51493z" data-paper-data="{&quot;index&quot;:null}"/><path d="M136.58324,159.2986c3.95901,0 7.16837,3.3645 7.16837,7.51493c0,4.15035 -3.20942,7.51488 -7.16837,7.51488c-3.95901,0 -7.16843,-3.3645 -7.16843,-7.51488c0,-4.15035 3.20942,-7.51493 7.16843,-7.51493z" data-paper-data="{&quot;index&quot;:null}"/><path d="M148.96858,146.57054c3.95901,0 7.16837,3.3645 7.16837,7.51493c0,4.15035 -3.20942,7.51488 -7.16837,7.51488c-3.95901,0 -7.16843,-3.3645 -7.16843,-7.51488c0,-4.15035 3.20942,-7.51493 7.16843,-7.51493z" data-paper-data="{&quot;index&quot;:null}"/><path d="M158.29087,131.30363c3.95901,0 7.16843,3.3645 7.16843,7.51493c0,4.15035 -3.20942,7.51488 -7.16843,7.51488c-3.95901,0 -7.16837,-3.3645 -7.16837,-7.51488c0,-4.15035 3.20942,-7.51493 7.16837,-7.51493z" data-paper-data="{&quot;index&quot;:null}"/><path d="M164.09689,114.26869c3.95901,0 7.16843,3.3645 7.16843,7.51493c0,4.15035 -3.20942,7.51488 -7.16843,7.51488c-3.95901,0 -7.16837,-3.3645 -7.16837,-7.51488c0,-4.15035 3.20942,-7.51493 7.16837,-7.51493z" data-paper-data="{&quot;index&quot;:null}"/><path d="M66.3853,132.91874c3.95901,0 7.16837,3.3645 7.16837,7.51493c0,4.15035 -3.20942,7.51488 -7.16837,7.51488c-3.95901,0 -7.16843,-3.3645 -7.16843,-7.51488c0,-4.15035 3.20942,-7.51493 7.16843,-7.51493z" data-paper-data="{&quot;index&quot;:null}"/><path d="M60.06573,114.96008c3.95901,0 7.16837,3.3645 7.16837,7.51488c0,4.15035 -3.20942,7.51488 -7.16837,7.51488c-3.95901,0 -7.16843,-3.3645 -7.16843,-7.51488c0,-4.15035 3.20942,-7.51488 7.16843,-7.51488z" data-paper-data="{&quot;index&quot;:null}"/><path d="M96.57442,70.61089c0,-4.15035 3.20942,-7.51488 7.16837,-7.51488c3.95901,0 7.16843,3.3645 7.16843,7.51488c0,4.15035 -3.20942,7.51493 -7.16843,7.51493c-3.95901,0 -7.16837,-3.3645 -7.16837,-7.51493z" data-paper-data="{&quot;index&quot;:null}"/><path d="M112.25049,70.87768c0,-4.15035 3.20942,-7.51488 7.16837,-7.51488c3.95901,0 7.16843,3.3645 7.16843,7.51488c0,4.15035 -3.20942,7.51493 -7.16843,7.51493c-3.95901,0 -7.16837,-3.3645 -7.16837,-7.51493z" data-paper-data="{&quot;index&quot;:null}"/><path d="M80.6547,75.99452c0,-4.15035 3.20942,-7.51493 7.16837,-7.51493c3.95901,0 7.16843,3.3645 7.16843,7.51493c0,4.15035 -3.20942,7.51493 -7.16843,7.51493c-3.95901,0 -7.16837,-3.3645 -7.16837,-7.51493z" data-paper-data="{&quot;index&quot;:null}"/><path d="M65.78015,86.37645c0,-4.15035 3.20942,-7.51493 7.16837,-7.51493c3.95901,0 7.16843,3.3645 7.16843,7.51493c0,4.15035 -3.20942,7.51493 -7.16843,7.51493c-3.95901,0 -7.16837,-3.3645 -7.16837,-7.51493z" data-paper-data="{&quot;index&quot;:null}"/><path d="M128.68381,75.18461c0,-4.15035 3.20942,-7.51488 7.16843,-7.51488c3.95901,0 7.16837,3.3645 7.16837,7.51488c0,4.15035 -3.20942,7.51493 -7.16837,7.51493c-3.95901,0 -7.16843,-3.3645 -7.16843,-7.51493z" data-paper-data="{&quot;index&quot;:null}"/><path d="M141.06913,87.91262c0,-4.15035 3.20942,-7.51488 7.16843,-7.51488c3.95901,0 7.16837,3.3645 7.16837,7.51488c0,4.15035 -3.20942,7.51493 -7.16837,7.51493c-3.95901,0 -7.16843,-3.3645 -7.16843,-7.51493z" data-paper-data="{&quot;index&quot;:null}"/><path d="M150.39144,103.1795c0,-4.15035 3.20942,-7.51488 7.16837,-7.51488c3.95901,0 7.16843,3.3645 7.16843,7.51488c0,4.15035 -3.20942,7.51493 -7.16843,7.51493c-3.95901,0 -7.16837,-3.36456 -7.16837,-7.51493z" data-paper-data="{&quot;index&quot;:null}"/><path d="M58.48586,101.56441c0,-4.15035 3.20942,-7.51488 7.16843,-7.51488c3.95901,0 7.16837,3.3645 7.16837,7.51488c0,4.15035 -3.20942,7.51493 -7.16837,7.51493c-3.95901,0 -7.16843,-3.3645 -7.16843,-7.51493z" data-paper-data="{&quot;index&quot;:null}"/></g></g></g></svg>