<svg version="1.1" xmlns="http://www.w3.org/2000/svg" xmlns:xlink="http://www.w3.org/1999/xlink" width="193.66418" height="429.2786" viewBox="0,0,193.66418,429.2786"><g transform="translate(-127.42432,-53.50529)"><g data-paper-data="{&quot;isPaintingLayer&quot;:true}" fill-rule="nonzero" stroke-linejoin="miter" stroke-miterlimit="10" stroke-dasharray="" stroke-dashoffset="0" style="mix-blend-mode: normal"><path d="M127.42432,224.11336" data-paper-data="{&quot;index&quot;:null}" fill="none" stroke="#040017" stroke-width="22.5" stroke-linecap="round"/><path d="M185.90863,369.9138c-2.01208,4.18119 -6.39675,11.26282 -11.02047,14.37883c-4.39931,2.96477 -8.98868,2.11929 -12.96692,0.20487c-3.44366,-1.65717 -8.72078,-5.72206 -9.84924,-10.3309c-1.5453,-6.31138 2.0194,-13.75613 4.28875,-18.4719c3.9265,-8.15943 13.72408,-11.59089 21.88351,-7.66438c8.15943,3.9265 11.59089,13.72408 7.66438,21.88351z" fill="#ffcb9d" stroke="#000000" stroke-width="0" stroke-linecap="butt"/><path d="M213.47919,249.37066l-39.54818,103.96996" data-paper-data="{&quot;index&quot;:null}" fill="none" stroke="#040017" stroke-width="35" stroke-linecap="round"/><path d="M237.63455,461.1333c0,0 0.08449,-27.40955 0.19469,-37.56417c0.12557,-11.56998 0.28453,-26.21644 0.38994,-35.92974c0.20425,-18.82036 1.37736,-36.98238 1.37736,-36.98238" data-paper-data="{&quot;index&quot;:null}" fill="none" stroke="#282828" stroke-width="40" stroke-linecap="round"/><path d="M208.19747,458.8689c0,0 0.08449,-22.12597 0.19469,-32.28058c0.12557,-11.56998 0.28453,-26.21644 0.38994,-35.92974c0.20425,-18.82036 1.37736,-36.98238 1.37736,-36.98238" data-paper-data="{&quot;index&quot;:null}" fill="none" stroke="#282828" stroke-width="40" stroke-linecap="round"/><path d="M191.67852,340.07185l13.64654,-114.87946l41.76363,-1.5096l10.91723,116.38906c0,0 -6.50068,12.57996 -32.99266,10.56717c-28.75567,-2.18478 -33.33473,-10.56717 -33.33473,-10.56717z" fill="#040017" stroke="#000000" stroke-width="0" stroke-linecap="butt"/><path d="M149.3433,151.93475c0,-44.68167 36.22165,-80.9033 80.9033,-80.9033c44.68167,0 80.9033,36.22165 80.9033,80.9033c0,44.68167 -36.22164,80.9033 -80.9033,80.9033c-44.68167,0 -80.9033,-36.22165 -80.9033,-80.9033z" fill="#ffcb9d" stroke="#000000" stroke-width="0" stroke-linecap="butt"/><path d="M150.9551,169.58885c0,0 -22.02241,-95.86098 44.53308,-109.8231c9.06665,-1.90202 48.31628,-6.26046 48.31628,-6.26046l3.62309,6.91191c0,0 14.1635,-0.93154 22.53238,0.55191c8.3689,1.48345 20.63278,7.09943 20.63278,7.09943l-6.82802,7.50491c0,0 7.54833,7.77492 10.78914,15.49861c5.41619,12.90819 36.63416,23.4994 23.21161,25.30356c-13.42256,1.80416 -74.43595,0.09135 -112.56791,-13.2929c-22.31305,-7.83184 -19.35193,-4.75906 -23.29323,-4.05349c-19.90627,3.56355 -19.42919,61.43699 -19.42919,61.43699c0,0 -1.1514,-10.00258 -7.30069,-3.9379c-4.69739,4.63275 -4.21931,13.06053 -4.21931,13.06053z" fill="#000000" stroke="#000000" stroke-width="0" stroke-linecap="butt"/><path d="M155.33838,479.685c0,-7.50354 4.99263,-21.13434 26.66953,-21.13434c21.67689,0 39.24949,6.08283 39.24949,13.58636c0,7.50354 -65.91903,15.05152 -65.91903,7.54798z" fill="#040017" stroke="none" stroke-width="0" stroke-linecap="butt"/><path d="M221.76063,472.13701c0,-7.50355 17.57259,-13.58636 39.24949,-13.58636c21.67691,0 26.66953,13.63079 26.66953,21.13434c0,7.50355 -65.91903,-0.04443 -65.91903,-7.54798z" data-paper-data="{&quot;index&quot;:null}" fill="#040017" stroke="none" stroke-width="0" stroke-linecap="butt"/><path d="M266.82255,369.91383c-3.9265,-8.15943 -0.49504,-17.95701 7.66438,-21.88351c8.15943,-3.9265 17.95701,-0.49504 21.88351,7.66438c2.26935,4.71577 5.83404,12.16052 4.28875,18.4719c-1.12845,4.60884 -6.40558,8.67373 -9.84924,10.3309c-3.97824,1.91442 -8.56761,2.7599 -12.96692,-0.20487c-4.62373,-3.116 -9.00839,-10.19764 -11.02047,-14.37883z" data-paper-data="{&quot;index&quot;:null}" fill="#ffcb9d" stroke="#000000" stroke-width="0" stroke-linecap="butt"/><path d="M237.74244,250.88025l39.54818,103.96996" data-paper-data="{&quot;index&quot;:null}" fill="none" stroke="#040017" stroke-width="35" stroke-linecap="round"/><path d="M241.82353,207.38337h-25.66313" fill="none" stroke="#000000" stroke-width="5" stroke-linecap="round"/><path d="M218.08448,154.22021h-23" fill="none" stroke="#000000" stroke-width="12.5" stroke-linecap="round"/><path d="M240.58598,153.72022h23" fill="none" stroke="#000000" stroke-width="12.5" stroke-linecap="round"/></g></g></svg>