<svg version="1.1" xmlns="http://www.w3.org/2000/svg" xmlns:xlink="http://www.w3.org/1999/xlink" width="515.01503" height="567.56758" viewBox="0,0,515.01503,567.56758"><defs><linearGradient x1="227.98799" y1="295.61562" x2="227.98799" y2="372.19219" gradientUnits="userSpaceOnUse" id="color-1"><stop offset="0" stop-color="#969696"/><stop offset="1" stop-color="#4e4e4e"/></linearGradient><linearGradient x1="117.62763" y1="280.6006" x2="117.62763" y2="313.63363" gradientUnits="userSpaceOnUse" id="color-2"><stop offset="0" stop-color="#ffffff"/><stop offset="1" stop-color="#b8b8b8"/></linearGradient><linearGradient x1="113.14327" y1="35.19208" x2="113.14327" y2="202.65706" gradientUnits="userSpaceOnUse" id="color-3"><stop offset="0" stop-color="#abebff"/><stop offset="1" stop-color="#00bfff"/></linearGradient></defs><g transform="translate(23.51352,7.68769)"><g data-paper-data="{&quot;isPaintingLayer&quot;:true}" fill-rule="nonzero" stroke-linejoin="miter" stroke-miterlimit="10" stroke-dasharray="" stroke-dashoffset="0" style="mix-blend-mode: normal"><path d="M-11.5015,367.68768v-375.37537h503.00301v375.37538z" fill="#b1832d" stroke="none" stroke-width="0" stroke-linecap="butt"/><path d="M-23.51352,559.87989v-303.3033h513.51351v303.3033z" fill="#7b5b1f" stroke="none" stroke-width="0" stroke-linecap="butt"/><path d="M44.05405,372.19219v-76.57658h367.86787v76.57658z" fill="url(#color-1)" stroke="none" stroke-width="0" stroke-linecap="butt"/><path d="M51.56156,313.63363v-33.03303h132.13213v33.03303z" fill="url(#color-2)" stroke="none" stroke-width="0" stroke-linecap="butt"/><g><path d="M378.77233,341.69238c0,0 -24.7912,3.59841 -33.98636,4.86025c-10.47679,1.43767 -23.73938,3.25766 -32.53493,4.46461c-17.04211,2.3386 -33.61897,3.71303 -33.61897,3.71303" data-paper-data="{&quot;index&quot;:null}" fill="none" stroke="#282828" stroke-width="33.5" stroke-linecap="round"/><path d="M380.67186,368.60893c0,0 -20.01454,2.89007 -29.2097,4.15186c-10.47679,1.43767 -23.73938,3.25765 -32.53493,4.4646c-17.04211,2.3386 -33.61896,3.71302 -33.61896,3.71302" data-paper-data="{&quot;index&quot;:null}" fill="none" stroke="#282828" stroke-width="33.5" stroke-linecap="round"/><path d="M395.09882,383.22813c-6.78364,1.00599 -14.63887,-14.06515 -17.54509,-33.66236c-2.90626,-19.59724 8.74745,-25.93837 15.53109,-26.94436c6.78365,-1.00601 8.79764,59.60072 2.01399,60.60673z" data-paper-data="{&quot;index&quot;:null}" fill="#040017" stroke="none" stroke-width="0" stroke-linecap="butt"/><path d="M390.8486,354.56806c-6.78365,1.00601 -14.63886,-14.06515 -17.54511,-33.66238c-2.90625,-19.59723 8.7474,-25.93834 15.53108,-26.94433c6.78365,-1.00601 8.79766,59.60071 2.014,60.60672z" data-paper-data="{&quot;index&quot;:null}" fill="#040017" stroke="none" stroke-width="0" stroke-linecap="butt"/><path d="M313.10693,390.96037c3.38507,1.02268 9.23339,3.4902 12.12396,6.60466c2.7503,2.96333 2.65408,6.51836 1.68107,9.73914c-0.84229,2.78798 -3.28152,7.23996 -6.61882,8.63226c-4.57013,1.90667 -10.59528,0.09925 -14.41315,-1.05416c-6.60583,-1.99566 -10.34318,-8.96859 -8.3475,-15.57443c1.99566,-6.60585 8.96857,-10.34318 15.57442,-8.3475z" data-paper-data="{&quot;index&quot;:null}" fill="#ffcb9d" stroke="#000000" stroke-width="0" stroke-linecap="butt"/><path d="M299.40989,400.01244l-82.9394,-17.53519" data-paper-data="{&quot;index&quot;:null}" fill="none" stroke="#040017" stroke-width="26.5" stroke-linecap="round"/><path d="M285.71108,388.46515l-93.23745,4.05447l-6.1216,-31.25707l91.54928,-22.73775c0,0 10.79951,3.32543 12.31339,23.52328c1.64326,21.92369 -4.5036,26.417 -4.5036,26.417z" data-paper-data="{&quot;index&quot;:null}" fill="#040017" stroke="#000000" stroke-width="0" stroke-linecap="butt"/><path d="M302.40028,328.99833c-5.7277,3.84887 -13.49102,2.32575 -17.33985,-3.40194c-3.84885,-5.72768 -2.32572,-13.491 3.40194,-17.33987c3.31034,-2.22446 8.53828,-5.72273 13.46693,-5.24329c3.59909,0.35009 7.23898,3.88866 8.86338,6.30598c1.87656,2.79262 3.01329,6.16239 1.25526,9.8031c-1.84767,3.82642 -6.71255,7.9037 -9.64765,9.87595z" data-paper-data="{&quot;index&quot;:null}" fill="#ffcb9d" stroke="#000000" stroke-width="0" stroke-linecap="butt"/><path d="M212.52399,365.50599l74.12392,-41.13482" data-paper-data="{&quot;index&quot;:null}" fill="none" stroke="#040017" stroke-width="26.5" stroke-linecap="round"/><path d="M154.78009,446.25343c-33.64244,5.2611 -65.18,-17.74654 -70.4411,-51.38898c-5.2611,-33.64244 17.74652,-65.18001 51.38895,-70.44111c33.64245,-5.2611 65.18001,17.74652 70.44112,51.38897c5.26111,33.64244 -17.74653,65.18 -51.38898,70.4411z" data-paper-data="{&quot;index&quot;:null}" fill="#ffcb9d" stroke="#000000" stroke-width="0" stroke-linecap="butt"/><path d="M167.88275,442.96122c0,0 -69.58415,27.86874 -87.9334,-20.59929c-2.49966,-6.60264 -10.40281,-35.64195 -10.40281,-35.64195l4.77763,-3.54182c0,0 -2.3691,-10.55451 -2.23757,-17.03043c0.13152,-6.47593 2.91598,-16.3711 2.91598,-16.3711l6.45471,4.25736c0,0 4.96521,-6.59887 10.39907,-9.94844c9.08133,-5.59795 13.37999,-30.35015 16.31889,-20.45627c2.93888,9.89391 8.83334,56.03476 3.24577,86.32165c-3.26961,17.7225 -1.30465,15.13113 -0.30933,18.0156c5.02702,14.56854 48.54588,7.39496 48.54588,7.39496c0,0 -7.39574,2.04468 -2.10536,5.96063c4.04126,2.99136 10.33055,1.63901 10.33055,1.63901z" data-paper-data="{&quot;index&quot;:null}" fill="#000000" stroke="#000000" stroke-width="0" stroke-linecap="butt"/><path d="M158.69072,348.54437c0,0 -12.71623,1.98861 -18.75438,2.93286c-5.99079,0.93685 -17.90192,2.79955 -17.90192,2.79955" data-paper-data="{&quot;index&quot;:null}" fill="#ffffff" stroke="#ffffff" stroke-width="11.5" stroke-linecap="round"/><path d="M162.24562,371.27699c0,0 -12.71623,1.9886 -18.7544,2.93286c-5.99079,0.93685 -17.90191,2.79954 -17.90191,2.79954" data-paper-data="{&quot;index&quot;:null}" fill="#ffffff" stroke="#ffffff" stroke-width="11.5" stroke-linecap="round"/><path d="M180.69599,350.1141l3.67487,15.7667" fill="none" stroke="#000000" stroke-width="5" stroke-linecap="round"/></g><path d="M24.52132,202.65706v-167.46495h177.24393v167.46495z" fill="url(#color-3)" stroke="none" stroke-width="0" stroke-linecap="butt"/><g fill="#bb0000" stroke="none" stroke-width="0" stroke-linecap="butt"><path d="M104.47384,163.87224c3.95901,0 7.16843,3.3645 7.16843,7.51493c0,4.15035 -3.20942,7.51493 -7.16843,7.51493c-3.95901,0 -7.16837,-3.3645 -7.16837,-7.51493c0,-4.15035 3.20942,-7.51493 7.16837,-7.51493z" data-paper-data="{&quot;index&quot;:null}"/><path d="M120.14995,163.60546c3.95901,0 7.16843,3.3645 7.16843,7.51493c0,4.15035 -3.20942,7.51488 -7.16843,7.51488c-3.95901,0 -7.16837,-3.3645 -7.16837,-7.51488c0,-4.15035 3.20942,-7.51493 7.16837,-7.51493z" data-paper-data="{&quot;index&quot;:null}"/><path d="M88.5541,158.4886c3.95901,0 7.16843,3.3645 7.16843,7.51493c0,4.15035 -3.20942,7.51488 -7.16843,7.51488c-3.95901,0 -7.16837,-3.3645 -7.16837,-7.51488c0,-4.15035 3.20942,-7.51493 7.16837,-7.51493z" data-paper-data="{&quot;index&quot;:null}"/><path d="M73.67955,148.10667c3.95901,0 7.16843,3.3645 7.16843,7.51493c0,4.15035 -3.20942,7.51488 -7.16843,7.51488c-3.95901,0 -7.16837,-3.3645 -7.16837,-7.51488c0,-4.15035 3.20942,-7.51493 7.16837,-7.51493z" data-paper-data="{&quot;index&quot;:null}"/><path d="M136.58324,159.2986c3.95901,0 7.16837,3.3645 7.16837,7.51493c0,4.15035 -3.20942,7.51488 -7.16837,7.51488c-3.95901,0 -7.16843,-3.3645 -7.16843,-7.51488c0,-4.15035 3.20942,-7.51493 7.16843,-7.51493z" data-paper-data="{&quot;index&quot;:null}"/><path d="M148.96858,146.57054c3.95901,0 7.16837,3.3645 7.16837,7.51493c0,4.15035 -3.20942,7.51488 -7.16837,7.51488c-3.95901,0 -7.16843,-3.3645 -7.16843,-7.51488c0,-4.15035 3.20942,-7.51493 7.16843,-7.51493z" data-paper-data="{&quot;index&quot;:null}"/><path d="M158.29087,131.30363c3.95901,0 7.16843,3.3645 7.16843,7.51493c0,4.15035 -3.20942,7.51488 -7.16843,7.51488c-3.95901,0 -7.16837,-3.3645 -7.16837,-7.51488c0,-4.15035 3.20942,-7.51493 7.16837,-7.51493z" data-paper-data="{&quot;index&quot;:null}"/><path d="M164.09689,114.26869c3.95901,0 7.16843,3.3645 7.16843,7.51493c0,4.15035 -3.20942,7.51488 -7.16843,7.51488c-3.95901,0 -7.16837,-3.3645 -7.16837,-7.51488c0,-4.15035 3.20942,-7.51493 7.16837,-7.51493z" data-paper-data="{&quot;index&quot;:null}"/><path d="M66.3853,132.91874c3.95901,0 7.16837,3.3645 7.16837,7.51493c0,4.15035 -3.20942,7.51488 -7.16837,7.51488c-3.95901,0 -7.16843,-3.3645 -7.16843,-7.51488c0,-4.15035 3.20942,-7.51493 7.16843,-7.51493z" data-paper-data="{&quot;index&quot;:null}"/><path d="M60.06573,114.96008c3.95901,0 7.16837,3.3645 7.16837,7.51488c0,4.15035 -3.20942,7.51488 -7.16837,7.51488c-3.95901,0 -7.16843,-3.3645 -7.16843,-7.51488c0,-4.15035 3.20942,-7.51488 7.16843,-7.51488z" data-paper-data="{&quot;index&quot;:null}"/><path d="M96.57442,70.61089c0,-4.15035 3.20942,-7.51488 7.16837,-7.51488c3.95901,0 7.16843,3.3645 7.16843,7.51488c0,4.15035 -3.20942,7.51493 -7.16843,7.51493c-3.95901,0 -7.16837,-3.3645 -7.16837,-7.51493z" data-paper-data="{&quot;index&quot;:null}"/><path d="M112.25049,70.87768c0,-4.15035 3.20942,-7.51488 7.16837,-7.51488c3.95901,0 7.16843,3.3645 7.16843,7.51488c0,4.15035 -3.20942,7.51493 -7.16843,7.51493c-3.95901,0 -7.16837,-3.3645 -7.16837,-7.51493z" data-paper-data="{&quot;index&quot;:null}"/><path d="M80.6547,75.99452c0,-4.15035 3.20942,-7.51493 7.16837,-7.51493c3.95901,0 7.16843,3.3645 7.16843,7.51493c0,4.15035 -3.20942,7.51493 -7.16843,7.51493c-3.95901,0 -7.16837,-3.3645 -7.16837,-7.51493z" data-paper-data="{&quot;index&quot;:null}"/><path d="M65.78015,86.37645c0,-4.15035 3.20942,-7.51493 7.16837,-7.51493c3.95901,0 7.16843,3.3645 7.16843,7.51493c0,4.15035 -3.20942,7.51493 -7.16843,7.51493c-3.95901,0 -7.16837,-3.3645 -7.16837,-7.51493z" data-paper-data="{&quot;index&quot;:null}"/><path d="M128.68381,75.18461c0,-4.15035 3.20942,-7.51488 7.16843,-7.51488c3.95901,0 7.16837,3.3645 7.16837,7.51488c0,4.15035 -3.20942,7.51493 -7.16837,7.51493c-3.95901,0 -7.16843,-3.3645 -7.16843,-7.51493z" data-paper-data="{&quot;index&quot;:null}"/><path d="M141.06913,87.91262c0,-4.15035 3.20942,-7.51488 7.16843,-7.51488c3.95901,0 7.16837,3.3645 7.16837,7.51488c0,4.15035 -3.20942,7.51493 -7.16837,7.51493c-3.95901,0 -7.16843,-3.3645 -7.16843,-7.51493z" data-paper-data="{&quot;index&quot;:null}"/><path d="M150.39144,103.1795c0,-4.15035 3.20942,-7.51488 7.16837,-7.51488c3.95901,0 7.16843,3.3645 7.16843,7.51488c0,4.15035 -3.20942,7.51493 -7.16843,7.51493c-3.95901,0 -7.16837,-3.36456 -7.16837,-7.51493z" data-paper-data="{&quot;index&quot;:null}"/><path d="M58.48586,101.56441c0,-4.15035 3.20942,-7.51488 7.16843,-7.51488c3.95901,0 7.16837,3.3645 7.16837,7.51488c0,4.15035 -3.20942,7.51493 -7.16837,7.51493c-3.95901,0 -7.16843,-3.3645 -7.16843,-7.51493z" data-paper-data="{&quot;index&quot;:null}"/></g></g></g></svg>