<svg version="1.1" xmlns="http://www.w3.org/2000/svg" xmlns:xlink="http://www.w3.org/1999/xlink" width="503.00301" height="652.41576" viewBox="0,0,503.00301,652.41576"><g transform="translate(11.50151,7.68769)"><g data-paper-data="{&quot;isPaintingLayer&quot;:true}" fill-rule="nonzero" stroke-linejoin="miter" stroke-miterlimit="10" stroke-dasharray="" stroke-dashoffset="0" style="mix-blend-mode: normal"><path d="M-11.50151,367.68768v-375.37537h503.00301v375.37538z" fill="#b1832d" stroke="none" stroke-width="0" stroke-linecap="butt"/><path d="M152.48556,623.96988c0.36488,-11.69884 28.05833,-20.32821 61.85503,-19.27412c33.79678,1.05403 40.91804,22.54877 40.55314,34.24763c-0.36485,11.69887 -102.77307,-3.27464 -102.40817,-14.97351z" data-paper-data="{&quot;index&quot;:null}" fill="#040017" stroke="none" stroke-width="0" stroke-linecap="butt"/><path d="M201.91178,625.51143c0.36484,-11.69888 28.05833,-20.32818 61.85506,-19.27413c33.79674,1.05405 40.91801,22.5487 40.55312,34.2476c-0.36484,11.69888 -102.77303,-3.2746 -102.40816,-14.97349z" data-paper-data="{&quot;index&quot;:null}" fill="#040017" stroke="none" stroke-width="0" stroke-linecap="butt"/><g><path d="M356.84078,581.47913c0,0 -12.1463,-40.99396 -16.52841,-56.21661c-4.99283,-17.3444 -11.31328,-39.30072 -15.50487,-53.86182c-8.1216,-28.21332 -14.50072,-55.87685 -14.50072,-55.87685" data-paper-data="{&quot;index&quot;:null}" fill="none" stroke="#282828" stroke-width="37.5" stroke-linecap="round"/><path d="M311.84108,591.27611c0,0 -9.78063,-33.0991 -14.16267,-48.32175c-4.99283,-17.3444 -11.31327,-39.30072 -15.50486,-53.86183c-8.1216,-28.21332 -14.50071,-55.87682 -14.50071,-55.87682" data-paper-data="{&quot;index&quot;:null}" fill="none" stroke="#282828" stroke-width="37.5" stroke-linecap="round"/><path d="M257.54919,482.62343c-0.89882,5.96804 -3.6352,16.45038 -8.18828,22.0952c-4.33216,5.37085 -10.36048,6.07853 -16.03888,5.22337c-4.91534,-0.74028 -13.03222,-3.77063 -16.20086,-9.06689c-4.3392,-7.2527 -2.7611,-17.87217 -1.74738,-24.60324c1.75393,-11.64639 12.61708,-19.66592 24.26348,-17.91195c11.64641,1.75392 19.6659,12.61704 17.91195,24.26345z" data-paper-data="{&quot;index&quot;:null}" fill="#ffcb9d" stroke="#000000" stroke-width="0" stroke-linecap="butt"/><path d="M247.27264,314.47027l-9.31722,144.38487" data-paper-data="{&quot;index&quot;:null}" fill="none" stroke="#040017" stroke-width="45" stroke-linecap="round"/><path d="M255.05804,435.7384l-29.6705,-156.49468l51.29782,-17.99092l60.81517,149.07002c0,0 -2.97355,19.0554 -36.71912,26.5564c-36.62903,8.14197 -45.72323,-1.14082 -45.72323,-1.14082z" data-paper-data="{&quot;index&quot;:null}" fill="#040017" stroke="#000000" stroke-width="0" stroke-linecap="butt"/><path d="M355.8261,443.25288c-7.6798,-8.92954 -6.66664,-22.39407 2.2629,-30.07381c8.92951,-7.67977 22.39404,-6.66659 30.07385,2.26287c4.43856,5.16086 11.42326,13.31426 11.60627,21.76389c0.1337,6.17025 -5.12804,13.0537 -8.89666,16.29493c-4.35372,3.74438 -9.835,6.35151 -16.36021,4.10754c-6.85802,-2.35841 -14.75063,-9.77958 -18.68598,-14.35545z" data-paper-data="{&quot;index&quot;:null}" fill="#ffcb9d" stroke="#000000" stroke-width="0" stroke-linecap="butt"/><path d="M360.4861,415.62196l-84.6856,-117.31221" data-paper-data="{&quot;index&quot;:null}" fill="none" stroke="#040017" stroke-width="45" stroke-linecap="round"/><path d="M125.3995,228.72833c-17.12131,-55.53756 14.02123,-114.43926 69.55884,-131.56056c55.53756,-17.12131 114.43927,14.02123 131.56058,69.55878c17.12129,55.53758 -14.02122,114.43926 -69.55881,131.56058c-55.53755,17.12132 -114.43926,-14.02122 -131.56055,-69.55882z" data-paper-data="{&quot;index&quot;:null}" fill="#ffcb9d" stroke="#000000" stroke-width="0" stroke-linecap="butt"/><path d="M134.16757,250.05415c0,0 -64.10542,-110.71285 13.27038,-153.57023c10.54066,-5.83833 57.65637,-26.29559 57.65637,-26.29559l7.1519,7.20293c0,0 17.2477,-6.58512 28.21836,-7.94808c10.97067,-1.36299 28.36614,0.91815 28.36614,0.91815l-5.61115,11.94472c0,0 12.36149,6.77151 19.34931,15.12992c11.67834,13.96901 54.53944,15.17118 38.54707,22.55703c-15.9924,7.38584 -92.48599,28.63622 -145.01117,26.61171c-30.73533,-1.18467 -25.87729,1.50002 -30.50582,3.88727c-23.37719,12.05712 -0.60802,83.80879 -0.60802,83.80879c0,0 -5.26395,-11.99164 -10.58341,-2.09715c-4.0635,7.5583 -0.2398,17.85049 -0.2398,17.85049z" data-paper-data="{&quot;index&quot;:null}" fill="#000000" stroke="#000000" stroke-width="0" stroke-linecap="butt"/><path d="M291.39682,211.41709c0,0 -6.47158,-20.99217 -9.54448,-30.96007c-3.04883,-9.88971 -9.11065,-29.55282 -9.11065,-29.55282" data-paper-data="{&quot;index&quot;:null}" fill="none" stroke="#000000" stroke-width="20" stroke-linecap="round"/><path d="M253.86937,222.98602c0,0 -6.47155,-20.99218 -9.54448,-30.9601c-3.04883,-9.88971 -9.11063,-29.55281 -9.11063,-29.55281" data-paper-data="{&quot;index&quot;:null}" fill="none" stroke="#000000" stroke-width="20" stroke-linecap="round"/><path d="M294.17887,250.50233l-25.77913,8.53452" fill="none" stroke="#000000" stroke-width="8" stroke-linecap="round"/><path d="M221.36664,180.43137l-7.49104,-22.43086l72.63322,-24.2567l7.49104,22.43086z" fill="#ffcb9d" stroke="none" stroke-width="0" stroke-linecap="butt"/></g></g></g></svg>