<svg version="1.1" xmlns="http://www.w3.org/2000/svg" xmlns:xlink="http://www.w3.org/1999/xlink" width="635.65644" height="652.41576" viewBox="0,0,635.65644,652.41576"><g transform="translate(11.50151,7.68769)"><g data-paper-data="{&quot;isPaintingLayer&quot;:true}" fill-rule="nonzero" stroke-linejoin="miter" stroke-miterlimit="10" stroke-dasharray="" stroke-dashoffset="0" style="mix-blend-mode: normal"><path d="M-11.50151,367.68768v-375.37537h503.00301v375.37538z" fill="#b1832d" stroke="none" stroke-width="0" stroke-linecap="butt"/><path d="M152.48556,623.96988c0.36488,-11.69884 28.05833,-20.32821 61.85503,-19.27412c33.79678,1.05403 40.91804,22.54877 40.55314,34.24763c-0.36485,11.69887 -102.77307,-3.27464 -102.40817,-14.97351z" data-paper-data="{&quot;index&quot;:null}" fill="#040017" stroke="none" stroke-width="0" stroke-linecap="butt"/><path d="M201.91178,625.51143c0.36484,-11.69888 28.05833,-20.32818 61.85506,-19.27413c33.79674,1.05405 40.91801,22.5487 40.55312,34.2476c-0.36484,11.69888 -102.77303,-3.2746 -102.40816,-14.97349z" data-paper-data="{&quot;index&quot;:null}" fill="#040017" stroke="none" stroke-width="0" stroke-linecap="butt"/><g><path d="M605.40493,586.35919c0,0 -37.8171,-19.94755 -51.77044,-27.44662c-15.89813,-8.54436 -36.02362,-19.36068 -49.37051,-26.53393c-25.86073,-13.89871 -50.11079,-28.6601 -50.11079,-28.6601" data-paper-data="{&quot;index&quot;:null}" fill="none" stroke="#282828" stroke-width="37.5" stroke-linecap="round"/><path d="M580.97803,625.40121c0,0 -30.51557,-16.12486 -44.46886,-23.62399c-15.89813,-8.54436 -36.02361,-19.36069 -49.37051,-26.53394c-25.86073,-13.89871 -50.11077,-28.66009 -50.11077,-28.66009" data-paper-data="{&quot;index&quot;:null}" fill="none" stroke="#282828" stroke-width="37.5" stroke-linecap="round"/><path d="M465.30735,588.34302c3.64229,4.81238 9.2309,14.09326 10.08907,21.29452c0.81646,6.85178 -2.88856,11.65952 -7.46736,15.12507c-3.96354,2.99983 -11.80224,6.69056 -17.80539,5.25779c-8.22076,-1.96199 -14.71666,-10.50989 -18.82464,-15.93755c-7.10784,-9.39113 -5.25693,-22.76628 4.13423,-29.87412c9.39113,-7.10786 22.76624,-5.25695 29.87408,4.13421z" data-paper-data="{&quot;index&quot;:null}" fill="#ffcb9d" stroke="#000000" stroke-width="0" stroke-linecap="butt"/><path d="M434.61265,585.7581l-96.8002,-107.53383" data-paper-data="{&quot;index&quot;:null}" fill="none" stroke="#040017" stroke-width="45" stroke-linecap="round"/><path d="M430.02021,557.37161l-132.70173,-88.09753l22.96392,-49.2727l149.14695,60.62624c0,0 11.55706,15.43971 -6.65053,44.82529c-19.76335,31.89652 -32.7585,31.91858 -32.7585,31.91858z" data-paper-data="{&quot;index&quot;:null}" fill="#040017" stroke="#000000" stroke-width="0" stroke-linecap="butt"/><path d="M505.79345,490.5204c-11.7543,-0.74317 -20.68055,-10.87443 -19.93734,-22.62868c0.74318,-11.75426 10.87444,-20.68049 22.62869,-19.93738c6.79344,0.42953 17.50682,1.12785 23.68048,6.89981c4.5083,4.21487 5.75763,12.7885 5.44402,17.7493c-0.36236,5.73096 -2.32614,11.47423 -8.49024,14.57547c-6.47848,3.25941 -17.30219,3.72225 -23.32552,3.34134z" data-paper-data="{&quot;index&quot;:null}" fill="#ffcb9d" stroke="#000000" stroke-width="0" stroke-linecap="butt"/><path d="M489.27864,467.88314l-143.0997,-21.36066" data-paper-data="{&quot;index&quot;:null}" fill="none" stroke="#040017" stroke-width="45" stroke-linecap="round"/><path d="M191.32244,505.52674c-51.69878,-26.54801 -72.08751,-89.97961 -45.53946,-141.67841c26.54801,-51.69878 89.97961,-72.08752 141.67838,-45.53952c51.69876,26.54804 72.08751,89.9796 45.53949,141.6784c-26.54799,51.69877 -89.9796,72.08751 -141.67839,45.53946z" data-paper-data="{&quot;index&quot;:null}" fill="#ffcb9d" stroke="#000000" stroke-width="0" stroke-linecap="butt"/><path d="M212.70671,514.15129c0,0 -124.00048,-31.47573 -100.61076,-116.77925c3.1863,-11.62064 21.4639,-59.62396 21.4639,-59.62396l10.15011,-0.0853c0,0 7.3375,-16.94131 14.02638,-25.74312c6.68886,-8.80184 20.47352,-19.65491 20.47352,-19.65491l4.62666,12.35943c0,0 13.48083,-4.11423 24.34306,-3.27492c18.15348,1.40275 48.95642,-28.42508 43.06882,-11.82258c-5.88762,16.60251 -44.12111,86.18016 -82.26374,122.34827c-22.31935,21.1639 -17.00459,19.56345 -18.52997,24.54295c-7.70428,25.14977 59.54149,58.98384 59.54149,58.98384c0,0 -12.25756,-4.61093 -8.8941,6.1075c2.56929,8.18771 12.60473,12.64192 12.60473,12.64192z" data-paper-data="{&quot;index&quot;:null}" fill="#000000" stroke="#000000" stroke-width="0" stroke-linecap="butt"/><path d="M294.90172,374.65993c0,0 -19.54121,-10.03463 -28.82009,-14.7995c-9.20612,-4.72746 -27.51011,-14.1268 -27.51011,-14.1268" data-paper-data="{&quot;index&quot;:null}" fill="none" stroke="#000000" stroke-width="20" stroke-linecap="round"/><path d="M276.96277,409.59335c0,0 -19.54119,-10.03466 -28.82011,-14.79952c-9.20612,-4.72746 -27.51009,-14.12682 -27.51009,-14.12682" data-paper-data="{&quot;index&quot;:null}" fill="none" stroke="#000000" stroke-width="20" stroke-linecap="round"/><path d="M324.81125,399.97428l-11.90274,24.40751" fill="none" stroke="#000000" stroke-width="8" stroke-linecap="round"/><path d="M223.80798,403.1208l-21.2828,-10.31026l33.38557,-68.91571l21.2828,10.31026z" fill="#ffcb9d" stroke="none" stroke-width="0" stroke-linecap="butt"/></g></g></g></svg>