<svg version="1.1" xmlns="http://www.w3.org/2000/svg" xmlns:xlink="http://www.w3.org/1999/xlink" width="636.91187" height="375.81225" viewBox="0,0,636.91187,375.81225"><defs><linearGradient x1="240.00003" y1="2.09389" x2="240.00003" y2="357.90616" gradientUnits="userSpaceOnUse" id="color-1"><stop offset="0" stop-color="#191919"/><stop offset="1" stop-color="#0c0c0c"/></linearGradient><linearGradient x1="237.74781" y1="10.33039" x2="237.74781" y2="345.16525" gradientUnits="userSpaceOnUse" id="color-2"><stop offset="0" stop-color="#000000"/><stop offset="1" stop-color="#000d2f"/></linearGradient></defs><g transform="translate(78.45592,7.9061)"><g data-paper-data="{&quot;isPaintingLayer&quot;:true}" fill-rule="nonzero" stroke-linecap="butt" stroke-linejoin="miter" stroke-miterlimit="10" stroke-dasharray="" stroke-dashoffset="0" style="mix-blend-mode: normal"><path d="M-68.45592,357.90616v-355.81225h616.91187v355.81225z" fill="url(#color-1)" stroke="#575757" stroke-width="20"/><path d="M-25.01496,345.16525v-334.83483h525.52553v334.83483z" fill="url(#color-2)" stroke="#ffffff" stroke-width="0"/><path d="M23.03303,109.42945v-72.07207h418.91892v72.07207z" fill="#ffffff" stroke="none" stroke-width="0"/><text transform="translate(35.04505,81.78611) scale(0.65572,0.65572)" font-size="40" xml:space="preserve" fill="#000000" fill-rule="nonzero" stroke="none" stroke-width="1" stroke-linecap="butt" stroke-linejoin="miter" stroke-miterlimit="10" stroke-dasharray="" stroke-dashoffset="0" font-family="Sans Serif" font-weight="normal" text-anchor="start" style="mix-blend-mode: normal"><tspan x="0" dy="0">2021 4th of July Fireworks Show</tspan></text><g fill="#8100ba" stroke="none" stroke-width="0"><path d="M216.95997,276.59186c5.1969,0 9.40986,4.41657 9.40986,9.86469c0,5.4481 -4.21296,9.86469 -9.40986,9.86469c-5.1969,0 -9.40986,-4.41657 -9.40986,-9.86469c0,-5.4481 4.21296,-9.86469 9.40986,-9.86469z" data-paper-data="{&quot;index&quot;:null}"/><path d="M237.53782,276.24165c5.1969,0 9.40986,4.41657 9.40986,9.86469c0,5.4481 -4.21296,9.86469 -9.40986,9.86469c-5.1969,0 -9.40986,-4.41657 -9.40986,-9.86469c0,-5.4481 4.21296,-9.86469 9.40986,-9.86469z" data-paper-data="{&quot;index&quot;:null}"/><path d="M196.06231,269.52479c5.1969,0 9.40986,4.41657 9.40986,9.86469c0,5.4481 -4.21296,9.86469 -9.40986,9.86469c-5.1969,0 -9.40986,-4.41657 -9.40986,-9.86469c0,-5.4481 4.21296,-9.86469 9.40986,-9.86469z" data-paper-data="{&quot;index&quot;:null}"/><path d="M176.53666,255.89661c5.1969,0 9.40986,4.41657 9.40986,9.86469c0,5.4481 -4.21296,9.86469 -9.40986,9.86469c-5.1969,0 -9.40986,-4.41657 -9.40986,-9.86469c0,-5.4481 4.21296,-9.86469 9.40986,-9.86469z" data-paper-data="{&quot;index&quot;:null}"/><path d="M259.10955,270.58802c5.1969,0 9.40986,4.41657 9.40986,9.86469c0,5.4481 -4.21296,9.86469 -9.40986,9.86469c-5.1969,0 -9.40986,-4.41657 -9.40986,-9.86469c0,-5.4481 4.21296,-9.86469 9.40986,-9.86469z" data-paper-data="{&quot;index&quot;:null}"/><path d="M275.36767,253.88007c5.1969,0 9.40986,4.41657 9.40986,9.86469c0,5.4481 -4.21296,9.86469 -9.40986,9.86469c-5.1969,0 -9.40986,-4.41657 -9.40986,-9.86469c0,-5.4481 4.21296,-9.86469 9.40986,-9.86469z" data-paper-data="{&quot;index&quot;:null}"/><path d="M287.60494,233.83946c5.1969,0 9.40986,4.41657 9.40986,9.86469c0,5.4481 -4.21296,9.86469 -9.40986,9.86469c-5.1969,0 -9.40986,-4.41657 -9.40986,-9.86469c0,-5.4481 4.21296,-9.86469 9.40986,-9.86469z" data-paper-data="{&quot;index&quot;:null}"/><path d="M295.22638,211.47789c5.1969,0 9.40986,4.41657 9.40986,9.86469c0,5.4481 -4.21296,9.86469 -9.40986,9.86469c-5.1969,0 -9.40986,-4.41657 -9.40986,-9.86469c0,-5.4481 4.21296,-9.86469 9.40986,-9.86469z" data-paper-data="{&quot;index&quot;:null}"/><path d="M166.9616,235.95955c5.1969,0 9.40986,4.41657 9.40986,9.86469c0,5.4481 -4.21296,9.86469 -9.40986,9.86469c-5.1969,0 -9.40986,-4.41657 -9.40986,-9.86469c0,-5.4481 4.21296,-9.86469 9.40986,-9.86469z" data-paper-data="{&quot;index&quot;:null}"/><path d="M158.66599,212.38546c5.1969,0 9.40986,4.41657 9.40986,9.86469c0,5.4481 -4.21296,9.86469 -9.40986,9.86469c-5.1969,0 -9.40986,-4.41657 -9.40986,-9.86469c0,-5.4481 4.21296,-9.86469 9.40986,-9.86469z" data-paper-data="{&quot;index&quot;:null}"/><path d="M206.59048,154.16887c0,-5.4481 4.21296,-9.86469 9.40986,-9.86469c5.1969,0 9.40986,4.41657 9.40986,9.86469c0,5.4481 -4.21296,9.86469 -9.40986,9.86469c-5.1969,0 -9.40986,-4.41657 -9.40986,-9.86469z" data-paper-data="{&quot;index&quot;:null}"/><path d="M227.16837,154.519c0,-5.4481 4.21296,-9.86469 9.40986,-9.86469c5.1969,0 9.40986,4.41657 9.40986,9.86469c0,5.4481 -4.21296,9.86469 -9.40986,9.86469c-5.1969,0 -9.40986,-4.41657 -9.40986,-9.86469z" data-paper-data="{&quot;index&quot;:null}"/><path d="M185.69286,161.23587c0,-5.4481 4.21296,-9.86469 9.40986,-9.86469c5.1969,0 9.40986,4.41657 9.40986,9.86469c0,5.4481 -4.21296,9.86469 -9.40986,9.86469c-5.1969,0 -9.40986,-4.41657 -9.40986,-9.86469z" data-paper-data="{&quot;index&quot;:null}"/><path d="M166.16726,174.86415c0,-5.4481 4.21296,-9.86469 9.40986,-9.86469c5.1969,0 9.40986,4.41657 9.40986,9.86469c0,5.44819 -4.21296,9.86469 -9.40986,9.86469c-5.1969,0 -9.40986,-4.41657 -9.40986,-9.86469z" data-paper-data="{&quot;index&quot;:null}"/><path d="M248.7401,160.17265c0,-5.4481 4.21296,-9.86469 9.40986,-9.86469c5.1969,0 9.40986,4.41657 9.40986,9.86469c0,5.4481 -4.21296,9.86469 -9.40986,9.86469c-5.1969,0 -9.40986,-4.41657 -9.40986,-9.86469z" data-paper-data="{&quot;index&quot;:null}"/><path d="M264.99821,176.88067c0,-5.44819 4.21296,-9.86469 9.40986,-9.86469c5.1969,0 9.40986,4.41657 9.40986,9.86469c0,5.44819 -4.21296,9.86469 -9.40986,9.86469c-5.1969,0 -9.40986,-4.41657 -9.40986,-9.86469z" data-paper-data="{&quot;index&quot;:null}"/><path d="M277.23549,196.92117c0,-5.44819 4.21296,-9.86469 9.40986,-9.86469c5.1969,0 9.40986,4.41657 9.40986,9.86469c0,5.44819 -4.21296,9.86469 -9.40986,9.86469c-5.1969,0 -9.40986,-4.41657 -9.40986,-9.86469z" data-paper-data="{&quot;index&quot;:null}"/><path d="M156.59208,194.80112c0,-5.44819 4.21296,-9.86469 9.40986,-9.86469c5.1969,0 9.40986,4.41657 9.40986,9.86469c0,5.44819 -4.21296,9.86469 -9.40986,9.86469c-5.1969,0 -9.40986,-4.41657 -9.40986,-9.86469z" data-paper-data="{&quot;index&quot;:null}"/></g></g></g></svg>