<svg version="1.1" xmlns="http://www.w3.org/2000/svg" xmlns:xlink="http://www.w3.org/1999/xlink" width="515.01503" height="567.56758" viewBox="0,0,515.01503,567.56758"><defs><linearGradient x1="113.14326" y1="35.19208" x2="113.14326" y2="202.65706" gradientUnits="userSpaceOnUse" id="color-1"><stop offset="0" stop-color="#abebff"/><stop offset="1" stop-color="#00bfff"/></linearGradient><linearGradient x1="227.98802" y1="295.61562" x2="227.98802" y2="372.19219" gradientUnits="userSpaceOnUse" id="color-2"><stop offset="0" stop-color="#969696"/><stop offset="1" stop-color="#4e4e4e"/></linearGradient><linearGradient x1="117.62766" y1="280.6006" x2="117.62766" y2="313.63363" gradientUnits="userSpaceOnUse" id="color-3"><stop offset="0" stop-color="#ffffff"/><stop offset="1" stop-color="#b8b8b8"/></linearGradient></defs><g transform="translate(23.5135,7.68769)"><g data-paper-data="{&quot;isPaintingLayer&quot;:true}" fill-rule="nonzero" stroke="none" stroke-width="0" stroke-linecap="butt" stroke-linejoin="miter" stroke-miterlimit="10" stroke-dasharray="" stroke-dashoffset="0" style="mix-blend-mode: normal"><path d="M-11.50148,367.68768v-375.37537h503.00301v375.37538z" fill="#b1832d"/><path d="M-23.5135,559.87989v-303.3033h513.51351v303.3033z" fill="#7b5b1f"/><path d="M24.52131,202.65706v-167.46495h177.24393v167.46495z" fill="url(#color-1)"/><path d="M44.05408,372.19219v-76.57658h367.86787v76.57658z" fill="url(#color-2)"/><path d="M51.56158,313.63363v-33.03303h132.13213v33.03303z" fill="url(#color-3)"/><g fill="#bb0000"><path d="M104.47384,163.87224c3.95901,0 7.16843,3.3645 7.16843,7.51493c0,4.15035 -3.20942,7.51493 -7.16843,7.51493c-3.95901,0 -7.16837,-3.3645 -7.16837,-7.51493c0,-4.15035 3.20942,-7.51493 7.16837,-7.51493z" data-paper-data="{&quot;index&quot;:null}"/><path d="M120.14995,163.60546c3.95901,0 7.16843,3.3645 7.16843,7.51493c0,4.15035 -3.20942,7.51488 -7.16843,7.51488c-3.95901,0 -7.16837,-3.3645 -7.16837,-7.51488c0,-4.15035 3.20942,-7.51493 7.16837,-7.51493z" data-paper-data="{&quot;index&quot;:null}"/><path d="M88.5541,158.4886c3.95901,0 7.16843,3.3645 7.16843,7.51493c0,4.15035 -3.20942,7.51488 -7.16843,7.51488c-3.95901,0 -7.16837,-3.3645 -7.16837,-7.51488c0,-4.15035 3.20942,-7.51493 7.16837,-7.51493z" data-paper-data="{&quot;index&quot;:null}"/><path d="M73.67955,148.10667c3.95901,0 7.16843,3.3645 7.16843,7.51493c0,4.15035 -3.20942,7.51488 -7.16843,7.51488c-3.95901,0 -7.16837,-3.3645 -7.16837,-7.51488c0,-4.15035 3.20942,-7.51493 7.16837,-7.51493z" data-paper-data="{&quot;index&quot;:null}"/><path d="M136.58324,159.2986c3.95901,0 7.16837,3.3645 7.16837,7.51493c0,4.15035 -3.20942,7.51488 -7.16837,7.51488c-3.95901,0 -7.16843,-3.3645 -7.16843,-7.51488c0,-4.15035 3.20942,-7.51493 7.16843,-7.51493z" data-paper-data="{&quot;index&quot;:null}"/><path d="M148.96858,146.57054c3.95901,0 7.16837,3.3645 7.16837,7.51493c0,4.15035 -3.20942,7.51488 -7.16837,7.51488c-3.95901,0 -7.16843,-3.3645 -7.16843,-7.51488c0,-4.15035 3.20942,-7.51493 7.16843,-7.51493z" data-paper-data="{&quot;index&quot;:null}"/><path d="M158.29087,131.30363c3.95901,0 7.16843,3.3645 7.16843,7.51493c0,4.15035 -3.20942,7.51488 -7.16843,7.51488c-3.95901,0 -7.16837,-3.3645 -7.16837,-7.51488c0,-4.15035 3.20942,-7.51493 7.16837,-7.51493z" data-paper-data="{&quot;index&quot;:null}"/><path d="M164.09689,114.26869c3.95901,0 7.16843,3.3645 7.16843,7.51493c0,4.15035 -3.20942,7.51488 -7.16843,7.51488c-3.95901,0 -7.16837,-3.3645 -7.16837,-7.51488c0,-4.15035 3.20942,-7.51493 7.16837,-7.51493z" data-paper-data="{&quot;index&quot;:null}"/><path d="M66.3853,132.91874c3.95901,0 7.16837,3.3645 7.16837,7.51493c0,4.15035 -3.20942,7.51488 -7.16837,7.51488c-3.95901,0 -7.16843,-3.3645 -7.16843,-7.51488c0,-4.15035 3.20942,-7.51493 7.16843,-7.51493z" data-paper-data="{&quot;index&quot;:null}"/><path d="M60.06573,114.96008c3.95901,0 7.16837,3.3645 7.16837,7.51488c0,4.15035 -3.20942,7.51488 -7.16837,7.51488c-3.95901,0 -7.16843,-3.3645 -7.16843,-7.51488c0,-4.15035 3.20942,-7.51488 7.16843,-7.51488z" data-paper-data="{&quot;index&quot;:null}"/><path d="M96.57442,70.61089c0,-4.15035 3.20942,-7.51488 7.16837,-7.51488c3.95901,0 7.16843,3.3645 7.16843,7.51488c0,4.15035 -3.20942,7.51493 -7.16843,7.51493c-3.95901,0 -7.16837,-3.3645 -7.16837,-7.51493z" data-paper-data="{&quot;index&quot;:null}"/><path d="M112.25049,70.87768c0,-4.15035 3.20942,-7.51488 7.16837,-7.51488c3.95901,0 7.16843,3.3645 7.16843,7.51488c0,4.15035 -3.20942,7.51493 -7.16843,7.51493c-3.95901,0 -7.16837,-3.3645 -7.16837,-7.51493z" data-paper-data="{&quot;index&quot;:null}"/><path d="M80.6547,75.99452c0,-4.15035 3.20942,-7.51493 7.16837,-7.51493c3.95901,0 7.16843,3.3645 7.16843,7.51493c0,4.15035 -3.20942,7.51493 -7.16843,7.51493c-3.95901,0 -7.16837,-3.3645 -7.16837,-7.51493z" data-paper-data="{&quot;index&quot;:null}"/><path d="M65.78015,86.37645c0,-4.15035 3.20942,-7.51493 7.16837,-7.51493c3.95901,0 7.16843,3.3645 7.16843,7.51493c0,4.15035 -3.20942,7.51493 -7.16843,7.51493c-3.95901,0 -7.16837,-3.3645 -7.16837,-7.51493z" data-paper-data="{&quot;index&quot;:null}"/><path d="M128.68381,75.18461c0,-4.15035 3.20942,-7.51488 7.16843,-7.51488c3.95901,0 7.16837,3.3645 7.16837,7.51488c0,4.15035 -3.20942,7.51493 -7.16837,7.51493c-3.95901,0 -7.16843,-3.3645 -7.16843,-7.51493z" data-paper-data="{&quot;index&quot;:null}"/><path d="M141.06913,87.91262c0,-4.15035 3.20942,-7.51488 7.16843,-7.51488c3.95901,0 7.16837,3.3645 7.16837,7.51488c0,4.15035 -3.20942,7.51493 -7.16837,7.51493c-3.95901,0 -7.16843,-3.3645 -7.16843,-7.51493z" data-paper-data="{&quot;index&quot;:null}"/><path d="M150.39144,103.1795c0,-4.15035 3.20942,-7.51488 7.16837,-7.51488c3.95901,0 7.16843,3.3645 7.16843,7.51488c0,4.15035 -3.20942,7.51493 -7.16843,7.51493c-3.95901,0 -7.16837,-3.36456 -7.16837,-7.51493z" data-paper-data="{&quot;index&quot;:null}"/><path d="M58.48586,101.56441c0,-4.15035 3.20942,-7.51488 7.16843,-7.51488c3.95901,0 7.16837,3.3645 7.16837,7.51488c0,4.15035 -3.20942,7.51493 -7.16837,7.51493c-3.95901,0 -7.16843,-3.3645 -7.16843,-7.51493z" data-paper-data="{&quot;index&quot;:null}"/></g></g></g></svg>