<svg version="1.1" xmlns="http://www.w3.org/2000/svg" xmlns:xlink="http://www.w3.org/1999/xlink" width="1478.17698" height="938.66627"><defs><linearGradient x1="348.36115" y1="-313.36403" x2="348.36115" y2="625.3022" gradientUnits="userSpaceOnUse" id="color-1"><stop offset="0" stop-color="#aaeaff"/><stop offset="1" stop-color="#00bfff"/></linearGradient></defs><g transform="translate(536.47193,313.36407)"><g data-paper-data="{&quot;isPaintingLayer&quot;:true}" fill="none" fill-rule="nonzero" stroke="none" stroke-width="none" stroke-linecap="butt" stroke-linejoin="miter" stroke-miterlimit="10" stroke-dasharray="" stroke-dashoffset="0" font-family="none" font-weight="none" font-size="none" text-anchor="none" style="mix-blend-mode: normal"><path d="M-244.98278,625.3022v-938.66627h1186.68784v938.66627z" data-paper-data="{&quot;origPos&quot;:null}" fill="url(#color-1)" stroke="none" stroke-width="0"/><path d="M-296.49489,453.78719v-207.95655h1039.67015v207.95655z" data-paper-data="{&quot;origPos&quot;:null}" fill="#2c6e3a" stroke="none" stroke-width="0"/><path d="M-536.47193,-18.88968l264.31917,-269.03915l271.53843,269.03915z" data-paper-data="{&quot;origPos&quot;:null}" fill="#594024" stroke="none" stroke-width="0"/><path d="M-265.07277,-280.84884l40.11987,-2.36l316.37829,217.11931c0,0 -89.14907,41.80427 -102.40408,33.81927c-39.76503,-23.95499 -254.09408,-248.57857 -254.09408,-248.57857z" data-paper-data="{&quot;origPos&quot;:null}" fill="#553d22" stroke="none" stroke-width="0"/><path d="M312.63763,-213.20142c0,20.54679 -27.33368,37.20324 -61.05146,37.20324c-33.71779,0 -61.05146,-16.65646 -61.05146,-37.20324c0,-20.54679 27.33368,-37.20324 61.05146,-37.20324c33.71779,0 61.05146,16.65644 61.05146,37.20324z" data-paper-data="{&quot;origPos&quot;:null}" fill="#dcdcdc" stroke="#000000" stroke-width="0"/><path d="M346.97908,-186.4914c0,20.54678 -27.33368,37.20324 -61.05146,37.20324c-33.71779,0 -61.05146,-16.65644 -61.05146,-37.20324c0,-20.54679 27.33368,-37.20324 61.05146,-37.20324c33.71779,0 61.05146,16.65644 61.05146,37.20324z" data-paper-data="{&quot;origPos&quot;:null}" fill="#dcdcdc" stroke="#000000" stroke-width="0"/><path d="M282.1119,-182.67569c0,20.54678 -27.33368,37.20324 -61.05146,37.20324c-33.71779,0 -61.05146,-16.65644 -61.05146,-37.20324c0,-20.54679 27.33368,-37.20324 61.05146,-37.20324c33.71779,0 61.05146,16.65644 61.05146,37.20324z" data-paper-data="{&quot;origPos&quot;:null}" fill="#dcdcdc" stroke="#000000" stroke-width="0"/><path d="M241.73076,240.97057l-1.83535,48.08627l-49.52168,-1.89014l23.11998,-40.80512z" data-paper-data="{&quot;origPos&quot;:null,&quot;origRot&quot;:0}" fill="#a5a5a5" stroke="#000000" stroke-width="1.5"/><path d="M249.8304,281.63284l25.64516,-13.43817l-1.80747,49.52476l-48.08926,-1.75508z" data-paper-data="{&quot;origPos&quot;:null,&quot;origRot&quot;:0}" fill="#a5a5a5" stroke="#000000" stroke-width="1.5"/><path d="M201.32857,333.37764v-48.12128h49.55774l-37.34786,42.37546z" data-paper-data="{&quot;origPos&quot;:null}" fill="#a5a5a5" stroke="#000000" stroke-width="1.5"/><path d="M284.64303,250.78141l5.0276,37.34786h-49.55774v-48.12128z" data-paper-data="{&quot;origPos&quot;:null,&quot;index&quot;:null}" fill="#a5a5a5" stroke="#000000" stroke-width="1.5"/><path d="M235.46584,218.42878l25.64516,-13.43817l-1.80747,49.52476l-48.08926,-1.75508z" data-paper-data="{&quot;origPos&quot;:null,&quot;origRot&quot;:0}" fill="#a5a5a5" stroke="#000000" stroke-width="1.5"/><path d="M302.59873,216.30646l5.0276,37.34786h-49.55774v-48.12128z" data-paper-data="{&quot;origPos&quot;:null,&quot;index&quot;:null}" fill="#a5a5a5" stroke="#000000" stroke-width="1.5"/><path d="M268.842,220.97494c0,-3.37166 2.73327,-6.10494 6.10494,-6.10494c3.37166,0 6.10494,2.73327 6.10494,6.10494c0,3.37166 -2.73327,6.10494 -6.10494,6.10494c-3.37166,0 -6.10494,-2.73327 -6.10494,-6.10494z" data-paper-data="{&quot;origPos&quot;:null}" fill="#000000" stroke="#000000" stroke-width="1.5"/><path d="M284.64303,223.12963c0,-3.37166 2.73327,-6.10494 6.10494,-6.10494c3.37166,0 6.10494,2.73327 6.10494,6.10494c0,3.37166 -2.73327,6.10494 -6.10494,6.10494c-3.37166,0 -6.10494,-2.73327 -6.10494,-6.10494z" data-paper-data="{&quot;origPos&quot;:null}" fill="#000000" stroke="#000000" stroke-width="1.5"/></g></g></svg>